%TF.GenerationSoftware,KiCad,Pcbnew,8.0.6*%
%TF.CreationDate,2025-02-09T15:22:34+01:00*%
%TF.ProjectId,BaseBoard,42617365-426f-4617-9264-2e6b69636164,rev?*%
%TF.SameCoordinates,Original*%
%TF.FileFunction,Soldermask,Bot*%
%TF.FilePolarity,Negative*%
%FSLAX46Y46*%
G04 Gerber Fmt 4.6, Leading zero omitted, Abs format (unit mm)*
G04 Created by KiCad (PCBNEW 8.0.6) date 2025-02-09 15:22:34*
%MOMM*%
%LPD*%
G01*
G04 APERTURE LIST*
G04 Aperture macros list*
%AMRoundRect*
0 Rectangle with rounded corners*
0 $1 Rounding radius*
0 $2 $3 $4 $5 $6 $7 $8 $9 X,Y pos of 4 corners*
0 Add a 4 corners polygon primitive as box body*
4,1,4,$2,$3,$4,$5,$6,$7,$8,$9,$2,$3,0*
0 Add four circle primitives for the rounded corners*
1,1,$1+$1,$2,$3*
1,1,$1+$1,$4,$5*
1,1,$1+$1,$6,$7*
1,1,$1+$1,$8,$9*
0 Add four rect primitives between the rounded corners*
20,1,$1+$1,$2,$3,$4,$5,0*
20,1,$1+$1,$4,$5,$6,$7,0*
20,1,$1+$1,$6,$7,$8,$9,0*
20,1,$1+$1,$8,$9,$2,$3,0*%
G04 Aperture macros list end*
%ADD10RoundRect,0.250000X0.600000X0.725000X-0.600000X0.725000X-0.600000X-0.725000X0.600000X-0.725000X0*%
%ADD11O,1.700000X1.950000*%
%ADD12C,5.600000*%
%ADD13R,1.500000X1.050000*%
%ADD14O,1.500000X1.050000*%
%ADD15R,2.600000X2.600000*%
%ADD16C,2.600000*%
%ADD17R,1.700000X1.700000*%
%ADD18O,1.700000X1.700000*%
%ADD19C,1.500000*%
%ADD20O,1.727200X1.727200*%
G04 APERTURE END LIST*
D10*
%TO.C,J3*%
X129550000Y-65050000D03*
D11*
X127050000Y-65050000D03*
X124550000Y-65050000D03*
X122050000Y-65050000D03*
%TD*%
D12*
%TO.C,H3*%
X184450000Y-125400000D03*
%TD*%
D13*
%TO.C,Q1*%
X124610000Y-119870000D03*
D14*
X124610000Y-118600000D03*
X124610000Y-117330000D03*
%TD*%
D15*
%TO.C,J1*%
X174250000Y-112280000D03*
D16*
X174250000Y-107200000D03*
%TD*%
D12*
%TO.C,H1*%
X107850000Y-65400000D03*
%TD*%
D17*
%TO.C,J4*%
X150580000Y-124550000D03*
D18*
X153120000Y-124550000D03*
X155660000Y-124550000D03*
X158200000Y-124550000D03*
X160740000Y-124550000D03*
X163280000Y-124550000D03*
X165820000Y-124550000D03*
X168360000Y-124550000D03*
X170900000Y-124550000D03*
X173440000Y-124550000D03*
%TD*%
D15*
%TO.C,J5*%
X174100000Y-95280000D03*
D16*
X174100000Y-90200000D03*
%TD*%
D13*
%TO.C,Q2*%
X124560000Y-127070000D03*
D14*
X124560000Y-125800000D03*
X124560000Y-124530000D03*
%TD*%
D12*
%TO.C,H2*%
X183700000Y-65550000D03*
%TD*%
D17*
%TO.C,J2*%
X107650000Y-117360000D03*
D18*
X107650000Y-119900000D03*
X107650000Y-122440000D03*
X107650000Y-124980000D03*
X107650000Y-127520000D03*
X107650000Y-130060000D03*
%TD*%
D19*
%TO.C,U1*%
X102560000Y-83400000D03*
X102560000Y-106260000D03*
D20*
X117800000Y-83400000D03*
X120340000Y-83400000D03*
X122880000Y-83400000D03*
X125420000Y-83400000D03*
X127960000Y-83400000D03*
X130500000Y-83400000D03*
X133040000Y-83400000D03*
X135580000Y-83400000D03*
X138120000Y-83400000D03*
X140660000Y-83400000D03*
X143200000Y-83400000D03*
X145740000Y-83400000D03*
X148280000Y-83400000D03*
X117800000Y-106260000D03*
X120340000Y-106260000D03*
X122880000Y-106260000D03*
X125420000Y-106260000D03*
X127960000Y-106260000D03*
X130500000Y-106260000D03*
X133040000Y-106260000D03*
X135580000Y-106260000D03*
X138120000Y-106260000D03*
X140660000Y-106260000D03*
X143200000Y-106260000D03*
X145740000Y-106260000D03*
X148280000Y-106260000D03*
X102560000Y-88480000D03*
X102560000Y-91020000D03*
X102560000Y-98640000D03*
X102560000Y-101180000D03*
%TD*%
M02*
