%TF.GenerationSoftware,KiCad,Pcbnew,8.0.6*%
%TF.CreationDate,2025-02-09T15:22:33+01:00*%
%TF.ProjectId,BaseBoard,42617365-426f-4617-9264-2e6b69636164,rev?*%
%TF.SameCoordinates,Original*%
%TF.FileFunction,Copper,L1,Top*%
%TF.FilePolarity,Positive*%
%FSLAX46Y46*%
G04 Gerber Fmt 4.6, Leading zero omitted, Abs format (unit mm)*
G04 Created by KiCad (PCBNEW 8.0.6) date 2025-02-09 15:22:33*
%MOMM*%
%LPD*%
G01*
G04 APERTURE LIST*
G04 Aperture macros list*
%AMRoundRect*
0 Rectangle with rounded corners*
0 $1 Rounding radius*
0 $2 $3 $4 $5 $6 $7 $8 $9 X,Y pos of 4 corners*
0 Add a 4 corners polygon primitive as box body*
4,1,4,$2,$3,$4,$5,$6,$7,$8,$9,$2,$3,0*
0 Add four circle primitives for the rounded corners*
1,1,$1+$1,$2,$3*
1,1,$1+$1,$4,$5*
1,1,$1+$1,$6,$7*
1,1,$1+$1,$8,$9*
0 Add four rect primitives between the rounded corners*
20,1,$1+$1,$2,$3,$4,$5,0*
20,1,$1+$1,$4,$5,$6,$7,0*
20,1,$1+$1,$6,$7,$8,$9,0*
20,1,$1+$1,$8,$9,$2,$3,0*%
%AMOutline5P*
0 Free polygon, 5 corners , with rotation*
0 The origin of the aperture is its center*
0 number of corners: always 5*
0 $1 to $10 corner X, Y*
0 $11 Rotation angle, in degrees counterclockwise*
0 create outline with 5 corners*
4,1,5,$1,$2,$3,$4,$5,$6,$7,$8,$9,$10,$1,$2,$11*%
%AMOutline6P*
0 Free polygon, 6 corners , with rotation*
0 The origin of the aperture is its center*
0 number of corners: always 6*
0 $1 to $12 corner X, Y*
0 $13 Rotation angle, in degrees counterclockwise*
0 create outline with 6 corners*
4,1,6,$1,$2,$3,$4,$5,$6,$7,$8,$9,$10,$11,$12,$1,$2,$13*%
%AMOutline7P*
0 Free polygon, 7 corners , with rotation*
0 The origin of the aperture is its center*
0 number of corners: always 7*
0 $1 to $14 corner X, Y*
0 $15 Rotation angle, in degrees counterclockwise*
0 create outline with 7 corners*
4,1,7,$1,$2,$3,$4,$5,$6,$7,$8,$9,$10,$11,$12,$13,$14,$1,$2,$15*%
%AMOutline8P*
0 Free polygon, 8 corners , with rotation*
0 The origin of the aperture is its center*
0 number of corners: always 8*
0 $1 to $16 corner X, Y*
0 $17 Rotation angle, in degrees counterclockwise*
0 create outline with 8 corners*
4,1,8,$1,$2,$3,$4,$5,$6,$7,$8,$9,$10,$11,$12,$13,$14,$15,$16,$1,$2,$17*%
G04 Aperture macros list end*
%TA.AperFunction,ComponentPad*%
%ADD10RoundRect,0.250000X0.600000X0.725000X-0.600000X0.725000X-0.600000X-0.725000X0.600000X-0.725000X0*%
%TD*%
%TA.AperFunction,ComponentPad*%
%ADD11O,1.700000X1.950000*%
%TD*%
%TA.AperFunction,SMDPad,CuDef*%
%ADD12RoundRect,0.237500X-0.237500X0.250000X-0.237500X-0.250000X0.237500X-0.250000X0.237500X0.250000X0*%
%TD*%
%TA.AperFunction,SMDPad,CuDef*%
%ADD13RoundRect,0.237500X0.237500X-0.250000X0.237500X0.250000X-0.237500X0.250000X-0.237500X-0.250000X0*%
%TD*%
%TA.AperFunction,SMDPad,CuDef*%
%ADD14RoundRect,0.150000X-0.512500X-0.150000X0.512500X-0.150000X0.512500X0.150000X-0.512500X0.150000X0*%
%TD*%
%TA.AperFunction,ComponentPad*%
%ADD15C,5.600000*%
%TD*%
%TA.AperFunction,SMDPad,CuDef*%
%ADD16RoundRect,0.237500X-0.300000X-0.237500X0.300000X-0.237500X0.300000X0.237500X-0.300000X0.237500X0*%
%TD*%
%TA.AperFunction,ComponentPad*%
%ADD17R,1.500000X1.050000*%
%TD*%
%TA.AperFunction,ComponentPad*%
%ADD18O,1.500000X1.050000*%
%TD*%
%TA.AperFunction,SMDPad,CuDef*%
%ADD19RoundRect,0.237500X0.300000X0.237500X-0.300000X0.237500X-0.300000X-0.237500X0.300000X-0.237500X0*%
%TD*%
%TA.AperFunction,ComponentPad*%
%ADD20R,2.600000X2.600000*%
%TD*%
%TA.AperFunction,ComponentPad*%
%ADD21C,2.600000*%
%TD*%
%TA.AperFunction,ComponentPad*%
%ADD22R,1.700000X1.700000*%
%TD*%
%TA.AperFunction,ComponentPad*%
%ADD23O,1.700000X1.700000*%
%TD*%
%TA.AperFunction,SMDPad,CuDef*%
%ADD24Outline6P,-2.900000X0.630000X-2.480000X1.050000X2.480000X1.050000X2.900000X0.630000X2.900000X-1.050000X-2.900000X-1.050000X0.000000*%
%TD*%
%TA.AperFunction,SMDPad,CuDef*%
%ADD25Outline6P,-2.900000X0.630000X-2.480000X1.050000X2.480000X1.050000X2.900000X0.630000X2.900000X-1.050000X-2.900000X-1.050000X180.000000*%
%TD*%
%TA.AperFunction,ComponentPad*%
%ADD26O,1.524000X1.524000*%
%TD*%
%TA.AperFunction,ViaPad*%
%ADD27C,0.600000*%
%TD*%
%TA.AperFunction,Conductor*%
%ADD28C,1.000000*%
%TD*%
%TA.AperFunction,Conductor*%
%ADD29C,0.200000*%
%TD*%
%TA.AperFunction,Conductor*%
%ADD30C,0.750000*%
%TD*%
G04 APERTURE END LIST*
D10*
%TO.P,J3,1,Pin_1*%
%TO.N,+5V*%
X129550000Y-65050000D03*
D11*
%TO.P,J3,2,Pin_2*%
%TO.N,Net-(J3-Pin_2)*%
X127050000Y-65050000D03*
%TO.P,J3,3,Pin_3*%
%TO.N,Net-(J3-Pin_3)*%
X124550000Y-65050000D03*
%TO.P,J3,4,Pin_4*%
%TO.N,GND*%
X122050000Y-65050000D03*
%TD*%
D12*
%TO.P,R3,1*%
%TO.N,Net-(J2-Pin_2)*%
X132600000Y-121500000D03*
%TO.P,R3,2*%
%TO.N,Net-(Q2-B)*%
X132600000Y-123325000D03*
%TD*%
D13*
%TO.P,R4,1*%
%TO.N,Net-(J2-Pin_6)*%
X136800000Y-123362500D03*
%TO.P,R4,2*%
%TO.N,Net-(Q1-B)*%
X136800000Y-121537500D03*
%TD*%
D14*
%TO.P,U2,1,GND*%
%TO.N,GND*%
X161212500Y-61337500D03*
%TO.P,U2,2,SW*%
%TO.N,Net-(U2-SW)*%
X161212500Y-62287500D03*
%TO.P,U2,3,VIN*%
%TO.N,+24V*%
X161212500Y-63237500D03*
%TO.P,U2,4,FB*%
%TO.N,Net-(U2-FB)*%
X163487500Y-63237500D03*
%TO.P,U2,5,EN*%
%TO.N,+24V*%
X163487500Y-62287500D03*
%TO.P,U2,6,CB*%
%TO.N,Net-(U2-CB)*%
X163487500Y-61337500D03*
%TD*%
D15*
%TO.P,H3,1,1*%
%TO.N,GND*%
X184450000Y-125400000D03*
%TD*%
D16*
%TO.P,C2,1*%
%TO.N,+24V*%
X167887500Y-62300000D03*
%TO.P,C2,2*%
%TO.N,GND*%
X169612500Y-62300000D03*
%TD*%
D17*
%TO.P,Q1,1,E*%
%TO.N,Net-(J2-Pin_2)*%
X124610000Y-119870000D03*
D18*
%TO.P,Q1,2,B*%
%TO.N,Net-(Q1-B)*%
X124610000Y-118600000D03*
%TO.P,Q1,3,C*%
%TO.N,Net-(Q1-C)*%
X124610000Y-117330000D03*
%TD*%
D16*
%TO.P,C3,1*%
%TO.N,+5V*%
X167637500Y-72400000D03*
%TO.P,C3,2*%
%TO.N,GND*%
X169362500Y-72400000D03*
%TD*%
D19*
%TO.P,C1,1*%
%TO.N,Net-(U2-CB)*%
X163312500Y-66900000D03*
%TO.P,C1,2*%
%TO.N,Net-(U2-SW)*%
X161587500Y-66900000D03*
%TD*%
%TO.P,C4,1*%
%TO.N,+5V*%
X145762500Y-77650000D03*
%TO.P,C4,2*%
%TO.N,GND*%
X144037500Y-77650000D03*
%TD*%
D20*
%TO.P,J1,1,Pin_1*%
%TO.N,+24V*%
X174250000Y-112280000D03*
D21*
%TO.P,J1,2,Pin_2*%
%TO.N,GND*%
X174250000Y-107200000D03*
%TD*%
D15*
%TO.P,H1,1,1*%
%TO.N,GND*%
X107850000Y-65400000D03*
%TD*%
D22*
%TO.P,J4,1,Pin_1*%
%TO.N,Net-(J4-Pin_1)*%
X150580000Y-124550000D03*
D23*
%TO.P,J4,2,Pin_2*%
%TO.N,Net-(J4-Pin_2)*%
X153120000Y-124550000D03*
%TO.P,J4,3,Pin_3*%
%TO.N,Net-(J4-Pin_3)*%
X155660000Y-124550000D03*
%TO.P,J4,4,Pin_4*%
%TO.N,Net-(J4-Pin_4)*%
X158200000Y-124550000D03*
%TO.P,J4,5,Pin_5*%
%TO.N,Net-(J4-Pin_5)*%
X160740000Y-124550000D03*
%TO.P,J4,6,Pin_6*%
%TO.N,Net-(J4-Pin_6)*%
X163280000Y-124550000D03*
%TO.P,J4,7,Pin_7*%
%TO.N,Net-(J4-Pin_7)*%
X165820000Y-124550000D03*
%TO.P,J4,8,Pin_8*%
%TO.N,Net-(J4-Pin_8)*%
X168360000Y-124550000D03*
%TO.P,J4,9,Pin_9*%
%TO.N,Net-(J4-Pin_9)*%
X170900000Y-124550000D03*
%TO.P,J4,10,Pin_10*%
%TO.N,Net-(J4-Pin_10)*%
X173440000Y-124550000D03*
%TD*%
D20*
%TO.P,J5,1,Pin_1*%
%TO.N,+5V*%
X174100000Y-95280000D03*
D21*
%TO.P,J5,2,Pin_2*%
%TO.N,GND*%
X174100000Y-90200000D03*
%TD*%
D24*
%TO.P,L1,1,1*%
%TO.N,Net-(U2-SW)*%
X154650000Y-67850000D03*
D25*
%TO.P,L1,2,2*%
%TO.N,+5V*%
X154650000Y-71750000D03*
%TD*%
D17*
%TO.P,Q2,1,E*%
%TO.N,Net-(Q2-E)*%
X124560000Y-127070000D03*
D18*
%TO.P,Q2,2,B*%
%TO.N,Net-(Q2-B)*%
X124560000Y-125800000D03*
%TO.P,Q2,3,C*%
%TO.N,Net-(J2-Pin_6)*%
X124560000Y-124530000D03*
%TD*%
D12*
%TO.P,R2,1*%
%TO.N,Net-(U2-FB)*%
X170500000Y-68137500D03*
%TO.P,R2,2*%
%TO.N,GND*%
X170500000Y-69962500D03*
%TD*%
D15*
%TO.P,H2,1,1*%
%TO.N,GND*%
X183700000Y-65550000D03*
%TD*%
D22*
%TO.P,J2,1,Pin_1*%
%TO.N,GND*%
X107650000Y-117360000D03*
D23*
%TO.P,J2,2,Pin_2*%
%TO.N,Net-(J2-Pin_2)*%
X107650000Y-119900000D03*
%TO.P,J2,3,Pin_3*%
%TO.N,+5V*%
X107650000Y-122440000D03*
%TO.P,J2,4,Pin_4*%
%TO.N,Net-(J2-Pin_4)*%
X107650000Y-124980000D03*
%TO.P,J2,5,Pin_5*%
%TO.N,Net-(J2-Pin_5)*%
X107650000Y-127520000D03*
%TO.P,J2,6,Pin_6*%
%TO.N,Net-(J2-Pin_6)*%
X107650000Y-130060000D03*
%TD*%
D13*
%TO.P,R1,1*%
%TO.N,+5V*%
X166850000Y-69962500D03*
%TO.P,R1,2*%
%TO.N,Net-(U2-FB)*%
X166850000Y-68137500D03*
%TD*%
D26*
%TO.P,U1,1,CLK_EN*%
%TO.N,Net-(Q1-C)*%
X117800000Y-83400000D03*
%TO.P,U1,2,GND*%
%TO.N,GND*%
X120340000Y-83400000D03*
%TO.P,U1,3,3.3V*%
%TO.N,+3.3V*%
X122880000Y-83400000D03*
%TO.P,U1,4,ESP32_EN*%
%TO.N,Net-(J4-Pin_2)*%
X125420000Y-83400000D03*
%TO.P,U1,5,IO32/ADC1_CH4/TCH9*%
%TO.N,Net-(J3-Pin_3)*%
X127960000Y-83400000D03*
%TO.P,U1,6,IO33/ADC1_CH5/TCH8*%
%TO.N,Net-(J3-Pin_2)*%
X130500000Y-83400000D03*
%TO.P,U1,7,IO5/BOOT_FLOAT*%
%TO.N,Net-(J4-Pin_1)*%
X133040000Y-83400000D03*
%TO.P,U1,8,IO17/UART2_TX*%
%TO.N,unconnected-(U1-IO17{slash}UART2_TX-Pad8)*%
X135580000Y-83400000D03*
%TO.P,U1,9,GND*%
%TO.N,GND*%
X138120000Y-83400000D03*
%TO.P,U1,10,3.3V*%
%TO.N,+3V3*%
X140660000Y-83400000D03*
%TO.P,U1,11,GND*%
%TO.N,GND*%
X143200000Y-83400000D03*
%TO.P,U1,12,5V*%
%TO.N,+5V*%
X145740000Y-83400000D03*
%TO.P,U1,13,LINK_LED*%
%TO.N,unconnected-(U1-LINK_LED-Pad13)*%
X148280000Y-83400000D03*
%TO.P,U1,14,GND*%
%TO.N,GND*%
X117800000Y-106260000D03*
%TO.P,U1,15,IO2/ADC2_CH2/TCH2/PRG_FLOAT_OR_GND*%
%TO.N,Net-(J4-Pin_3)*%
X120340000Y-106260000D03*
%TO.P,U1,16,IO4/ADC2_CH0/TCH0*%
%TO.N,Net-(J4-Pin_4)*%
X122880000Y-106260000D03*
%TO.P,U1,17,IO35/ADC1_CH7/INPUT_ONLY*%
%TO.N,Net-(J4-Pin_5)*%
X125420000Y-106260000D03*
%TO.P,U1,18,IO12/ADC2_CH5/TCH5/BOOT_FLOAT_OR_LOW*%
%TO.N,Net-(J4-Pin_6)*%
X127960000Y-106260000D03*
%TO.P,U1,19,IO14/ADC2_CH6/TCH6*%
%TO.N,Net-(J4-Pin_7)*%
X130500000Y-106260000D03*
%TO.P,U1,20,IO15/ADC2_CH3/TCH3*%
%TO.N,Net-(J4-Pin_8)*%
X133040000Y-106260000D03*
%TO.P,U1,21,IO36/ADC1_CH0/INPUT_ONLY*%
%TO.N,Net-(J4-Pin_9)*%
X135580000Y-106260000D03*
%TO.P,U1,22,IO39/ADC1_CH3/INPUT_ONLY*%
%TO.N,Net-(J4-Pin_10)*%
X138120000Y-106260000D03*
%TO.P,U1,23,GND*%
%TO.N,GND*%
X140660000Y-106260000D03*
%TO.P,U1,24,IO0/PRG_LOW/ETH_CLK*%
%TO.N,Net-(Q2-E)*%
X143200000Y-106260000D03*
%TO.P,U1,25,IO3/PRG_RX*%
%TO.N,Net-(J2-Pin_4)*%
X145740000Y-106260000D03*
%TO.P,U1,26,IO1/PRG_TX*%
%TO.N,Net-(J2-Pin_5)*%
X148280000Y-106260000D03*
%TO.P,U1,27*%
%TO.N,N/C*%
X102560000Y-88480000D03*
%TO.P,U1,28*%
X102560000Y-91020000D03*
%TO.P,U1,29*%
X102560000Y-98640000D03*
%TO.P,U1,30*%
X102560000Y-101180000D03*
%TD*%
D27*
%TO.N,Net-(U2-SW)*%
X155075000Y-63925000D03*
X154650000Y-65050000D03*
X154650000Y-66000000D03*
X158600000Y-65950000D03*
X158650000Y-62287500D03*
X157712500Y-62287500D03*
%TO.N,Net-(U2-CB)*%
X166150000Y-60800000D03*
X164150000Y-65400000D03*
%TO.N,GND*%
X165150000Y-59650000D03*
%TO.N,+24V*%
X165187500Y-62287500D03*
X161212500Y-64862500D03*
%TO.N,GND*%
X171450000Y-74500000D03*
%TO.N,Net-(J4-Pin_2)*%
X149800000Y-98300000D03*
%TD*%
D28*
%TO.N,Net-(U2-SW)*%
X155075000Y-63925000D02*
X156712500Y-62287500D01*
X154650000Y-65050000D02*
X154650000Y-64350000D01*
X154650000Y-66000000D02*
X154650000Y-65050000D01*
X156712500Y-62287500D02*
X157712500Y-62287500D01*
X154650000Y-67850000D02*
X154650000Y-66000000D01*
X154650000Y-64350000D02*
X155075000Y-63925000D01*
D29*
X158600000Y-65950000D02*
X159550000Y-66900000D01*
D30*
X158650000Y-62287500D02*
X157712500Y-62287500D01*
X159800000Y-62287500D02*
X158650000Y-62287500D01*
X161212500Y-62287500D02*
X159800000Y-62287500D01*
D29*
X159550000Y-66900000D02*
X161587500Y-66900000D01*
X158550000Y-65900000D02*
X158600000Y-65950000D01*
%TO.N,Net-(Q1-C)*%
X124171895Y-80650000D02*
X120550000Y-80650000D01*
X126482000Y-112418000D02*
X126482000Y-82960105D01*
X124610000Y-114290000D02*
X126482000Y-112418000D01*
X124610000Y-117330000D02*
X124610000Y-114290000D01*
X126482000Y-82960105D02*
X124171895Y-80650000D01*
X120550000Y-80650000D02*
X117800000Y-83400000D01*
%TO.N,Net-(U2-CB)*%
X165850000Y-60500000D02*
X166150000Y-60800000D01*
X165650000Y-60500000D02*
X165850000Y-60500000D01*
X165200000Y-60500000D02*
X165650000Y-60500000D01*
X164550000Y-61150000D02*
X165200000Y-60500000D01*
X164362500Y-61337500D02*
X164550000Y-61150000D01*
X163487500Y-61337500D02*
X164362500Y-61337500D01*
X163312500Y-66237500D02*
X164150000Y-65400000D01*
X163312500Y-66900000D02*
X163312500Y-66237500D01*
%TO.N,GND*%
X143200000Y-78487500D02*
X144037500Y-77650000D01*
X143200000Y-83400000D02*
X143200000Y-78487500D01*
%TO.N,+5V*%
X159500000Y-71750000D02*
X159000000Y-71750000D01*
X169450000Y-81700000D02*
X159500000Y-71750000D01*
X169450000Y-90630000D02*
X169450000Y-81700000D01*
X159000000Y-71750000D02*
X154650000Y-71750000D01*
X174100000Y-95280000D02*
X169450000Y-90630000D01*
X160000000Y-71750000D02*
X159000000Y-71750000D01*
%TO.N,GND*%
X165150000Y-59650000D02*
X168800000Y-59650000D01*
X161450000Y-59650000D02*
X165150000Y-59650000D01*
X169612500Y-60462500D02*
X169612500Y-62300000D01*
X161212500Y-59887500D02*
X161450000Y-59650000D01*
X168800000Y-59650000D02*
X169612500Y-60462500D01*
X161212500Y-61337500D02*
X161212500Y-59887500D01*
%TO.N,+5V*%
X150350000Y-71750000D02*
X148712500Y-70112500D01*
X154650000Y-71750000D02*
X150350000Y-71750000D01*
X148712500Y-70112500D02*
X145762500Y-70112500D01*
%TO.N,Net-(U2-SW)*%
X155600000Y-66900000D02*
X154650000Y-67850000D01*
%TO.N,+24V*%
X165300000Y-62300000D02*
X167887500Y-62300000D01*
X165287500Y-62287500D02*
X165300000Y-62300000D01*
X165187500Y-62287500D02*
X165287500Y-62287500D01*
X163487500Y-62287500D02*
X165187500Y-62287500D01*
X161212500Y-63237500D02*
X161212500Y-64862500D01*
%TO.N,Net-(U2-FB)*%
X166137500Y-68137500D02*
X166850000Y-68137500D01*
X165037500Y-63237500D02*
X165550000Y-63750000D01*
X165550000Y-63750000D02*
X165550000Y-67550000D01*
X163487500Y-63237500D02*
X165037500Y-63237500D01*
X165550000Y-67550000D02*
X166137500Y-68137500D01*
X170500000Y-68137500D02*
X166850000Y-68137500D01*
%TO.N,+5V*%
X164037500Y-69862500D02*
X166850000Y-69862500D01*
X154650000Y-71750000D02*
X162150000Y-71750000D01*
X162150000Y-71750000D02*
X164037500Y-69862500D01*
X166850000Y-70450000D02*
X167637500Y-71237500D01*
X167637500Y-71237500D02*
X167637500Y-72400000D01*
X166850000Y-69862500D02*
X166850000Y-70450000D01*
%TO.N,GND*%
X170500000Y-69962500D02*
X170500000Y-73550000D01*
X171125000Y-74175000D02*
X169362500Y-72412500D01*
X171450000Y-74500000D02*
X171125000Y-74175000D01*
X170500000Y-73550000D02*
X171125000Y-74175000D01*
X169362500Y-72412500D02*
X169362500Y-72400000D01*
%TO.N,+5V*%
X140700000Y-65050000D02*
X129550000Y-65050000D01*
X145762500Y-70112500D02*
X140700000Y-65050000D01*
X145762500Y-77650000D02*
X145762500Y-70112500D01*
X145740000Y-77672500D02*
X145762500Y-77650000D01*
X145740000Y-83400000D02*
X145740000Y-77672500D01*
%TO.N,Net-(J2-Pin_2)*%
X126950000Y-121500000D02*
X132600000Y-121500000D01*
X124610000Y-119870000D02*
X125320000Y-119870000D01*
X125320000Y-119870000D02*
X126950000Y-121500000D01*
%TO.N,Net-(J2-Pin_6)*%
X136420000Y-124530000D02*
X136800000Y-124150000D01*
X136800000Y-124150000D02*
X136800000Y-123362500D01*
X124560000Y-124530000D02*
X136420000Y-124530000D01*
%TO.N,Net-(J3-Pin_2)*%
X127050000Y-65050000D02*
X127050000Y-73484314D01*
X130500000Y-76934314D02*
X130500000Y-83400000D01*
X127050000Y-73484314D02*
X130500000Y-76934314D01*
%TO.N,Net-(J3-Pin_3)*%
X127960000Y-74960000D02*
X127960000Y-83400000D01*
X124550000Y-71550000D02*
X127960000Y-74960000D01*
X124550000Y-65050000D02*
X124550000Y-71550000D01*
%TO.N,Net-(Q1-B)*%
X135412500Y-120150000D02*
X136800000Y-121537500D01*
X124610000Y-118600000D02*
X126700000Y-118600000D01*
X128250000Y-120150000D02*
X135412500Y-120150000D01*
X126700000Y-118600000D02*
X128250000Y-120150000D01*
%TO.N,Net-(Q2-B)*%
X123950000Y-125800000D02*
X124560000Y-125800000D01*
X123510000Y-125360000D02*
X123950000Y-125800000D01*
X124373274Y-123325000D02*
X123510000Y-124188274D01*
X132600000Y-123325000D02*
X124373274Y-123325000D01*
X123510000Y-124188274D02*
X123510000Y-125360000D01*
%TO.N,Net-(Q2-E)*%
X136580000Y-127070000D02*
X139700000Y-123950000D01*
X139700000Y-111500000D02*
X143200000Y-108000000D01*
X124560000Y-127070000D02*
X136580000Y-127070000D01*
X143200000Y-108000000D02*
X143200000Y-106260000D01*
X139700000Y-123950000D02*
X139700000Y-111500000D01*
%TD*%
%TA.AperFunction,Conductor*%
%TO.N,+5V*%
G36*
X189442539Y-55520185D02*
G01*
X189488294Y-55572989D01*
X189499500Y-55624500D01*
X189499500Y-132875500D01*
X189479815Y-132942539D01*
X189427011Y-132988294D01*
X189375500Y-132999500D01*
X102023174Y-132999500D01*
X101956135Y-132979815D01*
X101910380Y-132927011D01*
X101899175Y-132875957D01*
X101879111Y-127428507D01*
X101851381Y-119899999D01*
X106294341Y-119899999D01*
X106294341Y-119900000D01*
X106314936Y-120135403D01*
X106314938Y-120135413D01*
X106376094Y-120363655D01*
X106376096Y-120363659D01*
X106376097Y-120363663D01*
X106467569Y-120559825D01*
X106475965Y-120577830D01*
X106475967Y-120577834D01*
X106564772Y-120704660D01*
X106604062Y-120760772D01*
X106611501Y-120771395D01*
X106611506Y-120771402D01*
X106778597Y-120938493D01*
X106778603Y-120938498D01*
X106964594Y-121068730D01*
X107008219Y-121123307D01*
X107015413Y-121192805D01*
X106983890Y-121255160D01*
X106964595Y-121271880D01*
X106778922Y-121401890D01*
X106778920Y-121401891D01*
X106611891Y-121568920D01*
X106611886Y-121568926D01*
X106476400Y-121762420D01*
X106476399Y-121762422D01*
X106376570Y-121976507D01*
X106376567Y-121976513D01*
X106319364Y-122189999D01*
X106319364Y-122190000D01*
X107216988Y-122190000D01*
X107184075Y-122247007D01*
X107150000Y-122374174D01*
X107150000Y-122505826D01*
X107184075Y-122632993D01*
X107216988Y-122690000D01*
X106319364Y-122690000D01*
X106376567Y-122903486D01*
X106376570Y-122903492D01*
X106476399Y-123117578D01*
X106611894Y-123311082D01*
X106778917Y-123478105D01*
X106964595Y-123608119D01*
X107008219Y-123662696D01*
X107015412Y-123732195D01*
X106983890Y-123794549D01*
X106964595Y-123811269D01*
X106778594Y-123941508D01*
X106611505Y-124108597D01*
X106475965Y-124302169D01*
X106475964Y-124302171D01*
X106376098Y-124516335D01*
X106376094Y-124516344D01*
X106314938Y-124744586D01*
X106314936Y-124744596D01*
X106294341Y-124979999D01*
X106294341Y-124980000D01*
X106314936Y-125215403D01*
X106314938Y-125215413D01*
X106376094Y-125443655D01*
X106376096Y-125443659D01*
X106376097Y-125443663D01*
X106443635Y-125588498D01*
X106475965Y-125657830D01*
X106475967Y-125657834D01*
X106611501Y-125851395D01*
X106611506Y-125851402D01*
X106778597Y-126018493D01*
X106778603Y-126018498D01*
X106964158Y-126148425D01*
X107007783Y-126203002D01*
X107014977Y-126272500D01*
X106983454Y-126334855D01*
X106964158Y-126351575D01*
X106778597Y-126481505D01*
X106611505Y-126648597D01*
X106475965Y-126842169D01*
X106475964Y-126842171D01*
X106376098Y-127056335D01*
X106376094Y-127056344D01*
X106314938Y-127284586D01*
X106314936Y-127284596D01*
X106294341Y-127519999D01*
X106294341Y-127520000D01*
X106314936Y-127755403D01*
X106314938Y-127755413D01*
X106376094Y-127983655D01*
X106376096Y-127983659D01*
X106376097Y-127983663D01*
X106425259Y-128089091D01*
X106475965Y-128197830D01*
X106475967Y-128197834D01*
X106611501Y-128391395D01*
X106611506Y-128391402D01*
X106778597Y-128558493D01*
X106778603Y-128558498D01*
X106964158Y-128688425D01*
X107007783Y-128743002D01*
X107014977Y-128812500D01*
X106983454Y-128874855D01*
X106964158Y-128891575D01*
X106778597Y-129021505D01*
X106611505Y-129188597D01*
X106475965Y-129382169D01*
X106475964Y-129382171D01*
X106376098Y-129596335D01*
X106376094Y-129596344D01*
X106314938Y-129824586D01*
X106314936Y-129824596D01*
X106294341Y-130059999D01*
X106294341Y-130060000D01*
X106314936Y-130295403D01*
X106314938Y-130295413D01*
X106376094Y-130523655D01*
X106376096Y-130523659D01*
X106376097Y-130523663D01*
X106475965Y-130737830D01*
X106475967Y-130737834D01*
X106584281Y-130892521D01*
X106611505Y-130931401D01*
X106778599Y-131098495D01*
X106875384Y-131166265D01*
X106972165Y-131234032D01*
X106972167Y-131234033D01*
X106972170Y-131234035D01*
X107186337Y-131333903D01*
X107414592Y-131395063D01*
X107602918Y-131411539D01*
X107649999Y-131415659D01*
X107650000Y-131415659D01*
X107650001Y-131415659D01*
X107689234Y-131412226D01*
X107885408Y-131395063D01*
X108113663Y-131333903D01*
X108327830Y-131234035D01*
X108521401Y-131098495D01*
X108688495Y-130931401D01*
X108824035Y-130737830D01*
X108923903Y-130523663D01*
X108985063Y-130295408D01*
X109005659Y-130060000D01*
X108985063Y-129824592D01*
X108923903Y-129596337D01*
X108824035Y-129382171D01*
X108688495Y-129188599D01*
X108688494Y-129188597D01*
X108521402Y-129021506D01*
X108521396Y-129021501D01*
X108335842Y-128891575D01*
X108292217Y-128836998D01*
X108285023Y-128767500D01*
X108316546Y-128705145D01*
X108335842Y-128688425D01*
X108483736Y-128584868D01*
X108521401Y-128558495D01*
X108688495Y-128391401D01*
X108824035Y-128197830D01*
X108923903Y-127983663D01*
X108985063Y-127755408D01*
X109005659Y-127520000D01*
X108985063Y-127284592D01*
X108923903Y-127056337D01*
X108824035Y-126842171D01*
X108786021Y-126787880D01*
X108688494Y-126648597D01*
X108521402Y-126481506D01*
X108521396Y-126481501D01*
X108335842Y-126351575D01*
X108292217Y-126296998D01*
X108285023Y-126227500D01*
X108316546Y-126165145D01*
X108335842Y-126148425D01*
X108358026Y-126132891D01*
X108521401Y-126018495D01*
X108688495Y-125851401D01*
X108824035Y-125657830D01*
X108923903Y-125443663D01*
X108985063Y-125215408D01*
X109005659Y-124980000D01*
X108985063Y-124744592D01*
X108924541Y-124518717D01*
X108923905Y-124516344D01*
X108923904Y-124516343D01*
X108923903Y-124516337D01*
X108824035Y-124302171D01*
X108806644Y-124277333D01*
X108688494Y-124108597D01*
X108521402Y-123941506D01*
X108521401Y-123941505D01*
X108335405Y-123811269D01*
X108291781Y-123756692D01*
X108284588Y-123687193D01*
X108316110Y-123624839D01*
X108335405Y-123608119D01*
X108521082Y-123478105D01*
X108688105Y-123311082D01*
X108823600Y-123117578D01*
X108923429Y-122903492D01*
X108923432Y-122903486D01*
X108980636Y-122690000D01*
X108083012Y-122690000D01*
X108115925Y-122632993D01*
X108150000Y-122505826D01*
X108150000Y-122374174D01*
X108115925Y-122247007D01*
X108083012Y-122190000D01*
X108980636Y-122190000D01*
X108980635Y-122189999D01*
X108923432Y-121976513D01*
X108923429Y-121976507D01*
X108823600Y-121762422D01*
X108823599Y-121762420D01*
X108688113Y-121568926D01*
X108688108Y-121568920D01*
X108521078Y-121401890D01*
X108335405Y-121271879D01*
X108291780Y-121217302D01*
X108284588Y-121147804D01*
X108316110Y-121085449D01*
X108335406Y-121068730D01*
X108521401Y-120938495D01*
X108688495Y-120771401D01*
X108824035Y-120577830D01*
X108923903Y-120363663D01*
X108985063Y-120135408D01*
X109005659Y-119900000D01*
X108985063Y-119664592D01*
X108923903Y-119436337D01*
X108824035Y-119222171D01*
X108822644Y-119220185D01*
X108688496Y-119028600D01*
X108639696Y-118979800D01*
X108566567Y-118906671D01*
X108533084Y-118845351D01*
X108538068Y-118775659D01*
X108579939Y-118719725D01*
X108610915Y-118702810D01*
X108742331Y-118653796D01*
X108857546Y-118567546D01*
X108943796Y-118452331D01*
X108994091Y-118317483D01*
X109000500Y-118257873D01*
X109000499Y-116462128D01*
X108994091Y-116402517D01*
X108943796Y-116267669D01*
X108943795Y-116267668D01*
X108943793Y-116267664D01*
X108857547Y-116152455D01*
X108857544Y-116152452D01*
X108742335Y-116066206D01*
X108742328Y-116066202D01*
X108607482Y-116015908D01*
X108607483Y-116015908D01*
X108547883Y-116009501D01*
X108547881Y-116009500D01*
X108547873Y-116009500D01*
X108547864Y-116009500D01*
X106752129Y-116009500D01*
X106752123Y-116009501D01*
X106692516Y-116015908D01*
X106557671Y-116066202D01*
X106557664Y-116066206D01*
X106442455Y-116152452D01*
X106442452Y-116152455D01*
X106356206Y-116267664D01*
X106356202Y-116267671D01*
X106305908Y-116402517D01*
X106303898Y-116421217D01*
X106299501Y-116462123D01*
X106299500Y-116462135D01*
X106299500Y-118257870D01*
X106299501Y-118257876D01*
X106305908Y-118317483D01*
X106356202Y-118452328D01*
X106356206Y-118452335D01*
X106442452Y-118567544D01*
X106442455Y-118567547D01*
X106557664Y-118653793D01*
X106557671Y-118653797D01*
X106689081Y-118702810D01*
X106745015Y-118744681D01*
X106769432Y-118810145D01*
X106754580Y-118878418D01*
X106733430Y-118906673D01*
X106611503Y-119028600D01*
X106475965Y-119222169D01*
X106475964Y-119222171D01*
X106376098Y-119436335D01*
X106376094Y-119436344D01*
X106314938Y-119664586D01*
X106314936Y-119664596D01*
X106294341Y-119899999D01*
X101851381Y-119899999D01*
X101804570Y-107190970D01*
X101824007Y-107123861D01*
X101876642Y-107077912D01*
X101945764Y-107067714D01*
X101997460Y-107087414D01*
X102086079Y-107146628D01*
X102086092Y-107146635D01*
X102214938Y-107200004D01*
X102268165Y-107222051D01*
X102268169Y-107222051D01*
X102268170Y-107222052D01*
X102461456Y-107260500D01*
X102461459Y-107260500D01*
X102658543Y-107260500D01*
X102788582Y-107234632D01*
X102851835Y-107222051D01*
X103033914Y-107146632D01*
X103197782Y-107037139D01*
X103337139Y-106897782D01*
X103446632Y-106733914D01*
X103522051Y-106551835D01*
X103548951Y-106416602D01*
X103560500Y-106358543D01*
X103560500Y-106161456D01*
X103541108Y-106063971D01*
X103547335Y-105994380D01*
X103590197Y-105939202D01*
X103656087Y-105915957D01*
X103660410Y-105915801D01*
X115400000Y-105700000D01*
X120050000Y-103450000D01*
X120050000Y-86200000D01*
X120050000Y-86199999D01*
X117824723Y-84891013D01*
X117776919Y-84840056D01*
X117764254Y-84771343D01*
X117790748Y-84706692D01*
X117847990Y-84666627D01*
X117876783Y-84660605D01*
X118020068Y-84648070D01*
X118233450Y-84590894D01*
X118433662Y-84497534D01*
X118614620Y-84370826D01*
X118770826Y-84214620D01*
X118897534Y-84033662D01*
X118957618Y-83904811D01*
X119003790Y-83852371D01*
X119070983Y-83833219D01*
X119137865Y-83853435D01*
X119182382Y-83904811D01*
X119242464Y-84033658D01*
X119242468Y-84033666D01*
X119369170Y-84214615D01*
X119369175Y-84214621D01*
X119525378Y-84370824D01*
X119525384Y-84370829D01*
X119706333Y-84497531D01*
X119706335Y-84497532D01*
X119706338Y-84497534D01*
X119906550Y-84590894D01*
X120119932Y-84648070D01*
X120277123Y-84661822D01*
X120339998Y-84667323D01*
X120340000Y-84667323D01*
X120340002Y-84667323D01*
X120395017Y-84662509D01*
X120560068Y-84648070D01*
X120773450Y-84590894D01*
X120973662Y-84497534D01*
X121154620Y-84370826D01*
X121310826Y-84214620D01*
X121437534Y-84033662D01*
X121497618Y-83904811D01*
X121543790Y-83852371D01*
X121610983Y-83833219D01*
X121677865Y-83853435D01*
X121722382Y-83904811D01*
X121782464Y-84033658D01*
X121782468Y-84033666D01*
X121909170Y-84214615D01*
X121909175Y-84214621D01*
X122065378Y-84370824D01*
X122065384Y-84370829D01*
X122246333Y-84497531D01*
X122246335Y-84497532D01*
X122246338Y-84497534D01*
X122446550Y-84590894D01*
X122659932Y-84648070D01*
X122817123Y-84661822D01*
X122879998Y-84667323D01*
X122880000Y-84667323D01*
X122880002Y-84667323D01*
X122935017Y-84662509D01*
X123100068Y-84648070D01*
X123313450Y-84590894D01*
X123513662Y-84497534D01*
X123694620Y-84370826D01*
X123850826Y-84214620D01*
X123977534Y-84033662D01*
X124037618Y-83904811D01*
X124083790Y-83852371D01*
X124150983Y-83833219D01*
X124217865Y-83853435D01*
X124262382Y-83904811D01*
X124322464Y-84033658D01*
X124322468Y-84033666D01*
X124449170Y-84214615D01*
X124449175Y-84214621D01*
X124605378Y-84370824D01*
X124605384Y-84370829D01*
X124786333Y-84497531D01*
X124786335Y-84497532D01*
X124786338Y-84497534D01*
X124986550Y-84590894D01*
X125199932Y-84648070D01*
X125357123Y-84661822D01*
X125419998Y-84667323D01*
X125420000Y-84667323D01*
X125420002Y-84667323D01*
X125475017Y-84662509D01*
X125640068Y-84648070D01*
X125725407Y-84625203D01*
X125795255Y-84626864D01*
X125853118Y-84666026D01*
X125880623Y-84730254D01*
X125881500Y-84744977D01*
X125881500Y-104915021D01*
X125861815Y-104982060D01*
X125809011Y-105027815D01*
X125739853Y-105037759D01*
X125725407Y-105034796D01*
X125640073Y-105011931D01*
X125640069Y-105011930D01*
X125640068Y-105011930D01*
X125640067Y-105011929D01*
X125640062Y-105011929D01*
X125420002Y-104992677D01*
X125419998Y-104992677D01*
X125199937Y-105011929D01*
X125199929Y-105011930D01*
X124986554Y-105069104D01*
X124986548Y-105069107D01*
X124786340Y-105162465D01*
X124786338Y-105162466D01*
X124605377Y-105289175D01*
X124449175Y-105445377D01*
X124322466Y-105626338D01*
X124322465Y-105626340D01*
X124262382Y-105755189D01*
X124216209Y-105807628D01*
X124149016Y-105826780D01*
X124082135Y-105806564D01*
X124037618Y-105755189D01*
X124011883Y-105700000D01*
X123977534Y-105626339D01*
X123850826Y-105445380D01*
X123694620Y-105289174D01*
X123694616Y-105289171D01*
X123694615Y-105289170D01*
X123513666Y-105162468D01*
X123513662Y-105162466D01*
X123368984Y-105095002D01*
X123313450Y-105069106D01*
X123313447Y-105069105D01*
X123313445Y-105069104D01*
X123100070Y-105011930D01*
X123100062Y-105011929D01*
X122880002Y-104992677D01*
X122879998Y-104992677D01*
X122659937Y-105011929D01*
X122659929Y-105011930D01*
X122446554Y-105069104D01*
X122446548Y-105069107D01*
X122246340Y-105162465D01*
X122246338Y-105162466D01*
X122065377Y-105289175D01*
X121909175Y-105445377D01*
X121782466Y-105626338D01*
X121782465Y-105626340D01*
X121722382Y-105755189D01*
X121676209Y-105807628D01*
X121609016Y-105826780D01*
X121542135Y-105806564D01*
X121497618Y-105755189D01*
X121471883Y-105700000D01*
X121437534Y-105626339D01*
X121310826Y-105445380D01*
X121154620Y-105289174D01*
X121154616Y-105289171D01*
X121154615Y-105289170D01*
X120973666Y-105162468D01*
X120973662Y-105162466D01*
X120828984Y-105095002D01*
X120773450Y-105069106D01*
X120773447Y-105069105D01*
X120773445Y-105069104D01*
X120560070Y-105011930D01*
X120560062Y-105011929D01*
X120340002Y-104992677D01*
X120339998Y-104992677D01*
X120119937Y-105011929D01*
X120119929Y-105011930D01*
X119906554Y-105069104D01*
X119906548Y-105069107D01*
X119706340Y-105162465D01*
X119706338Y-105162466D01*
X119525377Y-105289175D01*
X119369175Y-105445377D01*
X119242466Y-105626338D01*
X119242465Y-105626340D01*
X119182382Y-105755189D01*
X119136209Y-105807628D01*
X119069016Y-105826780D01*
X119002135Y-105806564D01*
X118957618Y-105755189D01*
X118931883Y-105700000D01*
X118897534Y-105626339D01*
X118770826Y-105445380D01*
X118614620Y-105289174D01*
X118614616Y-105289171D01*
X118614615Y-105289170D01*
X118433666Y-105162468D01*
X118433662Y-105162466D01*
X118288984Y-105095002D01*
X118233450Y-105069106D01*
X118233447Y-105069105D01*
X118233445Y-105069104D01*
X118020070Y-105011930D01*
X118020062Y-105011929D01*
X117800002Y-104992677D01*
X117799998Y-104992677D01*
X117579937Y-105011929D01*
X117579929Y-105011930D01*
X117366554Y-105069104D01*
X117366548Y-105069107D01*
X117166340Y-105162465D01*
X117166338Y-105162466D01*
X116985377Y-105289175D01*
X116829175Y-105445377D01*
X116702466Y-105626338D01*
X116702465Y-105626340D01*
X116609107Y-105826548D01*
X116609104Y-105826554D01*
X116551930Y-106039929D01*
X116551929Y-106039937D01*
X116532677Y-106259997D01*
X116532677Y-106260002D01*
X116551929Y-106480062D01*
X116551930Y-106480070D01*
X116609104Y-106693445D01*
X116609105Y-106693447D01*
X116609106Y-106693450D01*
X116642382Y-106764811D01*
X116702466Y-106893662D01*
X116702468Y-106893666D01*
X116829170Y-107074615D01*
X116829175Y-107074621D01*
X116985378Y-107230824D01*
X116985384Y-107230829D01*
X117166333Y-107357531D01*
X117166335Y-107357532D01*
X117166338Y-107357534D01*
X117366550Y-107450894D01*
X117579932Y-107508070D01*
X117737123Y-107521822D01*
X117799998Y-107527323D01*
X117800000Y-107527323D01*
X117800002Y-107527323D01*
X117855017Y-107522509D01*
X118020068Y-107508070D01*
X118233450Y-107450894D01*
X118433662Y-107357534D01*
X118614620Y-107230826D01*
X118770826Y-107074620D01*
X118897534Y-106893662D01*
X118957618Y-106764811D01*
X119003790Y-106712371D01*
X119070983Y-106693219D01*
X119137865Y-106713435D01*
X119182382Y-106764811D01*
X119242464Y-106893658D01*
X119242468Y-106893666D01*
X119369170Y-107074615D01*
X119369175Y-107074621D01*
X119525378Y-107230824D01*
X119525384Y-107230829D01*
X119706333Y-107357531D01*
X119706335Y-107357532D01*
X119706338Y-107357534D01*
X119906550Y-107450894D01*
X120119932Y-107508070D01*
X120277123Y-107521822D01*
X120339998Y-107527323D01*
X120340000Y-107527323D01*
X120340002Y-107527323D01*
X120395017Y-107522509D01*
X120560068Y-107508070D01*
X120773450Y-107450894D01*
X120973662Y-107357534D01*
X121154620Y-107230826D01*
X121310826Y-107074620D01*
X121437534Y-106893662D01*
X121497618Y-106764811D01*
X121543790Y-106712371D01*
X121610983Y-106693219D01*
X121677865Y-106713435D01*
X121722382Y-106764811D01*
X121782464Y-106893658D01*
X121782468Y-106893666D01*
X121909170Y-107074615D01*
X121909175Y-107074621D01*
X122065378Y-107230824D01*
X122065384Y-107230829D01*
X122246333Y-107357531D01*
X122246335Y-107357532D01*
X122246338Y-107357534D01*
X122446550Y-107450894D01*
X122659932Y-107508070D01*
X122817123Y-107521822D01*
X122879998Y-107527323D01*
X122880000Y-107527323D01*
X122880002Y-107527323D01*
X122935017Y-107522509D01*
X123100068Y-107508070D01*
X123313450Y-107450894D01*
X123513662Y-107357534D01*
X123694620Y-107230826D01*
X123850826Y-107074620D01*
X123977534Y-106893662D01*
X124037618Y-106764811D01*
X124083790Y-106712371D01*
X124150983Y-106693219D01*
X124217865Y-106713435D01*
X124262382Y-106764811D01*
X124322464Y-106893658D01*
X124322468Y-106893666D01*
X124449170Y-107074615D01*
X124449175Y-107074621D01*
X124605378Y-107230824D01*
X124605384Y-107230829D01*
X124786333Y-107357531D01*
X124786335Y-107357532D01*
X124786338Y-107357534D01*
X124986550Y-107450894D01*
X125199932Y-107508070D01*
X125357123Y-107521822D01*
X125419998Y-107527323D01*
X125420000Y-107527323D01*
X125420002Y-107527323D01*
X125475017Y-107522509D01*
X125640068Y-107508070D01*
X125725407Y-107485203D01*
X125795255Y-107486864D01*
X125853118Y-107526026D01*
X125880623Y-107590254D01*
X125881500Y-107604977D01*
X125881500Y-112117902D01*
X125861815Y-112184941D01*
X125845181Y-112205583D01*
X124129481Y-113921282D01*
X124129479Y-113921285D01*
X124079361Y-114008094D01*
X124079359Y-114008096D01*
X124050425Y-114058209D01*
X124050424Y-114058210D01*
X124034544Y-114117472D01*
X124009499Y-114210943D01*
X124009499Y-114210945D01*
X124009499Y-114379046D01*
X124009500Y-114379059D01*
X124009500Y-116292689D01*
X123989815Y-116359728D01*
X123937011Y-116405483D01*
X123932955Y-116407249D01*
X123899249Y-116421211D01*
X123899237Y-116421217D01*
X123731281Y-116533441D01*
X123588441Y-116676281D01*
X123476217Y-116844237D01*
X123476212Y-116844247D01*
X123398909Y-117030872D01*
X123398907Y-117030880D01*
X123359500Y-117228992D01*
X123359500Y-117431007D01*
X123398907Y-117629119D01*
X123398909Y-117629127D01*
X123476213Y-117815755D01*
X123529904Y-117896109D01*
X123550782Y-117962787D01*
X123532297Y-118030167D01*
X123529904Y-118033891D01*
X123476213Y-118114244D01*
X123398909Y-118300872D01*
X123398907Y-118300880D01*
X123359500Y-118498992D01*
X123359500Y-118701007D01*
X123398907Y-118899119D01*
X123398909Y-118899127D01*
X123432325Y-118979800D01*
X123439794Y-119049270D01*
X123420038Y-119094660D01*
X123420454Y-119094887D01*
X123417919Y-119099528D01*
X123417037Y-119101556D01*
X123416206Y-119102665D01*
X123416202Y-119102672D01*
X123365908Y-119237517D01*
X123359501Y-119297116D01*
X123359500Y-119297135D01*
X123359500Y-120442870D01*
X123359501Y-120442876D01*
X123365908Y-120502483D01*
X123416202Y-120637328D01*
X123416206Y-120637335D01*
X123502452Y-120752544D01*
X123502455Y-120752547D01*
X123617664Y-120838793D01*
X123617671Y-120838797D01*
X123752517Y-120889091D01*
X123752516Y-120889091D01*
X123759444Y-120889835D01*
X123812127Y-120895500D01*
X125407872Y-120895499D01*
X125428699Y-120893260D01*
X125497458Y-120905666D01*
X125529634Y-120928869D01*
X126465139Y-121864374D01*
X126465149Y-121864385D01*
X126469479Y-121868715D01*
X126469480Y-121868716D01*
X126581284Y-121980520D01*
X126646235Y-122018019D01*
X126718215Y-122059577D01*
X126870943Y-122100500D01*
X127029057Y-122100500D01*
X131642389Y-122100500D01*
X131709428Y-122120185D01*
X131747928Y-122159404D01*
X131779659Y-122210849D01*
X131893629Y-122324819D01*
X131927114Y-122386142D01*
X131922130Y-122455834D01*
X131893629Y-122500181D01*
X131779660Y-122614149D01*
X131779659Y-122614150D01*
X131747928Y-122665596D01*
X131695980Y-122712321D01*
X131642389Y-122724500D01*
X124459944Y-122724500D01*
X124459928Y-122724499D01*
X124452332Y-122724499D01*
X124294217Y-122724499D01*
X124141489Y-122765423D01*
X124012147Y-122840099D01*
X124004555Y-122844482D01*
X123029479Y-123819558D01*
X123007857Y-123857011D01*
X122996731Y-123876282D01*
X122950423Y-123956489D01*
X122909499Y-124109217D01*
X122909499Y-124109219D01*
X122909499Y-124277320D01*
X122909500Y-124277333D01*
X122909500Y-125273330D01*
X122909499Y-125273348D01*
X122909499Y-125439054D01*
X122909498Y-125439054D01*
X122926063Y-125500873D01*
X122950423Y-125591785D01*
X122965433Y-125617782D01*
X122988557Y-125657834D01*
X123029479Y-125728715D01*
X123148349Y-125847585D01*
X123148355Y-125847590D01*
X123309651Y-126008886D01*
X123343136Y-126070209D01*
X123343587Y-126072375D01*
X123348907Y-126099121D01*
X123348908Y-126099125D01*
X123382325Y-126179800D01*
X123389794Y-126249270D01*
X123370038Y-126294660D01*
X123370454Y-126294887D01*
X123367919Y-126299528D01*
X123367037Y-126301556D01*
X123366206Y-126302665D01*
X123366202Y-126302672D01*
X123315908Y-126437517D01*
X123309501Y-126497116D01*
X123309500Y-126497135D01*
X123309500Y-127642870D01*
X123309501Y-127642876D01*
X123315908Y-127702483D01*
X123366202Y-127837328D01*
X123366206Y-127837335D01*
X123452452Y-127952544D01*
X123452455Y-127952547D01*
X123567664Y-128038793D01*
X123567671Y-128038797D01*
X123702517Y-128089091D01*
X123702516Y-128089091D01*
X123709444Y-128089835D01*
X123762127Y-128095500D01*
X125357872Y-128095499D01*
X125417483Y-128089091D01*
X125552331Y-128038796D01*
X125667546Y-127952546D01*
X125753796Y-127837331D01*
X125766559Y-127803111D01*
X125785934Y-127751166D01*
X125827806Y-127695233D01*
X125893270Y-127670816D01*
X125902116Y-127670500D01*
X136493331Y-127670500D01*
X136493347Y-127670501D01*
X136500943Y-127670501D01*
X136659054Y-127670501D01*
X136659057Y-127670501D01*
X136811785Y-127629577D01*
X136861904Y-127600639D01*
X136948716Y-127550520D01*
X137060520Y-127438716D01*
X137060520Y-127438714D01*
X137070728Y-127428507D01*
X137070730Y-127428504D01*
X140058506Y-124440728D01*
X140058511Y-124440724D01*
X140068714Y-124430520D01*
X140068716Y-124430520D01*
X140180520Y-124318716D01*
X140232284Y-124229057D01*
X140259577Y-124181785D01*
X140300500Y-124029058D01*
X140300500Y-123870943D01*
X140300500Y-123652135D01*
X149229500Y-123652135D01*
X149229500Y-125447870D01*
X149229501Y-125447876D01*
X149235908Y-125507483D01*
X149286202Y-125642328D01*
X149286206Y-125642335D01*
X149372452Y-125757544D01*
X149372455Y-125757547D01*
X149487664Y-125843793D01*
X149487671Y-125843797D01*
X149622517Y-125894091D01*
X149622516Y-125894091D01*
X149629444Y-125894835D01*
X149682127Y-125900500D01*
X151477872Y-125900499D01*
X151537483Y-125894091D01*
X151672331Y-125843796D01*
X151787546Y-125757546D01*
X151873796Y-125642331D01*
X151922810Y-125510916D01*
X151964681Y-125454984D01*
X152030145Y-125430566D01*
X152098418Y-125445417D01*
X152126673Y-125466569D01*
X152248599Y-125588495D01*
X152345384Y-125656265D01*
X152442165Y-125724032D01*
X152442167Y-125724033D01*
X152442170Y-125724035D01*
X152656337Y-125823903D01*
X152884592Y-125885063D01*
X153061034Y-125900500D01*
X153119999Y-125905659D01*
X153120000Y-125905659D01*
X153120001Y-125905659D01*
X153173171Y-125901007D01*
X153355408Y-125885063D01*
X153583663Y-125823903D01*
X153797830Y-125724035D01*
X153991401Y-125588495D01*
X154158495Y-125421401D01*
X154288425Y-125235842D01*
X154343002Y-125192217D01*
X154412500Y-125185023D01*
X154474855Y-125216546D01*
X154491575Y-125235842D01*
X154621500Y-125421395D01*
X154621505Y-125421401D01*
X154788599Y-125588495D01*
X154885384Y-125656265D01*
X154982165Y-125724032D01*
X154982167Y-125724033D01*
X154982170Y-125724035D01*
X155196337Y-125823903D01*
X155424592Y-125885063D01*
X155601034Y-125900500D01*
X155659999Y-125905659D01*
X155660000Y-125905659D01*
X155660001Y-125905659D01*
X155713171Y-125901007D01*
X155895408Y-125885063D01*
X156123663Y-125823903D01*
X156337830Y-125724035D01*
X156531401Y-125588495D01*
X156698495Y-125421401D01*
X156828425Y-125235842D01*
X156883002Y-125192217D01*
X156952500Y-125185023D01*
X157014855Y-125216546D01*
X157031575Y-125235842D01*
X157161500Y-125421395D01*
X157161505Y-125421401D01*
X157328599Y-125588495D01*
X157425384Y-125656265D01*
X157522165Y-125724032D01*
X157522167Y-125724033D01*
X157522170Y-125724035D01*
X157736337Y-125823903D01*
X157964592Y-125885063D01*
X158141034Y-125900500D01*
X158199999Y-125905659D01*
X158200000Y-125905659D01*
X158200001Y-125905659D01*
X158253171Y-125901007D01*
X158435408Y-125885063D01*
X158663663Y-125823903D01*
X158877830Y-125724035D01*
X159071401Y-125588495D01*
X159238495Y-125421401D01*
X159368425Y-125235842D01*
X159423002Y-125192217D01*
X159492500Y-125185023D01*
X159554855Y-125216546D01*
X159571575Y-125235842D01*
X159701500Y-125421395D01*
X159701505Y-125421401D01*
X159868599Y-125588495D01*
X159965384Y-125656265D01*
X160062165Y-125724032D01*
X160062167Y-125724033D01*
X160062170Y-125724035D01*
X160276337Y-125823903D01*
X160504592Y-125885063D01*
X160681034Y-125900500D01*
X160739999Y-125905659D01*
X160740000Y-125905659D01*
X160740001Y-125905659D01*
X160793171Y-125901007D01*
X160975408Y-125885063D01*
X161203663Y-125823903D01*
X161417830Y-125724035D01*
X161611401Y-125588495D01*
X161778495Y-125421401D01*
X161908425Y-125235842D01*
X161963002Y-125192217D01*
X162032500Y-125185023D01*
X162094855Y-125216546D01*
X162111575Y-125235842D01*
X162241500Y-125421395D01*
X162241505Y-125421401D01*
X162408599Y-125588495D01*
X162505384Y-125656265D01*
X162602165Y-125724032D01*
X162602167Y-125724033D01*
X162602170Y-125724035D01*
X162816337Y-125823903D01*
X163044592Y-125885063D01*
X163221034Y-125900500D01*
X163279999Y-125905659D01*
X163280000Y-125905659D01*
X163280001Y-125905659D01*
X163333171Y-125901007D01*
X163515408Y-125885063D01*
X163743663Y-125823903D01*
X163957830Y-125724035D01*
X164151401Y-125588495D01*
X164318495Y-125421401D01*
X164448425Y-125235842D01*
X164503002Y-125192217D01*
X164572500Y-125185023D01*
X164634855Y-125216546D01*
X164651575Y-125235842D01*
X164781500Y-125421395D01*
X164781505Y-125421401D01*
X164948599Y-125588495D01*
X165045384Y-125656265D01*
X165142165Y-125724032D01*
X165142167Y-125724033D01*
X165142170Y-125724035D01*
X165356337Y-125823903D01*
X165584592Y-125885063D01*
X165761034Y-125900500D01*
X165819999Y-125905659D01*
X165820000Y-125905659D01*
X165820001Y-125905659D01*
X165873171Y-125901007D01*
X166055408Y-125885063D01*
X166283663Y-125823903D01*
X166497830Y-125724035D01*
X166691401Y-125588495D01*
X166858495Y-125421401D01*
X166988425Y-125235842D01*
X167043002Y-125192217D01*
X167112500Y-125185023D01*
X167174855Y-125216546D01*
X167191575Y-125235842D01*
X167321500Y-125421395D01*
X167321505Y-125421401D01*
X167488599Y-125588495D01*
X167585384Y-125656265D01*
X167682165Y-125724032D01*
X167682167Y-125724033D01*
X167682170Y-125724035D01*
X167896337Y-125823903D01*
X168124592Y-125885063D01*
X168301034Y-125900500D01*
X168359999Y-125905659D01*
X168360000Y-125905659D01*
X168360001Y-125905659D01*
X168413171Y-125901007D01*
X168595408Y-125885063D01*
X168823663Y-125823903D01*
X169037830Y-125724035D01*
X169231401Y-125588495D01*
X169398495Y-125421401D01*
X169528425Y-125235842D01*
X169583002Y-125192217D01*
X169652500Y-125185023D01*
X169714855Y-125216546D01*
X169731575Y-125235842D01*
X169861500Y-125421395D01*
X169861505Y-125421401D01*
X170028599Y-125588495D01*
X170125384Y-125656265D01*
X170222165Y-125724032D01*
X170222167Y-125724033D01*
X170222170Y-125724035D01*
X170436337Y-125823903D01*
X170664592Y-125885063D01*
X170841034Y-125900500D01*
X170899999Y-125905659D01*
X170900000Y-125905659D01*
X170900001Y-125905659D01*
X170953171Y-125901007D01*
X171135408Y-125885063D01*
X171363663Y-125823903D01*
X171577830Y-125724035D01*
X171771401Y-125588495D01*
X171938495Y-125421401D01*
X172068425Y-125235842D01*
X172123002Y-125192217D01*
X172192500Y-125185023D01*
X172254855Y-125216546D01*
X172271575Y-125235842D01*
X172401500Y-125421395D01*
X172401505Y-125421401D01*
X172568599Y-125588495D01*
X172665384Y-125656265D01*
X172762165Y-125724032D01*
X172762167Y-125724033D01*
X172762170Y-125724035D01*
X172976337Y-125823903D01*
X173204592Y-125885063D01*
X173381034Y-125900500D01*
X173439999Y-125905659D01*
X173440000Y-125905659D01*
X173440001Y-125905659D01*
X173493171Y-125901007D01*
X173675408Y-125885063D01*
X173903663Y-125823903D01*
X174117830Y-125724035D01*
X174311401Y-125588495D01*
X174478495Y-125421401D01*
X174493482Y-125399997D01*
X181144652Y-125399997D01*
X181144652Y-125400002D01*
X181150480Y-125507483D01*
X181162474Y-125728716D01*
X181164028Y-125757368D01*
X181164029Y-125757385D01*
X181221926Y-126110539D01*
X181221932Y-126110565D01*
X181317672Y-126455392D01*
X181317674Y-126455399D01*
X181450142Y-126787870D01*
X181450151Y-126787888D01*
X181617784Y-127104077D01*
X181617787Y-127104082D01*
X181617789Y-127104085D01*
X181740178Y-127284596D01*
X181818634Y-127400309D01*
X181818641Y-127400319D01*
X182013374Y-127629576D01*
X182050332Y-127673086D01*
X182310163Y-127919211D01*
X182595081Y-128135800D01*
X182901747Y-128320315D01*
X182901749Y-128320316D01*
X182901751Y-128320317D01*
X182901755Y-128320319D01*
X183055400Y-128391402D01*
X183226565Y-128470591D01*
X183565726Y-128584868D01*
X183915254Y-128661805D01*
X184271052Y-128700500D01*
X184271058Y-128700500D01*
X184628942Y-128700500D01*
X184628948Y-128700500D01*
X184984746Y-128661805D01*
X185334274Y-128584868D01*
X185673435Y-128470591D01*
X185998253Y-128320315D01*
X186304919Y-128135800D01*
X186589837Y-127919211D01*
X186849668Y-127673086D01*
X187081365Y-127400311D01*
X187282211Y-127104085D01*
X187449853Y-126787880D01*
X187582324Y-126455403D01*
X187678071Y-126110552D01*
X187695891Y-126001848D01*
X187735970Y-125757385D01*
X187735970Y-125757382D01*
X187735972Y-125757371D01*
X187755348Y-125400000D01*
X187735972Y-125042629D01*
X187732595Y-125022032D01*
X187678073Y-124689460D01*
X187678072Y-124689459D01*
X187678071Y-124689448D01*
X187609016Y-124440732D01*
X187582327Y-124344607D01*
X187582325Y-124344600D01*
X187570370Y-124314596D01*
X187474250Y-124073351D01*
X187449857Y-124012129D01*
X187449848Y-124012111D01*
X187282215Y-123695922D01*
X187282213Y-123695919D01*
X187282211Y-123695915D01*
X187081365Y-123399689D01*
X187081361Y-123399684D01*
X187081358Y-123399680D01*
X186849668Y-123126914D01*
X186742955Y-123025830D01*
X186589837Y-122880789D01*
X186589830Y-122880783D01*
X186589827Y-122880781D01*
X186481569Y-122798486D01*
X186304919Y-122664200D01*
X185998253Y-122479685D01*
X185998252Y-122479684D01*
X185998248Y-122479682D01*
X185998244Y-122479680D01*
X185673447Y-122329414D01*
X185673441Y-122329411D01*
X185673435Y-122329409D01*
X185503854Y-122272270D01*
X185334273Y-122215131D01*
X184984744Y-122138194D01*
X184628949Y-122099500D01*
X184628948Y-122099500D01*
X184271052Y-122099500D01*
X184271050Y-122099500D01*
X183915255Y-122138194D01*
X183565726Y-122215131D01*
X183309970Y-122301306D01*
X183226565Y-122329409D01*
X183226563Y-122329410D01*
X183226552Y-122329414D01*
X182901755Y-122479680D01*
X182901751Y-122479682D01*
X182678268Y-122614148D01*
X182595081Y-122664200D01*
X182593245Y-122665596D01*
X182310172Y-122880781D01*
X182310163Y-122880789D01*
X182050331Y-123126914D01*
X181818641Y-123399680D01*
X181818634Y-123399690D01*
X181617790Y-123695913D01*
X181617784Y-123695922D01*
X181450151Y-124012111D01*
X181450142Y-124012129D01*
X181317674Y-124344600D01*
X181317672Y-124344607D01*
X181221932Y-124689434D01*
X181221926Y-124689460D01*
X181164029Y-125042614D01*
X181164028Y-125042627D01*
X181164028Y-125042629D01*
X181157393Y-125165000D01*
X181144652Y-125399997D01*
X174493482Y-125399997D01*
X174614035Y-125227830D01*
X174713903Y-125013663D01*
X174775063Y-124785408D01*
X174795659Y-124550000D01*
X174775063Y-124314592D01*
X174719868Y-124108599D01*
X174713905Y-124086344D01*
X174713904Y-124086343D01*
X174713903Y-124086337D01*
X174614035Y-123872171D01*
X174613176Y-123870943D01*
X174478494Y-123678597D01*
X174311402Y-123511506D01*
X174311395Y-123511501D01*
X174117834Y-123375967D01*
X174117830Y-123375965D01*
X174117828Y-123375964D01*
X173903663Y-123276097D01*
X173903659Y-123276096D01*
X173903655Y-123276094D01*
X173675413Y-123214938D01*
X173675403Y-123214936D01*
X173440001Y-123194341D01*
X173439999Y-123194341D01*
X173204596Y-123214936D01*
X173204586Y-123214938D01*
X172976344Y-123276094D01*
X172976335Y-123276098D01*
X172762171Y-123375964D01*
X172762169Y-123375965D01*
X172568597Y-123511505D01*
X172401505Y-123678597D01*
X172271575Y-123864158D01*
X172216998Y-123907783D01*
X172147500Y-123914977D01*
X172085145Y-123883454D01*
X172068425Y-123864158D01*
X171938494Y-123678597D01*
X171771402Y-123511506D01*
X171771395Y-123511501D01*
X171577834Y-123375967D01*
X171577830Y-123375965D01*
X171577828Y-123375964D01*
X171363663Y-123276097D01*
X171363659Y-123276096D01*
X171363655Y-123276094D01*
X171135413Y-123214938D01*
X171135403Y-123214936D01*
X170900001Y-123194341D01*
X170899999Y-123194341D01*
X170664596Y-123214936D01*
X170664586Y-123214938D01*
X170436344Y-123276094D01*
X170436335Y-123276098D01*
X170222171Y-123375964D01*
X170222169Y-123375965D01*
X170028597Y-123511505D01*
X169861505Y-123678597D01*
X169731575Y-123864158D01*
X169676998Y-123907783D01*
X169607500Y-123914977D01*
X169545145Y-123883454D01*
X169528425Y-123864158D01*
X169398494Y-123678597D01*
X169231402Y-123511506D01*
X169231395Y-123511501D01*
X169037834Y-123375967D01*
X169037830Y-123375965D01*
X169037828Y-123375964D01*
X168823663Y-123276097D01*
X168823659Y-123276096D01*
X168823655Y-123276094D01*
X168595413Y-123214938D01*
X168595403Y-123214936D01*
X168360001Y-123194341D01*
X168359999Y-123194341D01*
X168124596Y-123214936D01*
X168124586Y-123214938D01*
X167896344Y-123276094D01*
X167896335Y-123276098D01*
X167682171Y-123375964D01*
X167682169Y-123375965D01*
X167488597Y-123511505D01*
X167321505Y-123678597D01*
X167191575Y-123864158D01*
X167136998Y-123907783D01*
X167067500Y-123914977D01*
X167005145Y-123883454D01*
X166988425Y-123864158D01*
X166858494Y-123678597D01*
X166691402Y-123511506D01*
X166691395Y-123511501D01*
X166497834Y-123375967D01*
X166497830Y-123375965D01*
X166497828Y-123375964D01*
X166283663Y-123276097D01*
X166283659Y-123276096D01*
X166283655Y-123276094D01*
X166055413Y-123214938D01*
X166055403Y-123214936D01*
X165820001Y-123194341D01*
X165819999Y-123194341D01*
X165584596Y-123214936D01*
X165584586Y-123214938D01*
X165356344Y-123276094D01*
X165356335Y-123276098D01*
X165142171Y-123375964D01*
X165142169Y-123375965D01*
X164948597Y-123511505D01*
X164781505Y-123678597D01*
X164651575Y-123864158D01*
X164596998Y-123907783D01*
X164527500Y-123914977D01*
X164465145Y-123883454D01*
X164448425Y-123864158D01*
X164318494Y-123678597D01*
X164151402Y-123511506D01*
X164151395Y-123511501D01*
X163957834Y-123375967D01*
X163957830Y-123375965D01*
X163957828Y-123375964D01*
X163743663Y-123276097D01*
X163743659Y-123276096D01*
X163743655Y-123276094D01*
X163515413Y-123214938D01*
X163515403Y-123214936D01*
X163280001Y-123194341D01*
X163279999Y-123194341D01*
X163044596Y-123214936D01*
X163044586Y-123214938D01*
X162816344Y-123276094D01*
X162816335Y-123276098D01*
X162602171Y-123375964D01*
X162602169Y-123375965D01*
X162408597Y-123511505D01*
X162241505Y-123678597D01*
X162111575Y-123864158D01*
X162056998Y-123907783D01*
X161987500Y-123914977D01*
X161925145Y-123883454D01*
X161908425Y-123864158D01*
X161778494Y-123678597D01*
X161611402Y-123511506D01*
X161611395Y-123511501D01*
X161417834Y-123375967D01*
X161417830Y-123375965D01*
X161417828Y-123375964D01*
X161203663Y-123276097D01*
X161203659Y-123276096D01*
X161203655Y-123276094D01*
X160975413Y-123214938D01*
X160975403Y-123214936D01*
X160740001Y-123194341D01*
X160739999Y-123194341D01*
X160504596Y-123214936D01*
X160504586Y-123214938D01*
X160276344Y-123276094D01*
X160276335Y-123276098D01*
X160062171Y-123375964D01*
X160062169Y-123375965D01*
X159868597Y-123511505D01*
X159701505Y-123678597D01*
X159571575Y-123864158D01*
X159516998Y-123907783D01*
X159447500Y-123914977D01*
X159385145Y-123883454D01*
X159368425Y-123864158D01*
X159238494Y-123678597D01*
X159071402Y-123511506D01*
X159071395Y-123511501D01*
X158877834Y-123375967D01*
X158877830Y-123375965D01*
X158877828Y-123375964D01*
X158663663Y-123276097D01*
X158663659Y-123276096D01*
X158663655Y-123276094D01*
X158435413Y-123214938D01*
X158435403Y-123214936D01*
X158200001Y-123194341D01*
X158199999Y-123194341D01*
X157964596Y-123214936D01*
X157964586Y-123214938D01*
X157736344Y-123276094D01*
X157736335Y-123276098D01*
X157522171Y-123375964D01*
X157522169Y-123375965D01*
X157328597Y-123511505D01*
X157161505Y-123678597D01*
X157031575Y-123864158D01*
X156976998Y-123907783D01*
X156907500Y-123914977D01*
X156845145Y-123883454D01*
X156828425Y-123864158D01*
X156698494Y-123678597D01*
X156531402Y-123511506D01*
X156531395Y-123511501D01*
X156337834Y-123375967D01*
X156337830Y-123375965D01*
X156337828Y-123375964D01*
X156123663Y-123276097D01*
X156123659Y-123276096D01*
X156123655Y-123276094D01*
X155895413Y-123214938D01*
X155895403Y-123214936D01*
X155660001Y-123194341D01*
X155659999Y-123194341D01*
X155424596Y-123214936D01*
X155424586Y-123214938D01*
X155196344Y-123276094D01*
X155196335Y-123276098D01*
X154982171Y-123375964D01*
X154982169Y-123375965D01*
X154788597Y-123511505D01*
X154621505Y-123678597D01*
X154491575Y-123864158D01*
X154436998Y-123907783D01*
X154367500Y-123914977D01*
X154305145Y-123883454D01*
X154288425Y-123864158D01*
X154158494Y-123678597D01*
X153991402Y-123511506D01*
X153991395Y-123511501D01*
X153797834Y-123375967D01*
X153797830Y-123375965D01*
X153797828Y-123375964D01*
X153583663Y-123276097D01*
X153583659Y-123276096D01*
X153583655Y-123276094D01*
X153355413Y-123214938D01*
X153355403Y-123214936D01*
X153120001Y-123194341D01*
X153119999Y-123194341D01*
X152884596Y-123214936D01*
X152884586Y-123214938D01*
X152656344Y-123276094D01*
X152656335Y-123276098D01*
X152442171Y-123375964D01*
X152442169Y-123375965D01*
X152248600Y-123511503D01*
X152126673Y-123633430D01*
X152065350Y-123666914D01*
X151995658Y-123661930D01*
X151939725Y-123620058D01*
X151922810Y-123589081D01*
X151873797Y-123457671D01*
X151873793Y-123457664D01*
X151787547Y-123342455D01*
X151787544Y-123342452D01*
X151672335Y-123256206D01*
X151672328Y-123256202D01*
X151537482Y-123205908D01*
X151537483Y-123205908D01*
X151477883Y-123199501D01*
X151477881Y-123199500D01*
X151477873Y-123199500D01*
X151477864Y-123199500D01*
X149682129Y-123199500D01*
X149682123Y-123199501D01*
X149622516Y-123205908D01*
X149487671Y-123256202D01*
X149487664Y-123256206D01*
X149372455Y-123342452D01*
X149372452Y-123342455D01*
X149286206Y-123457664D01*
X149286202Y-123457671D01*
X149235908Y-123592517D01*
X149229501Y-123652116D01*
X149229500Y-123652135D01*
X140300500Y-123652135D01*
X140300500Y-111800096D01*
X140320185Y-111733057D01*
X140336814Y-111712420D01*
X141117099Y-110932135D01*
X172449500Y-110932135D01*
X172449500Y-113627870D01*
X172449501Y-113627876D01*
X172455908Y-113687483D01*
X172506202Y-113822328D01*
X172506206Y-113822335D01*
X172592452Y-113937544D01*
X172592455Y-113937547D01*
X172707664Y-114023793D01*
X172707671Y-114023797D01*
X172842517Y-114074091D01*
X172842516Y-114074091D01*
X172849444Y-114074835D01*
X172902127Y-114080500D01*
X175597872Y-114080499D01*
X175657483Y-114074091D01*
X175792331Y-114023796D01*
X175907546Y-113937546D01*
X175993796Y-113822331D01*
X176044091Y-113687483D01*
X176050500Y-113627873D01*
X176050499Y-110932128D01*
X176044091Y-110872517D01*
X175993796Y-110737669D01*
X175993795Y-110737668D01*
X175993793Y-110737664D01*
X175907547Y-110622455D01*
X175907544Y-110622452D01*
X175792335Y-110536206D01*
X175792328Y-110536202D01*
X175657482Y-110485908D01*
X175657483Y-110485908D01*
X175597883Y-110479501D01*
X175597881Y-110479500D01*
X175597873Y-110479500D01*
X175597864Y-110479500D01*
X172902129Y-110479500D01*
X172902123Y-110479501D01*
X172842516Y-110485908D01*
X172707671Y-110536202D01*
X172707664Y-110536206D01*
X172592455Y-110622452D01*
X172592452Y-110622455D01*
X172506206Y-110737664D01*
X172506202Y-110737671D01*
X172455908Y-110872517D01*
X172449501Y-110932116D01*
X172449501Y-110932123D01*
X172449500Y-110932135D01*
X141117099Y-110932135D01*
X143558506Y-108490727D01*
X143558511Y-108490724D01*
X143568714Y-108480520D01*
X143568716Y-108480520D01*
X143680520Y-108368716D01*
X143759577Y-108231784D01*
X143800500Y-108079057D01*
X143800500Y-107445304D01*
X143820185Y-107378265D01*
X143853375Y-107343730D01*
X144014620Y-107230826D01*
X144170826Y-107074620D01*
X144297534Y-106893662D01*
X144357618Y-106764811D01*
X144403790Y-106712371D01*
X144470983Y-106693219D01*
X144537865Y-106713435D01*
X144582382Y-106764811D01*
X144642464Y-106893658D01*
X144642468Y-106893666D01*
X144769170Y-107074615D01*
X144769175Y-107074621D01*
X144925378Y-107230824D01*
X144925384Y-107230829D01*
X145106333Y-107357531D01*
X145106335Y-107357532D01*
X145106338Y-107357534D01*
X145306550Y-107450894D01*
X145519932Y-107508070D01*
X145677123Y-107521822D01*
X145739998Y-107527323D01*
X145740000Y-107527323D01*
X145740002Y-107527323D01*
X145795017Y-107522509D01*
X145960068Y-107508070D01*
X146173450Y-107450894D01*
X146373662Y-107357534D01*
X146554620Y-107230826D01*
X146710826Y-107074620D01*
X146837534Y-106893662D01*
X146897618Y-106764811D01*
X146943790Y-106712371D01*
X147010983Y-106693219D01*
X147077865Y-106713435D01*
X147122382Y-106764811D01*
X147182464Y-106893658D01*
X147182468Y-106893666D01*
X147309170Y-107074615D01*
X147309175Y-107074621D01*
X147465378Y-107230824D01*
X147465384Y-107230829D01*
X147646333Y-107357531D01*
X147646335Y-107357532D01*
X147646338Y-107357534D01*
X147846550Y-107450894D01*
X148059932Y-107508070D01*
X148217123Y-107521822D01*
X148279998Y-107527323D01*
X148280000Y-107527323D01*
X148280002Y-107527323D01*
X148335017Y-107522509D01*
X148500068Y-107508070D01*
X148713450Y-107450894D01*
X148913662Y-107357534D01*
X149094620Y-107230826D01*
X149125451Y-107199995D01*
X172444451Y-107199995D01*
X172444451Y-107200004D01*
X172464616Y-107469101D01*
X172524664Y-107732188D01*
X172524666Y-107732195D01*
X172532150Y-107751265D01*
X172623257Y-107983398D01*
X172758185Y-108217102D01*
X172879088Y-108368709D01*
X172926442Y-108428089D01*
X172993956Y-108490732D01*
X173124259Y-108611635D01*
X173347226Y-108763651D01*
X173590359Y-108880738D01*
X173848228Y-108960280D01*
X173848229Y-108960280D01*
X173848232Y-108960281D01*
X174115063Y-109000499D01*
X174115068Y-109000499D01*
X174115071Y-109000500D01*
X174115072Y-109000500D01*
X174384928Y-109000500D01*
X174384929Y-109000500D01*
X174384936Y-109000499D01*
X174651767Y-108960281D01*
X174651768Y-108960280D01*
X174651772Y-108960280D01*
X174909641Y-108880738D01*
X175152775Y-108763651D01*
X175375741Y-108611635D01*
X175573561Y-108428085D01*
X175741815Y-108217102D01*
X175876743Y-107983398D01*
X175975334Y-107732195D01*
X176035383Y-107469103D01*
X176053239Y-107230824D01*
X176055549Y-107200004D01*
X176055549Y-107199995D01*
X176035383Y-106930898D01*
X176027825Y-106897785D01*
X175975334Y-106667805D01*
X175876743Y-106416602D01*
X175741815Y-106182898D01*
X175573561Y-105971915D01*
X175573560Y-105971914D01*
X175573557Y-105971910D01*
X175375741Y-105788365D01*
X175327081Y-105755189D01*
X175152775Y-105636349D01*
X175152769Y-105636346D01*
X175152768Y-105636345D01*
X175152767Y-105636344D01*
X174909643Y-105519263D01*
X174909645Y-105519263D01*
X174651773Y-105439720D01*
X174651767Y-105439718D01*
X174384936Y-105399500D01*
X174384929Y-105399500D01*
X174115071Y-105399500D01*
X174115063Y-105399500D01*
X173848232Y-105439718D01*
X173848226Y-105439720D01*
X173590358Y-105519262D01*
X173347230Y-105636346D01*
X173124258Y-105788365D01*
X172926442Y-105971910D01*
X172758185Y-106182898D01*
X172623258Y-106416599D01*
X172623256Y-106416603D01*
X172524666Y-106667804D01*
X172524664Y-106667811D01*
X172464616Y-106930898D01*
X172444451Y-107199995D01*
X149125451Y-107199995D01*
X149250826Y-107074620D01*
X149377534Y-106893662D01*
X149470894Y-106693450D01*
X149528070Y-106480068D01*
X149547323Y-106260000D01*
X149528070Y-106039932D01*
X149470894Y-105826550D01*
X149377534Y-105626339D01*
X149250826Y-105445380D01*
X149094620Y-105289174D01*
X149094616Y-105289171D01*
X149094615Y-105289170D01*
X148913666Y-105162468D01*
X148913662Y-105162466D01*
X148768984Y-105095002D01*
X148713450Y-105069106D01*
X148713447Y-105069105D01*
X148713445Y-105069104D01*
X148500070Y-105011930D01*
X148500062Y-105011929D01*
X148280002Y-104992677D01*
X148279998Y-104992677D01*
X148059937Y-105011929D01*
X148059929Y-105011930D01*
X147846554Y-105069104D01*
X147846548Y-105069107D01*
X147646340Y-105162465D01*
X147646338Y-105162466D01*
X147465377Y-105289175D01*
X147309175Y-105445377D01*
X147182466Y-105626338D01*
X147182465Y-105626340D01*
X147122382Y-105755189D01*
X147076209Y-105807628D01*
X147009016Y-105826780D01*
X146942135Y-105806564D01*
X146897618Y-105755189D01*
X146871883Y-105700000D01*
X146837534Y-105626339D01*
X146710826Y-105445380D01*
X146554620Y-105289174D01*
X146554616Y-105289171D01*
X146554615Y-105289170D01*
X146373666Y-105162468D01*
X146373662Y-105162466D01*
X146228984Y-105095002D01*
X146173450Y-105069106D01*
X146173447Y-105069105D01*
X146173445Y-105069104D01*
X145960070Y-105011930D01*
X145960062Y-105011929D01*
X145740002Y-104992677D01*
X145739998Y-104992677D01*
X145519937Y-105011929D01*
X145519929Y-105011930D01*
X145306554Y-105069104D01*
X145306548Y-105069107D01*
X145106340Y-105162465D01*
X145106338Y-105162466D01*
X144925377Y-105289175D01*
X144769175Y-105445377D01*
X144642466Y-105626338D01*
X144642465Y-105626340D01*
X144582382Y-105755189D01*
X144536209Y-105807628D01*
X144469016Y-105826780D01*
X144402135Y-105806564D01*
X144357618Y-105755189D01*
X144331883Y-105700000D01*
X144297534Y-105626339D01*
X144170826Y-105445380D01*
X144014620Y-105289174D01*
X144014616Y-105289171D01*
X144014615Y-105289170D01*
X143833666Y-105162468D01*
X143833662Y-105162466D01*
X143688984Y-105095002D01*
X143633450Y-105069106D01*
X143633447Y-105069105D01*
X143633445Y-105069104D01*
X143420070Y-105011930D01*
X143420062Y-105011929D01*
X143200002Y-104992677D01*
X143199998Y-104992677D01*
X142979937Y-105011929D01*
X142979929Y-105011930D01*
X142766554Y-105069104D01*
X142766548Y-105069107D01*
X142566340Y-105162465D01*
X142566338Y-105162466D01*
X142385377Y-105289175D01*
X142229175Y-105445377D01*
X142102466Y-105626338D01*
X142102465Y-105626340D01*
X142042382Y-105755189D01*
X141996209Y-105807628D01*
X141929016Y-105826780D01*
X141862135Y-105806564D01*
X141817618Y-105755189D01*
X141791883Y-105700000D01*
X141757534Y-105626339D01*
X141630826Y-105445380D01*
X141474620Y-105289174D01*
X141474616Y-105289171D01*
X141474615Y-105289170D01*
X141293666Y-105162468D01*
X141293662Y-105162466D01*
X141148984Y-105095002D01*
X141093450Y-105069106D01*
X141093447Y-105069105D01*
X141093445Y-105069104D01*
X140880070Y-105011930D01*
X140880062Y-105011929D01*
X140660002Y-104992677D01*
X140659998Y-104992677D01*
X140439937Y-105011929D01*
X140439929Y-105011930D01*
X140226554Y-105069104D01*
X140226548Y-105069107D01*
X140026340Y-105162465D01*
X140026338Y-105162466D01*
X139845377Y-105289175D01*
X139689175Y-105445377D01*
X139562466Y-105626338D01*
X139562465Y-105626340D01*
X139502382Y-105755189D01*
X139456209Y-105807628D01*
X139389016Y-105826780D01*
X139322135Y-105806564D01*
X139277618Y-105755189D01*
X139251883Y-105700000D01*
X139217534Y-105626339D01*
X139090826Y-105445380D01*
X138934620Y-105289174D01*
X138934616Y-105289171D01*
X138934615Y-105289170D01*
X138753666Y-105162468D01*
X138753662Y-105162466D01*
X138608984Y-105095002D01*
X138553450Y-105069106D01*
X138553447Y-105069105D01*
X138553445Y-105069104D01*
X138340070Y-105011930D01*
X138340062Y-105011929D01*
X138120002Y-104992677D01*
X138119998Y-104992677D01*
X137899937Y-105011929D01*
X137899929Y-105011930D01*
X137686554Y-105069104D01*
X137686548Y-105069107D01*
X137486340Y-105162465D01*
X137486338Y-105162466D01*
X137305377Y-105289175D01*
X137149175Y-105445377D01*
X137022466Y-105626338D01*
X137022465Y-105626340D01*
X136962382Y-105755189D01*
X136916209Y-105807628D01*
X136849016Y-105826780D01*
X136782135Y-105806564D01*
X136737618Y-105755189D01*
X136711883Y-105700000D01*
X136677534Y-105626339D01*
X136550826Y-105445380D01*
X136394620Y-105289174D01*
X136394616Y-105289171D01*
X136394615Y-105289170D01*
X136213666Y-105162468D01*
X136213662Y-105162466D01*
X136068984Y-105095002D01*
X136013450Y-105069106D01*
X136013447Y-105069105D01*
X136013445Y-105069104D01*
X135800070Y-105011930D01*
X135800062Y-105011929D01*
X135580002Y-104992677D01*
X135579998Y-104992677D01*
X135359937Y-105011929D01*
X135359929Y-105011930D01*
X135146554Y-105069104D01*
X135146548Y-105069107D01*
X134946340Y-105162465D01*
X134946338Y-105162466D01*
X134765377Y-105289175D01*
X134609175Y-105445377D01*
X134482466Y-105626338D01*
X134482465Y-105626340D01*
X134422382Y-105755189D01*
X134376209Y-105807628D01*
X134309016Y-105826780D01*
X134242135Y-105806564D01*
X134197618Y-105755189D01*
X134171883Y-105700000D01*
X134137534Y-105626339D01*
X134010826Y-105445380D01*
X133854620Y-105289174D01*
X133854616Y-105289171D01*
X133854615Y-105289170D01*
X133673666Y-105162468D01*
X133673662Y-105162466D01*
X133528984Y-105095002D01*
X133473450Y-105069106D01*
X133473447Y-105069105D01*
X133473445Y-105069104D01*
X133260070Y-105011930D01*
X133260062Y-105011929D01*
X133040002Y-104992677D01*
X133039998Y-104992677D01*
X132819937Y-105011929D01*
X132819929Y-105011930D01*
X132606554Y-105069104D01*
X132606548Y-105069107D01*
X132406340Y-105162465D01*
X132406338Y-105162466D01*
X132225377Y-105289175D01*
X132069175Y-105445377D01*
X131942466Y-105626338D01*
X131942465Y-105626340D01*
X131882382Y-105755189D01*
X131836209Y-105807628D01*
X131769016Y-105826780D01*
X131702135Y-105806564D01*
X131657618Y-105755189D01*
X131631883Y-105700000D01*
X131597534Y-105626339D01*
X131470826Y-105445380D01*
X131314620Y-105289174D01*
X131314616Y-105289171D01*
X131314615Y-105289170D01*
X131133666Y-105162468D01*
X131133662Y-105162466D01*
X130988984Y-105095002D01*
X130933450Y-105069106D01*
X130933447Y-105069105D01*
X130933445Y-105069104D01*
X130720070Y-105011930D01*
X130720062Y-105011929D01*
X130500002Y-104992677D01*
X130499998Y-104992677D01*
X130279937Y-105011929D01*
X130279929Y-105011930D01*
X130066554Y-105069104D01*
X130066548Y-105069107D01*
X129866340Y-105162465D01*
X129866338Y-105162466D01*
X129685377Y-105289175D01*
X129529175Y-105445377D01*
X129402466Y-105626338D01*
X129402465Y-105626340D01*
X129342382Y-105755189D01*
X129296209Y-105807628D01*
X129229016Y-105826780D01*
X129162135Y-105806564D01*
X129117618Y-105755189D01*
X129091883Y-105700000D01*
X129057534Y-105626339D01*
X128930826Y-105445380D01*
X128774620Y-105289174D01*
X128774616Y-105289171D01*
X128774615Y-105289170D01*
X128593666Y-105162468D01*
X128593662Y-105162466D01*
X128448984Y-105095002D01*
X128393450Y-105069106D01*
X128393447Y-105069105D01*
X128393445Y-105069104D01*
X128180070Y-105011930D01*
X128180062Y-105011929D01*
X127960002Y-104992677D01*
X127959998Y-104992677D01*
X127739937Y-105011929D01*
X127739929Y-105011930D01*
X127526554Y-105069104D01*
X127526550Y-105069106D01*
X127326339Y-105162466D01*
X127277620Y-105196578D01*
X127211416Y-105218905D01*
X127143649Y-105201893D01*
X127095837Y-105150945D01*
X127082500Y-105095002D01*
X127082500Y-98299996D01*
X148994435Y-98299996D01*
X148994435Y-98300003D01*
X149014630Y-98479249D01*
X149014631Y-98479254D01*
X149074211Y-98649523D01*
X149170184Y-98802262D01*
X149297738Y-98929816D01*
X149450478Y-99025789D01*
X149586685Y-99073450D01*
X149620745Y-99085368D01*
X149620750Y-99085369D01*
X149799996Y-99105565D01*
X149800000Y-99105565D01*
X149800004Y-99105565D01*
X149979249Y-99085369D01*
X149979252Y-99085368D01*
X149979255Y-99085368D01*
X150149522Y-99025789D01*
X150302262Y-98929816D01*
X150429816Y-98802262D01*
X150525789Y-98649522D01*
X150585368Y-98479255D01*
X150605565Y-98300000D01*
X150585368Y-98120745D01*
X150525789Y-97950478D01*
X150429816Y-97797738D01*
X150302262Y-97670184D01*
X150300655Y-97669174D01*
X150149523Y-97574211D01*
X149979254Y-97514631D01*
X149979249Y-97514630D01*
X149800004Y-97494435D01*
X149799996Y-97494435D01*
X149620750Y-97514630D01*
X149620745Y-97514631D01*
X149450476Y-97574211D01*
X149297737Y-97670184D01*
X149170184Y-97797737D01*
X149074211Y-97950476D01*
X149014631Y-98120745D01*
X149014630Y-98120750D01*
X148994435Y-98299996D01*
X127082500Y-98299996D01*
X127082500Y-93932155D01*
X172300000Y-93932155D01*
X172300000Y-95030000D01*
X173499999Y-95030000D01*
X173474979Y-95090402D01*
X173450000Y-95215981D01*
X173450000Y-95344019D01*
X173474979Y-95469598D01*
X173499999Y-95530000D01*
X172300000Y-95530000D01*
X172300000Y-96627844D01*
X172306401Y-96687372D01*
X172306403Y-96687379D01*
X172356645Y-96822086D01*
X172356649Y-96822093D01*
X172442809Y-96937187D01*
X172442812Y-96937190D01*
X172557906Y-97023350D01*
X172557913Y-97023354D01*
X172692620Y-97073596D01*
X172692627Y-97073598D01*
X172752155Y-97079999D01*
X172752172Y-97080000D01*
X173850000Y-97080000D01*
X173850000Y-95880001D01*
X173910402Y-95905021D01*
X174035981Y-95930000D01*
X174164019Y-95930000D01*
X174289598Y-95905021D01*
X174350000Y-95880001D01*
X174350000Y-97080000D01*
X175447828Y-97080000D01*
X175447844Y-97079999D01*
X175507372Y-97073598D01*
X175507379Y-97073596D01*
X175642086Y-97023354D01*
X175642093Y-97023350D01*
X175757187Y-96937190D01*
X175757190Y-96937187D01*
X175843350Y-96822093D01*
X175843354Y-96822086D01*
X175893596Y-96687379D01*
X175893598Y-96687372D01*
X175899999Y-96627844D01*
X175900000Y-96627827D01*
X175900000Y-95530000D01*
X174700001Y-95530000D01*
X174725021Y-95469598D01*
X174750000Y-95344019D01*
X174750000Y-95215981D01*
X174725021Y-95090402D01*
X174700001Y-95030000D01*
X175900000Y-95030000D01*
X175900000Y-93932172D01*
X175899999Y-93932155D01*
X175893598Y-93872627D01*
X175893596Y-93872620D01*
X175843354Y-93737913D01*
X175843350Y-93737906D01*
X175757190Y-93622812D01*
X175757187Y-93622809D01*
X175642093Y-93536649D01*
X175642086Y-93536645D01*
X175507379Y-93486403D01*
X175507372Y-93486401D01*
X175447844Y-93480000D01*
X174350000Y-93480000D01*
X174350000Y-94679998D01*
X174289598Y-94654979D01*
X174164019Y-94630000D01*
X174035981Y-94630000D01*
X173910402Y-94654979D01*
X173850000Y-94679998D01*
X173850000Y-93480000D01*
X172752155Y-93480000D01*
X172692627Y-93486401D01*
X172692620Y-93486403D01*
X172557913Y-93536645D01*
X172557906Y-93536649D01*
X172442812Y-93622809D01*
X172442809Y-93622812D01*
X172356649Y-93737906D01*
X172356645Y-93737913D01*
X172306403Y-93872620D01*
X172306401Y-93872627D01*
X172300000Y-93932155D01*
X127082500Y-93932155D01*
X127082500Y-90199995D01*
X172294451Y-90199995D01*
X172294451Y-90200004D01*
X172314616Y-90469101D01*
X172341423Y-90586550D01*
X172374666Y-90732195D01*
X172473257Y-90983398D01*
X172608185Y-91217102D01*
X172744080Y-91387509D01*
X172776442Y-91428089D01*
X172963183Y-91601358D01*
X172974259Y-91611635D01*
X173197226Y-91763651D01*
X173440359Y-91880738D01*
X173698228Y-91960280D01*
X173698229Y-91960280D01*
X173698232Y-91960281D01*
X173965063Y-92000499D01*
X173965068Y-92000499D01*
X173965071Y-92000500D01*
X173965072Y-92000500D01*
X174234928Y-92000500D01*
X174234929Y-92000500D01*
X174234936Y-92000499D01*
X174501767Y-91960281D01*
X174501768Y-91960280D01*
X174501772Y-91960280D01*
X174759641Y-91880738D01*
X175002775Y-91763651D01*
X175225741Y-91611635D01*
X175423561Y-91428085D01*
X175591815Y-91217102D01*
X175726743Y-90983398D01*
X175825334Y-90732195D01*
X175885383Y-90469103D01*
X175905549Y-90200000D01*
X175894246Y-90049174D01*
X175885383Y-89930898D01*
X175885383Y-89930897D01*
X175825334Y-89667805D01*
X175726743Y-89416602D01*
X175591815Y-89182898D01*
X175423561Y-88971915D01*
X175423560Y-88971914D01*
X175423557Y-88971910D01*
X175225741Y-88788365D01*
X175096233Y-88700068D01*
X175002775Y-88636349D01*
X175002769Y-88636346D01*
X175002768Y-88636345D01*
X175002767Y-88636344D01*
X174759643Y-88519263D01*
X174759645Y-88519263D01*
X174501773Y-88439720D01*
X174501767Y-88439718D01*
X174234936Y-88399500D01*
X174234929Y-88399500D01*
X173965071Y-88399500D01*
X173965063Y-88399500D01*
X173698232Y-88439718D01*
X173698226Y-88439720D01*
X173440358Y-88519262D01*
X173197230Y-88636346D01*
X172974258Y-88788365D01*
X172776442Y-88971910D01*
X172608185Y-89182898D01*
X172473258Y-89416599D01*
X172473256Y-89416603D01*
X172374666Y-89667804D01*
X172374664Y-89667811D01*
X172314616Y-89930898D01*
X172294451Y-90199995D01*
X127082500Y-90199995D01*
X127082500Y-84564998D01*
X127102185Y-84497959D01*
X127154989Y-84452204D01*
X127224147Y-84442260D01*
X127277624Y-84463424D01*
X127326331Y-84497530D01*
X127326335Y-84497532D01*
X127326338Y-84497534D01*
X127526550Y-84590894D01*
X127739932Y-84648070D01*
X127897123Y-84661822D01*
X127959998Y-84667323D01*
X127960000Y-84667323D01*
X127960002Y-84667323D01*
X128015017Y-84662509D01*
X128180068Y-84648070D01*
X128393450Y-84590894D01*
X128593662Y-84497534D01*
X128774620Y-84370826D01*
X128930826Y-84214620D01*
X129057534Y-84033662D01*
X129117618Y-83904811D01*
X129163790Y-83852371D01*
X129230983Y-83833219D01*
X129297865Y-83853435D01*
X129342382Y-83904811D01*
X129402464Y-84033658D01*
X129402468Y-84033666D01*
X129529170Y-84214615D01*
X129529175Y-84214621D01*
X129685378Y-84370824D01*
X129685384Y-84370829D01*
X129866333Y-84497531D01*
X129866335Y-84497532D01*
X129866338Y-84497534D01*
X130066550Y-84590894D01*
X130279932Y-84648070D01*
X130437123Y-84661822D01*
X130499998Y-84667323D01*
X130500000Y-84667323D01*
X130500002Y-84667323D01*
X130555017Y-84662509D01*
X130720068Y-84648070D01*
X130933450Y-84590894D01*
X131133662Y-84497534D01*
X131314620Y-84370826D01*
X131470826Y-84214620D01*
X131597534Y-84033662D01*
X131657618Y-83904811D01*
X131703790Y-83852371D01*
X131770983Y-83833219D01*
X131837865Y-83853435D01*
X131882382Y-83904811D01*
X131942464Y-84033658D01*
X131942468Y-84033666D01*
X132069170Y-84214615D01*
X132069175Y-84214621D01*
X132225378Y-84370824D01*
X132225384Y-84370829D01*
X132406333Y-84497531D01*
X132406335Y-84497532D01*
X132406338Y-84497534D01*
X132606550Y-84590894D01*
X132819932Y-84648070D01*
X132977123Y-84661822D01*
X133039998Y-84667323D01*
X133040000Y-84667323D01*
X133040002Y-84667323D01*
X133095017Y-84662509D01*
X133260068Y-84648070D01*
X133473450Y-84590894D01*
X133673662Y-84497534D01*
X133854620Y-84370826D01*
X134010826Y-84214620D01*
X134137534Y-84033662D01*
X134197618Y-83904811D01*
X134243790Y-83852371D01*
X134310983Y-83833219D01*
X134377865Y-83853435D01*
X134422382Y-83904811D01*
X134482464Y-84033658D01*
X134482468Y-84033666D01*
X134609170Y-84214615D01*
X134609175Y-84214621D01*
X134765378Y-84370824D01*
X134765384Y-84370829D01*
X134946333Y-84497531D01*
X134946335Y-84497532D01*
X134946338Y-84497534D01*
X135146550Y-84590894D01*
X135359932Y-84648070D01*
X135517123Y-84661822D01*
X135579998Y-84667323D01*
X135580000Y-84667323D01*
X135580002Y-84667323D01*
X135635017Y-84662509D01*
X135800068Y-84648070D01*
X136013450Y-84590894D01*
X136213662Y-84497534D01*
X136394620Y-84370826D01*
X136550826Y-84214620D01*
X136677534Y-84033662D01*
X136737618Y-83904811D01*
X136783790Y-83852371D01*
X136850983Y-83833219D01*
X136917865Y-83853435D01*
X136962382Y-83904811D01*
X137022464Y-84033658D01*
X137022468Y-84033666D01*
X137149170Y-84214615D01*
X137149175Y-84214621D01*
X137305378Y-84370824D01*
X137305384Y-84370829D01*
X137486333Y-84497531D01*
X137486335Y-84497532D01*
X137486338Y-84497534D01*
X137686550Y-84590894D01*
X137899932Y-84648070D01*
X138057123Y-84661822D01*
X138119998Y-84667323D01*
X138120000Y-84667323D01*
X138120002Y-84667323D01*
X138175017Y-84662509D01*
X138340068Y-84648070D01*
X138553450Y-84590894D01*
X138753662Y-84497534D01*
X138934620Y-84370826D01*
X139090826Y-84214620D01*
X139217534Y-84033662D01*
X139277618Y-83904811D01*
X139323790Y-83852371D01*
X139390983Y-83833219D01*
X139457865Y-83853435D01*
X139502382Y-83904811D01*
X139562464Y-84033658D01*
X139562468Y-84033666D01*
X139689170Y-84214615D01*
X139689175Y-84214621D01*
X139845378Y-84370824D01*
X139845384Y-84370829D01*
X140026333Y-84497531D01*
X140026335Y-84497532D01*
X140026338Y-84497534D01*
X140226550Y-84590894D01*
X140439932Y-84648070D01*
X140597123Y-84661822D01*
X140659998Y-84667323D01*
X140660000Y-84667323D01*
X140660002Y-84667323D01*
X140715017Y-84662509D01*
X140880068Y-84648070D01*
X141093450Y-84590894D01*
X141293662Y-84497534D01*
X141474620Y-84370826D01*
X141630826Y-84214620D01*
X141757534Y-84033662D01*
X141817618Y-83904811D01*
X141863790Y-83852371D01*
X141930983Y-83833219D01*
X141997865Y-83853435D01*
X142042382Y-83904811D01*
X142102464Y-84033658D01*
X142102468Y-84033666D01*
X142229170Y-84214615D01*
X142229175Y-84214621D01*
X142385378Y-84370824D01*
X142385384Y-84370829D01*
X142566333Y-84497531D01*
X142566335Y-84497532D01*
X142566338Y-84497534D01*
X142766550Y-84590894D01*
X142979932Y-84648070D01*
X143137123Y-84661822D01*
X143199998Y-84667323D01*
X143200000Y-84667323D01*
X143200002Y-84667323D01*
X143255017Y-84662509D01*
X143420068Y-84648070D01*
X143633450Y-84590894D01*
X143833662Y-84497534D01*
X144014620Y-84370826D01*
X144170826Y-84214620D01*
X144297534Y-84033662D01*
X144357894Y-83904218D01*
X144404066Y-83851779D01*
X144471259Y-83832627D01*
X144538141Y-83852843D01*
X144582658Y-83904219D01*
X144642899Y-84033407D01*
X144642900Y-84033409D01*
X144769563Y-84214301D01*
X144925698Y-84370436D01*
X145106590Y-84497099D01*
X145106592Y-84497100D01*
X145306715Y-84590419D01*
X145306729Y-84590424D01*
X145489999Y-84639531D01*
X145490000Y-84639530D01*
X145490000Y-83783591D01*
X145563527Y-83826042D01*
X145679808Y-83857200D01*
X145800192Y-83857200D01*
X145916473Y-83826042D01*
X145990000Y-83783591D01*
X145990000Y-84639531D01*
X146173270Y-84590424D01*
X146173284Y-84590419D01*
X146373407Y-84497100D01*
X146373409Y-84497099D01*
X146554301Y-84370436D01*
X146710436Y-84214301D01*
X146837097Y-84033412D01*
X146897340Y-83904219D01*
X146943512Y-83851780D01*
X147010706Y-83832627D01*
X147077587Y-83852842D01*
X147122105Y-83904218D01*
X147182466Y-84033662D01*
X147182468Y-84033666D01*
X147309170Y-84214615D01*
X147309175Y-84214621D01*
X147465378Y-84370824D01*
X147465384Y-84370829D01*
X147646333Y-84497531D01*
X147646335Y-84497532D01*
X147646338Y-84497534D01*
X147846550Y-84590894D01*
X148059932Y-84648070D01*
X148217123Y-84661822D01*
X148279998Y-84667323D01*
X148280000Y-84667323D01*
X148280002Y-84667323D01*
X148335017Y-84662509D01*
X148500068Y-84648070D01*
X148713450Y-84590894D01*
X148913662Y-84497534D01*
X149094620Y-84370826D01*
X149250826Y-84214620D01*
X149377534Y-84033662D01*
X149470894Y-83833450D01*
X149528070Y-83620068D01*
X149547323Y-83400000D01*
X149528070Y-83179932D01*
X149470894Y-82966550D01*
X149377534Y-82766339D01*
X149277070Y-82622860D01*
X149250827Y-82585381D01*
X149178810Y-82513364D01*
X149094620Y-82429174D01*
X149094616Y-82429171D01*
X149094615Y-82429170D01*
X148913666Y-82302468D01*
X148913662Y-82302466D01*
X148869202Y-82281734D01*
X148713450Y-82209106D01*
X148713447Y-82209105D01*
X148713445Y-82209104D01*
X148500070Y-82151930D01*
X148500062Y-82151929D01*
X148280002Y-82132677D01*
X148279998Y-82132677D01*
X148059937Y-82151929D01*
X148059929Y-82151930D01*
X147846554Y-82209104D01*
X147846548Y-82209107D01*
X147646340Y-82302465D01*
X147646338Y-82302466D01*
X147465377Y-82429175D01*
X147309175Y-82585377D01*
X147182467Y-82766337D01*
X147182466Y-82766339D01*
X147182347Y-82766595D01*
X147122105Y-82895782D01*
X147075932Y-82948221D01*
X147008738Y-82967372D01*
X146941857Y-82947156D01*
X146897341Y-82895780D01*
X146837101Y-82766595D01*
X146837098Y-82766589D01*
X146710442Y-82585704D01*
X146554297Y-82429560D01*
X146373409Y-82302900D01*
X146373407Y-82302899D01*
X146173283Y-82209580D01*
X145990000Y-82160468D01*
X145990000Y-83016408D01*
X145916473Y-82973958D01*
X145800192Y-82942800D01*
X145679808Y-82942800D01*
X145563527Y-82973958D01*
X145490000Y-83016408D01*
X145490000Y-82160468D01*
X145306718Y-82209579D01*
X145106591Y-82302900D01*
X145106589Y-82302901D01*
X144925700Y-82429560D01*
X144769560Y-82585700D01*
X144642901Y-82766589D01*
X144642900Y-82766591D01*
X144582658Y-82895781D01*
X144536485Y-82948220D01*
X144469292Y-82967372D01*
X144402411Y-82947156D01*
X144357894Y-82895781D01*
X144297653Y-82766595D01*
X144297534Y-82766339D01*
X144197070Y-82622860D01*
X144170827Y-82585381D01*
X144098810Y-82513364D01*
X144014620Y-82429174D01*
X144014616Y-82429171D01*
X144014615Y-82429170D01*
X143853377Y-82316270D01*
X143809752Y-82261693D01*
X143800500Y-82214695D01*
X143800500Y-78787597D01*
X143820185Y-78720558D01*
X143836819Y-78699916D01*
X143874917Y-78661818D01*
X143936240Y-78628333D01*
X143962598Y-78625499D01*
X144386670Y-78625499D01*
X144386676Y-78625499D01*
X144487753Y-78615174D01*
X144651516Y-78560908D01*
X144798350Y-78470340D01*
X144812671Y-78456018D01*
X144873989Y-78422533D01*
X144943681Y-78427514D01*
X144988034Y-78456017D01*
X145001961Y-78469944D01*
X145001965Y-78469947D01*
X145148688Y-78560448D01*
X145148699Y-78560453D01*
X145312347Y-78614680D01*
X145413351Y-78624999D01*
X146012500Y-78624999D01*
X146111640Y-78624999D01*
X146111654Y-78624998D01*
X146212652Y-78614680D01*
X146376300Y-78560453D01*
X146376311Y-78560448D01*
X146523034Y-78469947D01*
X146523038Y-78469944D01*
X146644944Y-78348038D01*
X146644947Y-78348034D01*
X146735448Y-78201311D01*
X146735453Y-78201300D01*
X146789680Y-78037652D01*
X146799999Y-77936654D01*
X146800000Y-77936641D01*
X146800000Y-77900000D01*
X146012500Y-77900000D01*
X146012500Y-78624999D01*
X145413351Y-78624999D01*
X145512500Y-78624998D01*
X145512500Y-77400000D01*
X146012500Y-77400000D01*
X146799999Y-77400000D01*
X146799999Y-77363360D01*
X146799998Y-77363345D01*
X146789680Y-77262347D01*
X146735453Y-77098699D01*
X146735448Y-77098688D01*
X146644947Y-76951965D01*
X146644944Y-76951961D01*
X146523038Y-76830055D01*
X146523034Y-76830052D01*
X146376311Y-76739551D01*
X146376300Y-76739546D01*
X146212652Y-76685319D01*
X146111654Y-76675000D01*
X146012500Y-76675000D01*
X146012500Y-77400000D01*
X145512500Y-77400000D01*
X145512500Y-76674999D01*
X145413360Y-76675000D01*
X145413344Y-76675001D01*
X145312347Y-76685319D01*
X145148699Y-76739546D01*
X145148688Y-76739551D01*
X145001965Y-76830052D01*
X144988032Y-76843985D01*
X144926708Y-76877468D01*
X144857016Y-76872482D01*
X144812672Y-76843982D01*
X144798351Y-76829661D01*
X144798350Y-76829660D01*
X144707129Y-76773395D01*
X144651518Y-76739093D01*
X144651513Y-76739091D01*
X144650069Y-76738612D01*
X144487753Y-76684826D01*
X144487751Y-76684825D01*
X144386678Y-76674500D01*
X143688330Y-76674500D01*
X143688312Y-76674501D01*
X143587247Y-76684825D01*
X143423484Y-76739092D01*
X143423481Y-76739093D01*
X143276648Y-76829661D01*
X143154661Y-76951648D01*
X143064093Y-77098481D01*
X143064091Y-77098486D01*
X143048105Y-77146730D01*
X143009826Y-77262247D01*
X143009826Y-77262248D01*
X143009825Y-77262248D01*
X142999500Y-77363315D01*
X142999500Y-77787402D01*
X142979815Y-77854441D01*
X142963181Y-77875083D01*
X142719481Y-78118782D01*
X142719480Y-78118784D01*
X142671715Y-78201516D01*
X142640423Y-78255715D01*
X142599499Y-78408443D01*
X142599499Y-78408445D01*
X142599499Y-78576546D01*
X142599500Y-78576559D01*
X142599500Y-82214695D01*
X142579815Y-82281734D01*
X142546623Y-82316270D01*
X142385378Y-82429174D01*
X142229175Y-82585377D01*
X142102466Y-82766338D01*
X142102465Y-82766340D01*
X142042382Y-82895189D01*
X141996209Y-82947628D01*
X141929016Y-82966780D01*
X141862135Y-82946564D01*
X141817618Y-82895189D01*
X141757653Y-82766595D01*
X141757534Y-82766339D01*
X141657070Y-82622860D01*
X141630827Y-82585381D01*
X141558810Y-82513364D01*
X141474620Y-82429174D01*
X141474616Y-82429171D01*
X141474615Y-82429170D01*
X141293666Y-82302468D01*
X141293662Y-82302466D01*
X141249202Y-82281734D01*
X141093450Y-82209106D01*
X141093447Y-82209105D01*
X141093445Y-82209104D01*
X140880070Y-82151930D01*
X140880062Y-82151929D01*
X140660002Y-82132677D01*
X140659998Y-82132677D01*
X140439937Y-82151929D01*
X140439929Y-82151930D01*
X140226554Y-82209104D01*
X140226548Y-82209107D01*
X140026340Y-82302465D01*
X140026338Y-82302466D01*
X139845377Y-82429175D01*
X139689175Y-82585377D01*
X139562466Y-82766338D01*
X139562465Y-82766340D01*
X139502382Y-82895189D01*
X139456209Y-82947628D01*
X139389016Y-82966780D01*
X139322135Y-82946564D01*
X139277618Y-82895189D01*
X139217653Y-82766595D01*
X139217534Y-82766339D01*
X139117070Y-82622860D01*
X139090827Y-82585381D01*
X139018810Y-82513364D01*
X138934620Y-82429174D01*
X138934616Y-82429171D01*
X138934615Y-82429170D01*
X138753666Y-82302468D01*
X138753662Y-82302466D01*
X138709202Y-82281734D01*
X138553450Y-82209106D01*
X138553447Y-82209105D01*
X138553445Y-82209104D01*
X138340070Y-82151930D01*
X138340062Y-82151929D01*
X138120002Y-82132677D01*
X138119998Y-82132677D01*
X137899937Y-82151929D01*
X137899929Y-82151930D01*
X137686554Y-82209104D01*
X137686548Y-82209107D01*
X137486340Y-82302465D01*
X137486338Y-82302466D01*
X137305377Y-82429175D01*
X137149175Y-82585377D01*
X137022466Y-82766338D01*
X137022465Y-82766340D01*
X136962382Y-82895189D01*
X136916209Y-82947628D01*
X136849016Y-82966780D01*
X136782135Y-82946564D01*
X136737618Y-82895189D01*
X136677653Y-82766595D01*
X136677534Y-82766339D01*
X136577070Y-82622860D01*
X136550827Y-82585381D01*
X136478810Y-82513364D01*
X136394620Y-82429174D01*
X136394616Y-82429171D01*
X136394615Y-82429170D01*
X136213666Y-82302468D01*
X136213662Y-82302466D01*
X136169202Y-82281734D01*
X136013450Y-82209106D01*
X136013447Y-82209105D01*
X136013445Y-82209104D01*
X135800070Y-82151930D01*
X135800062Y-82151929D01*
X135580002Y-82132677D01*
X135579998Y-82132677D01*
X135359937Y-82151929D01*
X135359929Y-82151930D01*
X135146554Y-82209104D01*
X135146548Y-82209107D01*
X134946340Y-82302465D01*
X134946338Y-82302466D01*
X134765377Y-82429175D01*
X134609175Y-82585377D01*
X134482466Y-82766338D01*
X134482465Y-82766340D01*
X134422382Y-82895189D01*
X134376209Y-82947628D01*
X134309016Y-82966780D01*
X134242135Y-82946564D01*
X134197618Y-82895189D01*
X134137653Y-82766595D01*
X134137534Y-82766339D01*
X134037070Y-82622860D01*
X134010827Y-82585381D01*
X133938810Y-82513364D01*
X133854620Y-82429174D01*
X133854616Y-82429171D01*
X133854615Y-82429170D01*
X133673666Y-82302468D01*
X133673662Y-82302466D01*
X133629202Y-82281734D01*
X133473450Y-82209106D01*
X133473447Y-82209105D01*
X133473445Y-82209104D01*
X133260070Y-82151930D01*
X133260062Y-82151929D01*
X133040002Y-82132677D01*
X133039998Y-82132677D01*
X132819937Y-82151929D01*
X132819929Y-82151930D01*
X132606554Y-82209104D01*
X132606548Y-82209107D01*
X132406340Y-82302465D01*
X132406338Y-82302466D01*
X132225377Y-82429175D01*
X132069175Y-82585377D01*
X131942466Y-82766338D01*
X131942465Y-82766340D01*
X131882382Y-82895189D01*
X131836209Y-82947628D01*
X131769016Y-82966780D01*
X131702135Y-82946564D01*
X131657618Y-82895189D01*
X131597653Y-82766595D01*
X131597534Y-82766339D01*
X131497070Y-82622860D01*
X131470827Y-82585381D01*
X131398810Y-82513364D01*
X131314620Y-82429174D01*
X131314616Y-82429171D01*
X131314615Y-82429170D01*
X131153377Y-82316270D01*
X131109752Y-82261693D01*
X131100500Y-82214695D01*
X131100500Y-77023374D01*
X131100501Y-77023361D01*
X131100501Y-76855259D01*
X131100501Y-76855257D01*
X131059577Y-76702529D01*
X130980520Y-76565598D01*
X127686819Y-73271897D01*
X127653334Y-73210574D01*
X127650500Y-73184216D01*
X127650500Y-72420943D01*
X151250000Y-72420943D01*
X151260549Y-72504925D01*
X151315570Y-72637758D01*
X151367492Y-72704596D01*
X151367503Y-72704609D01*
X151845390Y-73182496D01*
X151845403Y-73182507D01*
X151912241Y-73234429D01*
X152045075Y-73289450D01*
X152129058Y-73299999D01*
X152129065Y-73300000D01*
X154400000Y-73300000D01*
X154900000Y-73300000D01*
X157170942Y-73300000D01*
X157170943Y-73299999D01*
X157254925Y-73289450D01*
X157387758Y-73234429D01*
X157454596Y-73182507D01*
X157454609Y-73182496D01*
X157932496Y-72704609D01*
X157932507Y-72704596D01*
X157946445Y-72686654D01*
X166600001Y-72686654D01*
X166610319Y-72787652D01*
X166664546Y-72951300D01*
X166664551Y-72951311D01*
X166755052Y-73098034D01*
X166755055Y-73098038D01*
X166876961Y-73219944D01*
X166876965Y-73219947D01*
X167023688Y-73310448D01*
X167023699Y-73310453D01*
X167187347Y-73364680D01*
X167288351Y-73374999D01*
X167387500Y-73374998D01*
X167387500Y-72650000D01*
X166600001Y-72650000D01*
X166600001Y-72686654D01*
X157946445Y-72686654D01*
X157984429Y-72637758D01*
X157984429Y-72637757D01*
X158039450Y-72504924D01*
X158049999Y-72420941D01*
X158050000Y-72420935D01*
X158050000Y-72113345D01*
X166600000Y-72113345D01*
X166600000Y-72150000D01*
X167387500Y-72150000D01*
X167387500Y-71424999D01*
X167288360Y-71425000D01*
X167288344Y-71425001D01*
X167187347Y-71435319D01*
X167023699Y-71489546D01*
X167023688Y-71489551D01*
X166876965Y-71580052D01*
X166876961Y-71580055D01*
X166755055Y-71701961D01*
X166755052Y-71701965D01*
X166664551Y-71848688D01*
X166664546Y-71848699D01*
X166610319Y-72012347D01*
X166600000Y-72113345D01*
X158050000Y-72113345D01*
X158050000Y-72000000D01*
X154900000Y-72000000D01*
X154900000Y-73300000D01*
X154400000Y-73300000D01*
X154400000Y-72000000D01*
X151250000Y-72000000D01*
X151250000Y-72420943D01*
X127650500Y-72420943D01*
X127650500Y-70652155D01*
X151250000Y-70652155D01*
X151250000Y-71500000D01*
X154400000Y-71500000D01*
X154900000Y-71500000D01*
X158050000Y-71500000D01*
X158050000Y-70652172D01*
X158049999Y-70652155D01*
X158043598Y-70592627D01*
X158043596Y-70592620D01*
X157993354Y-70457913D01*
X157993350Y-70457906D01*
X157907190Y-70342812D01*
X157907187Y-70342809D01*
X157798779Y-70261654D01*
X165875001Y-70261654D01*
X165885319Y-70362652D01*
X165939546Y-70526300D01*
X165939551Y-70526311D01*
X166030052Y-70673034D01*
X166030055Y-70673038D01*
X166151961Y-70794944D01*
X166151965Y-70794947D01*
X166298688Y-70885448D01*
X166298699Y-70885453D01*
X166462347Y-70939680D01*
X166563352Y-70949999D01*
X166600000Y-70949999D01*
X167100000Y-70949999D01*
X167136640Y-70949999D01*
X167136654Y-70949998D01*
X167237652Y-70939680D01*
X167401300Y-70885453D01*
X167401311Y-70885448D01*
X167548034Y-70794947D01*
X167548038Y-70794944D01*
X167669944Y-70673038D01*
X167669947Y-70673034D01*
X167760448Y-70526311D01*
X167760453Y-70526300D01*
X167814680Y-70362652D01*
X167824999Y-70261654D01*
X167825000Y-70261641D01*
X167825000Y-70212500D01*
X167100000Y-70212500D01*
X167100000Y-70949999D01*
X166600000Y-70949999D01*
X166600000Y-70212500D01*
X165875001Y-70212500D01*
X165875001Y-70261654D01*
X157798779Y-70261654D01*
X157792093Y-70256649D01*
X157792086Y-70256645D01*
X157657379Y-70206403D01*
X157657372Y-70206401D01*
X157597844Y-70200000D01*
X154900000Y-70200000D01*
X154900000Y-71500000D01*
X154400000Y-71500000D01*
X154400000Y-70200000D01*
X151702155Y-70200000D01*
X151642627Y-70206401D01*
X151642620Y-70206403D01*
X151507913Y-70256645D01*
X151507906Y-70256649D01*
X151392812Y-70342809D01*
X151392809Y-70342812D01*
X151306649Y-70457906D01*
X151306645Y-70457913D01*
X151256403Y-70592620D01*
X151256401Y-70592627D01*
X151250000Y-70652155D01*
X127650500Y-70652155D01*
X127650500Y-67179019D01*
X151249500Y-67179019D01*
X151249500Y-68947870D01*
X151249501Y-68947876D01*
X151255908Y-69007483D01*
X151306202Y-69142328D01*
X151306206Y-69142335D01*
X151392452Y-69257544D01*
X151392455Y-69257547D01*
X151507664Y-69343793D01*
X151507671Y-69343797D01*
X151642517Y-69394091D01*
X151642516Y-69394091D01*
X151649444Y-69394835D01*
X151702127Y-69400500D01*
X157597872Y-69400499D01*
X157657483Y-69394091D01*
X157792331Y-69343796D01*
X157907546Y-69257546D01*
X157993796Y-69142331D01*
X158044091Y-69007483D01*
X158050500Y-68947873D01*
X158050499Y-67179025D01*
X158039940Y-67094950D01*
X157984863Y-66961984D01*
X157932879Y-66895065D01*
X157454931Y-66417116D01*
X157454930Y-66417115D01*
X157454922Y-66417108D01*
X157388017Y-66365136D01*
X157303313Y-66330051D01*
X157255050Y-66310060D01*
X157234031Y-66307420D01*
X157170980Y-66299500D01*
X157170977Y-66299500D01*
X155774500Y-66299500D01*
X155707461Y-66279815D01*
X155661706Y-66227011D01*
X155650500Y-66175500D01*
X155650500Y-64815782D01*
X155670185Y-64748743D01*
X155686819Y-64728101D01*
X155745015Y-64669905D01*
X155852140Y-64562781D01*
X155852140Y-64562779D01*
X155862344Y-64552576D01*
X155862347Y-64552571D01*
X157090602Y-63324319D01*
X157151925Y-63290834D01*
X157178283Y-63288000D01*
X157811043Y-63288000D01*
X157941082Y-63262132D01*
X158004335Y-63249551D01*
X158065230Y-63224327D01*
X158190503Y-63172439D01*
X158237955Y-63163000D01*
X158563771Y-63163000D01*
X159713771Y-63163000D01*
X159925500Y-63163000D01*
X159992539Y-63182685D01*
X160038294Y-63235489D01*
X160049500Y-63287000D01*
X160049500Y-63453201D01*
X160052401Y-63490067D01*
X160052402Y-63490073D01*
X160098254Y-63647893D01*
X160098255Y-63647896D01*
X160098256Y-63647898D01*
X160111884Y-63670942D01*
X160181732Y-63789050D01*
X160181918Y-63789364D01*
X160181923Y-63789370D01*
X160298129Y-63905576D01*
X160298133Y-63905579D01*
X160298135Y-63905581D01*
X160439602Y-63989244D01*
X160522597Y-64013356D01*
X160581480Y-64050962D01*
X160610687Y-64114434D01*
X160612000Y-64132432D01*
X160612000Y-64280087D01*
X160592315Y-64347126D01*
X160584950Y-64357396D01*
X160582686Y-64360234D01*
X160486711Y-64512976D01*
X160427131Y-64683245D01*
X160427130Y-64683250D01*
X160406935Y-64862496D01*
X160406935Y-64862503D01*
X160427130Y-65041749D01*
X160427131Y-65041754D01*
X160486711Y-65212023D01*
X160530232Y-65281286D01*
X160582684Y-65364762D01*
X160710238Y-65492316D01*
X160862978Y-65588289D01*
X161033245Y-65647868D01*
X161033250Y-65647869D01*
X161212496Y-65668065D01*
X161212500Y-65668065D01*
X161212504Y-65668065D01*
X161391749Y-65647869D01*
X161391752Y-65647868D01*
X161391755Y-65647868D01*
X161562022Y-65588289D01*
X161714762Y-65492316D01*
X161842316Y-65364762D01*
X161938289Y-65212022D01*
X161997868Y-65041755D01*
X162018065Y-64862500D01*
X162017983Y-64861773D01*
X161997869Y-64683250D01*
X161997868Y-64683245D01*
X161973859Y-64614631D01*
X161938289Y-64512978D01*
X161926739Y-64494597D01*
X161905145Y-64460230D01*
X161842316Y-64360238D01*
X161842314Y-64360236D01*
X161842313Y-64360234D01*
X161840050Y-64357396D01*
X161839159Y-64355215D01*
X161838611Y-64354342D01*
X161838764Y-64354245D01*
X161813644Y-64292709D01*
X161813000Y-64280087D01*
X161813000Y-64132432D01*
X161832685Y-64065393D01*
X161885489Y-64019638D01*
X161902393Y-64013359D01*
X161985398Y-63989244D01*
X162126865Y-63905581D01*
X162243081Y-63789365D01*
X162243267Y-63789049D01*
X162243477Y-63788853D01*
X162247861Y-63783202D01*
X162248772Y-63783909D01*
X162294336Y-63741366D01*
X162363077Y-63728862D01*
X162427667Y-63755506D01*
X162451855Y-63783421D01*
X162452139Y-63783202D01*
X162456179Y-63788411D01*
X162456732Y-63789048D01*
X162456919Y-63789365D01*
X162456921Y-63789367D01*
X162456923Y-63789370D01*
X162573129Y-63905576D01*
X162573133Y-63905579D01*
X162573135Y-63905581D01*
X162714602Y-63989244D01*
X162747270Y-63998735D01*
X162872426Y-64035097D01*
X162872429Y-64035097D01*
X162872431Y-64035098D01*
X162909306Y-64038000D01*
X162909314Y-64038000D01*
X164065686Y-64038000D01*
X164065694Y-64038000D01*
X164102569Y-64035098D01*
X164102571Y-64035097D01*
X164102573Y-64035097D01*
X164183848Y-64011484D01*
X164260398Y-63989244D01*
X164401865Y-63905581D01*
X164433126Y-63874320D01*
X164494448Y-63840834D01*
X164520808Y-63838000D01*
X164737403Y-63838000D01*
X164804442Y-63857685D01*
X164825084Y-63874319D01*
X164913181Y-63962416D01*
X164946666Y-64023739D01*
X164949500Y-64050097D01*
X164949500Y-64768060D01*
X164929815Y-64835099D01*
X164877011Y-64880854D01*
X164807853Y-64890798D01*
X164744297Y-64861773D01*
X164737819Y-64855741D01*
X164652262Y-64770184D01*
X164499523Y-64674211D01*
X164329254Y-64614631D01*
X164329249Y-64614630D01*
X164150004Y-64594435D01*
X164149996Y-64594435D01*
X163970750Y-64614630D01*
X163970745Y-64614631D01*
X163800476Y-64674211D01*
X163647737Y-64770184D01*
X163520184Y-64897737D01*
X163424210Y-65050478D01*
X163364630Y-65220750D01*
X163354837Y-65307668D01*
X163327770Y-65372082D01*
X163319298Y-65381465D01*
X162943786Y-65756978D01*
X162831981Y-65868782D01*
X162831977Y-65868787D01*
X162801262Y-65921988D01*
X162750695Y-65970204D01*
X162732881Y-65977693D01*
X162698486Y-65989090D01*
X162551648Y-66079661D01*
X162537681Y-66093629D01*
X162476358Y-66127114D01*
X162406666Y-66122130D01*
X162362319Y-66093629D01*
X162348351Y-66079661D01*
X162348350Y-66079660D01*
X162201516Y-65989092D01*
X162037753Y-65934826D01*
X162037751Y-65934825D01*
X161936678Y-65924500D01*
X161238330Y-65924500D01*
X161238312Y-65924501D01*
X161137247Y-65934825D01*
X160973484Y-65989092D01*
X160973481Y-65989093D01*
X160826648Y-66079661D01*
X160704659Y-66201650D01*
X160680638Y-66240596D01*
X160628690Y-66287321D01*
X160575099Y-66299500D01*
X159850097Y-66299500D01*
X159783058Y-66279815D01*
X159762416Y-66263181D01*
X159430700Y-65931465D01*
X159397215Y-65870142D01*
X159395163Y-65857686D01*
X159385368Y-65770745D01*
X159325789Y-65600478D01*
X159229816Y-65447738D01*
X159102262Y-65320184D01*
X159082343Y-65307668D01*
X158949523Y-65224211D01*
X158779254Y-65164631D01*
X158779249Y-65164630D01*
X158600004Y-65144435D01*
X158599996Y-65144435D01*
X158420750Y-65164630D01*
X158420745Y-65164631D01*
X158250476Y-65224211D01*
X158097737Y-65320184D01*
X157970184Y-65447737D01*
X157874211Y-65600476D01*
X157814631Y-65770745D01*
X157814630Y-65770750D01*
X157794435Y-65949996D01*
X157794435Y-65950003D01*
X157814630Y-66129249D01*
X157814631Y-66129254D01*
X157874211Y-66299523D01*
X157916808Y-66367315D01*
X157970184Y-66452262D01*
X158097738Y-66579816D01*
X158250478Y-66675789D01*
X158420745Y-66735368D01*
X158507669Y-66745161D01*
X158572080Y-66772226D01*
X158581465Y-66780700D01*
X159065139Y-67264374D01*
X159065149Y-67264385D01*
X159069479Y-67268715D01*
X159069480Y-67268716D01*
X159181284Y-67380520D01*
X159261184Y-67426650D01*
X159318215Y-67459577D01*
X159470943Y-67500501D01*
X159470946Y-67500501D01*
X159636653Y-67500501D01*
X159636669Y-67500500D01*
X160575099Y-67500500D01*
X160642138Y-67520185D01*
X160680638Y-67559404D01*
X160689322Y-67573484D01*
X160704660Y-67598350D01*
X160826650Y-67720340D01*
X160973484Y-67810908D01*
X161137247Y-67865174D01*
X161238323Y-67875500D01*
X161936676Y-67875499D01*
X161936684Y-67875498D01*
X161936687Y-67875498D01*
X161992030Y-67869844D01*
X162037753Y-67865174D01*
X162201516Y-67810908D01*
X162348350Y-67720340D01*
X162362319Y-67706371D01*
X162423642Y-67672886D01*
X162493334Y-67677870D01*
X162537681Y-67706371D01*
X162551650Y-67720340D01*
X162698484Y-67810908D01*
X162862247Y-67865174D01*
X162963323Y-67875500D01*
X163661676Y-67875499D01*
X163661684Y-67875498D01*
X163661687Y-67875498D01*
X163717030Y-67869844D01*
X163762753Y-67865174D01*
X163926516Y-67810908D01*
X164073350Y-67720340D01*
X164195340Y-67598350D01*
X164285908Y-67451516D01*
X164340174Y-67287753D01*
X164350500Y-67186677D01*
X164350499Y-66613324D01*
X164349689Y-66605399D01*
X164340174Y-66512247D01*
X164333546Y-66492246D01*
X164285908Y-66348484D01*
X164285900Y-66348471D01*
X164284507Y-66345482D01*
X164284163Y-66343222D01*
X164283636Y-66341630D01*
X164283908Y-66341539D01*
X164274014Y-66276404D01*
X164302532Y-66212620D01*
X164355932Y-66176033D01*
X164499522Y-66125789D01*
X164652262Y-66029816D01*
X164737819Y-65944259D01*
X164799142Y-65910774D01*
X164868834Y-65915758D01*
X164924767Y-65957630D01*
X164949184Y-66023094D01*
X164949500Y-66031940D01*
X164949500Y-67463330D01*
X164949499Y-67463348D01*
X164949499Y-67629054D01*
X164949498Y-67629054D01*
X164973958Y-67720338D01*
X164990423Y-67781785D01*
X165007236Y-67810906D01*
X165019358Y-67831900D01*
X165019359Y-67831904D01*
X165019360Y-67831904D01*
X165069479Y-67918714D01*
X165069481Y-67918717D01*
X165188349Y-68037585D01*
X165188355Y-68037590D01*
X165652639Y-68501874D01*
X165652649Y-68501885D01*
X165656979Y-68506215D01*
X165656980Y-68506216D01*
X165768784Y-68618020D01*
X165768786Y-68618021D01*
X165768790Y-68618024D01*
X165905709Y-68697074D01*
X165909826Y-68698779D01*
X165964230Y-68742620D01*
X165967913Y-68748244D01*
X166029657Y-68848346D01*
X166029660Y-68848350D01*
X166143982Y-68962672D01*
X166177467Y-69023995D01*
X166172483Y-69093687D01*
X166143983Y-69138034D01*
X166030052Y-69251965D01*
X165939551Y-69398688D01*
X165939546Y-69398699D01*
X165885319Y-69562347D01*
X165875000Y-69663345D01*
X165875000Y-69712500D01*
X167824999Y-69712500D01*
X167824999Y-69663360D01*
X167824998Y-69663345D01*
X167814680Y-69562347D01*
X167760453Y-69398699D01*
X167760448Y-69398688D01*
X167669947Y-69251965D01*
X167669944Y-69251961D01*
X167556017Y-69138034D01*
X167522532Y-69076711D01*
X167527516Y-69007019D01*
X167556013Y-68962676D01*
X167670340Y-68848350D01*
X167702072Y-68796904D01*
X167754020Y-68750179D01*
X167807611Y-68738000D01*
X169542389Y-68738000D01*
X169609428Y-68757685D01*
X169647928Y-68796904D01*
X169679659Y-68848349D01*
X169793629Y-68962319D01*
X169827114Y-69023642D01*
X169822130Y-69093334D01*
X169793629Y-69137681D01*
X169679661Y-69251648D01*
X169589093Y-69398481D01*
X169589091Y-69398486D01*
X169588424Y-69400499D01*
X169534826Y-69562247D01*
X169534826Y-69562248D01*
X169534825Y-69562248D01*
X169524500Y-69663315D01*
X169524500Y-70261669D01*
X169524501Y-70261687D01*
X169534825Y-70362752D01*
X169566357Y-70457906D01*
X169589092Y-70526516D01*
X169679660Y-70673350D01*
X169801650Y-70795340D01*
X169840597Y-70819362D01*
X169887320Y-70871307D01*
X169899500Y-70924900D01*
X169899500Y-71306374D01*
X169879815Y-71373413D01*
X169827011Y-71419168D01*
X169762899Y-71429732D01*
X169711680Y-71424500D01*
X169013330Y-71424500D01*
X169013312Y-71424501D01*
X168912247Y-71434825D01*
X168748484Y-71489092D01*
X168748481Y-71489093D01*
X168601648Y-71579661D01*
X168587325Y-71593984D01*
X168526001Y-71627468D01*
X168456309Y-71622482D01*
X168411965Y-71593982D01*
X168398038Y-71580055D01*
X168398034Y-71580052D01*
X168251311Y-71489551D01*
X168251300Y-71489546D01*
X168087652Y-71435319D01*
X167986654Y-71425000D01*
X167887500Y-71425000D01*
X167887500Y-73374999D01*
X167986640Y-73374999D01*
X167986654Y-73374998D01*
X168087652Y-73364680D01*
X168251300Y-73310453D01*
X168251311Y-73310448D01*
X168398035Y-73219947D01*
X168411960Y-73206021D01*
X168473282Y-73172533D01*
X168542973Y-73177514D01*
X168587327Y-73206017D01*
X168601650Y-73220340D01*
X168748484Y-73310908D01*
X168912247Y-73365174D01*
X169013323Y-73375500D01*
X169424902Y-73375499D01*
X169491941Y-73395183D01*
X169512583Y-73411818D01*
X170015139Y-73914374D01*
X170015149Y-73914385D01*
X170019479Y-73918715D01*
X170019480Y-73918716D01*
X170131284Y-74030520D01*
X170131285Y-74030520D01*
X170138352Y-74037587D01*
X170138351Y-74037587D01*
X170138355Y-74037590D01*
X170619298Y-74518533D01*
X170652783Y-74579856D01*
X170654837Y-74592330D01*
X170664630Y-74679249D01*
X170724210Y-74849521D01*
X170820184Y-75002262D01*
X170947738Y-75129816D01*
X171100478Y-75225789D01*
X171198525Y-75260097D01*
X171270745Y-75285368D01*
X171270750Y-75285369D01*
X171449996Y-75305565D01*
X171450000Y-75305565D01*
X171450004Y-75305565D01*
X171629249Y-75285369D01*
X171629252Y-75285368D01*
X171629255Y-75285368D01*
X171799522Y-75225789D01*
X171952262Y-75129816D01*
X172079816Y-75002262D01*
X172175789Y-74849522D01*
X172235368Y-74679255D01*
X172245162Y-74592330D01*
X172255565Y-74500003D01*
X172255565Y-74499996D01*
X172235369Y-74320750D01*
X172235368Y-74320745D01*
X172175788Y-74150476D01*
X172136582Y-74088080D01*
X172079816Y-73997738D01*
X171952262Y-73870184D01*
X171799521Y-73774210D01*
X171629249Y-73714630D01*
X171542330Y-73704837D01*
X171477916Y-73677770D01*
X171468533Y-73669298D01*
X171136819Y-73337584D01*
X171103334Y-73276261D01*
X171100500Y-73249903D01*
X171100500Y-70924900D01*
X171120185Y-70857861D01*
X171159401Y-70819363D01*
X171198350Y-70795340D01*
X171320340Y-70673350D01*
X171410908Y-70526516D01*
X171465174Y-70362753D01*
X171475500Y-70261677D01*
X171475499Y-69663324D01*
X171465174Y-69562247D01*
X171410908Y-69398484D01*
X171320340Y-69251650D01*
X171206371Y-69137681D01*
X171172886Y-69076358D01*
X171177870Y-69006666D01*
X171206371Y-68962319D01*
X171220826Y-68947864D01*
X171320340Y-68848350D01*
X171410908Y-68701516D01*
X171465174Y-68537753D01*
X171475500Y-68436677D01*
X171475499Y-67838324D01*
X171473942Y-67823086D01*
X171465174Y-67737247D01*
X171410908Y-67573484D01*
X171320340Y-67426650D01*
X171198350Y-67304660D01*
X171051516Y-67214092D01*
X170887753Y-67159826D01*
X170887751Y-67159825D01*
X170786678Y-67149500D01*
X170213330Y-67149500D01*
X170213312Y-67149501D01*
X170112247Y-67159825D01*
X169948484Y-67214092D01*
X169948481Y-67214093D01*
X169801648Y-67304661D01*
X169725790Y-67380520D01*
X169679660Y-67426650D01*
X169652340Y-67470943D01*
X169647928Y-67478096D01*
X169595980Y-67524821D01*
X169542389Y-67537000D01*
X167807611Y-67537000D01*
X167740572Y-67517315D01*
X167702072Y-67478096D01*
X167697660Y-67470943D01*
X167670340Y-67426650D01*
X167548350Y-67304660D01*
X167401516Y-67214092D01*
X167237753Y-67159826D01*
X167237751Y-67159825D01*
X167136678Y-67149500D01*
X166563330Y-67149500D01*
X166563312Y-67149501D01*
X166462247Y-67159825D01*
X166462244Y-67159826D01*
X166313504Y-67209115D01*
X166243676Y-67211517D01*
X166183634Y-67175785D01*
X166152441Y-67113265D01*
X166150500Y-67091409D01*
X166150500Y-65550000D01*
X180394652Y-65550000D01*
X180413707Y-65901459D01*
X180414028Y-65907368D01*
X180414029Y-65907385D01*
X180471926Y-66260539D01*
X180471932Y-66260565D01*
X180567672Y-66605392D01*
X180567674Y-66605399D01*
X180700142Y-66937870D01*
X180700151Y-66937888D01*
X180867784Y-67254077D01*
X180867787Y-67254082D01*
X180867789Y-67254085D01*
X181051352Y-67524821D01*
X181068634Y-67550309D01*
X181068641Y-67550319D01*
X181289986Y-67810906D01*
X181300332Y-67823086D01*
X181560163Y-68069211D01*
X181845081Y-68285800D01*
X182151747Y-68470315D01*
X182151749Y-68470316D01*
X182151751Y-68470317D01*
X182151755Y-68470319D01*
X182471008Y-68618020D01*
X182476565Y-68620591D01*
X182815726Y-68734868D01*
X183165254Y-68811805D01*
X183521052Y-68850500D01*
X183521058Y-68850500D01*
X183878942Y-68850500D01*
X183878948Y-68850500D01*
X184234746Y-68811805D01*
X184584274Y-68734868D01*
X184923435Y-68620591D01*
X185248253Y-68470315D01*
X185554919Y-68285800D01*
X185839837Y-68069211D01*
X186099668Y-67823086D01*
X186331365Y-67550311D01*
X186532211Y-67254085D01*
X186699853Y-66937880D01*
X186832324Y-66605403D01*
X186928071Y-66260552D01*
X186952664Y-66110539D01*
X186985970Y-65907385D01*
X186985970Y-65907382D01*
X186985972Y-65907371D01*
X187005348Y-65550000D01*
X186985972Y-65192629D01*
X186981382Y-65164632D01*
X186928073Y-64839460D01*
X186928072Y-64839459D01*
X186928071Y-64839448D01*
X186880998Y-64669905D01*
X186832327Y-64494607D01*
X186832325Y-64494600D01*
X186699857Y-64162129D01*
X186699848Y-64162111D01*
X186640920Y-64050962D01*
X186608199Y-63989243D01*
X186532215Y-63845922D01*
X186532213Y-63845919D01*
X186532211Y-63845915D01*
X186331365Y-63549689D01*
X186331361Y-63549684D01*
X186331358Y-63549680D01*
X186099668Y-63276914D01*
X186029984Y-63210906D01*
X185839837Y-63030789D01*
X185839830Y-63030783D01*
X185839827Y-63030781D01*
X185753109Y-62964860D01*
X185554919Y-62814200D01*
X185248253Y-62629685D01*
X185248252Y-62629684D01*
X185248248Y-62629682D01*
X185248244Y-62629680D01*
X184923447Y-62479414D01*
X184923441Y-62479411D01*
X184923435Y-62479409D01*
X184753854Y-62422270D01*
X184584273Y-62365131D01*
X184234744Y-62288194D01*
X183878949Y-62249500D01*
X183878948Y-62249500D01*
X183521052Y-62249500D01*
X183521050Y-62249500D01*
X183165255Y-62288194D01*
X182815726Y-62365131D01*
X182559970Y-62451306D01*
X182476565Y-62479409D01*
X182476563Y-62479410D01*
X182476552Y-62479414D01*
X182151755Y-62629680D01*
X182151751Y-62629682D01*
X182055237Y-62687753D01*
X181845081Y-62814200D01*
X181828109Y-62827102D01*
X181560172Y-63030781D01*
X181560163Y-63030789D01*
X181300331Y-63276914D01*
X181068641Y-63549680D01*
X181068634Y-63549690D01*
X180867790Y-63845913D01*
X180867784Y-63845922D01*
X180700151Y-64162111D01*
X180700142Y-64162129D01*
X180567674Y-64494600D01*
X180567672Y-64494607D01*
X180471932Y-64839434D01*
X180471926Y-64839460D01*
X180414029Y-65192614D01*
X180414028Y-65192627D01*
X180414028Y-65192629D01*
X180412504Y-65220745D01*
X180397780Y-65492316D01*
X180394652Y-65550000D01*
X166150500Y-65550000D01*
X166150500Y-63670942D01*
X166148124Y-63662077D01*
X166136978Y-63620477D01*
X166109577Y-63518216D01*
X166093329Y-63490073D01*
X166030524Y-63381290D01*
X166030521Y-63381286D01*
X166030520Y-63381284D01*
X165918716Y-63269480D01*
X165918715Y-63269479D01*
X165914385Y-63265149D01*
X165914374Y-63265139D01*
X165761416Y-63112181D01*
X165727931Y-63050858D01*
X165732915Y-62981166D01*
X165774787Y-62925233D01*
X165840251Y-62900816D01*
X165849097Y-62900500D01*
X166875099Y-62900500D01*
X166942138Y-62920185D01*
X166980638Y-62959404D01*
X167004660Y-62998350D01*
X167126650Y-63120340D01*
X167273484Y-63210908D01*
X167437247Y-63265174D01*
X167538323Y-63275500D01*
X168236676Y-63275499D01*
X168236684Y-63275498D01*
X168236687Y-63275498D01*
X168295619Y-63269478D01*
X168337753Y-63265174D01*
X168501516Y-63210908D01*
X168648350Y-63120340D01*
X168662319Y-63106371D01*
X168723642Y-63072886D01*
X168793334Y-63077870D01*
X168837681Y-63106371D01*
X168851650Y-63120340D01*
X168998484Y-63210908D01*
X169162247Y-63265174D01*
X169263323Y-63275500D01*
X169961676Y-63275499D01*
X169961684Y-63275498D01*
X169961687Y-63275498D01*
X170020619Y-63269478D01*
X170062753Y-63265174D01*
X170226516Y-63210908D01*
X170373350Y-63120340D01*
X170495340Y-62998350D01*
X170585908Y-62851516D01*
X170640174Y-62687753D01*
X170650500Y-62586677D01*
X170650499Y-62013324D01*
X170640174Y-61912247D01*
X170585908Y-61748484D01*
X170495340Y-61601650D01*
X170373350Y-61479660D01*
X170373346Y-61479657D01*
X170271903Y-61417086D01*
X170225178Y-61365138D01*
X170213000Y-61311548D01*
X170213000Y-60551560D01*
X170213001Y-60551547D01*
X170213001Y-60383444D01*
X170213001Y-60383443D01*
X170172077Y-60230716D01*
X170172073Y-60230709D01*
X170093024Y-60093790D01*
X170093018Y-60093782D01*
X169287590Y-59288355D01*
X169287588Y-59288352D01*
X169168717Y-59169481D01*
X169168709Y-59169475D01*
X169066936Y-59110717D01*
X169066934Y-59110716D01*
X169031790Y-59090425D01*
X169031789Y-59090424D01*
X169019263Y-59087067D01*
X168879057Y-59049499D01*
X168720943Y-59049499D01*
X168713347Y-59049499D01*
X168713331Y-59049500D01*
X165732412Y-59049500D01*
X165665373Y-59029815D01*
X165655097Y-59022445D01*
X165652263Y-59020185D01*
X165652262Y-59020184D01*
X165595496Y-58984515D01*
X165499523Y-58924211D01*
X165329254Y-58864631D01*
X165329249Y-58864630D01*
X165150004Y-58844435D01*
X165149996Y-58844435D01*
X164970750Y-58864630D01*
X164970745Y-58864631D01*
X164800476Y-58924211D01*
X164647736Y-59020185D01*
X164644903Y-59022445D01*
X164642724Y-59023334D01*
X164641842Y-59023889D01*
X164641744Y-59023734D01*
X164580217Y-59048855D01*
X164567588Y-59049500D01*
X161536670Y-59049500D01*
X161536654Y-59049499D01*
X161529058Y-59049499D01*
X161370943Y-59049499D01*
X161294579Y-59069961D01*
X161218214Y-59090423D01*
X161218209Y-59090426D01*
X161081290Y-59169475D01*
X161081282Y-59169481D01*
X160731981Y-59518782D01*
X160731979Y-59518785D01*
X160681861Y-59605594D01*
X160681859Y-59605596D01*
X160652925Y-59655709D01*
X160652924Y-59655710D01*
X160652923Y-59655715D01*
X160611999Y-59808443D01*
X160611999Y-59808445D01*
X160611999Y-59976546D01*
X160612000Y-59976559D01*
X160612000Y-60442567D01*
X160592315Y-60509606D01*
X160539511Y-60555361D01*
X160522596Y-60561643D01*
X160439604Y-60585754D01*
X160439603Y-60585755D01*
X160298137Y-60669417D01*
X160298129Y-60669423D01*
X160181923Y-60785629D01*
X160181917Y-60785637D01*
X160098255Y-60927103D01*
X160098254Y-60927106D01*
X160052402Y-61084926D01*
X160052401Y-61084932D01*
X160049500Y-61121798D01*
X160049500Y-61288000D01*
X160029815Y-61355039D01*
X159977011Y-61400794D01*
X159925500Y-61412000D01*
X158237955Y-61412000D01*
X158190503Y-61402561D01*
X158004339Y-61325450D01*
X158004329Y-61325447D01*
X157811043Y-61287000D01*
X157811041Y-61287000D01*
X156613959Y-61287000D01*
X156613954Y-61287000D01*
X156581891Y-61293376D01*
X156581892Y-61293377D01*
X156420670Y-61325446D01*
X156420664Y-61325448D01*
X156338271Y-61359577D01*
X156238586Y-61400867D01*
X156134365Y-61470506D01*
X156120665Y-61479660D01*
X156109254Y-61487284D01*
X156074716Y-61510361D01*
X156074715Y-61510362D01*
X154822579Y-62762500D01*
X154437221Y-63147858D01*
X154437219Y-63147860D01*
X154012220Y-63572859D01*
X154012218Y-63572861D01*
X153977326Y-63607753D01*
X153872859Y-63712219D01*
X153763371Y-63876080D01*
X153763364Y-63876093D01*
X153719587Y-63981783D01*
X153719587Y-63981784D01*
X153687949Y-64058162D01*
X153687949Y-64058164D01*
X153672325Y-64136711D01*
X153672325Y-64136712D01*
X153649500Y-64251456D01*
X153649500Y-66175500D01*
X153629815Y-66242539D01*
X153577011Y-66288294D01*
X153525500Y-66299500D01*
X152129029Y-66299500D01*
X152044950Y-66310060D01*
X151911984Y-66365136D01*
X151845065Y-66417121D01*
X151845058Y-66417127D01*
X151367117Y-66895067D01*
X151367108Y-66895077D01*
X151315136Y-66961982D01*
X151260060Y-67094950D01*
X151249500Y-67179019D01*
X127650500Y-67179019D01*
X127650500Y-66460718D01*
X127670185Y-66393679D01*
X127718207Y-66350233D01*
X127757815Y-66330052D01*
X127757815Y-66330051D01*
X127757816Y-66330051D01*
X127929792Y-66205104D01*
X128068967Y-66065928D01*
X128130286Y-66032446D01*
X128199978Y-66037430D01*
X128255912Y-66079301D01*
X128262184Y-66088515D01*
X128357684Y-66243345D01*
X128481654Y-66367315D01*
X128630875Y-66459356D01*
X128630880Y-66459358D01*
X128797302Y-66514505D01*
X128797309Y-66514506D01*
X128900019Y-66524999D01*
X129299999Y-66524999D01*
X129300000Y-66524998D01*
X129300000Y-65454145D01*
X129366657Y-65492630D01*
X129487465Y-65525000D01*
X129612535Y-65525000D01*
X129733343Y-65492630D01*
X129800000Y-65454145D01*
X129800000Y-66524999D01*
X130199972Y-66524999D01*
X130199986Y-66524998D01*
X130302697Y-66514505D01*
X130469119Y-66459358D01*
X130469124Y-66459356D01*
X130618345Y-66367315D01*
X130742315Y-66243345D01*
X130834356Y-66094124D01*
X130834358Y-66094119D01*
X130889505Y-65927697D01*
X130889506Y-65927690D01*
X130899999Y-65824986D01*
X130900000Y-65824973D01*
X130900000Y-65300000D01*
X129954146Y-65300000D01*
X129992630Y-65233343D01*
X130025000Y-65112535D01*
X130025000Y-64987465D01*
X129992630Y-64866657D01*
X129954146Y-64800000D01*
X130899999Y-64800000D01*
X130899999Y-64275028D01*
X130899998Y-64275013D01*
X130889505Y-64172302D01*
X130834358Y-64005880D01*
X130834356Y-64005875D01*
X130742315Y-63856654D01*
X130618345Y-63732684D01*
X130469124Y-63640643D01*
X130469119Y-63640641D01*
X130302697Y-63585494D01*
X130302690Y-63585493D01*
X130199986Y-63575000D01*
X129800000Y-63575000D01*
X129800000Y-64645854D01*
X129733343Y-64607370D01*
X129612535Y-64575000D01*
X129487465Y-64575000D01*
X129366657Y-64607370D01*
X129300000Y-64645854D01*
X129300000Y-63575000D01*
X128900028Y-63575000D01*
X128900012Y-63575001D01*
X128797302Y-63585494D01*
X128630880Y-63640641D01*
X128630875Y-63640643D01*
X128481654Y-63732684D01*
X128357683Y-63856655D01*
X128357680Y-63856659D01*
X128262183Y-64011484D01*
X128210235Y-64058209D01*
X128141273Y-64069430D01*
X128077191Y-64041587D01*
X128068964Y-64034068D01*
X127929786Y-63894890D01*
X127757820Y-63769951D01*
X127568414Y-63673444D01*
X127568413Y-63673443D01*
X127568412Y-63673443D01*
X127366243Y-63607754D01*
X127366241Y-63607753D01*
X127366240Y-63607753D01*
X127204957Y-63582208D01*
X127156287Y-63574500D01*
X126943713Y-63574500D01*
X126895042Y-63582208D01*
X126733760Y-63607753D01*
X126531585Y-63673444D01*
X126342179Y-63769951D01*
X126170213Y-63894890D01*
X126019894Y-64045209D01*
X126019890Y-64045214D01*
X125900318Y-64209793D01*
X125844989Y-64252459D01*
X125775375Y-64258438D01*
X125713580Y-64225833D01*
X125699682Y-64209793D01*
X125580109Y-64045214D01*
X125580105Y-64045209D01*
X125429786Y-63894890D01*
X125257820Y-63769951D01*
X125068414Y-63673444D01*
X125068413Y-63673443D01*
X125068412Y-63673443D01*
X124866243Y-63607754D01*
X124866241Y-63607753D01*
X124866240Y-63607753D01*
X124704957Y-63582208D01*
X124656287Y-63574500D01*
X124443713Y-63574500D01*
X124395042Y-63582208D01*
X124233760Y-63607753D01*
X124031585Y-63673444D01*
X123842179Y-63769951D01*
X123670213Y-63894890D01*
X123519894Y-64045209D01*
X123519890Y-64045214D01*
X123400318Y-64209793D01*
X123344989Y-64252459D01*
X123275375Y-64258438D01*
X123213580Y-64225833D01*
X123199682Y-64209793D01*
X123080109Y-64045214D01*
X123080105Y-64045209D01*
X122929786Y-63894890D01*
X122757820Y-63769951D01*
X122568414Y-63673444D01*
X122568413Y-63673443D01*
X122568412Y-63673443D01*
X122366243Y-63607754D01*
X122366241Y-63607753D01*
X122366240Y-63607753D01*
X122204957Y-63582208D01*
X122156287Y-63574500D01*
X121943713Y-63574500D01*
X121895042Y-63582208D01*
X121733760Y-63607753D01*
X121531585Y-63673444D01*
X121342179Y-63769951D01*
X121170213Y-63894890D01*
X121019890Y-64045213D01*
X120894951Y-64217179D01*
X120798444Y-64406585D01*
X120732753Y-64608760D01*
X120710582Y-64748743D01*
X120699500Y-64818713D01*
X120699500Y-65281287D01*
X120732754Y-65491243D01*
X120790207Y-65668065D01*
X120798444Y-65693414D01*
X120894951Y-65882820D01*
X121019890Y-66054786D01*
X121170213Y-66205109D01*
X121342179Y-66330048D01*
X121342181Y-66330049D01*
X121342184Y-66330051D01*
X121531588Y-66426557D01*
X121733757Y-66492246D01*
X121943713Y-66525500D01*
X121943714Y-66525500D01*
X122156286Y-66525500D01*
X122156287Y-66525500D01*
X122366243Y-66492246D01*
X122568412Y-66426557D01*
X122757816Y-66330051D01*
X122785331Y-66310060D01*
X122929786Y-66205109D01*
X122929788Y-66205106D01*
X122929792Y-66205104D01*
X123080104Y-66054792D01*
X123199683Y-65890204D01*
X123255011Y-65847540D01*
X123324624Y-65841561D01*
X123386420Y-65874166D01*
X123400313Y-65890199D01*
X123496866Y-66023094D01*
X123519896Y-66054792D01*
X123670213Y-66205109D01*
X123842184Y-66330051D01*
X123842184Y-66330052D01*
X123881793Y-66350233D01*
X123932590Y-66398206D01*
X123949500Y-66460718D01*
X123949500Y-71463330D01*
X123949499Y-71463348D01*
X123949499Y-71629054D01*
X123949498Y-71629054D01*
X123968951Y-71701650D01*
X123990423Y-71781785D01*
X124000651Y-71799500D01*
X124069477Y-71918712D01*
X124069481Y-71918717D01*
X124188349Y-72037585D01*
X124188355Y-72037590D01*
X127323181Y-75172416D01*
X127356666Y-75233739D01*
X127359500Y-75260097D01*
X127359500Y-82214695D01*
X127339815Y-82281734D01*
X127306623Y-82316270D01*
X127145381Y-82429172D01*
X127060523Y-82514030D01*
X126999199Y-82547514D01*
X126929508Y-82542530D01*
X126885161Y-82514029D01*
X126846397Y-82475265D01*
X126846374Y-82475244D01*
X124659485Y-80288355D01*
X124659483Y-80288352D01*
X124540612Y-80169481D01*
X124540611Y-80169480D01*
X124453799Y-80119360D01*
X124453799Y-80119359D01*
X124453795Y-80119358D01*
X124403680Y-80090423D01*
X124250952Y-80049499D01*
X124092838Y-80049499D01*
X124085242Y-80049499D01*
X124085226Y-80049500D01*
X120629057Y-80049500D01*
X120470942Y-80049500D01*
X120318215Y-80090423D01*
X120318214Y-80090423D01*
X120318212Y-80090424D01*
X120318209Y-80090425D01*
X120268096Y-80119359D01*
X120268095Y-80119360D01*
X120224689Y-80144420D01*
X120181285Y-80169479D01*
X120181282Y-80169481D01*
X120069478Y-80281286D01*
X118211679Y-82139084D01*
X118150356Y-82172569D01*
X118091906Y-82171178D01*
X118020076Y-82151932D01*
X118020073Y-82151931D01*
X118020068Y-82151930D01*
X118020065Y-82151929D01*
X118020062Y-82151929D01*
X117800002Y-82132677D01*
X117799998Y-82132677D01*
X117579937Y-82151929D01*
X117579929Y-82151930D01*
X117366554Y-82209104D01*
X117366548Y-82209107D01*
X117166340Y-82302465D01*
X117166338Y-82302466D01*
X116985377Y-82429175D01*
X116829175Y-82585377D01*
X116702466Y-82766338D01*
X116702465Y-82766340D01*
X116609107Y-82966548D01*
X116609104Y-82966554D01*
X116551930Y-83179929D01*
X116551929Y-83179937D01*
X116532677Y-83399997D01*
X116532677Y-83400002D01*
X116551929Y-83620062D01*
X116551930Y-83620070D01*
X116609104Y-83833445D01*
X116609105Y-83833447D01*
X116609106Y-83833450D01*
X116697462Y-84022930D01*
X116707954Y-84092008D01*
X116679434Y-84155792D01*
X116620958Y-84194031D01*
X116583823Y-84199329D01*
X103548202Y-84067210D01*
X103481366Y-84046847D01*
X103436148Y-83993582D01*
X103426906Y-83924326D01*
X103444314Y-83879585D01*
X103443759Y-83879289D01*
X103446223Y-83874677D01*
X103446366Y-83874312D01*
X103446631Y-83873915D01*
X103446632Y-83873914D01*
X103522051Y-83691835D01*
X103560500Y-83498541D01*
X103560500Y-83301459D01*
X103560500Y-83301456D01*
X103522052Y-83108170D01*
X103522051Y-83108169D01*
X103522051Y-83108165D01*
X103466461Y-82973958D01*
X103446635Y-82926092D01*
X103446628Y-82926079D01*
X103337139Y-82762218D01*
X103337136Y-82762214D01*
X103197785Y-82622863D01*
X103197781Y-82622860D01*
X103033920Y-82513371D01*
X103033907Y-82513364D01*
X102851839Y-82437950D01*
X102851829Y-82437947D01*
X102658543Y-82399500D01*
X102658541Y-82399500D01*
X102461459Y-82399500D01*
X102461457Y-82399500D01*
X102268170Y-82437947D01*
X102268160Y-82437950D01*
X102086092Y-82513364D01*
X102086074Y-82513374D01*
X102040096Y-82544096D01*
X101973419Y-82564974D01*
X101906039Y-82546489D01*
X101859349Y-82494510D01*
X101847206Y-82441213D01*
X101817621Y-65400000D01*
X104544652Y-65400000D01*
X104563602Y-65749522D01*
X104564028Y-65757368D01*
X104564029Y-65757385D01*
X104621926Y-66110539D01*
X104621932Y-66110565D01*
X104717672Y-66455392D01*
X104717674Y-66455399D01*
X104850142Y-66787870D01*
X104850151Y-66787888D01*
X105017784Y-67104077D01*
X105017787Y-67104082D01*
X105017789Y-67104085D01*
X105205216Y-67380520D01*
X105218634Y-67400309D01*
X105218641Y-67400319D01*
X105412931Y-67629054D01*
X105450332Y-67673086D01*
X105710163Y-67919211D01*
X105995081Y-68135800D01*
X106301747Y-68320315D01*
X106301749Y-68320316D01*
X106301751Y-68320317D01*
X106301755Y-68320319D01*
X106553261Y-68436677D01*
X106626565Y-68470591D01*
X106965726Y-68584868D01*
X107315254Y-68661805D01*
X107671052Y-68700500D01*
X107671058Y-68700500D01*
X108028942Y-68700500D01*
X108028948Y-68700500D01*
X108384746Y-68661805D01*
X108734274Y-68584868D01*
X109073435Y-68470591D01*
X109398253Y-68320315D01*
X109704919Y-68135800D01*
X109989837Y-67919211D01*
X110249668Y-67673086D01*
X110481365Y-67400311D01*
X110682211Y-67104085D01*
X110849853Y-66787880D01*
X110982324Y-66455403D01*
X111078071Y-66110552D01*
X111097983Y-65989092D01*
X111135970Y-65757385D01*
X111135970Y-65757382D01*
X111135972Y-65757371D01*
X111155348Y-65400000D01*
X111135972Y-65042629D01*
X111126928Y-64987465D01*
X111078073Y-64689460D01*
X111078072Y-64689459D01*
X111078071Y-64689448D01*
X110982324Y-64344597D01*
X110909622Y-64162129D01*
X110849857Y-64012129D01*
X110849848Y-64012111D01*
X110842756Y-63998735D01*
X110731484Y-63788853D01*
X110682215Y-63695922D01*
X110682213Y-63695919D01*
X110682211Y-63695915D01*
X110481365Y-63399689D01*
X110481361Y-63399684D01*
X110481358Y-63399680D01*
X110249668Y-63126914D01*
X110192631Y-63072886D01*
X109989837Y-62880789D01*
X109989830Y-62880783D01*
X109989827Y-62880781D01*
X109834230Y-62762500D01*
X109704919Y-62664200D01*
X109398253Y-62479685D01*
X109398252Y-62479684D01*
X109398248Y-62479682D01*
X109398244Y-62479680D01*
X109073447Y-62329414D01*
X109073441Y-62329411D01*
X109073435Y-62329409D01*
X108903854Y-62272270D01*
X108734273Y-62215131D01*
X108384744Y-62138194D01*
X108028949Y-62099500D01*
X108028948Y-62099500D01*
X107671052Y-62099500D01*
X107671050Y-62099500D01*
X107315255Y-62138194D01*
X106965726Y-62215131D01*
X106748886Y-62288194D01*
X106626565Y-62329409D01*
X106626563Y-62329410D01*
X106626552Y-62329414D01*
X106301755Y-62479680D01*
X106301751Y-62479682D01*
X106123925Y-62586677D01*
X105995081Y-62664200D01*
X105964098Y-62687753D01*
X105710172Y-62880781D01*
X105710163Y-62880789D01*
X105450331Y-63126914D01*
X105218641Y-63399680D01*
X105218634Y-63399690D01*
X105017790Y-63695913D01*
X105017784Y-63695922D01*
X104850151Y-64012111D01*
X104850142Y-64012129D01*
X104717674Y-64344600D01*
X104717672Y-64344607D01*
X104621932Y-64689434D01*
X104621926Y-64689460D01*
X104564029Y-65042614D01*
X104564028Y-65042627D01*
X104564028Y-65042629D01*
X104560238Y-65112535D01*
X104546563Y-65364762D01*
X104544652Y-65400000D01*
X101817621Y-65400000D01*
X101815027Y-63905576D01*
X101800651Y-55624715D01*
X101820219Y-55557642D01*
X101872944Y-55511795D01*
X101924651Y-55500500D01*
X189375500Y-55500500D01*
X189442539Y-55520185D01*
G37*
%TD.AperFunction*%
%TD*%
M02*
