%TF.GenerationSoftware,KiCad,Pcbnew,8.0.6*%
%TF.CreationDate,2025-02-09T15:22:34+01:00*%
%TF.ProjectId,BaseBoard,42617365-426f-4617-9264-2e6b69636164,rev?*%
%TF.SameCoordinates,Original*%
%TF.FileFunction,Legend,Bot*%
%TF.FilePolarity,Positive*%
%FSLAX46Y46*%
G04 Gerber Fmt 4.6, Leading zero omitted, Abs format (unit mm)*
G04 Created by KiCad (PCBNEW 8.0.6) date 2025-02-09 15:22:34*
%MOMM*%
%LPD*%
G01*
G04 APERTURE LIST*
%ADD10C,0.000000*%
G04 APERTURE END LIST*
D10*
%TO.C,G\u002A\u002A\u002A*%
G36*
X181212878Y-88516104D02*
G01*
X181153584Y-88958173D01*
X183567141Y-88924902D01*
X185980698Y-88891631D01*
X185980698Y-89491202D01*
X185980698Y-90090772D01*
X183567141Y-90057501D01*
X181153584Y-90024230D01*
X181212878Y-90466300D01*
X181272172Y-90908369D01*
X180737481Y-90908369D01*
X180202790Y-90908369D01*
X180202790Y-89491202D01*
X180202790Y-88074034D01*
X180737481Y-88074034D01*
X181272172Y-88074034D01*
X181212878Y-88516104D01*
G37*
G36*
X185980473Y-116352646D02*
G01*
X185980473Y-117596064D01*
X185428429Y-117671990D01*
X185224885Y-117696051D01*
X184953535Y-117712535D01*
X184825808Y-117697338D01*
X184822283Y-117579168D01*
X184887294Y-117352013D01*
X184900069Y-117315561D01*
X184970592Y-116987082D01*
X184999357Y-116619096D01*
X184999357Y-116180926D01*
X182600990Y-116217394D01*
X180202624Y-116253863D01*
X180202707Y-115681545D01*
X180202790Y-115109227D01*
X183091631Y-115109227D01*
X185980473Y-115109227D01*
X185980473Y-116352646D01*
G37*
G36*
X181225768Y-118815665D02*
G01*
X181156041Y-119251717D01*
X183568257Y-119251717D01*
X185980473Y-119251717D01*
X185980580Y-119824034D01*
X185980687Y-120396352D01*
X183566900Y-120361321D01*
X181153112Y-120326289D01*
X181212642Y-120770119D01*
X181272172Y-121213948D01*
X180737481Y-121213948D01*
X180202790Y-121213948D01*
X180202790Y-119862951D01*
X180202951Y-119593078D01*
X180210173Y-119080115D01*
X180240368Y-118736938D01*
X180310070Y-118529423D01*
X180435815Y-118423447D01*
X180634140Y-118384885D01*
X180921578Y-118379614D01*
X181295495Y-118379614D01*
X181225768Y-118815665D01*
G37*
G36*
X185980495Y-76064553D02*
G01*
X185980473Y-76646059D01*
X184781331Y-76568339D01*
X183582189Y-76490620D01*
X183582189Y-76957027D01*
X183582189Y-77423435D01*
X184781331Y-77360175D01*
X185980473Y-77296915D01*
X185980488Y-77861655D01*
X185980503Y-78426395D01*
X183091667Y-78426395D01*
X180202832Y-78426395D01*
X180202811Y-77863041D01*
X180202790Y-77299688D01*
X181464007Y-77361803D01*
X182725223Y-77423918D01*
X182690402Y-76998547D01*
X182655580Y-76573176D01*
X181429185Y-76601649D01*
X180202790Y-76630122D01*
X180202819Y-76056585D01*
X180202848Y-75483047D01*
X183091682Y-75483047D01*
X185980517Y-75483047D01*
X185980495Y-76064553D01*
G37*
G36*
X182001503Y-71340558D02*
G01*
X183091631Y-71340558D01*
X185980473Y-71340558D01*
X185980473Y-71908315D01*
X185980473Y-72476072D01*
X184905057Y-72410555D01*
X183829641Y-72345038D01*
X183757296Y-72827465D01*
X183700353Y-73111965D01*
X183471230Y-73657678D01*
X183101779Y-74039927D01*
X182584554Y-74264807D01*
X181912112Y-74338412D01*
X181841386Y-74337565D01*
X181241900Y-74242622D01*
X180781984Y-73987223D01*
X180457968Y-73566806D01*
X180266183Y-72976806D01*
X180236783Y-72621459D01*
X181185575Y-72621459D01*
X181194840Y-72761812D01*
X181306679Y-73027463D01*
X181585538Y-73231963D01*
X181793484Y-73318420D01*
X182162353Y-73328852D01*
X182531866Y-73131358D01*
X182727582Y-72913502D01*
X182819099Y-72640800D01*
X182816210Y-72552750D01*
X182778938Y-72453221D01*
X182661323Y-72400519D01*
X182417474Y-72379789D01*
X182001503Y-72376180D01*
X181771254Y-72376913D01*
X181445773Y-72387979D01*
X181270090Y-72423280D01*
X181198570Y-72496534D01*
X181185575Y-72621459D01*
X180236783Y-72621459D01*
X180202960Y-72212661D01*
X180202790Y-71340558D01*
X182001503Y-71340558D01*
G37*
G36*
X185980473Y-84534870D02*
G01*
X185980473Y-85138196D01*
X185462661Y-85083013D01*
X184952415Y-85032528D01*
X184344199Y-84984038D01*
X183846136Y-84958089D01*
X183484821Y-84955416D01*
X183286849Y-84976751D01*
X183278814Y-85022826D01*
X183298914Y-85034545D01*
X183538107Y-85145981D01*
X183907639Y-85293555D01*
X184352009Y-85457847D01*
X184815716Y-85619435D01*
X185243260Y-85758900D01*
X185579140Y-85856821D01*
X185767855Y-85893777D01*
X185795637Y-85894482D01*
X185913107Y-85939657D01*
X185967327Y-86094023D01*
X185980473Y-86411588D01*
X185980473Y-86929399D01*
X183091631Y-86929399D01*
X180202790Y-86929399D01*
X180202790Y-86290912D01*
X180202920Y-86240702D01*
X180217847Y-85894964D01*
X180263473Y-85728733D01*
X180348227Y-85708234D01*
X180480469Y-85732147D01*
X180792603Y-85764464D01*
X181228533Y-85797987D01*
X181738141Y-85828382D01*
X182982619Y-85892721D01*
X182437554Y-85630718D01*
X182424317Y-85624400D01*
X182033767Y-85459450D01*
X181540384Y-85278771D01*
X181047640Y-85120356D01*
X180202790Y-84871997D01*
X180202790Y-84401771D01*
X180202790Y-83931545D01*
X183091631Y-83931545D01*
X185980473Y-83931545D01*
X185980473Y-84534870D01*
G37*
G36*
X182573820Y-110948733D02*
G01*
X183307088Y-110963429D01*
X184037930Y-110988784D01*
X184599634Y-111027224D01*
X185019215Y-111084240D01*
X185323687Y-111165324D01*
X185540068Y-111275966D01*
X185695373Y-111421660D01*
X185816617Y-111607895D01*
X185885513Y-111774185D01*
X185964450Y-112213257D01*
X185955137Y-112687714D01*
X185854694Y-113085751D01*
X185812209Y-113157140D01*
X185587230Y-113382169D01*
X185282377Y-113574421D01*
X185143165Y-113634030D01*
X184949205Y-113692487D01*
X184701784Y-113736125D01*
X184367990Y-113767886D01*
X183914909Y-113790709D01*
X183309628Y-113807536D01*
X182519234Y-113821308D01*
X180202631Y-113855579D01*
X180202711Y-113309643D01*
X180202790Y-112763707D01*
X182487657Y-112764579D01*
X183227915Y-112763341D01*
X183820036Y-112757255D01*
X184251721Y-112744041D01*
X184552455Y-112721437D01*
X184751724Y-112687183D01*
X184879013Y-112639017D01*
X184963807Y-112574678D01*
X185060760Y-112471149D01*
X185093333Y-112348927D01*
X184963840Y-112193133D01*
X184884024Y-112131608D01*
X184759415Y-112082652D01*
X184564199Y-112047690D01*
X184268894Y-112024452D01*
X183844021Y-112010665D01*
X183260100Y-112004058D01*
X182487649Y-112002360D01*
X180202707Y-112002360D01*
X180202749Y-111456067D01*
X180202790Y-110909774D01*
X182573820Y-110948733D01*
G37*
G36*
X180495361Y-102942170D02*
G01*
X180795863Y-102989421D01*
X181256527Y-103057943D01*
X181845625Y-103143105D01*
X182531430Y-103240278D01*
X183282216Y-103344832D01*
X185980097Y-103717382D01*
X185980285Y-104507725D01*
X185980473Y-105298069D01*
X185467655Y-105298069D01*
X185361687Y-105301580D01*
X184996945Y-105330897D01*
X184483526Y-105384962D01*
X183867031Y-105457734D01*
X183193060Y-105543170D01*
X182507214Y-105635226D01*
X181855093Y-105727860D01*
X181282296Y-105815029D01*
X180834426Y-105890690D01*
X180557082Y-105948800D01*
X180202790Y-106043584D01*
X180202790Y-105398294D01*
X180202790Y-104753004D01*
X180993134Y-104744866D01*
X181327629Y-104736640D01*
X181835361Y-104711704D01*
X182377920Y-104674264D01*
X182919247Y-104628065D01*
X183423280Y-104576853D01*
X183853961Y-104524370D01*
X184175228Y-104474363D01*
X184351021Y-104430577D01*
X184345279Y-104396755D01*
X184182076Y-104367373D01*
X183815628Y-104321616D01*
X183322211Y-104271255D01*
X182753118Y-104220534D01*
X182159638Y-104173697D01*
X181593064Y-104134987D01*
X181104686Y-104108649D01*
X180745795Y-104098927D01*
X180202790Y-104098927D01*
X180202790Y-103486642D01*
X180204941Y-103277210D01*
X180226642Y-103026349D01*
X180284386Y-102923534D01*
X180393563Y-102923320D01*
X180495361Y-102942170D01*
G37*
G36*
X173472484Y-100655422D02*
G01*
X173981081Y-100731691D01*
X173759854Y-101297927D01*
X173203817Y-102488768D01*
X172434654Y-103732874D01*
X171508108Y-104925755D01*
X170454600Y-106028465D01*
X169304551Y-107002055D01*
X169187933Y-107088229D01*
X168473092Y-107562187D01*
X167649510Y-108036382D01*
X166785908Y-108475458D01*
X165951004Y-108844059D01*
X165213520Y-109106831D01*
X165041055Y-109156515D01*
X164613035Y-109270635D01*
X164148199Y-109385356D01*
X163696086Y-109489495D01*
X163306239Y-109571865D01*
X163028199Y-109621281D01*
X162911507Y-109626559D01*
X162900096Y-109589910D01*
X162862048Y-109392505D01*
X162813056Y-109086266D01*
X162781643Y-108859181D01*
X162778239Y-108660044D01*
X162846285Y-108581947D01*
X163006906Y-108568455D01*
X163068163Y-108566530D01*
X163458778Y-108511178D01*
X163983292Y-108391470D01*
X164586388Y-108223694D01*
X165212747Y-108024134D01*
X165807050Y-107809079D01*
X166313979Y-107594813D01*
X167124726Y-107177406D01*
X168362864Y-106393618D01*
X169517143Y-105485922D01*
X170543008Y-104490706D01*
X171395903Y-103444362D01*
X171495885Y-103298411D01*
X171757129Y-102886978D01*
X172047265Y-102399600D01*
X172337176Y-101888299D01*
X172597749Y-101405100D01*
X172799866Y-101002026D01*
X172914412Y-100731100D01*
X172967202Y-100659019D01*
X173139827Y-100623043D01*
X173472484Y-100655422D01*
G37*
G36*
X185980473Y-96776488D02*
G01*
X185980473Y-97357482D01*
X185299142Y-97297106D01*
X185070932Y-97277016D01*
X184265737Y-97209090D01*
X183661525Y-97163885D01*
X183245628Y-97140655D01*
X183005380Y-97138651D01*
X182928112Y-97157126D01*
X182968070Y-97181486D01*
X183176799Y-97251843D01*
X183523875Y-97349267D01*
X183963734Y-97460416D01*
X184247254Y-97531961D01*
X184634651Y-97642143D01*
X184900571Y-97734195D01*
X184999357Y-97793435D01*
X184981132Y-97821251D01*
X184816442Y-97906929D01*
X184536052Y-97996472D01*
X184158209Y-98095142D01*
X183690575Y-98224907D01*
X183435184Y-98313649D01*
X183392036Y-98366927D01*
X183561132Y-98390302D01*
X183942470Y-98389332D01*
X184536052Y-98369577D01*
X185980473Y-98313232D01*
X185980495Y-98889556D01*
X185980517Y-99465880D01*
X183091682Y-99465880D01*
X180202848Y-99465880D01*
X180202819Y-98893562D01*
X180203009Y-98836674D01*
X180220183Y-98518297D01*
X180276097Y-98362501D01*
X180386139Y-98321245D01*
X180420734Y-98318880D01*
X180655567Y-98277175D01*
X181019290Y-98194176D01*
X181448970Y-98083935D01*
X182328452Y-97846625D01*
X181978126Y-97703677D01*
X181746278Y-97625544D01*
X181347900Y-97519409D01*
X180915295Y-97425568D01*
X180202790Y-97290407D01*
X180202790Y-96742950D01*
X180202790Y-96195493D01*
X183091631Y-96195493D01*
X185980473Y-96195493D01*
X185980473Y-96776488D01*
G37*
G36*
X183754648Y-92018238D02*
G01*
X184580275Y-92130048D01*
X185217815Y-92341529D01*
X185671369Y-92653739D01*
X185899176Y-92993495D01*
X185985487Y-93428793D01*
X185905573Y-93869458D01*
X185670650Y-94259639D01*
X185291932Y-94543482D01*
X185231652Y-94570938D01*
X184628866Y-94762793D01*
X183900327Y-94884299D01*
X183111929Y-94933995D01*
X182329570Y-94910420D01*
X181619147Y-94812113D01*
X181046555Y-94637613D01*
X180922185Y-94577541D01*
X180488200Y-94256324D01*
X180225917Y-93860703D01*
X180150893Y-93463343D01*
X181074893Y-93463343D01*
X181075815Y-93474598D01*
X181184254Y-93610283D01*
X181418199Y-93732040D01*
X181626590Y-93777743D01*
X182027246Y-93818870D01*
X182534066Y-93842758D01*
X183093109Y-93849699D01*
X183650436Y-93839985D01*
X184152107Y-93813910D01*
X184544182Y-93771765D01*
X184772722Y-93713843D01*
X184926788Y-93624320D01*
X185083894Y-93456946D01*
X185036841Y-93313039D01*
X184794409Y-93195912D01*
X184365375Y-93108878D01*
X183758518Y-93055250D01*
X182982619Y-93038340D01*
X182867578Y-93038919D01*
X182165878Y-93057382D01*
X181656885Y-93104349D01*
X181319473Y-93184528D01*
X181132517Y-93302624D01*
X181074893Y-93463343D01*
X180150893Y-93463343D01*
X180144005Y-93426861D01*
X180251129Y-92990985D01*
X180555955Y-92589258D01*
X180746906Y-92437328D01*
X181141835Y-92233653D01*
X181648301Y-92097817D01*
X182300272Y-92022029D01*
X182982619Y-92002718D01*
X183131718Y-91998498D01*
X183754648Y-92018238D01*
G37*
G36*
X165213520Y-99044224D02*
G01*
X165536274Y-99100858D01*
X165724608Y-99173281D01*
X165756249Y-99283150D01*
X165663329Y-99460182D01*
X165620692Y-99529107D01*
X165580640Y-99653559D01*
X165627614Y-99788331D01*
X165785291Y-99980041D01*
X166077352Y-100275308D01*
X166652982Y-100843788D01*
X166939422Y-100503374D01*
X166989548Y-100442995D01*
X167190137Y-100185870D01*
X167318296Y-99997790D01*
X167323976Y-99987860D01*
X167409471Y-99905375D01*
X167551367Y-99929410D01*
X167811052Y-100068816D01*
X167910525Y-100130857D01*
X168125625Y-100295252D01*
X168211374Y-100411537D01*
X168200050Y-100474247D01*
X168067247Y-100724805D01*
X167810587Y-101067813D01*
X167462148Y-101469237D01*
X167054006Y-101895044D01*
X166618237Y-102311198D01*
X166186919Y-102683666D01*
X165792130Y-102978413D01*
X165580130Y-103107937D01*
X165345355Y-103173153D01*
X165165613Y-103063036D01*
X164980296Y-102761384D01*
X164957114Y-102716350D01*
X164865449Y-102501818D01*
X164894664Y-102376137D01*
X165058327Y-102250485D01*
X165068927Y-102243449D01*
X165337802Y-102049066D01*
X165625437Y-101820804D01*
X165937351Y-101559420D01*
X165363955Y-100978811D01*
X164790558Y-100398202D01*
X164436995Y-100667878D01*
X164357139Y-100727777D01*
X164142346Y-100877570D01*
X164030543Y-100937554D01*
X164010667Y-100926070D01*
X163898148Y-100790396D01*
X163738696Y-100550912D01*
X163499739Y-100164271D01*
X164138604Y-99571617D01*
X164342894Y-99384117D01*
X164605499Y-99163711D01*
X164800657Y-99051984D01*
X164984590Y-99021349D01*
X165213520Y-99044224D01*
G37*
G36*
X185955989Y-79733391D02*
G01*
X185973633Y-79951169D01*
X185980473Y-80279614D01*
X185980473Y-80879184D01*
X185326395Y-80879184D01*
X184672318Y-80879184D01*
X184672318Y-81206223D01*
X184672318Y-81533262D01*
X185326395Y-81533262D01*
X185980473Y-81533262D01*
X185980473Y-82146459D01*
X185980473Y-82759657D01*
X185626181Y-82688554D01*
X185280975Y-82627280D01*
X184777616Y-82548650D01*
X184165851Y-82459512D01*
X183491964Y-82366017D01*
X182802238Y-82274318D01*
X182142957Y-82190566D01*
X181560406Y-82120914D01*
X181100869Y-82071511D01*
X180810629Y-82048511D01*
X180204634Y-82023820D01*
X180203712Y-81198230D01*
X180203663Y-81154796D01*
X181583515Y-81154796D01*
X181686303Y-81201513D01*
X181937311Y-81253919D01*
X182313503Y-81305630D01*
X182791846Y-81350261D01*
X183152664Y-81375586D01*
X183453475Y-81385372D01*
X183614524Y-81362501D01*
X183679277Y-81299096D01*
X183691202Y-81187281D01*
X183691180Y-81178715D01*
X183673602Y-81057927D01*
X183589306Y-81000350D01*
X183388435Y-80994070D01*
X183021134Y-81027174D01*
X182725230Y-81054950D01*
X182268039Y-81088273D01*
X181903752Y-81104120D01*
X181651980Y-81120151D01*
X181583515Y-81154796D01*
X180203663Y-81154796D01*
X180202790Y-80372640D01*
X180775108Y-80356528D01*
X180812841Y-80355004D01*
X181131057Y-80328812D01*
X181613967Y-80276027D01*
X182218722Y-80201860D01*
X182902472Y-80111524D01*
X183388435Y-80043146D01*
X183622369Y-80010230D01*
X183848882Y-79977383D01*
X184505059Y-79882587D01*
X185074368Y-79800863D01*
X185524590Y-79736802D01*
X185823505Y-79694998D01*
X185938893Y-79680043D01*
X185955989Y-79733391D01*
G37*
G36*
X185937442Y-106785868D02*
G01*
X185972207Y-106957392D01*
X185980473Y-107303144D01*
X185980472Y-107316117D01*
X185974452Y-107657552D01*
X185938372Y-107835653D01*
X185844989Y-107903551D01*
X185667061Y-107914378D01*
X185535994Y-107916048D01*
X185051955Y-107967992D01*
X184766173Y-108094459D01*
X184672318Y-108297886D01*
X184688275Y-108426582D01*
X184803942Y-108576976D01*
X185062138Y-108655098D01*
X185498831Y-108677468D01*
X185980473Y-108677468D01*
X185980473Y-109284385D01*
X185978254Y-109498432D01*
X185956615Y-109742624D01*
X185898974Y-109838570D01*
X185789700Y-109831063D01*
X185647346Y-109800033D01*
X185311312Y-109742789D01*
X184831566Y-109668588D01*
X184247586Y-109582841D01*
X183598845Y-109490959D01*
X182924821Y-109398352D01*
X182264988Y-109310432D01*
X181658822Y-109232609D01*
X181145798Y-109170294D01*
X180765393Y-109128899D01*
X180557082Y-109113833D01*
X180202790Y-109113519D01*
X180202790Y-108320468D01*
X181648474Y-108320468D01*
X181728970Y-108343620D01*
X181748304Y-108345219D01*
X182009398Y-108367809D01*
X182401093Y-108402634D01*
X182846352Y-108442853D01*
X183022805Y-108458464D01*
X183381110Y-108481996D01*
X183582664Y-108471823D01*
X183671388Y-108421876D01*
X183691202Y-108326084D01*
X183689166Y-108288822D01*
X183632058Y-108191524D01*
X183458764Y-108147973D01*
X183118885Y-108141953D01*
X182988193Y-108145671D01*
X182632361Y-108167550D01*
X182277151Y-108202255D01*
X181965886Y-108243500D01*
X181741886Y-108285000D01*
X181648474Y-108320468D01*
X180202790Y-108320468D01*
X180202790Y-108295923D01*
X180202790Y-107478326D01*
X180680422Y-107478326D01*
X180784826Y-107474042D01*
X181119927Y-107443972D01*
X181598547Y-107389872D01*
X182180691Y-107317337D01*
X182826364Y-107231957D01*
X183118885Y-107191467D01*
X183495572Y-107139326D01*
X184148320Y-107045037D01*
X184744613Y-106954683D01*
X185244457Y-106873855D01*
X185607858Y-106808147D01*
X185794820Y-106763151D01*
X185861225Y-106745080D01*
X185937442Y-106785868D01*
G37*
G36*
X163275968Y-82371560D02*
G01*
X163665601Y-82455189D01*
X164130554Y-82566621D01*
X164624125Y-82694602D01*
X165099611Y-82827879D01*
X165510308Y-82955198D01*
X166795205Y-83461740D01*
X168251678Y-84240772D01*
X169608600Y-85193067D01*
X170845207Y-86299686D01*
X171940733Y-87541694D01*
X172874415Y-88900153D01*
X173625488Y-90356126D01*
X173984835Y-91180901D01*
X173687160Y-91249763D01*
X173450911Y-91300914D01*
X173169780Y-91325017D01*
X172978524Y-91244659D01*
X172820768Y-91026955D01*
X172640138Y-90639021D01*
X172509699Y-90366528D01*
X172215374Y-89832304D01*
X171850717Y-89231630D01*
X171456404Y-88628170D01*
X171073114Y-88085589D01*
X170741525Y-87667549D01*
X170434122Y-87315570D01*
X169845874Y-87911217D01*
X169257625Y-88506864D01*
X169527985Y-88808260D01*
X169740747Y-89044887D01*
X169977179Y-89318665D01*
X170089301Y-89494558D01*
X170087368Y-89614894D01*
X169981634Y-89722004D01*
X169782354Y-89858217D01*
X169374583Y-90135304D01*
X168472348Y-89176865D01*
X168144688Y-88841236D01*
X167703858Y-88420166D01*
X167290873Y-88055687D01*
X166964134Y-87801071D01*
X166660379Y-87577590D01*
X166441631Y-87389088D01*
X166358155Y-87278438D01*
X166361991Y-87252945D01*
X166439293Y-87066580D01*
X166584690Y-86806618D01*
X166811225Y-86440076D01*
X167303309Y-86778638D01*
X167464169Y-86892478D01*
X167848397Y-87182476D01*
X168173270Y-87448982D01*
X168551147Y-87780763D01*
X169089844Y-87250166D01*
X169099044Y-87241092D01*
X169366137Y-86965048D01*
X169556172Y-86745224D01*
X169628541Y-86628483D01*
X169581256Y-86524424D01*
X169373692Y-86305777D01*
X169030848Y-86021946D01*
X168585493Y-85695602D01*
X168070393Y-85349415D01*
X167518316Y-85006056D01*
X166962031Y-84688196D01*
X166434305Y-84418506D01*
X166399635Y-84402196D01*
X165832935Y-84159938D01*
X165198268Y-83925189D01*
X164549043Y-83714222D01*
X163938672Y-83543311D01*
X163420567Y-83428731D01*
X163048138Y-83386756D01*
X162893804Y-83381843D01*
X162791154Y-83331662D01*
X162772830Y-83179538D01*
X162813056Y-82868669D01*
X162839715Y-82696263D01*
X162884284Y-82439503D01*
X162911025Y-82328858D01*
X163008358Y-82326988D01*
X163275968Y-82371560D01*
G37*
G36*
X161561588Y-82389710D02*
G01*
X161561588Y-84881352D01*
X162297425Y-84950052D01*
X162333994Y-84953601D01*
X162868375Y-85026822D01*
X163465278Y-85138608D01*
X164031474Y-85269655D01*
X164473733Y-85400660D01*
X164511907Y-85420899D01*
X164551207Y-85544618D01*
X164486108Y-85807080D01*
X164477289Y-85833088D01*
X164371885Y-86098906D01*
X164282189Y-86259714D01*
X164153601Y-86283723D01*
X163873005Y-86257651D01*
X163506724Y-86184561D01*
X163190069Y-86113570D01*
X162657419Y-86012448D01*
X162188412Y-85942328D01*
X161561588Y-85868655D01*
X161561588Y-88046656D01*
X161561588Y-90224657D01*
X162036897Y-90289805D01*
X162181949Y-90313152D01*
X162891426Y-90504379D01*
X163621727Y-90806816D01*
X164269981Y-91179478D01*
X164801826Y-91545323D01*
X165370615Y-90969380D01*
X165939403Y-90393438D01*
X165521955Y-90046169D01*
X165338436Y-89905815D01*
X164808609Y-89573426D01*
X164186324Y-89252589D01*
X163554972Y-88984176D01*
X162997941Y-88809060D01*
X162690912Y-88731911D01*
X162511744Y-88653329D01*
X162457051Y-88542918D01*
X162480130Y-88360193D01*
X162522205Y-88110266D01*
X162542704Y-87896888D01*
X162628958Y-87775376D01*
X162890846Y-87762766D01*
X163332457Y-87859757D01*
X163957879Y-88066838D01*
X164034113Y-88094988D01*
X165111270Y-88578800D01*
X166067088Y-89192012D01*
X166970867Y-89978594D01*
X167208552Y-90222621D01*
X167593062Y-90657378D01*
X167939972Y-91095256D01*
X168227065Y-91503739D01*
X168432128Y-91850307D01*
X168532944Y-92102441D01*
X168507300Y-92227625D01*
X168490290Y-92235769D01*
X168277482Y-92303136D01*
X167978036Y-92368764D01*
X167804623Y-92395064D01*
X167624001Y-92376606D01*
X167482184Y-92250172D01*
X167308003Y-91973811D01*
X167245891Y-91867328D01*
X167071571Y-91576115D01*
X166922441Y-91380203D01*
X166772510Y-91287626D01*
X166595786Y-91306418D01*
X166366277Y-91444614D01*
X166057992Y-91710247D01*
X165644939Y-92111352D01*
X165101126Y-92655962D01*
X164639055Y-93124339D01*
X164195443Y-93591566D01*
X163908183Y-93920413D01*
X163773872Y-94114827D01*
X163789112Y-94178755D01*
X163939795Y-94160199D01*
X164279987Y-94106993D01*
X164784009Y-94023468D01*
X165426449Y-93913956D01*
X166181893Y-93782791D01*
X167024928Y-93634303D01*
X167930141Y-93472825D01*
X168690210Y-93336447D01*
X169640108Y-93166115D01*
X170547390Y-93003537D01*
X171377659Y-92854872D01*
X172096522Y-92726276D01*
X172669583Y-92623909D01*
X173062447Y-92553928D01*
X173334979Y-92509253D01*
X173486092Y-92484482D01*
X173907391Y-92429012D01*
X174208024Y-92405348D01*
X174341324Y-92418435D01*
X174379560Y-92518521D01*
X174446427Y-92808019D01*
X174530401Y-93249267D01*
X174625259Y-93807174D01*
X174724778Y-94446654D01*
X174822734Y-95132618D01*
X174871039Y-95486910D01*
X176446786Y-95486910D01*
X178022533Y-95486910D01*
X178022533Y-95977468D01*
X178022533Y-96468026D01*
X176446786Y-96468026D01*
X174871039Y-96468026D01*
X174822734Y-96822317D01*
X174741821Y-97393404D01*
X174641652Y-98046294D01*
X174545404Y-98620380D01*
X174459190Y-99081319D01*
X174389126Y-99394770D01*
X174341324Y-99526391D01*
X174336768Y-99527956D01*
X174187606Y-99517266D01*
X173847825Y-99471391D01*
X173338289Y-99393744D01*
X172679859Y-99287738D01*
X171893399Y-99156786D01*
X170999772Y-99004301D01*
X170019839Y-98833696D01*
X168974464Y-98648385D01*
X163687340Y-97703013D01*
X163385984Y-98058911D01*
X163174765Y-98257960D01*
X162813510Y-98519226D01*
X162414710Y-98749572D01*
X162352029Y-98780154D01*
X161579498Y-99036829D01*
X160789647Y-99077134D01*
X159973993Y-98901597D01*
X159873131Y-98863646D01*
X159336598Y-98556002D01*
X158824271Y-98107698D01*
X158396331Y-97579223D01*
X158112964Y-97031068D01*
X157912989Y-96468026D01*
X157120980Y-96468026D01*
X156911251Y-96469798D01*
X156563660Y-96489984D01*
X156381617Y-96538322D01*
X156328970Y-96621833D01*
X156371391Y-96890998D01*
X156488790Y-97292327D01*
X156654859Y-97746267D01*
X156843209Y-98180938D01*
X157027454Y-98524462D01*
X157328534Y-99000211D01*
X157702771Y-98637487D01*
X158077007Y-98274762D01*
X158427484Y-98625238D01*
X158777960Y-98975715D01*
X157471862Y-100285225D01*
X156165764Y-101594734D01*
X156492646Y-101865917D01*
X156652426Y-101984925D01*
X157073852Y-102245192D01*
X157597670Y-102526086D01*
X158156422Y-102794266D01*
X158682652Y-103016389D01*
X159108906Y-103159111D01*
X159653863Y-103300684D01*
X159631951Y-103767140D01*
X159625105Y-103887678D01*
X159600303Y-104149114D01*
X159572804Y-104270830D01*
X159453570Y-104274237D01*
X159178044Y-104216514D01*
X158800076Y-104111085D01*
X158371673Y-103973674D01*
X157944843Y-103820004D01*
X157571593Y-103665798D01*
X157544078Y-103653261D01*
X156389172Y-103007290D01*
X155357137Y-102192293D01*
X154464894Y-101229526D01*
X153729365Y-100140245D01*
X153167473Y-98945707D01*
X152796139Y-97667167D01*
X152650255Y-96958584D01*
X152574046Y-97394635D01*
X152464345Y-97997985D01*
X152243056Y-99057099D01*
X152004499Y-99971854D01*
X151733415Y-100791202D01*
X151414546Y-101564090D01*
X151032635Y-102339468D01*
X150551613Y-103250825D01*
X151113017Y-103956351D01*
X151674422Y-104661877D01*
X152856942Y-103483023D01*
X154039462Y-102304170D01*
X154387440Y-102652147D01*
X154531010Y-102798311D01*
X154653971Y-102958841D01*
X154649139Y-103077342D01*
X154534183Y-103222487D01*
X154416877Y-103363994D01*
X154398712Y-103492923D01*
X154530994Y-103663689D01*
X154551437Y-103685399D01*
X154819070Y-103911379D01*
X155224905Y-104196623D01*
X155717084Y-104509359D01*
X156243751Y-104817814D01*
X156753050Y-105090216D01*
X157193125Y-105294791D01*
X157521889Y-105423007D01*
X158731811Y-105789775D01*
X159955996Y-106012900D01*
X160585167Y-106086867D01*
X160555567Y-103935790D01*
X160525966Y-101784713D01*
X159717869Y-101579574D01*
X159638524Y-101559285D01*
X159261523Y-101458489D01*
X158986547Y-101377795D01*
X158868458Y-101333121D01*
X158864380Y-101301039D01*
X158908565Y-101117315D01*
X159009531Y-100835974D01*
X159072185Y-100691213D01*
X159215342Y-100473701D01*
X159355167Y-100442787D01*
X159678588Y-100548964D01*
X160490548Y-100688033D01*
X161448866Y-100694040D01*
X162412158Y-100639116D01*
X162469797Y-100924601D01*
X162521703Y-101144086D01*
X162599304Y-101395813D01*
X162610651Y-101429983D01*
X162592624Y-101532522D01*
X162442074Y-101599944D01*
X162116380Y-101655136D01*
X161561588Y-101728732D01*
X161561588Y-102547339D01*
X161561588Y-103365945D01*
X162264374Y-103293943D01*
X162967159Y-103221940D01*
X163081362Y-103633180D01*
X163102545Y-103710578D01*
X163169064Y-103972185D01*
X163196174Y-104111224D01*
X163192056Y-104118653D01*
X163056606Y-104171050D01*
X162768170Y-104239056D01*
X162379185Y-104309919D01*
X161561588Y-104441812D01*
X161561588Y-105262189D01*
X161561588Y-106082566D01*
X162242919Y-106004666D01*
X162911962Y-105893669D01*
X163812661Y-105664860D01*
X164713473Y-105361204D01*
X165517483Y-105012075D01*
X166180729Y-104648744D01*
X167356002Y-103833912D01*
X168401891Y-102875450D01*
X169292414Y-101798757D01*
X170001586Y-100629228D01*
X170294947Y-100048369D01*
X170752087Y-100123870D01*
X170865256Y-100143784D01*
X171130654Y-100201780D01*
X171261565Y-100248338D01*
X171264129Y-100251343D01*
X171244093Y-100386535D01*
X171126951Y-100660298D01*
X170935322Y-101032532D01*
X170691826Y-101463137D01*
X170419082Y-101912012D01*
X170139709Y-102339056D01*
X169876326Y-102704169D01*
X169281340Y-103474238D01*
X169562619Y-103755517D01*
X169843897Y-104036795D01*
X169496855Y-104394852D01*
X169149813Y-104752908D01*
X168855927Y-104471347D01*
X168562040Y-104189785D01*
X167868896Y-104751083D01*
X167378597Y-105111319D01*
X166463278Y-105654848D01*
X165434799Y-106141825D01*
X164357179Y-106546303D01*
X163294438Y-106842334D01*
X162310592Y-107003970D01*
X161561588Y-107073583D01*
X161561588Y-109837757D01*
X161561588Y-112601931D01*
X161071031Y-112601931D01*
X160580473Y-112601931D01*
X160557376Y-111321030D01*
X160549331Y-110802078D01*
X160540539Y-110055404D01*
X160533795Y-109278833D01*
X160530123Y-108575589D01*
X160525966Y-107111050D01*
X159549856Y-106968917D01*
X159255405Y-106923711D01*
X158335552Y-106741593D01*
X157494958Y-106498209D01*
X156626840Y-106164161D01*
X156314617Y-106021031D01*
X155683793Y-105686443D01*
X155027709Y-105292138D01*
X154422311Y-104884892D01*
X153943543Y-104511480D01*
X153574854Y-104189318D01*
X152994715Y-104762250D01*
X152944511Y-104812343D01*
X152684201Y-105091456D01*
X152513308Y-105308304D01*
X152466688Y-105419500D01*
X152509074Y-105463106D01*
X152697017Y-105621900D01*
X152995312Y-105858485D01*
X153363032Y-106139966D01*
X153769015Y-106431588D01*
X154916430Y-107132449D01*
X156150256Y-107731195D01*
X157405769Y-108198688D01*
X158618241Y-108505790D01*
X159326825Y-108637398D01*
X159288523Y-109120738D01*
X159276873Y-109259333D01*
X159251003Y-109513794D01*
X159232662Y-109623601D01*
X159149823Y-109628964D01*
X158893741Y-109590331D01*
X158512291Y-109511402D01*
X158052435Y-109403325D01*
X157561134Y-109277250D01*
X157085351Y-109144326D01*
X156672048Y-109015701D01*
X155969732Y-108759096D01*
X154434303Y-108037587D01*
X153017625Y-107143639D01*
X151730487Y-106090898D01*
X150583677Y-104893007D01*
X149587983Y-103563611D01*
X148754196Y-102116355D01*
X148093103Y-100564882D01*
X147615494Y-98922836D01*
X147369844Y-97432504D01*
X148371031Y-97432504D01*
X148371329Y-97449623D01*
X148403874Y-97721718D01*
X148480610Y-98137113D01*
X148587883Y-98635372D01*
X148712034Y-99156056D01*
X148839409Y-99638727D01*
X148956351Y-100022947D01*
X149003551Y-100156634D01*
X149164215Y-100569015D01*
X149352827Y-101010092D01*
X149547622Y-101433631D01*
X149726835Y-101793400D01*
X149868699Y-102043166D01*
X149951450Y-102136695D01*
X149997363Y-102094716D01*
X150120890Y-101893036D01*
X150289878Y-101565631D01*
X150482121Y-101158330D01*
X150675414Y-100716956D01*
X150847553Y-100287338D01*
X150863763Y-100243726D01*
X151023648Y-99761042D01*
X151187435Y-99191157D01*
X151322061Y-98648283D01*
X151351392Y-98516109D01*
X151461847Y-98003653D01*
X151516814Y-97672506D01*
X151508736Y-97496414D01*
X151430056Y-97449120D01*
X151273215Y-97504370D01*
X151030658Y-97635908D01*
X150810985Y-97744509D01*
X150158863Y-97915057D01*
X149501765Y-97874708D01*
X148870487Y-97623639D01*
X148669070Y-97514277D01*
X148454377Y-97425347D01*
X148371031Y-97432504D01*
X147369844Y-97432504D01*
X147332157Y-97203863D01*
X147255502Y-96468026D01*
X145687515Y-96468026D01*
X144119528Y-96468026D01*
X144119528Y-95977468D01*
X144119528Y-95700512D01*
X148828341Y-95700512D01*
X148905157Y-96130656D01*
X149177726Y-96533433D01*
X149376459Y-96713876D01*
X149647967Y-96863371D01*
X149968069Y-96901653D01*
X150240192Y-96870666D01*
X150667630Y-96666017D01*
X150974581Y-96284420D01*
X151025679Y-96169836D01*
X151095375Y-95733623D01*
X150991313Y-95329383D01*
X150748232Y-94993728D01*
X150400869Y-94763267D01*
X149983964Y-94674611D01*
X149532254Y-94764369D01*
X149224607Y-94944556D01*
X148937938Y-95289610D01*
X148828341Y-95700512D01*
X144119528Y-95700512D01*
X144119528Y-95486910D01*
X145687515Y-95486910D01*
X147255502Y-95486910D01*
X147332157Y-94751073D01*
X147375949Y-94376913D01*
X147398217Y-94260480D01*
X148401559Y-94260480D01*
X148454377Y-94224637D01*
X148774733Y-94007238D01*
X149278459Y-93758811D01*
X149912257Y-93651637D01*
X149983964Y-93661403D01*
X150551717Y-93738726D01*
X151147238Y-94019817D01*
X151210769Y-94062781D01*
X151386957Y-94170007D01*
X151481623Y-94177450D01*
X151503500Y-94056807D01*
X151461325Y-93779776D01*
X151363832Y-93318057D01*
X151308596Y-93074998D01*
X150899545Y-91695780D01*
X150358931Y-90420953D01*
X149979198Y-89661005D01*
X149616701Y-90366447D01*
X149578017Y-90442717D01*
X149156784Y-91406178D01*
X148800479Y-92459669D01*
X148549037Y-93486485D01*
X148401559Y-94260480D01*
X147398217Y-94260480D01*
X147703574Y-92663856D01*
X148224848Y-91032517D01*
X148929558Y-89496067D01*
X149807489Y-88067680D01*
X149979198Y-87852057D01*
X150848428Y-86760527D01*
X152042161Y-85587781D01*
X153378474Y-84562614D01*
X154847152Y-83698198D01*
X156437983Y-83007707D01*
X156593810Y-82954145D01*
X156990434Y-82832781D01*
X157458356Y-82703020D01*
X157950760Y-82576272D01*
X158420831Y-82463945D01*
X158821756Y-82377448D01*
X159106718Y-82328189D01*
X159228904Y-82327577D01*
X159236538Y-82354150D01*
X159261114Y-82538261D01*
X159288523Y-82834198D01*
X159326825Y-83317537D01*
X158577412Y-83456652D01*
X157896389Y-83610959D01*
X156680760Y-84005998D01*
X155455175Y-84541266D01*
X154283962Y-85187193D01*
X153231447Y-85914208D01*
X152380689Y-86577586D01*
X153906367Y-88103264D01*
X155432046Y-89628943D01*
X156159466Y-89109866D01*
X156213377Y-89071999D01*
X156635767Y-88803456D01*
X157125358Y-88528849D01*
X157631767Y-88272555D01*
X158104611Y-88058953D01*
X158493508Y-87912422D01*
X158748073Y-87857339D01*
X158839586Y-87862287D01*
X158958319Y-87922648D01*
X159037669Y-88094064D01*
X159111034Y-88429156D01*
X159143657Y-88650143D01*
X159120564Y-88799546D01*
X159009524Y-88837124D01*
X158870007Y-88860035D01*
X158532476Y-88978243D01*
X158096466Y-89174562D01*
X157613269Y-89423547D01*
X157134177Y-89699749D01*
X156710482Y-89977722D01*
X155852082Y-90696424D01*
X155056198Y-91627597D01*
X154402130Y-92720471D01*
X153906837Y-93714977D01*
X153525383Y-93597905D01*
X153475979Y-93581802D01*
X153223351Y-93466751D01*
X153094442Y-93351872D01*
X153092781Y-93347021D01*
X153114480Y-93154716D01*
X153231494Y-92826236D01*
X153421942Y-92406528D01*
X153663947Y-91940542D01*
X153935629Y-91473229D01*
X154215109Y-91049536D01*
X154721706Y-90339603D01*
X153208815Y-88821873D01*
X151695923Y-87304143D01*
X151293110Y-87770848D01*
X151030863Y-88078668D01*
X150827377Y-88359496D01*
X150740512Y-88599403D01*
X150765115Y-88857556D01*
X150896034Y-89193124D01*
X151128116Y-89665272D01*
X151200854Y-89813507D01*
X151572253Y-90671940D01*
X151909746Y-91614450D01*
X152198405Y-92586405D01*
X152423302Y-93533173D01*
X152569508Y-94400121D01*
X152622094Y-95132618D01*
X152624467Y-95264960D01*
X152664504Y-95418269D01*
X152801886Y-95477251D01*
X153096933Y-95486910D01*
X153571333Y-95486910D01*
X153638404Y-96356663D01*
X153695496Y-96881872D01*
X153783334Y-97443443D01*
X153882001Y-97910096D01*
X154037191Y-98386055D01*
X154286598Y-98981453D01*
X154585789Y-99591338D01*
X154897968Y-100141070D01*
X155186341Y-100556008D01*
X155454129Y-100883047D01*
X156026683Y-100310565D01*
X156171709Y-100164580D01*
X156400814Y-99918021D01*
X156506465Y-99755030D01*
X156512406Y-99628911D01*
X156442377Y-99492968D01*
X156309400Y-99279107D01*
X155918105Y-98566038D01*
X155615338Y-97879204D01*
X155419510Y-97264497D01*
X155349035Y-96767811D01*
X155348423Y-96732481D01*
X155295239Y-96525609D01*
X155129829Y-96468026D01*
X155114166Y-96467838D01*
X154985303Y-96428991D01*
X154926068Y-96284027D01*
X154911803Y-95977468D01*
X154911803Y-95663043D01*
X159060801Y-95663043D01*
X159076781Y-96192665D01*
X159087614Y-96292170D01*
X159265787Y-96877994D01*
X159605169Y-97364015D01*
X160067538Y-97727097D01*
X160614675Y-97944104D01*
X161208359Y-97991900D01*
X161810369Y-97847351D01*
X161829086Y-97839186D01*
X162106225Y-97665188D01*
X162411039Y-97402342D01*
X162692252Y-97104533D01*
X162898583Y-96825646D01*
X162978756Y-96619568D01*
X162998802Y-96536150D01*
X163115022Y-96496334D01*
X163127694Y-96500466D01*
X163314474Y-96543616D01*
X163663413Y-96613674D01*
X164129683Y-96701890D01*
X164668455Y-96799516D01*
X164889154Y-96838836D01*
X165446576Y-96938793D01*
X166159317Y-97067179D01*
X166988808Y-97217021D01*
X167896475Y-97381349D01*
X168843750Y-97553192D01*
X169792061Y-97725576D01*
X170437021Y-97841361D01*
X171284379Y-97988236D01*
X172035074Y-98112186D01*
X172665606Y-98209624D01*
X173152476Y-98276963D01*
X173472183Y-98310615D01*
X173601228Y-98306994D01*
X173627149Y-98228151D01*
X173659418Y-97960428D01*
X173686878Y-97546043D01*
X173708767Y-97026384D01*
X173724320Y-96442836D01*
X173732776Y-95836783D01*
X173733371Y-95249611D01*
X173725342Y-94722706D01*
X173707926Y-94297452D01*
X173680360Y-94015236D01*
X173676146Y-93990297D01*
X173612566Y-93724470D01*
X173514621Y-93617398D01*
X173334979Y-93614110D01*
X173180609Y-93639215D01*
X172837170Y-93698641D01*
X172332288Y-93787465D01*
X171692720Y-93900873D01*
X170945221Y-94034055D01*
X170116547Y-94182197D01*
X169233451Y-94340488D01*
X168322691Y-94504115D01*
X167411020Y-94668266D01*
X166525195Y-94828129D01*
X165691970Y-94978891D01*
X164938101Y-95115741D01*
X164290343Y-95233867D01*
X163775451Y-95328455D01*
X163420181Y-95394694D01*
X163251288Y-95427771D01*
X163147430Y-95433564D01*
X163001768Y-95334640D01*
X162858010Y-95062983D01*
X162768100Y-94880486D01*
X162389937Y-94424180D01*
X161867764Y-94119499D01*
X161223639Y-93981047D01*
X160892375Y-93969890D01*
X160381646Y-94038876D01*
X159957283Y-94248147D01*
X159548794Y-94624796D01*
X159313074Y-94914536D01*
X159131655Y-95263279D01*
X159060801Y-95663043D01*
X154911803Y-95663043D01*
X154911803Y-95486910D01*
X156420728Y-95486910D01*
X157929653Y-95486910D01*
X158066101Y-95031486D01*
X158095240Y-94939383D01*
X158225778Y-94597872D01*
X158354140Y-94344705D01*
X158388356Y-94288890D01*
X158425174Y-94166236D01*
X158374960Y-94029066D01*
X158213632Y-93832593D01*
X157917103Y-93532031D01*
X157328474Y-92950714D01*
X156994313Y-93482975D01*
X156856213Y-93715527D01*
X156714029Y-93992966D01*
X156658080Y-94158848D01*
X156610136Y-94244653D01*
X156410730Y-94226051D01*
X156004293Y-94088736D01*
X155754210Y-93973376D01*
X155676868Y-93881668D01*
X155677163Y-93878106D01*
X155734857Y-93733504D01*
X155870980Y-93462565D01*
X156054543Y-93122759D01*
X156254555Y-92771554D01*
X156440027Y-92466419D01*
X156518583Y-92320272D01*
X156509480Y-92166219D01*
X156352879Y-91969441D01*
X156112083Y-91713125D01*
X156469302Y-91366895D01*
X156826520Y-91020666D01*
X158008864Y-92206687D01*
X159191207Y-93392708D01*
X159749574Y-93132719D01*
X160274133Y-92951716D01*
X161006502Y-92858780D01*
X161735993Y-92922313D01*
X162387860Y-93142051D01*
X162924043Y-93413502D01*
X163510003Y-92827542D01*
X164095962Y-92241583D01*
X163566036Y-91931025D01*
X162781500Y-91542542D01*
X161980495Y-91313158D01*
X161115609Y-91238966D01*
X161028804Y-91239178D01*
X160050314Y-91335439D01*
X159142881Y-91612892D01*
X159042957Y-91627689D01*
X158901173Y-91526207D01*
X158733879Y-91248395D01*
X158508821Y-90807245D01*
X158730920Y-90688381D01*
X158738772Y-90684302D01*
X158963038Y-90596864D01*
X159321198Y-90484288D01*
X159739493Y-90369870D01*
X160525966Y-90170222D01*
X160555572Y-88017652D01*
X160585177Y-85865083D01*
X159922063Y-85940106D01*
X159348824Y-86024533D01*
X158057663Y-86346226D01*
X156786830Y-86834120D01*
X155606453Y-87463460D01*
X155156467Y-87743468D01*
X154881302Y-87327666D01*
X154606137Y-86911863D01*
X155331288Y-86467517D01*
X155816465Y-86185972D01*
X156969380Y-85644841D01*
X158194167Y-85252186D01*
X159549856Y-84987296D01*
X160525966Y-84846442D01*
X160555266Y-82372255D01*
X160584566Y-79898069D01*
X161073077Y-79898069D01*
X161561588Y-79898069D01*
X161561588Y-82389710D01*
G37*
%TD*%
M02*
