%TF.GenerationSoftware,KiCad,Pcbnew,8.0.6*%
%TF.CreationDate,2025-02-09T15:22:34+01:00*%
%TF.ProjectId,BaseBoard,42617365-426f-4617-9264-2e6b69636164,rev?*%
%TF.SameCoordinates,Original*%
%TF.FileFunction,Legend,Top*%
%TF.FilePolarity,Positive*%
%FSLAX46Y46*%
G04 Gerber Fmt 4.6, Leading zero omitted, Abs format (unit mm)*
G04 Created by KiCad (PCBNEW 8.0.6) date 2025-02-09 15:22:34*
%MOMM*%
%LPD*%
G01*
G04 APERTURE LIST*
%ADD10C,0.100000*%
%ADD11C,0.300000*%
%ADD12C,0.150000*%
%ADD13C,0.203200*%
%ADD14C,0.120000*%
%ADD15C,0.254000*%
G04 APERTURE END LIST*
D10*
X144508646Y-114025920D02*
X144699122Y-114692587D01*
X144699122Y-114692587D02*
X144889598Y-114216396D01*
X144889598Y-114216396D02*
X145080074Y-114692587D01*
X145080074Y-114692587D02*
X145270550Y-114025920D01*
X145556265Y-114025920D02*
X145746741Y-114692587D01*
X145746741Y-114692587D02*
X145937217Y-114216396D01*
X145937217Y-114216396D02*
X146127693Y-114692587D01*
X146127693Y-114692587D02*
X146318169Y-114025920D01*
X146603884Y-114025920D02*
X146794360Y-114692587D01*
X146794360Y-114692587D02*
X146984836Y-114216396D01*
X146984836Y-114216396D02*
X147175312Y-114692587D01*
X147175312Y-114692587D02*
X147365788Y-114025920D01*
X147746741Y-114597348D02*
X147794360Y-114644968D01*
X147794360Y-114644968D02*
X147746741Y-114692587D01*
X147746741Y-114692587D02*
X147699122Y-114644968D01*
X147699122Y-114644968D02*
X147746741Y-114597348D01*
X147746741Y-114597348D02*
X147746741Y-114692587D01*
X148222931Y-114025920D02*
X148222931Y-115025920D01*
X148222931Y-114073539D02*
X148318169Y-114025920D01*
X148318169Y-114025920D02*
X148508645Y-114025920D01*
X148508645Y-114025920D02*
X148603883Y-114073539D01*
X148603883Y-114073539D02*
X148651502Y-114121158D01*
X148651502Y-114121158D02*
X148699121Y-114216396D01*
X148699121Y-114216396D02*
X148699121Y-114502110D01*
X148699121Y-114502110D02*
X148651502Y-114597348D01*
X148651502Y-114597348D02*
X148603883Y-114644968D01*
X148603883Y-114644968D02*
X148508645Y-114692587D01*
X148508645Y-114692587D02*
X148318169Y-114692587D01*
X148318169Y-114692587D02*
X148222931Y-114644968D01*
X149127693Y-114692587D02*
X149127693Y-113692587D01*
X149556264Y-114692587D02*
X149556264Y-114168777D01*
X149556264Y-114168777D02*
X149508645Y-114073539D01*
X149508645Y-114073539D02*
X149413407Y-114025920D01*
X149413407Y-114025920D02*
X149270550Y-114025920D01*
X149270550Y-114025920D02*
X149175312Y-114073539D01*
X149175312Y-114073539D02*
X149127693Y-114121158D01*
X150461026Y-114692587D02*
X150461026Y-114168777D01*
X150461026Y-114168777D02*
X150413407Y-114073539D01*
X150413407Y-114073539D02*
X150318169Y-114025920D01*
X150318169Y-114025920D02*
X150127693Y-114025920D01*
X150127693Y-114025920D02*
X150032455Y-114073539D01*
X150461026Y-114644968D02*
X150365788Y-114692587D01*
X150365788Y-114692587D02*
X150127693Y-114692587D01*
X150127693Y-114692587D02*
X150032455Y-114644968D01*
X150032455Y-114644968D02*
X149984836Y-114549729D01*
X149984836Y-114549729D02*
X149984836Y-114454491D01*
X149984836Y-114454491D02*
X150032455Y-114359253D01*
X150032455Y-114359253D02*
X150127693Y-114311634D01*
X150127693Y-114311634D02*
X150365788Y-114311634D01*
X150365788Y-114311634D02*
X150461026Y-114264015D01*
X150937217Y-114025920D02*
X150937217Y-114692587D01*
X150937217Y-114121158D02*
X150984836Y-114073539D01*
X150984836Y-114073539D02*
X151080074Y-114025920D01*
X151080074Y-114025920D02*
X151222931Y-114025920D01*
X151222931Y-114025920D02*
X151318169Y-114073539D01*
X151318169Y-114073539D02*
X151365788Y-114168777D01*
X151365788Y-114168777D02*
X151365788Y-114692587D01*
X151699122Y-114025920D02*
X152080074Y-114025920D01*
X151841979Y-113692587D02*
X151841979Y-114549729D01*
X151841979Y-114549729D02*
X151889598Y-114644968D01*
X151889598Y-114644968D02*
X151984836Y-114692587D01*
X151984836Y-114692587D02*
X152080074Y-114692587D01*
X152556265Y-114692587D02*
X152461027Y-114644968D01*
X152461027Y-114644968D02*
X152413408Y-114597348D01*
X152413408Y-114597348D02*
X152365789Y-114502110D01*
X152365789Y-114502110D02*
X152365789Y-114216396D01*
X152365789Y-114216396D02*
X152413408Y-114121158D01*
X152413408Y-114121158D02*
X152461027Y-114073539D01*
X152461027Y-114073539D02*
X152556265Y-114025920D01*
X152556265Y-114025920D02*
X152699122Y-114025920D01*
X152699122Y-114025920D02*
X152794360Y-114073539D01*
X152794360Y-114073539D02*
X152841979Y-114121158D01*
X152841979Y-114121158D02*
X152889598Y-114216396D01*
X152889598Y-114216396D02*
X152889598Y-114502110D01*
X152889598Y-114502110D02*
X152841979Y-114597348D01*
X152841979Y-114597348D02*
X152794360Y-114644968D01*
X152794360Y-114644968D02*
X152699122Y-114692587D01*
X152699122Y-114692587D02*
X152556265Y-114692587D01*
X153318170Y-114692587D02*
X153318170Y-114025920D01*
X153318170Y-114121158D02*
X153365789Y-114073539D01*
X153365789Y-114073539D02*
X153461027Y-114025920D01*
X153461027Y-114025920D02*
X153603884Y-114025920D01*
X153603884Y-114025920D02*
X153699122Y-114073539D01*
X153699122Y-114073539D02*
X153746741Y-114168777D01*
X153746741Y-114168777D02*
X153746741Y-114692587D01*
X153746741Y-114168777D02*
X153794360Y-114073539D01*
X153794360Y-114073539D02*
X153889598Y-114025920D01*
X153889598Y-114025920D02*
X154032455Y-114025920D01*
X154032455Y-114025920D02*
X154127694Y-114073539D01*
X154127694Y-114073539D02*
X154175313Y-114168777D01*
X154175313Y-114168777D02*
X154175313Y-114692587D01*
X154556265Y-114025920D02*
X154794360Y-114692587D01*
X154794360Y-114692587D02*
X155032455Y-114025920D01*
X155841979Y-114692587D02*
X155841979Y-114168777D01*
X155841979Y-114168777D02*
X155794360Y-114073539D01*
X155794360Y-114073539D02*
X155699122Y-114025920D01*
X155699122Y-114025920D02*
X155508646Y-114025920D01*
X155508646Y-114025920D02*
X155413408Y-114073539D01*
X155841979Y-114644968D02*
X155746741Y-114692587D01*
X155746741Y-114692587D02*
X155508646Y-114692587D01*
X155508646Y-114692587D02*
X155413408Y-114644968D01*
X155413408Y-114644968D02*
X155365789Y-114549729D01*
X155365789Y-114549729D02*
X155365789Y-114454491D01*
X155365789Y-114454491D02*
X155413408Y-114359253D01*
X155413408Y-114359253D02*
X155508646Y-114311634D01*
X155508646Y-114311634D02*
X155746741Y-114311634D01*
X155746741Y-114311634D02*
X155841979Y-114264015D01*
X156746741Y-114025920D02*
X156746741Y-114692587D01*
X156318170Y-114025920D02*
X156318170Y-114549729D01*
X156318170Y-114549729D02*
X156365789Y-114644968D01*
X156365789Y-114644968D02*
X156461027Y-114692587D01*
X156461027Y-114692587D02*
X156603884Y-114692587D01*
X156603884Y-114692587D02*
X156699122Y-114644968D01*
X156699122Y-114644968D02*
X156746741Y-114597348D01*
X157365789Y-114692587D02*
X157270551Y-114644968D01*
X157270551Y-114644968D02*
X157222932Y-114549729D01*
X157222932Y-114549729D02*
X157222932Y-113692587D01*
X157603885Y-114025920D02*
X157984837Y-114025920D01*
X157746742Y-113692587D02*
X157746742Y-114549729D01*
X157746742Y-114549729D02*
X157794361Y-114644968D01*
X157794361Y-114644968D02*
X157889599Y-114692587D01*
X157889599Y-114692587D02*
X157984837Y-114692587D01*
X158318171Y-114597348D02*
X158365790Y-114644968D01*
X158365790Y-114644968D02*
X158318171Y-114692587D01*
X158318171Y-114692587D02*
X158270552Y-114644968D01*
X158270552Y-114644968D02*
X158318171Y-114597348D01*
X158318171Y-114597348D02*
X158318171Y-114692587D01*
X158794361Y-114025920D02*
X158794361Y-114692587D01*
X158794361Y-114121158D02*
X158841980Y-114073539D01*
X158841980Y-114073539D02*
X158937218Y-114025920D01*
X158937218Y-114025920D02*
X159080075Y-114025920D01*
X159080075Y-114025920D02*
X159175313Y-114073539D01*
X159175313Y-114073539D02*
X159222932Y-114168777D01*
X159222932Y-114168777D02*
X159222932Y-114692587D01*
X159841980Y-114692587D02*
X159746742Y-114644968D01*
X159746742Y-114644968D02*
X159699123Y-114549729D01*
X159699123Y-114549729D02*
X159699123Y-113692587D01*
X144603884Y-115778721D02*
X144937217Y-115778721D01*
X145080074Y-116302531D02*
X144603884Y-116302531D01*
X144603884Y-116302531D02*
X144603884Y-115302531D01*
X144603884Y-115302531D02*
X145080074Y-115302531D01*
X145461027Y-116254912D02*
X145603884Y-116302531D01*
X145603884Y-116302531D02*
X145841979Y-116302531D01*
X145841979Y-116302531D02*
X145937217Y-116254912D01*
X145937217Y-116254912D02*
X145984836Y-116207292D01*
X145984836Y-116207292D02*
X146032455Y-116112054D01*
X146032455Y-116112054D02*
X146032455Y-116016816D01*
X146032455Y-116016816D02*
X145984836Y-115921578D01*
X145984836Y-115921578D02*
X145937217Y-115873959D01*
X145937217Y-115873959D02*
X145841979Y-115826340D01*
X145841979Y-115826340D02*
X145651503Y-115778721D01*
X145651503Y-115778721D02*
X145556265Y-115731102D01*
X145556265Y-115731102D02*
X145508646Y-115683483D01*
X145508646Y-115683483D02*
X145461027Y-115588245D01*
X145461027Y-115588245D02*
X145461027Y-115493007D01*
X145461027Y-115493007D02*
X145508646Y-115397769D01*
X145508646Y-115397769D02*
X145556265Y-115350150D01*
X145556265Y-115350150D02*
X145651503Y-115302531D01*
X145651503Y-115302531D02*
X145889598Y-115302531D01*
X145889598Y-115302531D02*
X146032455Y-115350150D01*
X146461027Y-116302531D02*
X146461027Y-115302531D01*
X146461027Y-115302531D02*
X146841979Y-115302531D01*
X146841979Y-115302531D02*
X146937217Y-115350150D01*
X146937217Y-115350150D02*
X146984836Y-115397769D01*
X146984836Y-115397769D02*
X147032455Y-115493007D01*
X147032455Y-115493007D02*
X147032455Y-115635864D01*
X147032455Y-115635864D02*
X146984836Y-115731102D01*
X146984836Y-115731102D02*
X146937217Y-115778721D01*
X146937217Y-115778721D02*
X146841979Y-115826340D01*
X146841979Y-115826340D02*
X146461027Y-115826340D01*
X147365789Y-115302531D02*
X147984836Y-115302531D01*
X147984836Y-115302531D02*
X147651503Y-115683483D01*
X147651503Y-115683483D02*
X147794360Y-115683483D01*
X147794360Y-115683483D02*
X147889598Y-115731102D01*
X147889598Y-115731102D02*
X147937217Y-115778721D01*
X147937217Y-115778721D02*
X147984836Y-115873959D01*
X147984836Y-115873959D02*
X147984836Y-116112054D01*
X147984836Y-116112054D02*
X147937217Y-116207292D01*
X147937217Y-116207292D02*
X147889598Y-116254912D01*
X147889598Y-116254912D02*
X147794360Y-116302531D01*
X147794360Y-116302531D02*
X147508646Y-116302531D01*
X147508646Y-116302531D02*
X147413408Y-116254912D01*
X147413408Y-116254912D02*
X147365789Y-116207292D01*
X148365789Y-115397769D02*
X148413408Y-115350150D01*
X148413408Y-115350150D02*
X148508646Y-115302531D01*
X148508646Y-115302531D02*
X148746741Y-115302531D01*
X148746741Y-115302531D02*
X148841979Y-115350150D01*
X148841979Y-115350150D02*
X148889598Y-115397769D01*
X148889598Y-115397769D02*
X148937217Y-115493007D01*
X148937217Y-115493007D02*
X148937217Y-115588245D01*
X148937217Y-115588245D02*
X148889598Y-115731102D01*
X148889598Y-115731102D02*
X148318170Y-116302531D01*
X148318170Y-116302531D02*
X148937217Y-116302531D01*
X150127694Y-115778721D02*
X150461027Y-115778721D01*
X150603884Y-116302531D02*
X150127694Y-116302531D01*
X150127694Y-116302531D02*
X150127694Y-115302531D01*
X150127694Y-115302531D02*
X150603884Y-115302531D01*
X150889599Y-115302531D02*
X151461027Y-115302531D01*
X151175313Y-116302531D02*
X151175313Y-115302531D01*
X151794361Y-116302531D02*
X151794361Y-115302531D01*
X151794361Y-115778721D02*
X152365789Y-115778721D01*
X152365789Y-116302531D02*
X152365789Y-115302531D01*
X153603885Y-116302531D02*
X153603885Y-115302531D01*
X153603885Y-115683483D02*
X153699123Y-115635864D01*
X153699123Y-115635864D02*
X153889599Y-115635864D01*
X153889599Y-115635864D02*
X153984837Y-115683483D01*
X153984837Y-115683483D02*
X154032456Y-115731102D01*
X154032456Y-115731102D02*
X154080075Y-115826340D01*
X154080075Y-115826340D02*
X154080075Y-116112054D01*
X154080075Y-116112054D02*
X154032456Y-116207292D01*
X154032456Y-116207292D02*
X153984837Y-116254912D01*
X153984837Y-116254912D02*
X153889599Y-116302531D01*
X153889599Y-116302531D02*
X153699123Y-116302531D01*
X153699123Y-116302531D02*
X153603885Y-116254912D01*
X154937218Y-116302531D02*
X154937218Y-115778721D01*
X154937218Y-115778721D02*
X154889599Y-115683483D01*
X154889599Y-115683483D02*
X154794361Y-115635864D01*
X154794361Y-115635864D02*
X154603885Y-115635864D01*
X154603885Y-115635864D02*
X154508647Y-115683483D01*
X154937218Y-116254912D02*
X154841980Y-116302531D01*
X154841980Y-116302531D02*
X154603885Y-116302531D01*
X154603885Y-116302531D02*
X154508647Y-116254912D01*
X154508647Y-116254912D02*
X154461028Y-116159673D01*
X154461028Y-116159673D02*
X154461028Y-116064435D01*
X154461028Y-116064435D02*
X154508647Y-115969197D01*
X154508647Y-115969197D02*
X154603885Y-115921578D01*
X154603885Y-115921578D02*
X154841980Y-115921578D01*
X154841980Y-115921578D02*
X154937218Y-115873959D01*
X155365790Y-116254912D02*
X155461028Y-116302531D01*
X155461028Y-116302531D02*
X155651504Y-116302531D01*
X155651504Y-116302531D02*
X155746742Y-116254912D01*
X155746742Y-116254912D02*
X155794361Y-116159673D01*
X155794361Y-116159673D02*
X155794361Y-116112054D01*
X155794361Y-116112054D02*
X155746742Y-116016816D01*
X155746742Y-116016816D02*
X155651504Y-115969197D01*
X155651504Y-115969197D02*
X155508647Y-115969197D01*
X155508647Y-115969197D02*
X155413409Y-115921578D01*
X155413409Y-115921578D02*
X155365790Y-115826340D01*
X155365790Y-115826340D02*
X155365790Y-115778721D01*
X155365790Y-115778721D02*
X155413409Y-115683483D01*
X155413409Y-115683483D02*
X155508647Y-115635864D01*
X155508647Y-115635864D02*
X155651504Y-115635864D01*
X155651504Y-115635864D02*
X155746742Y-115683483D01*
X156603885Y-116254912D02*
X156508647Y-116302531D01*
X156508647Y-116302531D02*
X156318171Y-116302531D01*
X156318171Y-116302531D02*
X156222933Y-116254912D01*
X156222933Y-116254912D02*
X156175314Y-116159673D01*
X156175314Y-116159673D02*
X156175314Y-115778721D01*
X156175314Y-115778721D02*
X156222933Y-115683483D01*
X156222933Y-115683483D02*
X156318171Y-115635864D01*
X156318171Y-115635864D02*
X156508647Y-115635864D01*
X156508647Y-115635864D02*
X156603885Y-115683483D01*
X156603885Y-115683483D02*
X156651504Y-115778721D01*
X156651504Y-115778721D02*
X156651504Y-115873959D01*
X156651504Y-115873959D02*
X156175314Y-115969197D01*
X157841981Y-116302531D02*
X157841981Y-115302531D01*
X157841981Y-115683483D02*
X157937219Y-115635864D01*
X157937219Y-115635864D02*
X158127695Y-115635864D01*
X158127695Y-115635864D02*
X158222933Y-115683483D01*
X158222933Y-115683483D02*
X158270552Y-115731102D01*
X158270552Y-115731102D02*
X158318171Y-115826340D01*
X158318171Y-115826340D02*
X158318171Y-116112054D01*
X158318171Y-116112054D02*
X158270552Y-116207292D01*
X158270552Y-116207292D02*
X158222933Y-116254912D01*
X158222933Y-116254912D02*
X158127695Y-116302531D01*
X158127695Y-116302531D02*
X157937219Y-116302531D01*
X157937219Y-116302531D02*
X157841981Y-116254912D01*
X158889600Y-116302531D02*
X158794362Y-116254912D01*
X158794362Y-116254912D02*
X158746743Y-116207292D01*
X158746743Y-116207292D02*
X158699124Y-116112054D01*
X158699124Y-116112054D02*
X158699124Y-115826340D01*
X158699124Y-115826340D02*
X158746743Y-115731102D01*
X158746743Y-115731102D02*
X158794362Y-115683483D01*
X158794362Y-115683483D02*
X158889600Y-115635864D01*
X158889600Y-115635864D02*
X159032457Y-115635864D01*
X159032457Y-115635864D02*
X159127695Y-115683483D01*
X159127695Y-115683483D02*
X159175314Y-115731102D01*
X159175314Y-115731102D02*
X159222933Y-115826340D01*
X159222933Y-115826340D02*
X159222933Y-116112054D01*
X159222933Y-116112054D02*
X159175314Y-116207292D01*
X159175314Y-116207292D02*
X159127695Y-116254912D01*
X159127695Y-116254912D02*
X159032457Y-116302531D01*
X159032457Y-116302531D02*
X158889600Y-116302531D01*
X160080076Y-116302531D02*
X160080076Y-115778721D01*
X160080076Y-115778721D02*
X160032457Y-115683483D01*
X160032457Y-115683483D02*
X159937219Y-115635864D01*
X159937219Y-115635864D02*
X159746743Y-115635864D01*
X159746743Y-115635864D02*
X159651505Y-115683483D01*
X160080076Y-116254912D02*
X159984838Y-116302531D01*
X159984838Y-116302531D02*
X159746743Y-116302531D01*
X159746743Y-116302531D02*
X159651505Y-116254912D01*
X159651505Y-116254912D02*
X159603886Y-116159673D01*
X159603886Y-116159673D02*
X159603886Y-116064435D01*
X159603886Y-116064435D02*
X159651505Y-115969197D01*
X159651505Y-115969197D02*
X159746743Y-115921578D01*
X159746743Y-115921578D02*
X159984838Y-115921578D01*
X159984838Y-115921578D02*
X160080076Y-115873959D01*
X160556267Y-116302531D02*
X160556267Y-115635864D01*
X160556267Y-115826340D02*
X160603886Y-115731102D01*
X160603886Y-115731102D02*
X160651505Y-115683483D01*
X160651505Y-115683483D02*
X160746743Y-115635864D01*
X160746743Y-115635864D02*
X160841981Y-115635864D01*
X161603886Y-116302531D02*
X161603886Y-115302531D01*
X161603886Y-116254912D02*
X161508648Y-116302531D01*
X161508648Y-116302531D02*
X161318172Y-116302531D01*
X161318172Y-116302531D02*
X161222934Y-116254912D01*
X161222934Y-116254912D02*
X161175315Y-116207292D01*
X161175315Y-116207292D02*
X161127696Y-116112054D01*
X161127696Y-116112054D02*
X161127696Y-115826340D01*
X161127696Y-115826340D02*
X161175315Y-115731102D01*
X161175315Y-115731102D02*
X161222934Y-115683483D01*
X161222934Y-115683483D02*
X161318172Y-115635864D01*
X161318172Y-115635864D02*
X161508648Y-115635864D01*
X161508648Y-115635864D02*
X161603886Y-115683483D01*
X144461027Y-116912475D02*
X144794360Y-117912475D01*
X144794360Y-117912475D02*
X145127693Y-116912475D01*
X145841979Y-117864856D02*
X145746741Y-117912475D01*
X145746741Y-117912475D02*
X145556265Y-117912475D01*
X145556265Y-117912475D02*
X145461027Y-117864856D01*
X145461027Y-117864856D02*
X145413408Y-117769617D01*
X145413408Y-117769617D02*
X145413408Y-117388665D01*
X145413408Y-117388665D02*
X145461027Y-117293427D01*
X145461027Y-117293427D02*
X145556265Y-117245808D01*
X145556265Y-117245808D02*
X145746741Y-117245808D01*
X145746741Y-117245808D02*
X145841979Y-117293427D01*
X145841979Y-117293427D02*
X145889598Y-117388665D01*
X145889598Y-117388665D02*
X145889598Y-117483903D01*
X145889598Y-117483903D02*
X145413408Y-117579141D01*
X146318170Y-117912475D02*
X146318170Y-117245808D01*
X146318170Y-117436284D02*
X146365789Y-117341046D01*
X146365789Y-117341046D02*
X146413408Y-117293427D01*
X146413408Y-117293427D02*
X146508646Y-117245808D01*
X146508646Y-117245808D02*
X146603884Y-117245808D01*
X146889599Y-117864856D02*
X146984837Y-117912475D01*
X146984837Y-117912475D02*
X147175313Y-117912475D01*
X147175313Y-117912475D02*
X147270551Y-117864856D01*
X147270551Y-117864856D02*
X147318170Y-117769617D01*
X147318170Y-117769617D02*
X147318170Y-117721998D01*
X147318170Y-117721998D02*
X147270551Y-117626760D01*
X147270551Y-117626760D02*
X147175313Y-117579141D01*
X147175313Y-117579141D02*
X147032456Y-117579141D01*
X147032456Y-117579141D02*
X146937218Y-117531522D01*
X146937218Y-117531522D02*
X146889599Y-117436284D01*
X146889599Y-117436284D02*
X146889599Y-117388665D01*
X146889599Y-117388665D02*
X146937218Y-117293427D01*
X146937218Y-117293427D02*
X147032456Y-117245808D01*
X147032456Y-117245808D02*
X147175313Y-117245808D01*
X147175313Y-117245808D02*
X147270551Y-117293427D01*
X147746742Y-117912475D02*
X147746742Y-117245808D01*
X147746742Y-116912475D02*
X147699123Y-116960094D01*
X147699123Y-116960094D02*
X147746742Y-117007713D01*
X147746742Y-117007713D02*
X147794361Y-116960094D01*
X147794361Y-116960094D02*
X147746742Y-116912475D01*
X147746742Y-116912475D02*
X147746742Y-117007713D01*
X148365789Y-117912475D02*
X148270551Y-117864856D01*
X148270551Y-117864856D02*
X148222932Y-117817236D01*
X148222932Y-117817236D02*
X148175313Y-117721998D01*
X148175313Y-117721998D02*
X148175313Y-117436284D01*
X148175313Y-117436284D02*
X148222932Y-117341046D01*
X148222932Y-117341046D02*
X148270551Y-117293427D01*
X148270551Y-117293427D02*
X148365789Y-117245808D01*
X148365789Y-117245808D02*
X148508646Y-117245808D01*
X148508646Y-117245808D02*
X148603884Y-117293427D01*
X148603884Y-117293427D02*
X148651503Y-117341046D01*
X148651503Y-117341046D02*
X148699122Y-117436284D01*
X148699122Y-117436284D02*
X148699122Y-117721998D01*
X148699122Y-117721998D02*
X148651503Y-117817236D01*
X148651503Y-117817236D02*
X148603884Y-117864856D01*
X148603884Y-117864856D02*
X148508646Y-117912475D01*
X148508646Y-117912475D02*
X148365789Y-117912475D01*
X149127694Y-117245808D02*
X149127694Y-117912475D01*
X149127694Y-117341046D02*
X149175313Y-117293427D01*
X149175313Y-117293427D02*
X149270551Y-117245808D01*
X149270551Y-117245808D02*
X149413408Y-117245808D01*
X149413408Y-117245808D02*
X149508646Y-117293427D01*
X149508646Y-117293427D02*
X149556265Y-117388665D01*
X149556265Y-117388665D02*
X149556265Y-117912475D01*
X150032456Y-117817236D02*
X150080075Y-117864856D01*
X150080075Y-117864856D02*
X150032456Y-117912475D01*
X150032456Y-117912475D02*
X149984837Y-117864856D01*
X149984837Y-117864856D02*
X150032456Y-117817236D01*
X150032456Y-117817236D02*
X150032456Y-117912475D01*
X150032456Y-117293427D02*
X150080075Y-117341046D01*
X150080075Y-117341046D02*
X150032456Y-117388665D01*
X150032456Y-117388665D02*
X149984837Y-117341046D01*
X149984837Y-117341046D02*
X150032456Y-117293427D01*
X150032456Y-117293427D02*
X150032456Y-117388665D01*
X156889597Y-117912475D02*
X156318169Y-117912475D01*
X156603883Y-117912475D02*
X156603883Y-116912475D01*
X156603883Y-116912475D02*
X156508645Y-117055332D01*
X156508645Y-117055332D02*
X156413407Y-117150570D01*
X156413407Y-117150570D02*
X156318169Y-117198189D01*
X157318169Y-117817236D02*
X157365788Y-117864856D01*
X157365788Y-117864856D02*
X157318169Y-117912475D01*
X157318169Y-117912475D02*
X157270550Y-117864856D01*
X157270550Y-117864856D02*
X157318169Y-117817236D01*
X157318169Y-117817236D02*
X157318169Y-117912475D01*
X157984835Y-116912475D02*
X158080073Y-116912475D01*
X158080073Y-116912475D02*
X158175311Y-116960094D01*
X158175311Y-116960094D02*
X158222930Y-117007713D01*
X158222930Y-117007713D02*
X158270549Y-117102951D01*
X158270549Y-117102951D02*
X158318168Y-117293427D01*
X158318168Y-117293427D02*
X158318168Y-117531522D01*
X158318168Y-117531522D02*
X158270549Y-117721998D01*
X158270549Y-117721998D02*
X158222930Y-117817236D01*
X158222930Y-117817236D02*
X158175311Y-117864856D01*
X158175311Y-117864856D02*
X158080073Y-117912475D01*
X158080073Y-117912475D02*
X157984835Y-117912475D01*
X157984835Y-117912475D02*
X157889597Y-117864856D01*
X157889597Y-117864856D02*
X157841978Y-117817236D01*
X157841978Y-117817236D02*
X157794359Y-117721998D01*
X157794359Y-117721998D02*
X157746740Y-117531522D01*
X157746740Y-117531522D02*
X157746740Y-117293427D01*
X157746740Y-117293427D02*
X157794359Y-117102951D01*
X157794359Y-117102951D02*
X157841978Y-117007713D01*
X157841978Y-117007713D02*
X157889597Y-116960094D01*
X157889597Y-116960094D02*
X157984835Y-116912475D01*
X144603884Y-118998609D02*
X144937217Y-118998609D01*
X145080074Y-119522419D02*
X144603884Y-119522419D01*
X144603884Y-119522419D02*
X144603884Y-118522419D01*
X144603884Y-118522419D02*
X145080074Y-118522419D01*
X145508646Y-118855752D02*
X145508646Y-119522419D01*
X145508646Y-118950990D02*
X145556265Y-118903371D01*
X145556265Y-118903371D02*
X145651503Y-118855752D01*
X145651503Y-118855752D02*
X145794360Y-118855752D01*
X145794360Y-118855752D02*
X145889598Y-118903371D01*
X145889598Y-118903371D02*
X145937217Y-118998609D01*
X145937217Y-118998609D02*
X145937217Y-119522419D01*
X146841979Y-118855752D02*
X146841979Y-119665276D01*
X146841979Y-119665276D02*
X146794360Y-119760514D01*
X146794360Y-119760514D02*
X146746741Y-119808133D01*
X146746741Y-119808133D02*
X146651503Y-119855752D01*
X146651503Y-119855752D02*
X146508646Y-119855752D01*
X146508646Y-119855752D02*
X146413408Y-119808133D01*
X146841979Y-119474800D02*
X146746741Y-119522419D01*
X146746741Y-119522419D02*
X146556265Y-119522419D01*
X146556265Y-119522419D02*
X146461027Y-119474800D01*
X146461027Y-119474800D02*
X146413408Y-119427180D01*
X146413408Y-119427180D02*
X146365789Y-119331942D01*
X146365789Y-119331942D02*
X146365789Y-119046228D01*
X146365789Y-119046228D02*
X146413408Y-118950990D01*
X146413408Y-118950990D02*
X146461027Y-118903371D01*
X146461027Y-118903371D02*
X146556265Y-118855752D01*
X146556265Y-118855752D02*
X146746741Y-118855752D01*
X146746741Y-118855752D02*
X146841979Y-118903371D01*
X147318170Y-119522419D02*
X147318170Y-118855752D01*
X147318170Y-118522419D02*
X147270551Y-118570038D01*
X147270551Y-118570038D02*
X147318170Y-118617657D01*
X147318170Y-118617657D02*
X147365789Y-118570038D01*
X147365789Y-118570038D02*
X147318170Y-118522419D01*
X147318170Y-118522419D02*
X147318170Y-118617657D01*
X147794360Y-118855752D02*
X147794360Y-119522419D01*
X147794360Y-118950990D02*
X147841979Y-118903371D01*
X147841979Y-118903371D02*
X147937217Y-118855752D01*
X147937217Y-118855752D02*
X148080074Y-118855752D01*
X148080074Y-118855752D02*
X148175312Y-118903371D01*
X148175312Y-118903371D02*
X148222931Y-118998609D01*
X148222931Y-118998609D02*
X148222931Y-119522419D01*
X149080074Y-119474800D02*
X148984836Y-119522419D01*
X148984836Y-119522419D02*
X148794360Y-119522419D01*
X148794360Y-119522419D02*
X148699122Y-119474800D01*
X148699122Y-119474800D02*
X148651503Y-119379561D01*
X148651503Y-119379561D02*
X148651503Y-118998609D01*
X148651503Y-118998609D02*
X148699122Y-118903371D01*
X148699122Y-118903371D02*
X148794360Y-118855752D01*
X148794360Y-118855752D02*
X148984836Y-118855752D01*
X148984836Y-118855752D02*
X149080074Y-118903371D01*
X149080074Y-118903371D02*
X149127693Y-118998609D01*
X149127693Y-118998609D02*
X149127693Y-119093847D01*
X149127693Y-119093847D02*
X148651503Y-119189085D01*
X149937217Y-119474800D02*
X149841979Y-119522419D01*
X149841979Y-119522419D02*
X149651503Y-119522419D01*
X149651503Y-119522419D02*
X149556265Y-119474800D01*
X149556265Y-119474800D02*
X149508646Y-119379561D01*
X149508646Y-119379561D02*
X149508646Y-118998609D01*
X149508646Y-118998609D02*
X149556265Y-118903371D01*
X149556265Y-118903371D02*
X149651503Y-118855752D01*
X149651503Y-118855752D02*
X149841979Y-118855752D01*
X149841979Y-118855752D02*
X149937217Y-118903371D01*
X149937217Y-118903371D02*
X149984836Y-118998609D01*
X149984836Y-118998609D02*
X149984836Y-119093847D01*
X149984836Y-119093847D02*
X149508646Y-119189085D01*
X150413408Y-119522419D02*
X150413408Y-118855752D01*
X150413408Y-119046228D02*
X150461027Y-118950990D01*
X150461027Y-118950990D02*
X150508646Y-118903371D01*
X150508646Y-118903371D02*
X150603884Y-118855752D01*
X150603884Y-118855752D02*
X150699122Y-118855752D01*
X151032456Y-119427180D02*
X151080075Y-119474800D01*
X151080075Y-119474800D02*
X151032456Y-119522419D01*
X151032456Y-119522419D02*
X150984837Y-119474800D01*
X150984837Y-119474800D02*
X151032456Y-119427180D01*
X151032456Y-119427180D02*
X151032456Y-119522419D01*
X151032456Y-118903371D02*
X151080075Y-118950990D01*
X151080075Y-118950990D02*
X151032456Y-118998609D01*
X151032456Y-118998609D02*
X150984837Y-118950990D01*
X150984837Y-118950990D02*
X151032456Y-118903371D01*
X151032456Y-118903371D02*
X151032456Y-118998609D01*
X156937216Y-119427180D02*
X156889597Y-119474800D01*
X156889597Y-119474800D02*
X156746740Y-119522419D01*
X156746740Y-119522419D02*
X156651502Y-119522419D01*
X156651502Y-119522419D02*
X156508645Y-119474800D01*
X156508645Y-119474800D02*
X156413407Y-119379561D01*
X156413407Y-119379561D02*
X156365788Y-119284323D01*
X156365788Y-119284323D02*
X156318169Y-119093847D01*
X156318169Y-119093847D02*
X156318169Y-118950990D01*
X156318169Y-118950990D02*
X156365788Y-118760514D01*
X156365788Y-118760514D02*
X156413407Y-118665276D01*
X156413407Y-118665276D02*
X156508645Y-118570038D01*
X156508645Y-118570038D02*
X156651502Y-118522419D01*
X156651502Y-118522419D02*
X156746740Y-118522419D01*
X156746740Y-118522419D02*
X156889597Y-118570038D01*
X156889597Y-118570038D02*
X156937216Y-118617657D01*
X157937216Y-119427180D02*
X157889597Y-119474800D01*
X157889597Y-119474800D02*
X157746740Y-119522419D01*
X157746740Y-119522419D02*
X157651502Y-119522419D01*
X157651502Y-119522419D02*
X157508645Y-119474800D01*
X157508645Y-119474800D02*
X157413407Y-119379561D01*
X157413407Y-119379561D02*
X157365788Y-119284323D01*
X157365788Y-119284323D02*
X157318169Y-119093847D01*
X157318169Y-119093847D02*
X157318169Y-118950990D01*
X157318169Y-118950990D02*
X157365788Y-118760514D01*
X157365788Y-118760514D02*
X157413407Y-118665276D01*
X157413407Y-118665276D02*
X157508645Y-118570038D01*
X157508645Y-118570038D02*
X157651502Y-118522419D01*
X157651502Y-118522419D02*
X157746740Y-118522419D01*
X157746740Y-118522419D02*
X157889597Y-118570038D01*
X157889597Y-118570038D02*
X157937216Y-118617657D01*
X158556264Y-118522419D02*
X158746740Y-118522419D01*
X158746740Y-118522419D02*
X158841978Y-118570038D01*
X158841978Y-118570038D02*
X158937216Y-118665276D01*
X158937216Y-118665276D02*
X158984835Y-118855752D01*
X158984835Y-118855752D02*
X158984835Y-119189085D01*
X158984835Y-119189085D02*
X158937216Y-119379561D01*
X158937216Y-119379561D02*
X158841978Y-119474800D01*
X158841978Y-119474800D02*
X158746740Y-119522419D01*
X158746740Y-119522419D02*
X158556264Y-119522419D01*
X158556264Y-119522419D02*
X158461026Y-119474800D01*
X158461026Y-119474800D02*
X158365788Y-119379561D01*
X158365788Y-119379561D02*
X158318169Y-119189085D01*
X158318169Y-119189085D02*
X158318169Y-118855752D01*
X158318169Y-118855752D02*
X158365788Y-118665276D01*
X158365788Y-118665276D02*
X158461026Y-118570038D01*
X158461026Y-118570038D02*
X158556264Y-118522419D01*
X160356265Y-126986704D02*
X160832455Y-126986704D01*
X160261027Y-127272419D02*
X160594360Y-126272419D01*
X160594360Y-126272419D02*
X160927693Y-127272419D01*
X161261027Y-126272419D02*
X161261027Y-127081942D01*
X161261027Y-127081942D02*
X161308646Y-127177180D01*
X161308646Y-127177180D02*
X161356265Y-127224800D01*
X161356265Y-127224800D02*
X161451503Y-127272419D01*
X161451503Y-127272419D02*
X161641979Y-127272419D01*
X161641979Y-127272419D02*
X161737217Y-127224800D01*
X161737217Y-127224800D02*
X161784836Y-127177180D01*
X161784836Y-127177180D02*
X161832455Y-127081942D01*
X161832455Y-127081942D02*
X161832455Y-126272419D01*
X162213408Y-126272419D02*
X162880074Y-127272419D01*
X162880074Y-126272419D02*
X162213408Y-127272419D01*
X105624800Y-125893734D02*
X105672419Y-125750877D01*
X105672419Y-125750877D02*
X105672419Y-125512782D01*
X105672419Y-125512782D02*
X105624800Y-125417544D01*
X105624800Y-125417544D02*
X105577180Y-125369925D01*
X105577180Y-125369925D02*
X105481942Y-125322306D01*
X105481942Y-125322306D02*
X105386704Y-125322306D01*
X105386704Y-125322306D02*
X105291466Y-125369925D01*
X105291466Y-125369925D02*
X105243847Y-125417544D01*
X105243847Y-125417544D02*
X105196228Y-125512782D01*
X105196228Y-125512782D02*
X105148609Y-125703258D01*
X105148609Y-125703258D02*
X105100990Y-125798496D01*
X105100990Y-125798496D02*
X105053371Y-125846115D01*
X105053371Y-125846115D02*
X104958133Y-125893734D01*
X104958133Y-125893734D02*
X104862895Y-125893734D01*
X104862895Y-125893734D02*
X104767657Y-125846115D01*
X104767657Y-125846115D02*
X104720038Y-125798496D01*
X104720038Y-125798496D02*
X104672419Y-125703258D01*
X104672419Y-125703258D02*
X104672419Y-125465163D01*
X104672419Y-125465163D02*
X104720038Y-125322306D01*
X105624800Y-124512782D02*
X105672419Y-124608020D01*
X105672419Y-124608020D02*
X105672419Y-124798496D01*
X105672419Y-124798496D02*
X105624800Y-124893734D01*
X105624800Y-124893734D02*
X105529561Y-124941353D01*
X105529561Y-124941353D02*
X105148609Y-124941353D01*
X105148609Y-124941353D02*
X105053371Y-124893734D01*
X105053371Y-124893734D02*
X105005752Y-124798496D01*
X105005752Y-124798496D02*
X105005752Y-124608020D01*
X105005752Y-124608020D02*
X105053371Y-124512782D01*
X105053371Y-124512782D02*
X105148609Y-124465163D01*
X105148609Y-124465163D02*
X105243847Y-124465163D01*
X105243847Y-124465163D02*
X105339085Y-124941353D01*
X105672419Y-124036591D02*
X105005752Y-124036591D01*
X105196228Y-124036591D02*
X105100990Y-123988972D01*
X105100990Y-123988972D02*
X105053371Y-123941353D01*
X105053371Y-123941353D02*
X105005752Y-123846115D01*
X105005752Y-123846115D02*
X105005752Y-123750877D01*
X105672419Y-123417543D02*
X105005752Y-123417543D01*
X104672419Y-123417543D02*
X104720038Y-123465162D01*
X104720038Y-123465162D02*
X104767657Y-123417543D01*
X104767657Y-123417543D02*
X104720038Y-123369924D01*
X104720038Y-123369924D02*
X104672419Y-123417543D01*
X104672419Y-123417543D02*
X104767657Y-123417543D01*
X105672419Y-122512782D02*
X105148609Y-122512782D01*
X105148609Y-122512782D02*
X105053371Y-122560401D01*
X105053371Y-122560401D02*
X105005752Y-122655639D01*
X105005752Y-122655639D02*
X105005752Y-122846115D01*
X105005752Y-122846115D02*
X105053371Y-122941353D01*
X105624800Y-122512782D02*
X105672419Y-122608020D01*
X105672419Y-122608020D02*
X105672419Y-122846115D01*
X105672419Y-122846115D02*
X105624800Y-122941353D01*
X105624800Y-122941353D02*
X105529561Y-122988972D01*
X105529561Y-122988972D02*
X105434323Y-122988972D01*
X105434323Y-122988972D02*
X105339085Y-122941353D01*
X105339085Y-122941353D02*
X105291466Y-122846115D01*
X105291466Y-122846115D02*
X105291466Y-122608020D01*
X105291466Y-122608020D02*
X105243847Y-122512782D01*
X105672419Y-121893734D02*
X105624800Y-121988972D01*
X105624800Y-121988972D02*
X105529561Y-122036591D01*
X105529561Y-122036591D02*
X104672419Y-122036591D01*
X129530074Y-60022419D02*
X129053884Y-60022419D01*
X129053884Y-60022419D02*
X129006265Y-60498609D01*
X129006265Y-60498609D02*
X129053884Y-60450990D01*
X129053884Y-60450990D02*
X129149122Y-60403371D01*
X129149122Y-60403371D02*
X129387217Y-60403371D01*
X129387217Y-60403371D02*
X129482455Y-60450990D01*
X129482455Y-60450990D02*
X129530074Y-60498609D01*
X129530074Y-60498609D02*
X129577693Y-60593847D01*
X129577693Y-60593847D02*
X129577693Y-60831942D01*
X129577693Y-60831942D02*
X129530074Y-60927180D01*
X129530074Y-60927180D02*
X129482455Y-60974800D01*
X129482455Y-60974800D02*
X129387217Y-61022419D01*
X129387217Y-61022419D02*
X129149122Y-61022419D01*
X129149122Y-61022419D02*
X129053884Y-60974800D01*
X129053884Y-60974800D02*
X129006265Y-60927180D01*
X129863408Y-60022419D02*
X130196741Y-61022419D01*
X130196741Y-61022419D02*
X130530074Y-60022419D01*
X120317693Y-60460038D02*
X120222455Y-60412419D01*
X120222455Y-60412419D02*
X120079598Y-60412419D01*
X120079598Y-60412419D02*
X119936741Y-60460038D01*
X119936741Y-60460038D02*
X119841503Y-60555276D01*
X119841503Y-60555276D02*
X119793884Y-60650514D01*
X119793884Y-60650514D02*
X119746265Y-60840990D01*
X119746265Y-60840990D02*
X119746265Y-60983847D01*
X119746265Y-60983847D02*
X119793884Y-61174323D01*
X119793884Y-61174323D02*
X119841503Y-61269561D01*
X119841503Y-61269561D02*
X119936741Y-61364800D01*
X119936741Y-61364800D02*
X120079598Y-61412419D01*
X120079598Y-61412419D02*
X120174836Y-61412419D01*
X120174836Y-61412419D02*
X120317693Y-61364800D01*
X120317693Y-61364800D02*
X120365312Y-61317180D01*
X120365312Y-61317180D02*
X120365312Y-60983847D01*
X120365312Y-60983847D02*
X120174836Y-60983847D01*
X120793884Y-61412419D02*
X120793884Y-60412419D01*
X120793884Y-60412419D02*
X121365312Y-61412419D01*
X121365312Y-61412419D02*
X121365312Y-60412419D01*
X121841503Y-61412419D02*
X121841503Y-60412419D01*
X121841503Y-60412419D02*
X122079598Y-60412419D01*
X122079598Y-60412419D02*
X122222455Y-60460038D01*
X122222455Y-60460038D02*
X122317693Y-60555276D01*
X122317693Y-60555276D02*
X122365312Y-60650514D01*
X122365312Y-60650514D02*
X122412931Y-60840990D01*
X122412931Y-60840990D02*
X122412931Y-60983847D01*
X122412931Y-60983847D02*
X122365312Y-61174323D01*
X122365312Y-61174323D02*
X122317693Y-61269561D01*
X122317693Y-61269561D02*
X122222455Y-61364800D01*
X122222455Y-61364800D02*
X122079598Y-61412419D01*
X122079598Y-61412419D02*
X121841503Y-61412419D01*
X124853884Y-60422419D02*
X124853884Y-59422419D01*
X125282455Y-59517657D02*
X125330074Y-59470038D01*
X125330074Y-59470038D02*
X125425312Y-59422419D01*
X125425312Y-59422419D02*
X125663407Y-59422419D01*
X125663407Y-59422419D02*
X125758645Y-59470038D01*
X125758645Y-59470038D02*
X125806264Y-59517657D01*
X125806264Y-59517657D02*
X125853883Y-59612895D01*
X125853883Y-59612895D02*
X125853883Y-59708133D01*
X125853883Y-59708133D02*
X125806264Y-59850990D01*
X125806264Y-59850990D02*
X125234836Y-60422419D01*
X125234836Y-60422419D02*
X125853883Y-60422419D01*
X126853883Y-60327180D02*
X126806264Y-60374800D01*
X126806264Y-60374800D02*
X126663407Y-60422419D01*
X126663407Y-60422419D02*
X126568169Y-60422419D01*
X126568169Y-60422419D02*
X126425312Y-60374800D01*
X126425312Y-60374800D02*
X126330074Y-60279561D01*
X126330074Y-60279561D02*
X126282455Y-60184323D01*
X126282455Y-60184323D02*
X126234836Y-59993847D01*
X126234836Y-59993847D02*
X126234836Y-59850990D01*
X126234836Y-59850990D02*
X126282455Y-59660514D01*
X126282455Y-59660514D02*
X126330074Y-59565276D01*
X126330074Y-59565276D02*
X126425312Y-59470038D01*
X126425312Y-59470038D02*
X126568169Y-59422419D01*
X126568169Y-59422419D02*
X126663407Y-59422419D01*
X126663407Y-59422419D02*
X126806264Y-59470038D01*
X126806264Y-59470038D02*
X126853883Y-59517657D01*
D11*
X181490225Y-89772257D02*
X181347368Y-89700828D01*
X181347368Y-89700828D02*
X181133082Y-89700828D01*
X181133082Y-89700828D02*
X180918796Y-89772257D01*
X180918796Y-89772257D02*
X180775939Y-89915114D01*
X180775939Y-89915114D02*
X180704510Y-90057971D01*
X180704510Y-90057971D02*
X180633082Y-90343685D01*
X180633082Y-90343685D02*
X180633082Y-90557971D01*
X180633082Y-90557971D02*
X180704510Y-90843685D01*
X180704510Y-90843685D02*
X180775939Y-90986542D01*
X180775939Y-90986542D02*
X180918796Y-91129400D01*
X180918796Y-91129400D02*
X181133082Y-91200828D01*
X181133082Y-91200828D02*
X181275939Y-91200828D01*
X181275939Y-91200828D02*
X181490225Y-91129400D01*
X181490225Y-91129400D02*
X181561653Y-91057971D01*
X181561653Y-91057971D02*
X181561653Y-90557971D01*
X181561653Y-90557971D02*
X181275939Y-90557971D01*
X182204510Y-91200828D02*
X182204510Y-89700828D01*
X182204510Y-89700828D02*
X183061653Y-91200828D01*
X183061653Y-91200828D02*
X183061653Y-89700828D01*
X183775939Y-91200828D02*
X183775939Y-89700828D01*
X183775939Y-89700828D02*
X184133082Y-89700828D01*
X184133082Y-89700828D02*
X184347368Y-89772257D01*
X184347368Y-89772257D02*
X184490225Y-89915114D01*
X184490225Y-89915114D02*
X184561654Y-90057971D01*
X184561654Y-90057971D02*
X184633082Y-90343685D01*
X184633082Y-90343685D02*
X184633082Y-90557971D01*
X184633082Y-90557971D02*
X184561654Y-90843685D01*
X184561654Y-90843685D02*
X184490225Y-90986542D01*
X184490225Y-90986542D02*
X184347368Y-91129400D01*
X184347368Y-91129400D02*
X184133082Y-91200828D01*
X184133082Y-91200828D02*
X183775939Y-91200828D01*
X181418796Y-94600828D02*
X180704510Y-94600828D01*
X180704510Y-94600828D02*
X180633082Y-95315114D01*
X180633082Y-95315114D02*
X180704510Y-95243685D01*
X180704510Y-95243685D02*
X180847368Y-95172257D01*
X180847368Y-95172257D02*
X181204510Y-95172257D01*
X181204510Y-95172257D02*
X181347368Y-95243685D01*
X181347368Y-95243685D02*
X181418796Y-95315114D01*
X181418796Y-95315114D02*
X181490225Y-95457971D01*
X181490225Y-95457971D02*
X181490225Y-95815114D01*
X181490225Y-95815114D02*
X181418796Y-95957971D01*
X181418796Y-95957971D02*
X181347368Y-96029400D01*
X181347368Y-96029400D02*
X181204510Y-96100828D01*
X181204510Y-96100828D02*
X180847368Y-96100828D01*
X180847368Y-96100828D02*
X180704510Y-96029400D01*
X180704510Y-96029400D02*
X180633082Y-95957971D01*
X181918796Y-94600828D02*
X182418796Y-96100828D01*
X182418796Y-96100828D02*
X182918796Y-94600828D01*
X181140225Y-106872257D02*
X180997368Y-106800828D01*
X180997368Y-106800828D02*
X180783082Y-106800828D01*
X180783082Y-106800828D02*
X180568796Y-106872257D01*
X180568796Y-106872257D02*
X180425939Y-107015114D01*
X180425939Y-107015114D02*
X180354510Y-107157971D01*
X180354510Y-107157971D02*
X180283082Y-107443685D01*
X180283082Y-107443685D02*
X180283082Y-107657971D01*
X180283082Y-107657971D02*
X180354510Y-107943685D01*
X180354510Y-107943685D02*
X180425939Y-108086542D01*
X180425939Y-108086542D02*
X180568796Y-108229400D01*
X180568796Y-108229400D02*
X180783082Y-108300828D01*
X180783082Y-108300828D02*
X180925939Y-108300828D01*
X180925939Y-108300828D02*
X181140225Y-108229400D01*
X181140225Y-108229400D02*
X181211653Y-108157971D01*
X181211653Y-108157971D02*
X181211653Y-107657971D01*
X181211653Y-107657971D02*
X180925939Y-107657971D01*
X181854510Y-108300828D02*
X181854510Y-106800828D01*
X181854510Y-106800828D02*
X182711653Y-108300828D01*
X182711653Y-108300828D02*
X182711653Y-106800828D01*
X183425939Y-108300828D02*
X183425939Y-106800828D01*
X183425939Y-106800828D02*
X183783082Y-106800828D01*
X183783082Y-106800828D02*
X183997368Y-106872257D01*
X183997368Y-106872257D02*
X184140225Y-107015114D01*
X184140225Y-107015114D02*
X184211654Y-107157971D01*
X184211654Y-107157971D02*
X184283082Y-107443685D01*
X184283082Y-107443685D02*
X184283082Y-107657971D01*
X184283082Y-107657971D02*
X184211654Y-107943685D01*
X184211654Y-107943685D02*
X184140225Y-108086542D01*
X184140225Y-108086542D02*
X183997368Y-108229400D01*
X183997368Y-108229400D02*
X183783082Y-108300828D01*
X183783082Y-108300828D02*
X183425939Y-108300828D01*
X180483082Y-111693685D02*
X180554510Y-111622257D01*
X180554510Y-111622257D02*
X180697368Y-111550828D01*
X180697368Y-111550828D02*
X181054510Y-111550828D01*
X181054510Y-111550828D02*
X181197368Y-111622257D01*
X181197368Y-111622257D02*
X181268796Y-111693685D01*
X181268796Y-111693685D02*
X181340225Y-111836542D01*
X181340225Y-111836542D02*
X181340225Y-111979400D01*
X181340225Y-111979400D02*
X181268796Y-112193685D01*
X181268796Y-112193685D02*
X180411653Y-113050828D01*
X180411653Y-113050828D02*
X181340225Y-113050828D01*
X182625939Y-112050828D02*
X182625939Y-113050828D01*
X182268796Y-111479400D02*
X181911653Y-112550828D01*
X181911653Y-112550828D02*
X182840224Y-112550828D01*
X183197367Y-111550828D02*
X183697367Y-113050828D01*
X183697367Y-113050828D02*
X184197367Y-111550828D01*
D12*
X125466666Y-68054819D02*
X125466666Y-68769104D01*
X125466666Y-68769104D02*
X125419047Y-68911961D01*
X125419047Y-68911961D02*
X125323809Y-69007200D01*
X125323809Y-69007200D02*
X125180952Y-69054819D01*
X125180952Y-69054819D02*
X125085714Y-69054819D01*
X125847619Y-68054819D02*
X126466666Y-68054819D01*
X126466666Y-68054819D02*
X126133333Y-68435771D01*
X126133333Y-68435771D02*
X126276190Y-68435771D01*
X126276190Y-68435771D02*
X126371428Y-68483390D01*
X126371428Y-68483390D02*
X126419047Y-68531009D01*
X126419047Y-68531009D02*
X126466666Y-68626247D01*
X126466666Y-68626247D02*
X126466666Y-68864342D01*
X126466666Y-68864342D02*
X126419047Y-68959580D01*
X126419047Y-68959580D02*
X126371428Y-69007200D01*
X126371428Y-69007200D02*
X126276190Y-69054819D01*
X126276190Y-69054819D02*
X125990476Y-69054819D01*
X125990476Y-69054819D02*
X125895238Y-69007200D01*
X125895238Y-69007200D02*
X125847619Y-68959580D01*
X134484819Y-122579166D02*
X134008628Y-122912499D01*
X134484819Y-123150594D02*
X133484819Y-123150594D01*
X133484819Y-123150594D02*
X133484819Y-122769642D01*
X133484819Y-122769642D02*
X133532438Y-122674404D01*
X133532438Y-122674404D02*
X133580057Y-122626785D01*
X133580057Y-122626785D02*
X133675295Y-122579166D01*
X133675295Y-122579166D02*
X133818152Y-122579166D01*
X133818152Y-122579166D02*
X133913390Y-122626785D01*
X133913390Y-122626785D02*
X133961009Y-122674404D01*
X133961009Y-122674404D02*
X134008628Y-122769642D01*
X134008628Y-122769642D02*
X134008628Y-123150594D01*
X133484819Y-122245832D02*
X133484819Y-121626785D01*
X133484819Y-121626785D02*
X133865771Y-121960118D01*
X133865771Y-121960118D02*
X133865771Y-121817261D01*
X133865771Y-121817261D02*
X133913390Y-121722023D01*
X133913390Y-121722023D02*
X133961009Y-121674404D01*
X133961009Y-121674404D02*
X134056247Y-121626785D01*
X134056247Y-121626785D02*
X134294342Y-121626785D01*
X134294342Y-121626785D02*
X134389580Y-121674404D01*
X134389580Y-121674404D02*
X134437200Y-121722023D01*
X134437200Y-121722023D02*
X134484819Y-121817261D01*
X134484819Y-121817261D02*
X134484819Y-122102975D01*
X134484819Y-122102975D02*
X134437200Y-122198213D01*
X134437200Y-122198213D02*
X134389580Y-122245832D01*
X138804819Y-122566666D02*
X138328628Y-122899999D01*
X138804819Y-123138094D02*
X137804819Y-123138094D01*
X137804819Y-123138094D02*
X137804819Y-122757142D01*
X137804819Y-122757142D02*
X137852438Y-122661904D01*
X137852438Y-122661904D02*
X137900057Y-122614285D01*
X137900057Y-122614285D02*
X137995295Y-122566666D01*
X137995295Y-122566666D02*
X138138152Y-122566666D01*
X138138152Y-122566666D02*
X138233390Y-122614285D01*
X138233390Y-122614285D02*
X138281009Y-122661904D01*
X138281009Y-122661904D02*
X138328628Y-122757142D01*
X138328628Y-122757142D02*
X138328628Y-123138094D01*
X138138152Y-121709523D02*
X138804819Y-121709523D01*
X137757200Y-121947618D02*
X138471485Y-122185713D01*
X138471485Y-122185713D02*
X138471485Y-121566666D01*
X161588095Y-59342319D02*
X161588095Y-60151842D01*
X161588095Y-60151842D02*
X161635714Y-60247080D01*
X161635714Y-60247080D02*
X161683333Y-60294700D01*
X161683333Y-60294700D02*
X161778571Y-60342319D01*
X161778571Y-60342319D02*
X161969047Y-60342319D01*
X161969047Y-60342319D02*
X162064285Y-60294700D01*
X162064285Y-60294700D02*
X162111904Y-60247080D01*
X162111904Y-60247080D02*
X162159523Y-60151842D01*
X162159523Y-60151842D02*
X162159523Y-59342319D01*
X162588095Y-59437557D02*
X162635714Y-59389938D01*
X162635714Y-59389938D02*
X162730952Y-59342319D01*
X162730952Y-59342319D02*
X162969047Y-59342319D01*
X162969047Y-59342319D02*
X163064285Y-59389938D01*
X163064285Y-59389938D02*
X163111904Y-59437557D01*
X163111904Y-59437557D02*
X163159523Y-59532795D01*
X163159523Y-59532795D02*
X163159523Y-59628033D01*
X163159523Y-59628033D02*
X163111904Y-59770890D01*
X163111904Y-59770890D02*
X162540476Y-60342319D01*
X162540476Y-60342319D02*
X163159523Y-60342319D01*
X183688095Y-122054819D02*
X183688095Y-121054819D01*
X183688095Y-121531009D02*
X184259523Y-121531009D01*
X184259523Y-122054819D02*
X184259523Y-121054819D01*
X184640476Y-121054819D02*
X185259523Y-121054819D01*
X185259523Y-121054819D02*
X184926190Y-121435771D01*
X184926190Y-121435771D02*
X185069047Y-121435771D01*
X185069047Y-121435771D02*
X185164285Y-121483390D01*
X185164285Y-121483390D02*
X185211904Y-121531009D01*
X185211904Y-121531009D02*
X185259523Y-121626247D01*
X185259523Y-121626247D02*
X185259523Y-121864342D01*
X185259523Y-121864342D02*
X185211904Y-121959580D01*
X185211904Y-121959580D02*
X185164285Y-122007200D01*
X185164285Y-122007200D02*
X185069047Y-122054819D01*
X185069047Y-122054819D02*
X184783333Y-122054819D01*
X184783333Y-122054819D02*
X184688095Y-122007200D01*
X184688095Y-122007200D02*
X184640476Y-121959580D01*
X168583333Y-61229580D02*
X168535714Y-61277200D01*
X168535714Y-61277200D02*
X168392857Y-61324819D01*
X168392857Y-61324819D02*
X168297619Y-61324819D01*
X168297619Y-61324819D02*
X168154762Y-61277200D01*
X168154762Y-61277200D02*
X168059524Y-61181961D01*
X168059524Y-61181961D02*
X168011905Y-61086723D01*
X168011905Y-61086723D02*
X167964286Y-60896247D01*
X167964286Y-60896247D02*
X167964286Y-60753390D01*
X167964286Y-60753390D02*
X168011905Y-60562914D01*
X168011905Y-60562914D02*
X168059524Y-60467676D01*
X168059524Y-60467676D02*
X168154762Y-60372438D01*
X168154762Y-60372438D02*
X168297619Y-60324819D01*
X168297619Y-60324819D02*
X168392857Y-60324819D01*
X168392857Y-60324819D02*
X168535714Y-60372438D01*
X168535714Y-60372438D02*
X168583333Y-60420057D01*
X168964286Y-60420057D02*
X169011905Y-60372438D01*
X169011905Y-60372438D02*
X169107143Y-60324819D01*
X169107143Y-60324819D02*
X169345238Y-60324819D01*
X169345238Y-60324819D02*
X169440476Y-60372438D01*
X169440476Y-60372438D02*
X169488095Y-60420057D01*
X169488095Y-60420057D02*
X169535714Y-60515295D01*
X169535714Y-60515295D02*
X169535714Y-60610533D01*
X169535714Y-60610533D02*
X169488095Y-60753390D01*
X169488095Y-60753390D02*
X168916667Y-61324819D01*
X168916667Y-61324819D02*
X169535714Y-61324819D01*
X121600057Y-118695238D02*
X121552438Y-118790476D01*
X121552438Y-118790476D02*
X121457200Y-118885714D01*
X121457200Y-118885714D02*
X121314342Y-119028571D01*
X121314342Y-119028571D02*
X121266723Y-119123809D01*
X121266723Y-119123809D02*
X121266723Y-119219047D01*
X121504819Y-119171428D02*
X121457200Y-119266666D01*
X121457200Y-119266666D02*
X121361961Y-119361904D01*
X121361961Y-119361904D02*
X121171485Y-119409523D01*
X121171485Y-119409523D02*
X120838152Y-119409523D01*
X120838152Y-119409523D02*
X120647676Y-119361904D01*
X120647676Y-119361904D02*
X120552438Y-119266666D01*
X120552438Y-119266666D02*
X120504819Y-119171428D01*
X120504819Y-119171428D02*
X120504819Y-118980952D01*
X120504819Y-118980952D02*
X120552438Y-118885714D01*
X120552438Y-118885714D02*
X120647676Y-118790476D01*
X120647676Y-118790476D02*
X120838152Y-118742857D01*
X120838152Y-118742857D02*
X121171485Y-118742857D01*
X121171485Y-118742857D02*
X121361961Y-118790476D01*
X121361961Y-118790476D02*
X121457200Y-118885714D01*
X121457200Y-118885714D02*
X121504819Y-118980952D01*
X121504819Y-118980952D02*
X121504819Y-119171428D01*
X121504819Y-117790476D02*
X121504819Y-118361904D01*
X121504819Y-118076190D02*
X120504819Y-118076190D01*
X120504819Y-118076190D02*
X120647676Y-118171428D01*
X120647676Y-118171428D02*
X120742914Y-118266666D01*
X120742914Y-118266666D02*
X120790533Y-118361904D01*
X168333333Y-71329580D02*
X168285714Y-71377200D01*
X168285714Y-71377200D02*
X168142857Y-71424819D01*
X168142857Y-71424819D02*
X168047619Y-71424819D01*
X168047619Y-71424819D02*
X167904762Y-71377200D01*
X167904762Y-71377200D02*
X167809524Y-71281961D01*
X167809524Y-71281961D02*
X167761905Y-71186723D01*
X167761905Y-71186723D02*
X167714286Y-70996247D01*
X167714286Y-70996247D02*
X167714286Y-70853390D01*
X167714286Y-70853390D02*
X167761905Y-70662914D01*
X167761905Y-70662914D02*
X167809524Y-70567676D01*
X167809524Y-70567676D02*
X167904762Y-70472438D01*
X167904762Y-70472438D02*
X168047619Y-70424819D01*
X168047619Y-70424819D02*
X168142857Y-70424819D01*
X168142857Y-70424819D02*
X168285714Y-70472438D01*
X168285714Y-70472438D02*
X168333333Y-70520057D01*
X168666667Y-70424819D02*
X169285714Y-70424819D01*
X169285714Y-70424819D02*
X168952381Y-70805771D01*
X168952381Y-70805771D02*
X169095238Y-70805771D01*
X169095238Y-70805771D02*
X169190476Y-70853390D01*
X169190476Y-70853390D02*
X169238095Y-70901009D01*
X169238095Y-70901009D02*
X169285714Y-70996247D01*
X169285714Y-70996247D02*
X169285714Y-71234342D01*
X169285714Y-71234342D02*
X169238095Y-71329580D01*
X169238095Y-71329580D02*
X169190476Y-71377200D01*
X169190476Y-71377200D02*
X169095238Y-71424819D01*
X169095238Y-71424819D02*
X168809524Y-71424819D01*
X168809524Y-71424819D02*
X168714286Y-71377200D01*
X168714286Y-71377200D02*
X168666667Y-71329580D01*
X162283333Y-68689580D02*
X162235714Y-68737200D01*
X162235714Y-68737200D02*
X162092857Y-68784819D01*
X162092857Y-68784819D02*
X161997619Y-68784819D01*
X161997619Y-68784819D02*
X161854762Y-68737200D01*
X161854762Y-68737200D02*
X161759524Y-68641961D01*
X161759524Y-68641961D02*
X161711905Y-68546723D01*
X161711905Y-68546723D02*
X161664286Y-68356247D01*
X161664286Y-68356247D02*
X161664286Y-68213390D01*
X161664286Y-68213390D02*
X161711905Y-68022914D01*
X161711905Y-68022914D02*
X161759524Y-67927676D01*
X161759524Y-67927676D02*
X161854762Y-67832438D01*
X161854762Y-67832438D02*
X161997619Y-67784819D01*
X161997619Y-67784819D02*
X162092857Y-67784819D01*
X162092857Y-67784819D02*
X162235714Y-67832438D01*
X162235714Y-67832438D02*
X162283333Y-67880057D01*
X163235714Y-68784819D02*
X162664286Y-68784819D01*
X162950000Y-68784819D02*
X162950000Y-67784819D01*
X162950000Y-67784819D02*
X162854762Y-67927676D01*
X162854762Y-67927676D02*
X162759524Y-68022914D01*
X162759524Y-68022914D02*
X162664286Y-68070533D01*
X144733333Y-79439580D02*
X144685714Y-79487200D01*
X144685714Y-79487200D02*
X144542857Y-79534819D01*
X144542857Y-79534819D02*
X144447619Y-79534819D01*
X144447619Y-79534819D02*
X144304762Y-79487200D01*
X144304762Y-79487200D02*
X144209524Y-79391961D01*
X144209524Y-79391961D02*
X144161905Y-79296723D01*
X144161905Y-79296723D02*
X144114286Y-79106247D01*
X144114286Y-79106247D02*
X144114286Y-78963390D01*
X144114286Y-78963390D02*
X144161905Y-78772914D01*
X144161905Y-78772914D02*
X144209524Y-78677676D01*
X144209524Y-78677676D02*
X144304762Y-78582438D01*
X144304762Y-78582438D02*
X144447619Y-78534819D01*
X144447619Y-78534819D02*
X144542857Y-78534819D01*
X144542857Y-78534819D02*
X144685714Y-78582438D01*
X144685714Y-78582438D02*
X144733333Y-78630057D01*
X145590476Y-78868152D02*
X145590476Y-79534819D01*
X145352381Y-78487200D02*
X145114286Y-79201485D01*
X145114286Y-79201485D02*
X145733333Y-79201485D01*
X166744819Y-110073333D02*
X167459104Y-110073333D01*
X167459104Y-110073333D02*
X167601961Y-110120952D01*
X167601961Y-110120952D02*
X167697200Y-110216190D01*
X167697200Y-110216190D02*
X167744819Y-110359047D01*
X167744819Y-110359047D02*
X167744819Y-110454285D01*
X167744819Y-109073333D02*
X167744819Y-109644761D01*
X167744819Y-109359047D02*
X166744819Y-109359047D01*
X166744819Y-109359047D02*
X166887676Y-109454285D01*
X166887676Y-109454285D02*
X166982914Y-109549523D01*
X166982914Y-109549523D02*
X167030533Y-109644761D01*
X107088095Y-62054819D02*
X107088095Y-61054819D01*
X107088095Y-61531009D02*
X107659523Y-61531009D01*
X107659523Y-62054819D02*
X107659523Y-61054819D01*
X108659523Y-62054819D02*
X108088095Y-62054819D01*
X108373809Y-62054819D02*
X108373809Y-61054819D01*
X108373809Y-61054819D02*
X108278571Y-61197676D01*
X108278571Y-61197676D02*
X108183333Y-61292914D01*
X108183333Y-61292914D02*
X108088095Y-61340533D01*
X147704819Y-124883333D02*
X148419104Y-124883333D01*
X148419104Y-124883333D02*
X148561961Y-124930952D01*
X148561961Y-124930952D02*
X148657200Y-125026190D01*
X148657200Y-125026190D02*
X148704819Y-125169047D01*
X148704819Y-125169047D02*
X148704819Y-125264285D01*
X148038152Y-123978571D02*
X148704819Y-123978571D01*
X147657200Y-124216666D02*
X148371485Y-124454761D01*
X148371485Y-124454761D02*
X148371485Y-123835714D01*
X166594819Y-93073333D02*
X167309104Y-93073333D01*
X167309104Y-93073333D02*
X167451961Y-93120952D01*
X167451961Y-93120952D02*
X167547200Y-93216190D01*
X167547200Y-93216190D02*
X167594819Y-93359047D01*
X167594819Y-93359047D02*
X167594819Y-93454285D01*
X166594819Y-92120952D02*
X166594819Y-92597142D01*
X166594819Y-92597142D02*
X167071009Y-92644761D01*
X167071009Y-92644761D02*
X167023390Y-92597142D01*
X167023390Y-92597142D02*
X166975771Y-92501904D01*
X166975771Y-92501904D02*
X166975771Y-92263809D01*
X166975771Y-92263809D02*
X167023390Y-92168571D01*
X167023390Y-92168571D02*
X167071009Y-92120952D01*
X167071009Y-92120952D02*
X167166247Y-92073333D01*
X167166247Y-92073333D02*
X167404342Y-92073333D01*
X167404342Y-92073333D02*
X167499580Y-92120952D01*
X167499580Y-92120952D02*
X167547200Y-92168571D01*
X167547200Y-92168571D02*
X167594819Y-92263809D01*
X167594819Y-92263809D02*
X167594819Y-92501904D01*
X167594819Y-92501904D02*
X167547200Y-92597142D01*
X167547200Y-92597142D02*
X167499580Y-92644761D01*
X154483333Y-66444819D02*
X154007143Y-66444819D01*
X154007143Y-66444819D02*
X154007143Y-65444819D01*
X155340476Y-66444819D02*
X154769048Y-66444819D01*
X155054762Y-66444819D02*
X155054762Y-65444819D01*
X155054762Y-65444819D02*
X154959524Y-65587676D01*
X154959524Y-65587676D02*
X154864286Y-65682914D01*
X154864286Y-65682914D02*
X154769048Y-65730533D01*
X121550057Y-125895238D02*
X121502438Y-125990476D01*
X121502438Y-125990476D02*
X121407200Y-126085714D01*
X121407200Y-126085714D02*
X121264342Y-126228571D01*
X121264342Y-126228571D02*
X121216723Y-126323809D01*
X121216723Y-126323809D02*
X121216723Y-126419047D01*
X121454819Y-126371428D02*
X121407200Y-126466666D01*
X121407200Y-126466666D02*
X121311961Y-126561904D01*
X121311961Y-126561904D02*
X121121485Y-126609523D01*
X121121485Y-126609523D02*
X120788152Y-126609523D01*
X120788152Y-126609523D02*
X120597676Y-126561904D01*
X120597676Y-126561904D02*
X120502438Y-126466666D01*
X120502438Y-126466666D02*
X120454819Y-126371428D01*
X120454819Y-126371428D02*
X120454819Y-126180952D01*
X120454819Y-126180952D02*
X120502438Y-126085714D01*
X120502438Y-126085714D02*
X120597676Y-125990476D01*
X120597676Y-125990476D02*
X120788152Y-125942857D01*
X120788152Y-125942857D02*
X121121485Y-125942857D01*
X121121485Y-125942857D02*
X121311961Y-125990476D01*
X121311961Y-125990476D02*
X121407200Y-126085714D01*
X121407200Y-126085714D02*
X121454819Y-126180952D01*
X121454819Y-126180952D02*
X121454819Y-126371428D01*
X120550057Y-125561904D02*
X120502438Y-125514285D01*
X120502438Y-125514285D02*
X120454819Y-125419047D01*
X120454819Y-125419047D02*
X120454819Y-125180952D01*
X120454819Y-125180952D02*
X120502438Y-125085714D01*
X120502438Y-125085714D02*
X120550057Y-125038095D01*
X120550057Y-125038095D02*
X120645295Y-124990476D01*
X120645295Y-124990476D02*
X120740533Y-124990476D01*
X120740533Y-124990476D02*
X120883390Y-125038095D01*
X120883390Y-125038095D02*
X121454819Y-125609523D01*
X121454819Y-125609523D02*
X121454819Y-124990476D01*
X169504819Y-69216666D02*
X169028628Y-69549999D01*
X169504819Y-69788094D02*
X168504819Y-69788094D01*
X168504819Y-69788094D02*
X168504819Y-69407142D01*
X168504819Y-69407142D02*
X168552438Y-69311904D01*
X168552438Y-69311904D02*
X168600057Y-69264285D01*
X168600057Y-69264285D02*
X168695295Y-69216666D01*
X168695295Y-69216666D02*
X168838152Y-69216666D01*
X168838152Y-69216666D02*
X168933390Y-69264285D01*
X168933390Y-69264285D02*
X168981009Y-69311904D01*
X168981009Y-69311904D02*
X169028628Y-69407142D01*
X169028628Y-69407142D02*
X169028628Y-69788094D01*
X168600057Y-68835713D02*
X168552438Y-68788094D01*
X168552438Y-68788094D02*
X168504819Y-68692856D01*
X168504819Y-68692856D02*
X168504819Y-68454761D01*
X168504819Y-68454761D02*
X168552438Y-68359523D01*
X168552438Y-68359523D02*
X168600057Y-68311904D01*
X168600057Y-68311904D02*
X168695295Y-68264285D01*
X168695295Y-68264285D02*
X168790533Y-68264285D01*
X168790533Y-68264285D02*
X168933390Y-68311904D01*
X168933390Y-68311904D02*
X169504819Y-68883332D01*
X169504819Y-68883332D02*
X169504819Y-68264285D01*
X182938095Y-62204819D02*
X182938095Y-61204819D01*
X182938095Y-61681009D02*
X183509523Y-61681009D01*
X183509523Y-62204819D02*
X183509523Y-61204819D01*
X183938095Y-61300057D02*
X183985714Y-61252438D01*
X183985714Y-61252438D02*
X184080952Y-61204819D01*
X184080952Y-61204819D02*
X184319047Y-61204819D01*
X184319047Y-61204819D02*
X184414285Y-61252438D01*
X184414285Y-61252438D02*
X184461904Y-61300057D01*
X184461904Y-61300057D02*
X184509523Y-61395295D01*
X184509523Y-61395295D02*
X184509523Y-61490533D01*
X184509523Y-61490533D02*
X184461904Y-61633390D01*
X184461904Y-61633390D02*
X183890476Y-62204819D01*
X183890476Y-62204819D02*
X184509523Y-62204819D01*
X107316666Y-114484819D02*
X107316666Y-115199104D01*
X107316666Y-115199104D02*
X107269047Y-115341961D01*
X107269047Y-115341961D02*
X107173809Y-115437200D01*
X107173809Y-115437200D02*
X107030952Y-115484819D01*
X107030952Y-115484819D02*
X106935714Y-115484819D01*
X107745238Y-114580057D02*
X107792857Y-114532438D01*
X107792857Y-114532438D02*
X107888095Y-114484819D01*
X107888095Y-114484819D02*
X108126190Y-114484819D01*
X108126190Y-114484819D02*
X108221428Y-114532438D01*
X108221428Y-114532438D02*
X108269047Y-114580057D01*
X108269047Y-114580057D02*
X108316666Y-114675295D01*
X108316666Y-114675295D02*
X108316666Y-114770533D01*
X108316666Y-114770533D02*
X108269047Y-114913390D01*
X108269047Y-114913390D02*
X107697619Y-115484819D01*
X107697619Y-115484819D02*
X108316666Y-115484819D01*
X165874819Y-69216666D02*
X165398628Y-69549999D01*
X165874819Y-69788094D02*
X164874819Y-69788094D01*
X164874819Y-69788094D02*
X164874819Y-69407142D01*
X164874819Y-69407142D02*
X164922438Y-69311904D01*
X164922438Y-69311904D02*
X164970057Y-69264285D01*
X164970057Y-69264285D02*
X165065295Y-69216666D01*
X165065295Y-69216666D02*
X165208152Y-69216666D01*
X165208152Y-69216666D02*
X165303390Y-69264285D01*
X165303390Y-69264285D02*
X165351009Y-69311904D01*
X165351009Y-69311904D02*
X165398628Y-69407142D01*
X165398628Y-69407142D02*
X165398628Y-69788094D01*
X165874819Y-68264285D02*
X165874819Y-68835713D01*
X165874819Y-68549999D02*
X164874819Y-68549999D01*
X164874819Y-68549999D02*
X165017676Y-68645237D01*
X165017676Y-68645237D02*
X165112914Y-68740475D01*
X165112914Y-68740475D02*
X165160533Y-68835713D01*
X125976480Y-79804626D02*
X125976480Y-80832721D01*
X125976480Y-80832721D02*
X126036957Y-80953673D01*
X126036957Y-80953673D02*
X126097433Y-81014150D01*
X126097433Y-81014150D02*
X126218385Y-81074626D01*
X126218385Y-81074626D02*
X126460290Y-81074626D01*
X126460290Y-81074626D02*
X126581242Y-81014150D01*
X126581242Y-81014150D02*
X126641719Y-80953673D01*
X126641719Y-80953673D02*
X126702195Y-80832721D01*
X126702195Y-80832721D02*
X126702195Y-79804626D01*
X127972195Y-81074626D02*
X127246480Y-81074626D01*
X127609337Y-81074626D02*
X127609337Y-79804626D01*
X127609337Y-79804626D02*
X127488385Y-79986054D01*
X127488385Y-79986054D02*
X127367433Y-80107007D01*
X127367433Y-80107007D02*
X127246480Y-80167483D01*
D13*
X135046337Y-103246077D02*
X134985385Y-103367982D01*
X134985385Y-103367982D02*
X134985385Y-103550839D01*
X134985385Y-103550839D02*
X135046337Y-103733696D01*
X135046337Y-103733696D02*
X135168242Y-103855601D01*
X135168242Y-103855601D02*
X135290147Y-103916554D01*
X135290147Y-103916554D02*
X135533956Y-103977506D01*
X135533956Y-103977506D02*
X135716813Y-103977506D01*
X135716813Y-103977506D02*
X135960623Y-103916554D01*
X135960623Y-103916554D02*
X136082528Y-103855601D01*
X136082528Y-103855601D02*
X136204433Y-103733696D01*
X136204433Y-103733696D02*
X136265385Y-103550839D01*
X136265385Y-103550839D02*
X136265385Y-103428935D01*
X136265385Y-103428935D02*
X136204433Y-103246077D01*
X136204433Y-103246077D02*
X136143480Y-103185125D01*
X136143480Y-103185125D02*
X135716813Y-103185125D01*
X135716813Y-103185125D02*
X135716813Y-103428935D01*
X136265385Y-102636554D02*
X134985385Y-102636554D01*
X134985385Y-102636554D02*
X134985385Y-102148935D01*
X134985385Y-102148935D02*
X135046337Y-102027030D01*
X135046337Y-102027030D02*
X135107290Y-101966077D01*
X135107290Y-101966077D02*
X135229194Y-101905125D01*
X135229194Y-101905125D02*
X135412052Y-101905125D01*
X135412052Y-101905125D02*
X135533956Y-101966077D01*
X135533956Y-101966077D02*
X135594909Y-102027030D01*
X135594909Y-102027030D02*
X135655861Y-102148935D01*
X135655861Y-102148935D02*
X135655861Y-102636554D01*
X136265385Y-101356554D02*
X134985385Y-101356554D01*
X134985385Y-100503220D02*
X134985385Y-100259411D01*
X134985385Y-100259411D02*
X135046337Y-100137506D01*
X135046337Y-100137506D02*
X135168242Y-100015601D01*
X135168242Y-100015601D02*
X135412052Y-99954649D01*
X135412052Y-99954649D02*
X135838718Y-99954649D01*
X135838718Y-99954649D02*
X136082528Y-100015601D01*
X136082528Y-100015601D02*
X136204433Y-100137506D01*
X136204433Y-100137506D02*
X136265385Y-100259411D01*
X136265385Y-100259411D02*
X136265385Y-100503220D01*
X136265385Y-100503220D02*
X136204433Y-100625125D01*
X136204433Y-100625125D02*
X136082528Y-100747030D01*
X136082528Y-100747030D02*
X135838718Y-100807982D01*
X135838718Y-100807982D02*
X135412052Y-100807982D01*
X135412052Y-100807982D02*
X135168242Y-100747030D01*
X135168242Y-100747030D02*
X135046337Y-100625125D01*
X135046337Y-100625125D02*
X134985385Y-100503220D01*
X134985385Y-99527982D02*
X134985385Y-98735601D01*
X134985385Y-98735601D02*
X135473004Y-99162268D01*
X135473004Y-99162268D02*
X135473004Y-98979411D01*
X135473004Y-98979411D02*
X135533956Y-98857506D01*
X135533956Y-98857506D02*
X135594909Y-98796554D01*
X135594909Y-98796554D02*
X135716813Y-98735601D01*
X135716813Y-98735601D02*
X136021575Y-98735601D01*
X136021575Y-98735601D02*
X136143480Y-98796554D01*
X136143480Y-98796554D02*
X136204433Y-98857506D01*
X136204433Y-98857506D02*
X136265385Y-98979411D01*
X136265385Y-98979411D02*
X136265385Y-99345125D01*
X136265385Y-99345125D02*
X136204433Y-99467030D01*
X136204433Y-99467030D02*
X136143480Y-99527982D01*
X134985385Y-97638458D02*
X134985385Y-97882268D01*
X134985385Y-97882268D02*
X135046337Y-98004172D01*
X135046337Y-98004172D02*
X135107290Y-98065125D01*
X135107290Y-98065125D02*
X135290147Y-98187030D01*
X135290147Y-98187030D02*
X135533956Y-98247982D01*
X135533956Y-98247982D02*
X136021575Y-98247982D01*
X136021575Y-98247982D02*
X136143480Y-98187030D01*
X136143480Y-98187030D02*
X136204433Y-98126077D01*
X136204433Y-98126077D02*
X136265385Y-98004172D01*
X136265385Y-98004172D02*
X136265385Y-97760363D01*
X136265385Y-97760363D02*
X136204433Y-97638458D01*
X136204433Y-97638458D02*
X136143480Y-97577506D01*
X136143480Y-97577506D02*
X136021575Y-97516553D01*
X136021575Y-97516553D02*
X135716813Y-97516553D01*
X135716813Y-97516553D02*
X135594909Y-97577506D01*
X135594909Y-97577506D02*
X135533956Y-97638458D01*
X135533956Y-97638458D02*
X135473004Y-97760363D01*
X135473004Y-97760363D02*
X135473004Y-98004172D01*
X135473004Y-98004172D02*
X135533956Y-98126077D01*
X135533956Y-98126077D02*
X135594909Y-98187030D01*
X135594909Y-98187030D02*
X135716813Y-98247982D01*
X136265385Y-96967982D02*
X135412052Y-96967982D01*
X134985385Y-96967982D02*
X135046337Y-97028934D01*
X135046337Y-97028934D02*
X135107290Y-96967982D01*
X135107290Y-96967982D02*
X135046337Y-96907029D01*
X135046337Y-96907029D02*
X134985385Y-96967982D01*
X134985385Y-96967982D02*
X135107290Y-96967982D01*
X132760337Y-92069277D02*
X132699385Y-92191182D01*
X132699385Y-92191182D02*
X132699385Y-92374039D01*
X132699385Y-92374039D02*
X132760337Y-92556896D01*
X132760337Y-92556896D02*
X132882242Y-92678801D01*
X132882242Y-92678801D02*
X133004147Y-92739754D01*
X133004147Y-92739754D02*
X133247956Y-92800706D01*
X133247956Y-92800706D02*
X133430813Y-92800706D01*
X133430813Y-92800706D02*
X133674623Y-92739754D01*
X133674623Y-92739754D02*
X133796528Y-92678801D01*
X133796528Y-92678801D02*
X133918433Y-92556896D01*
X133918433Y-92556896D02*
X133979385Y-92374039D01*
X133979385Y-92374039D02*
X133979385Y-92252135D01*
X133979385Y-92252135D02*
X133918433Y-92069277D01*
X133918433Y-92069277D02*
X133857480Y-92008325D01*
X133857480Y-92008325D02*
X133430813Y-92008325D01*
X133430813Y-92008325D02*
X133430813Y-92252135D01*
X133979385Y-91459754D02*
X132699385Y-91459754D01*
X132699385Y-91459754D02*
X132699385Y-90972135D01*
X132699385Y-90972135D02*
X132760337Y-90850230D01*
X132760337Y-90850230D02*
X132821290Y-90789277D01*
X132821290Y-90789277D02*
X132943194Y-90728325D01*
X132943194Y-90728325D02*
X133126052Y-90728325D01*
X133126052Y-90728325D02*
X133247956Y-90789277D01*
X133247956Y-90789277D02*
X133308909Y-90850230D01*
X133308909Y-90850230D02*
X133369861Y-90972135D01*
X133369861Y-90972135D02*
X133369861Y-91459754D01*
X133979385Y-90179754D02*
X132699385Y-90179754D01*
X132699385Y-89326420D02*
X132699385Y-89082611D01*
X132699385Y-89082611D02*
X132760337Y-88960706D01*
X132760337Y-88960706D02*
X132882242Y-88838801D01*
X132882242Y-88838801D02*
X133126052Y-88777849D01*
X133126052Y-88777849D02*
X133552718Y-88777849D01*
X133552718Y-88777849D02*
X133796528Y-88838801D01*
X133796528Y-88838801D02*
X133918433Y-88960706D01*
X133918433Y-88960706D02*
X133979385Y-89082611D01*
X133979385Y-89082611D02*
X133979385Y-89326420D01*
X133979385Y-89326420D02*
X133918433Y-89448325D01*
X133918433Y-89448325D02*
X133796528Y-89570230D01*
X133796528Y-89570230D02*
X133552718Y-89631182D01*
X133552718Y-89631182D02*
X133126052Y-89631182D01*
X133126052Y-89631182D02*
X132882242Y-89570230D01*
X132882242Y-89570230D02*
X132760337Y-89448325D01*
X132760337Y-89448325D02*
X132699385Y-89326420D01*
X132699385Y-87985468D02*
X132699385Y-87863563D01*
X132699385Y-87863563D02*
X132760337Y-87741659D01*
X132760337Y-87741659D02*
X132821290Y-87680706D01*
X132821290Y-87680706D02*
X132943194Y-87619754D01*
X132943194Y-87619754D02*
X133187004Y-87558801D01*
X133187004Y-87558801D02*
X133491766Y-87558801D01*
X133491766Y-87558801D02*
X133735575Y-87619754D01*
X133735575Y-87619754D02*
X133857480Y-87680706D01*
X133857480Y-87680706D02*
X133918433Y-87741659D01*
X133918433Y-87741659D02*
X133979385Y-87863563D01*
X133979385Y-87863563D02*
X133979385Y-87985468D01*
X133979385Y-87985468D02*
X133918433Y-88107373D01*
X133918433Y-88107373D02*
X133857480Y-88168325D01*
X133857480Y-88168325D02*
X133735575Y-88229278D01*
X133735575Y-88229278D02*
X133491766Y-88290230D01*
X133491766Y-88290230D02*
X133187004Y-88290230D01*
X133187004Y-88290230D02*
X132943194Y-88229278D01*
X132943194Y-88229278D02*
X132821290Y-88168325D01*
X132821290Y-88168325D02*
X132760337Y-88107373D01*
X132760337Y-88107373D02*
X132699385Y-87985468D01*
X132699385Y-86400706D02*
X132699385Y-87010230D01*
X132699385Y-87010230D02*
X133308909Y-87071182D01*
X133308909Y-87071182D02*
X133247956Y-87010230D01*
X133247956Y-87010230D02*
X133187004Y-86888325D01*
X133187004Y-86888325D02*
X133187004Y-86583563D01*
X133187004Y-86583563D02*
X133247956Y-86461658D01*
X133247956Y-86461658D02*
X133308909Y-86400706D01*
X133308909Y-86400706D02*
X133430813Y-86339753D01*
X133430813Y-86339753D02*
X133735575Y-86339753D01*
X133735575Y-86339753D02*
X133857480Y-86400706D01*
X133857480Y-86400706D02*
X133918433Y-86461658D01*
X133918433Y-86461658D02*
X133979385Y-86583563D01*
X133979385Y-86583563D02*
X133979385Y-86888325D01*
X133979385Y-86888325D02*
X133918433Y-87010230D01*
X133918433Y-87010230D02*
X133857480Y-87071182D01*
X127426337Y-103246077D02*
X127365385Y-103367982D01*
X127365385Y-103367982D02*
X127365385Y-103550839D01*
X127365385Y-103550839D02*
X127426337Y-103733696D01*
X127426337Y-103733696D02*
X127548242Y-103855601D01*
X127548242Y-103855601D02*
X127670147Y-103916554D01*
X127670147Y-103916554D02*
X127913956Y-103977506D01*
X127913956Y-103977506D02*
X128096813Y-103977506D01*
X128096813Y-103977506D02*
X128340623Y-103916554D01*
X128340623Y-103916554D02*
X128462528Y-103855601D01*
X128462528Y-103855601D02*
X128584433Y-103733696D01*
X128584433Y-103733696D02*
X128645385Y-103550839D01*
X128645385Y-103550839D02*
X128645385Y-103428935D01*
X128645385Y-103428935D02*
X128584433Y-103246077D01*
X128584433Y-103246077D02*
X128523480Y-103185125D01*
X128523480Y-103185125D02*
X128096813Y-103185125D01*
X128096813Y-103185125D02*
X128096813Y-103428935D01*
X128645385Y-102636554D02*
X127365385Y-102636554D01*
X127365385Y-102636554D02*
X127365385Y-102148935D01*
X127365385Y-102148935D02*
X127426337Y-102027030D01*
X127426337Y-102027030D02*
X127487290Y-101966077D01*
X127487290Y-101966077D02*
X127609194Y-101905125D01*
X127609194Y-101905125D02*
X127792052Y-101905125D01*
X127792052Y-101905125D02*
X127913956Y-101966077D01*
X127913956Y-101966077D02*
X127974909Y-102027030D01*
X127974909Y-102027030D02*
X128035861Y-102148935D01*
X128035861Y-102148935D02*
X128035861Y-102636554D01*
X128645385Y-101356554D02*
X127365385Y-101356554D01*
X127365385Y-100503220D02*
X127365385Y-100259411D01*
X127365385Y-100259411D02*
X127426337Y-100137506D01*
X127426337Y-100137506D02*
X127548242Y-100015601D01*
X127548242Y-100015601D02*
X127792052Y-99954649D01*
X127792052Y-99954649D02*
X128218718Y-99954649D01*
X128218718Y-99954649D02*
X128462528Y-100015601D01*
X128462528Y-100015601D02*
X128584433Y-100137506D01*
X128584433Y-100137506D02*
X128645385Y-100259411D01*
X128645385Y-100259411D02*
X128645385Y-100503220D01*
X128645385Y-100503220D02*
X128584433Y-100625125D01*
X128584433Y-100625125D02*
X128462528Y-100747030D01*
X128462528Y-100747030D02*
X128218718Y-100807982D01*
X128218718Y-100807982D02*
X127792052Y-100807982D01*
X127792052Y-100807982D02*
X127548242Y-100747030D01*
X127548242Y-100747030D02*
X127426337Y-100625125D01*
X127426337Y-100625125D02*
X127365385Y-100503220D01*
X128645385Y-98735601D02*
X128645385Y-99467030D01*
X128645385Y-99101316D02*
X127365385Y-99101316D01*
X127365385Y-99101316D02*
X127548242Y-99223220D01*
X127548242Y-99223220D02*
X127670147Y-99345125D01*
X127670147Y-99345125D02*
X127731099Y-99467030D01*
X127487290Y-98247982D02*
X127426337Y-98187030D01*
X127426337Y-98187030D02*
X127365385Y-98065125D01*
X127365385Y-98065125D02*
X127365385Y-97760363D01*
X127365385Y-97760363D02*
X127426337Y-97638458D01*
X127426337Y-97638458D02*
X127487290Y-97577506D01*
X127487290Y-97577506D02*
X127609194Y-97516553D01*
X127609194Y-97516553D02*
X127731099Y-97516553D01*
X127731099Y-97516553D02*
X127913956Y-97577506D01*
X127913956Y-97577506D02*
X128645385Y-98308934D01*
X128645385Y-98308934D02*
X128645385Y-97516553D01*
X135321437Y-92069277D02*
X135260485Y-92191182D01*
X135260485Y-92191182D02*
X135260485Y-92374039D01*
X135260485Y-92374039D02*
X135321437Y-92556896D01*
X135321437Y-92556896D02*
X135443342Y-92678801D01*
X135443342Y-92678801D02*
X135565247Y-92739754D01*
X135565247Y-92739754D02*
X135809056Y-92800706D01*
X135809056Y-92800706D02*
X135991913Y-92800706D01*
X135991913Y-92800706D02*
X136235723Y-92739754D01*
X136235723Y-92739754D02*
X136357628Y-92678801D01*
X136357628Y-92678801D02*
X136479533Y-92556896D01*
X136479533Y-92556896D02*
X136540485Y-92374039D01*
X136540485Y-92374039D02*
X136540485Y-92252135D01*
X136540485Y-92252135D02*
X136479533Y-92069277D01*
X136479533Y-92069277D02*
X136418580Y-92008325D01*
X136418580Y-92008325D02*
X135991913Y-92008325D01*
X135991913Y-92008325D02*
X135991913Y-92252135D01*
X136540485Y-91459754D02*
X135260485Y-91459754D01*
X135260485Y-91459754D02*
X135260485Y-90972135D01*
X135260485Y-90972135D02*
X135321437Y-90850230D01*
X135321437Y-90850230D02*
X135382390Y-90789277D01*
X135382390Y-90789277D02*
X135504294Y-90728325D01*
X135504294Y-90728325D02*
X135687152Y-90728325D01*
X135687152Y-90728325D02*
X135809056Y-90789277D01*
X135809056Y-90789277D02*
X135870009Y-90850230D01*
X135870009Y-90850230D02*
X135930961Y-90972135D01*
X135930961Y-90972135D02*
X135930961Y-91459754D01*
X136540485Y-90179754D02*
X135260485Y-90179754D01*
X135260485Y-89326420D02*
X135260485Y-89082611D01*
X135260485Y-89082611D02*
X135321437Y-88960706D01*
X135321437Y-88960706D02*
X135443342Y-88838801D01*
X135443342Y-88838801D02*
X135687152Y-88777849D01*
X135687152Y-88777849D02*
X136113818Y-88777849D01*
X136113818Y-88777849D02*
X136357628Y-88838801D01*
X136357628Y-88838801D02*
X136479533Y-88960706D01*
X136479533Y-88960706D02*
X136540485Y-89082611D01*
X136540485Y-89082611D02*
X136540485Y-89326420D01*
X136540485Y-89326420D02*
X136479533Y-89448325D01*
X136479533Y-89448325D02*
X136357628Y-89570230D01*
X136357628Y-89570230D02*
X136113818Y-89631182D01*
X136113818Y-89631182D02*
X135687152Y-89631182D01*
X135687152Y-89631182D02*
X135443342Y-89570230D01*
X135443342Y-89570230D02*
X135321437Y-89448325D01*
X135321437Y-89448325D02*
X135260485Y-89326420D01*
X135260485Y-88351182D02*
X135260485Y-87558801D01*
X135260485Y-87558801D02*
X135748104Y-87985468D01*
X135748104Y-87985468D02*
X135748104Y-87802611D01*
X135748104Y-87802611D02*
X135809056Y-87680706D01*
X135809056Y-87680706D02*
X135870009Y-87619754D01*
X135870009Y-87619754D02*
X135991913Y-87558801D01*
X135991913Y-87558801D02*
X136296675Y-87558801D01*
X136296675Y-87558801D02*
X136418580Y-87619754D01*
X136418580Y-87619754D02*
X136479533Y-87680706D01*
X136479533Y-87680706D02*
X136540485Y-87802611D01*
X136540485Y-87802611D02*
X136540485Y-88168325D01*
X136540485Y-88168325D02*
X136479533Y-88290230D01*
X136479533Y-88290230D02*
X136418580Y-88351182D01*
X135260485Y-87132134D02*
X135260485Y-86339753D01*
X135260485Y-86339753D02*
X135748104Y-86766420D01*
X135748104Y-86766420D02*
X135748104Y-86583563D01*
X135748104Y-86583563D02*
X135809056Y-86461658D01*
X135809056Y-86461658D02*
X135870009Y-86400706D01*
X135870009Y-86400706D02*
X135991913Y-86339753D01*
X135991913Y-86339753D02*
X136296675Y-86339753D01*
X136296675Y-86339753D02*
X136418580Y-86400706D01*
X136418580Y-86400706D02*
X136479533Y-86461658D01*
X136479533Y-86461658D02*
X136540485Y-86583563D01*
X136540485Y-86583563D02*
X136540485Y-86949277D01*
X136540485Y-86949277D02*
X136479533Y-87071182D01*
X136479533Y-87071182D02*
X136418580Y-87132134D01*
X117266337Y-103246877D02*
X117205385Y-103368782D01*
X117205385Y-103368782D02*
X117205385Y-103551639D01*
X117205385Y-103551639D02*
X117266337Y-103734496D01*
X117266337Y-103734496D02*
X117388242Y-103856401D01*
X117388242Y-103856401D02*
X117510147Y-103917354D01*
X117510147Y-103917354D02*
X117753956Y-103978306D01*
X117753956Y-103978306D02*
X117936813Y-103978306D01*
X117936813Y-103978306D02*
X118180623Y-103917354D01*
X118180623Y-103917354D02*
X118302528Y-103856401D01*
X118302528Y-103856401D02*
X118424433Y-103734496D01*
X118424433Y-103734496D02*
X118485385Y-103551639D01*
X118485385Y-103551639D02*
X118485385Y-103429735D01*
X118485385Y-103429735D02*
X118424433Y-103246877D01*
X118424433Y-103246877D02*
X118363480Y-103185925D01*
X118363480Y-103185925D02*
X117936813Y-103185925D01*
X117936813Y-103185925D02*
X117936813Y-103429735D01*
X118485385Y-102637354D02*
X117205385Y-102637354D01*
X117205385Y-102637354D02*
X118485385Y-101905925D01*
X118485385Y-101905925D02*
X117205385Y-101905925D01*
X118485385Y-101296402D02*
X117205385Y-101296402D01*
X117205385Y-101296402D02*
X117205385Y-100991640D01*
X117205385Y-100991640D02*
X117266337Y-100808783D01*
X117266337Y-100808783D02*
X117388242Y-100686878D01*
X117388242Y-100686878D02*
X117510147Y-100625925D01*
X117510147Y-100625925D02*
X117753956Y-100564973D01*
X117753956Y-100564973D02*
X117936813Y-100564973D01*
X117936813Y-100564973D02*
X118180623Y-100625925D01*
X118180623Y-100625925D02*
X118302528Y-100686878D01*
X118302528Y-100686878D02*
X118424433Y-100808783D01*
X118424433Y-100808783D02*
X118485385Y-100991640D01*
X118485385Y-100991640D02*
X118485385Y-101296402D01*
X124886337Y-103247077D02*
X124825385Y-103368982D01*
X124825385Y-103368982D02*
X124825385Y-103551839D01*
X124825385Y-103551839D02*
X124886337Y-103734696D01*
X124886337Y-103734696D02*
X125008242Y-103856601D01*
X125008242Y-103856601D02*
X125130147Y-103917554D01*
X125130147Y-103917554D02*
X125373956Y-103978506D01*
X125373956Y-103978506D02*
X125556813Y-103978506D01*
X125556813Y-103978506D02*
X125800623Y-103917554D01*
X125800623Y-103917554D02*
X125922528Y-103856601D01*
X125922528Y-103856601D02*
X126044433Y-103734696D01*
X126044433Y-103734696D02*
X126105385Y-103551839D01*
X126105385Y-103551839D02*
X126105385Y-103429935D01*
X126105385Y-103429935D02*
X126044433Y-103247077D01*
X126044433Y-103247077D02*
X125983480Y-103186125D01*
X125983480Y-103186125D02*
X125556813Y-103186125D01*
X125556813Y-103186125D02*
X125556813Y-103429935D01*
X126105385Y-102637554D02*
X124825385Y-102637554D01*
X124825385Y-102637554D02*
X124825385Y-102149935D01*
X124825385Y-102149935D02*
X124886337Y-102028030D01*
X124886337Y-102028030D02*
X124947290Y-101967077D01*
X124947290Y-101967077D02*
X125069194Y-101906125D01*
X125069194Y-101906125D02*
X125252052Y-101906125D01*
X125252052Y-101906125D02*
X125373956Y-101967077D01*
X125373956Y-101967077D02*
X125434909Y-102028030D01*
X125434909Y-102028030D02*
X125495861Y-102149935D01*
X125495861Y-102149935D02*
X125495861Y-102637554D01*
X126105385Y-101357554D02*
X124825385Y-101357554D01*
X124825385Y-100504220D02*
X124825385Y-100260411D01*
X124825385Y-100260411D02*
X124886337Y-100138506D01*
X124886337Y-100138506D02*
X125008242Y-100016601D01*
X125008242Y-100016601D02*
X125252052Y-99955649D01*
X125252052Y-99955649D02*
X125678718Y-99955649D01*
X125678718Y-99955649D02*
X125922528Y-100016601D01*
X125922528Y-100016601D02*
X126044433Y-100138506D01*
X126044433Y-100138506D02*
X126105385Y-100260411D01*
X126105385Y-100260411D02*
X126105385Y-100504220D01*
X126105385Y-100504220D02*
X126044433Y-100626125D01*
X126044433Y-100626125D02*
X125922528Y-100748030D01*
X125922528Y-100748030D02*
X125678718Y-100808982D01*
X125678718Y-100808982D02*
X125252052Y-100808982D01*
X125252052Y-100808982D02*
X125008242Y-100748030D01*
X125008242Y-100748030D02*
X124886337Y-100626125D01*
X124886337Y-100626125D02*
X124825385Y-100504220D01*
X124825385Y-99528982D02*
X124825385Y-98736601D01*
X124825385Y-98736601D02*
X125313004Y-99163268D01*
X125313004Y-99163268D02*
X125313004Y-98980411D01*
X125313004Y-98980411D02*
X125373956Y-98858506D01*
X125373956Y-98858506D02*
X125434909Y-98797554D01*
X125434909Y-98797554D02*
X125556813Y-98736601D01*
X125556813Y-98736601D02*
X125861575Y-98736601D01*
X125861575Y-98736601D02*
X125983480Y-98797554D01*
X125983480Y-98797554D02*
X126044433Y-98858506D01*
X126044433Y-98858506D02*
X126105385Y-98980411D01*
X126105385Y-98980411D02*
X126105385Y-99346125D01*
X126105385Y-99346125D02*
X126044433Y-99468030D01*
X126044433Y-99468030D02*
X125983480Y-99528982D01*
X124825385Y-97578506D02*
X124825385Y-98188030D01*
X124825385Y-98188030D02*
X125434909Y-98248982D01*
X125434909Y-98248982D02*
X125373956Y-98188030D01*
X125373956Y-98188030D02*
X125313004Y-98066125D01*
X125313004Y-98066125D02*
X125313004Y-97761363D01*
X125313004Y-97761363D02*
X125373956Y-97639458D01*
X125373956Y-97639458D02*
X125434909Y-97578506D01*
X125434909Y-97578506D02*
X125556813Y-97517553D01*
X125556813Y-97517553D02*
X125861575Y-97517553D01*
X125861575Y-97517553D02*
X125983480Y-97578506D01*
X125983480Y-97578506D02*
X126044433Y-97639458D01*
X126044433Y-97639458D02*
X126105385Y-97761363D01*
X126105385Y-97761363D02*
X126105385Y-98066125D01*
X126105385Y-98066125D02*
X126044433Y-98188030D01*
X126044433Y-98188030D02*
X125983480Y-98248982D01*
X126105385Y-96968982D02*
X125252052Y-96968982D01*
X124825385Y-96968982D02*
X124886337Y-97029934D01*
X124886337Y-97029934D02*
X124947290Y-96968982D01*
X124947290Y-96968982D02*
X124886337Y-96908029D01*
X124886337Y-96908029D02*
X124825385Y-96968982D01*
X124825385Y-96968982D02*
X124947290Y-96968982D01*
X148675909Y-92739754D02*
X148675909Y-92313087D01*
X149346385Y-92130230D02*
X149346385Y-92739754D01*
X149346385Y-92739754D02*
X148066385Y-92739754D01*
X148066385Y-92739754D02*
X148066385Y-92130230D01*
X149346385Y-91581659D02*
X148066385Y-91581659D01*
X148066385Y-91581659D02*
X149346385Y-90850230D01*
X149346385Y-90850230D02*
X148066385Y-90850230D01*
X119806337Y-103246077D02*
X119745385Y-103367982D01*
X119745385Y-103367982D02*
X119745385Y-103550839D01*
X119745385Y-103550839D02*
X119806337Y-103733696D01*
X119806337Y-103733696D02*
X119928242Y-103855601D01*
X119928242Y-103855601D02*
X120050147Y-103916554D01*
X120050147Y-103916554D02*
X120293956Y-103977506D01*
X120293956Y-103977506D02*
X120476813Y-103977506D01*
X120476813Y-103977506D02*
X120720623Y-103916554D01*
X120720623Y-103916554D02*
X120842528Y-103855601D01*
X120842528Y-103855601D02*
X120964433Y-103733696D01*
X120964433Y-103733696D02*
X121025385Y-103550839D01*
X121025385Y-103550839D02*
X121025385Y-103428935D01*
X121025385Y-103428935D02*
X120964433Y-103246077D01*
X120964433Y-103246077D02*
X120903480Y-103185125D01*
X120903480Y-103185125D02*
X120476813Y-103185125D01*
X120476813Y-103185125D02*
X120476813Y-103428935D01*
X121025385Y-102636554D02*
X119745385Y-102636554D01*
X119745385Y-102636554D02*
X119745385Y-102148935D01*
X119745385Y-102148935D02*
X119806337Y-102027030D01*
X119806337Y-102027030D02*
X119867290Y-101966077D01*
X119867290Y-101966077D02*
X119989194Y-101905125D01*
X119989194Y-101905125D02*
X120172052Y-101905125D01*
X120172052Y-101905125D02*
X120293956Y-101966077D01*
X120293956Y-101966077D02*
X120354909Y-102027030D01*
X120354909Y-102027030D02*
X120415861Y-102148935D01*
X120415861Y-102148935D02*
X120415861Y-102636554D01*
X121025385Y-101356554D02*
X119745385Y-101356554D01*
X119745385Y-100503220D02*
X119745385Y-100259411D01*
X119745385Y-100259411D02*
X119806337Y-100137506D01*
X119806337Y-100137506D02*
X119928242Y-100015601D01*
X119928242Y-100015601D02*
X120172052Y-99954649D01*
X120172052Y-99954649D02*
X120598718Y-99954649D01*
X120598718Y-99954649D02*
X120842528Y-100015601D01*
X120842528Y-100015601D02*
X120964433Y-100137506D01*
X120964433Y-100137506D02*
X121025385Y-100259411D01*
X121025385Y-100259411D02*
X121025385Y-100503220D01*
X121025385Y-100503220D02*
X120964433Y-100625125D01*
X120964433Y-100625125D02*
X120842528Y-100747030D01*
X120842528Y-100747030D02*
X120598718Y-100807982D01*
X120598718Y-100807982D02*
X120172052Y-100807982D01*
X120172052Y-100807982D02*
X119928242Y-100747030D01*
X119928242Y-100747030D02*
X119806337Y-100625125D01*
X119806337Y-100625125D02*
X119745385Y-100503220D01*
X119745385Y-99162268D02*
X119745385Y-99040363D01*
X119745385Y-99040363D02*
X119806337Y-98918459D01*
X119806337Y-98918459D02*
X119867290Y-98857506D01*
X119867290Y-98857506D02*
X119989194Y-98796554D01*
X119989194Y-98796554D02*
X120233004Y-98735601D01*
X120233004Y-98735601D02*
X120537766Y-98735601D01*
X120537766Y-98735601D02*
X120781575Y-98796554D01*
X120781575Y-98796554D02*
X120903480Y-98857506D01*
X120903480Y-98857506D02*
X120964433Y-98918459D01*
X120964433Y-98918459D02*
X121025385Y-99040363D01*
X121025385Y-99040363D02*
X121025385Y-99162268D01*
X121025385Y-99162268D02*
X120964433Y-99284173D01*
X120964433Y-99284173D02*
X120903480Y-99345125D01*
X120903480Y-99345125D02*
X120781575Y-99406078D01*
X120781575Y-99406078D02*
X120537766Y-99467030D01*
X120537766Y-99467030D02*
X120233004Y-99467030D01*
X120233004Y-99467030D02*
X119989194Y-99406078D01*
X119989194Y-99406078D02*
X119867290Y-99345125D01*
X119867290Y-99345125D02*
X119806337Y-99284173D01*
X119806337Y-99284173D02*
X119745385Y-99162268D01*
X119867290Y-98247982D02*
X119806337Y-98187030D01*
X119806337Y-98187030D02*
X119745385Y-98065125D01*
X119745385Y-98065125D02*
X119745385Y-97760363D01*
X119745385Y-97760363D02*
X119806337Y-97638458D01*
X119806337Y-97638458D02*
X119867290Y-97577506D01*
X119867290Y-97577506D02*
X119989194Y-97516553D01*
X119989194Y-97516553D02*
X120111099Y-97516553D01*
X120111099Y-97516553D02*
X120293956Y-97577506D01*
X120293956Y-97577506D02*
X121025385Y-98308934D01*
X121025385Y-98308934D02*
X121025385Y-97516553D01*
X122346337Y-103247877D02*
X122285385Y-103369782D01*
X122285385Y-103369782D02*
X122285385Y-103552639D01*
X122285385Y-103552639D02*
X122346337Y-103735496D01*
X122346337Y-103735496D02*
X122468242Y-103857401D01*
X122468242Y-103857401D02*
X122590147Y-103918354D01*
X122590147Y-103918354D02*
X122833956Y-103979306D01*
X122833956Y-103979306D02*
X123016813Y-103979306D01*
X123016813Y-103979306D02*
X123260623Y-103918354D01*
X123260623Y-103918354D02*
X123382528Y-103857401D01*
X123382528Y-103857401D02*
X123504433Y-103735496D01*
X123504433Y-103735496D02*
X123565385Y-103552639D01*
X123565385Y-103552639D02*
X123565385Y-103430735D01*
X123565385Y-103430735D02*
X123504433Y-103247877D01*
X123504433Y-103247877D02*
X123443480Y-103186925D01*
X123443480Y-103186925D02*
X123016813Y-103186925D01*
X123016813Y-103186925D02*
X123016813Y-103430735D01*
X123565385Y-102638354D02*
X122285385Y-102638354D01*
X122285385Y-102638354D02*
X122285385Y-102150735D01*
X122285385Y-102150735D02*
X122346337Y-102028830D01*
X122346337Y-102028830D02*
X122407290Y-101967877D01*
X122407290Y-101967877D02*
X122529194Y-101906925D01*
X122529194Y-101906925D02*
X122712052Y-101906925D01*
X122712052Y-101906925D02*
X122833956Y-101967877D01*
X122833956Y-101967877D02*
X122894909Y-102028830D01*
X122894909Y-102028830D02*
X122955861Y-102150735D01*
X122955861Y-102150735D02*
X122955861Y-102638354D01*
X123565385Y-101358354D02*
X122285385Y-101358354D01*
X122285385Y-100505020D02*
X122285385Y-100261211D01*
X122285385Y-100261211D02*
X122346337Y-100139306D01*
X122346337Y-100139306D02*
X122468242Y-100017401D01*
X122468242Y-100017401D02*
X122712052Y-99956449D01*
X122712052Y-99956449D02*
X123138718Y-99956449D01*
X123138718Y-99956449D02*
X123382528Y-100017401D01*
X123382528Y-100017401D02*
X123504433Y-100139306D01*
X123504433Y-100139306D02*
X123565385Y-100261211D01*
X123565385Y-100261211D02*
X123565385Y-100505020D01*
X123565385Y-100505020D02*
X123504433Y-100626925D01*
X123504433Y-100626925D02*
X123382528Y-100748830D01*
X123382528Y-100748830D02*
X123138718Y-100809782D01*
X123138718Y-100809782D02*
X122712052Y-100809782D01*
X122712052Y-100809782D02*
X122468242Y-100748830D01*
X122468242Y-100748830D02*
X122346337Y-100626925D01*
X122346337Y-100626925D02*
X122285385Y-100505020D01*
X122285385Y-99164068D02*
X122285385Y-99042163D01*
X122285385Y-99042163D02*
X122346337Y-98920259D01*
X122346337Y-98920259D02*
X122407290Y-98859306D01*
X122407290Y-98859306D02*
X122529194Y-98798354D01*
X122529194Y-98798354D02*
X122773004Y-98737401D01*
X122773004Y-98737401D02*
X123077766Y-98737401D01*
X123077766Y-98737401D02*
X123321575Y-98798354D01*
X123321575Y-98798354D02*
X123443480Y-98859306D01*
X123443480Y-98859306D02*
X123504433Y-98920259D01*
X123504433Y-98920259D02*
X123565385Y-99042163D01*
X123565385Y-99042163D02*
X123565385Y-99164068D01*
X123565385Y-99164068D02*
X123504433Y-99285973D01*
X123504433Y-99285973D02*
X123443480Y-99346925D01*
X123443480Y-99346925D02*
X123321575Y-99407878D01*
X123321575Y-99407878D02*
X123077766Y-99468830D01*
X123077766Y-99468830D02*
X122773004Y-99468830D01*
X122773004Y-99468830D02*
X122529194Y-99407878D01*
X122529194Y-99407878D02*
X122407290Y-99346925D01*
X122407290Y-99346925D02*
X122346337Y-99285973D01*
X122346337Y-99285973D02*
X122285385Y-99164068D01*
X122712052Y-97640258D02*
X123565385Y-97640258D01*
X122224433Y-97945020D02*
X123138718Y-98249782D01*
X123138718Y-98249782D02*
X123138718Y-97457401D01*
X140126337Y-103246877D02*
X140065385Y-103368782D01*
X140065385Y-103368782D02*
X140065385Y-103551639D01*
X140065385Y-103551639D02*
X140126337Y-103734496D01*
X140126337Y-103734496D02*
X140248242Y-103856401D01*
X140248242Y-103856401D02*
X140370147Y-103917354D01*
X140370147Y-103917354D02*
X140613956Y-103978306D01*
X140613956Y-103978306D02*
X140796813Y-103978306D01*
X140796813Y-103978306D02*
X141040623Y-103917354D01*
X141040623Y-103917354D02*
X141162528Y-103856401D01*
X141162528Y-103856401D02*
X141284433Y-103734496D01*
X141284433Y-103734496D02*
X141345385Y-103551639D01*
X141345385Y-103551639D02*
X141345385Y-103429735D01*
X141345385Y-103429735D02*
X141284433Y-103246877D01*
X141284433Y-103246877D02*
X141223480Y-103185925D01*
X141223480Y-103185925D02*
X140796813Y-103185925D01*
X140796813Y-103185925D02*
X140796813Y-103429735D01*
X141345385Y-102637354D02*
X140065385Y-102637354D01*
X140065385Y-102637354D02*
X141345385Y-101905925D01*
X141345385Y-101905925D02*
X140065385Y-101905925D01*
X141345385Y-101296402D02*
X140065385Y-101296402D01*
X140065385Y-101296402D02*
X140065385Y-100991640D01*
X140065385Y-100991640D02*
X140126337Y-100808783D01*
X140126337Y-100808783D02*
X140248242Y-100686878D01*
X140248242Y-100686878D02*
X140370147Y-100625925D01*
X140370147Y-100625925D02*
X140613956Y-100564973D01*
X140613956Y-100564973D02*
X140796813Y-100564973D01*
X140796813Y-100564973D02*
X141040623Y-100625925D01*
X141040623Y-100625925D02*
X141162528Y-100686878D01*
X141162528Y-100686878D02*
X141284433Y-100808783D01*
X141284433Y-100808783D02*
X141345385Y-100991640D01*
X141345385Y-100991640D02*
X141345385Y-101296402D01*
X137586337Y-103247877D02*
X137525385Y-103369782D01*
X137525385Y-103369782D02*
X137525385Y-103552639D01*
X137525385Y-103552639D02*
X137586337Y-103735496D01*
X137586337Y-103735496D02*
X137708242Y-103857401D01*
X137708242Y-103857401D02*
X137830147Y-103918354D01*
X137830147Y-103918354D02*
X138073956Y-103979306D01*
X138073956Y-103979306D02*
X138256813Y-103979306D01*
X138256813Y-103979306D02*
X138500623Y-103918354D01*
X138500623Y-103918354D02*
X138622528Y-103857401D01*
X138622528Y-103857401D02*
X138744433Y-103735496D01*
X138744433Y-103735496D02*
X138805385Y-103552639D01*
X138805385Y-103552639D02*
X138805385Y-103430735D01*
X138805385Y-103430735D02*
X138744433Y-103247877D01*
X138744433Y-103247877D02*
X138683480Y-103186925D01*
X138683480Y-103186925D02*
X138256813Y-103186925D01*
X138256813Y-103186925D02*
X138256813Y-103430735D01*
X138805385Y-102638354D02*
X137525385Y-102638354D01*
X137525385Y-102638354D02*
X137525385Y-102150735D01*
X137525385Y-102150735D02*
X137586337Y-102028830D01*
X137586337Y-102028830D02*
X137647290Y-101967877D01*
X137647290Y-101967877D02*
X137769194Y-101906925D01*
X137769194Y-101906925D02*
X137952052Y-101906925D01*
X137952052Y-101906925D02*
X138073956Y-101967877D01*
X138073956Y-101967877D02*
X138134909Y-102028830D01*
X138134909Y-102028830D02*
X138195861Y-102150735D01*
X138195861Y-102150735D02*
X138195861Y-102638354D01*
X138805385Y-101358354D02*
X137525385Y-101358354D01*
X137525385Y-100505020D02*
X137525385Y-100261211D01*
X137525385Y-100261211D02*
X137586337Y-100139306D01*
X137586337Y-100139306D02*
X137708242Y-100017401D01*
X137708242Y-100017401D02*
X137952052Y-99956449D01*
X137952052Y-99956449D02*
X138378718Y-99956449D01*
X138378718Y-99956449D02*
X138622528Y-100017401D01*
X138622528Y-100017401D02*
X138744433Y-100139306D01*
X138744433Y-100139306D02*
X138805385Y-100261211D01*
X138805385Y-100261211D02*
X138805385Y-100505020D01*
X138805385Y-100505020D02*
X138744433Y-100626925D01*
X138744433Y-100626925D02*
X138622528Y-100748830D01*
X138622528Y-100748830D02*
X138378718Y-100809782D01*
X138378718Y-100809782D02*
X137952052Y-100809782D01*
X137952052Y-100809782D02*
X137708242Y-100748830D01*
X137708242Y-100748830D02*
X137586337Y-100626925D01*
X137586337Y-100626925D02*
X137525385Y-100505020D01*
X137525385Y-99529782D02*
X137525385Y-98737401D01*
X137525385Y-98737401D02*
X138013004Y-99164068D01*
X138013004Y-99164068D02*
X138013004Y-98981211D01*
X138013004Y-98981211D02*
X138073956Y-98859306D01*
X138073956Y-98859306D02*
X138134909Y-98798354D01*
X138134909Y-98798354D02*
X138256813Y-98737401D01*
X138256813Y-98737401D02*
X138561575Y-98737401D01*
X138561575Y-98737401D02*
X138683480Y-98798354D01*
X138683480Y-98798354D02*
X138744433Y-98859306D01*
X138744433Y-98859306D02*
X138805385Y-98981211D01*
X138805385Y-98981211D02*
X138805385Y-99346925D01*
X138805385Y-99346925D02*
X138744433Y-99468830D01*
X138744433Y-99468830D02*
X138683480Y-99529782D01*
X138805385Y-98127877D02*
X138805385Y-97884068D01*
X138805385Y-97884068D02*
X138744433Y-97762163D01*
X138744433Y-97762163D02*
X138683480Y-97701211D01*
X138683480Y-97701211D02*
X138500623Y-97579306D01*
X138500623Y-97579306D02*
X138256813Y-97518353D01*
X138256813Y-97518353D02*
X137769194Y-97518353D01*
X137769194Y-97518353D02*
X137647290Y-97579306D01*
X137647290Y-97579306D02*
X137586337Y-97640258D01*
X137586337Y-97640258D02*
X137525385Y-97762163D01*
X137525385Y-97762163D02*
X137525385Y-98005972D01*
X137525385Y-98005972D02*
X137586337Y-98127877D01*
X137586337Y-98127877D02*
X137647290Y-98188830D01*
X137647290Y-98188830D02*
X137769194Y-98249782D01*
X137769194Y-98249782D02*
X138073956Y-98249782D01*
X138073956Y-98249782D02*
X138195861Y-98188830D01*
X138195861Y-98188830D02*
X138256813Y-98127877D01*
X138256813Y-98127877D02*
X138317766Y-98005972D01*
X138317766Y-98005972D02*
X138317766Y-97762163D01*
X138317766Y-97762163D02*
X138256813Y-97640258D01*
X138256813Y-97640258D02*
X138195861Y-97579306D01*
X138195861Y-97579306D02*
X138073956Y-97518353D01*
X138805385Y-96969782D02*
X137952052Y-96969782D01*
X137525385Y-96969782D02*
X137586337Y-97030734D01*
X137586337Y-97030734D02*
X137647290Y-96969782D01*
X137647290Y-96969782D02*
X137586337Y-96908829D01*
X137586337Y-96908829D02*
X137525385Y-96969782D01*
X137525385Y-96969782D02*
X137647290Y-96969782D01*
X137840337Y-92070077D02*
X137779385Y-92191982D01*
X137779385Y-92191982D02*
X137779385Y-92374839D01*
X137779385Y-92374839D02*
X137840337Y-92557696D01*
X137840337Y-92557696D02*
X137962242Y-92679601D01*
X137962242Y-92679601D02*
X138084147Y-92740554D01*
X138084147Y-92740554D02*
X138327956Y-92801506D01*
X138327956Y-92801506D02*
X138510813Y-92801506D01*
X138510813Y-92801506D02*
X138754623Y-92740554D01*
X138754623Y-92740554D02*
X138876528Y-92679601D01*
X138876528Y-92679601D02*
X138998433Y-92557696D01*
X138998433Y-92557696D02*
X139059385Y-92374839D01*
X139059385Y-92374839D02*
X139059385Y-92252935D01*
X139059385Y-92252935D02*
X138998433Y-92070077D01*
X138998433Y-92070077D02*
X138937480Y-92009125D01*
X138937480Y-92009125D02*
X138510813Y-92009125D01*
X138510813Y-92009125D02*
X138510813Y-92252935D01*
X139059385Y-91460554D02*
X137779385Y-91460554D01*
X137779385Y-91460554D02*
X137779385Y-90972935D01*
X137779385Y-90972935D02*
X137840337Y-90851030D01*
X137840337Y-90851030D02*
X137901290Y-90790077D01*
X137901290Y-90790077D02*
X138023194Y-90729125D01*
X138023194Y-90729125D02*
X138206052Y-90729125D01*
X138206052Y-90729125D02*
X138327956Y-90790077D01*
X138327956Y-90790077D02*
X138388909Y-90851030D01*
X138388909Y-90851030D02*
X138449861Y-90972935D01*
X138449861Y-90972935D02*
X138449861Y-91460554D01*
X139059385Y-90180554D02*
X137779385Y-90180554D01*
X137779385Y-89327220D02*
X137779385Y-89083411D01*
X137779385Y-89083411D02*
X137840337Y-88961506D01*
X137840337Y-88961506D02*
X137962242Y-88839601D01*
X137962242Y-88839601D02*
X138206052Y-88778649D01*
X138206052Y-88778649D02*
X138632718Y-88778649D01*
X138632718Y-88778649D02*
X138876528Y-88839601D01*
X138876528Y-88839601D02*
X138998433Y-88961506D01*
X138998433Y-88961506D02*
X139059385Y-89083411D01*
X139059385Y-89083411D02*
X139059385Y-89327220D01*
X139059385Y-89327220D02*
X138998433Y-89449125D01*
X138998433Y-89449125D02*
X138876528Y-89571030D01*
X138876528Y-89571030D02*
X138632718Y-89631982D01*
X138632718Y-89631982D02*
X138206052Y-89631982D01*
X138206052Y-89631982D02*
X137962242Y-89571030D01*
X137962242Y-89571030D02*
X137840337Y-89449125D01*
X137840337Y-89449125D02*
X137779385Y-89327220D01*
X137779385Y-88351982D02*
X137779385Y-87559601D01*
X137779385Y-87559601D02*
X138267004Y-87986268D01*
X138267004Y-87986268D02*
X138267004Y-87803411D01*
X138267004Y-87803411D02*
X138327956Y-87681506D01*
X138327956Y-87681506D02*
X138388909Y-87620554D01*
X138388909Y-87620554D02*
X138510813Y-87559601D01*
X138510813Y-87559601D02*
X138815575Y-87559601D01*
X138815575Y-87559601D02*
X138937480Y-87620554D01*
X138937480Y-87620554D02*
X138998433Y-87681506D01*
X138998433Y-87681506D02*
X139059385Y-87803411D01*
X139059385Y-87803411D02*
X139059385Y-88169125D01*
X139059385Y-88169125D02*
X138998433Y-88291030D01*
X138998433Y-88291030D02*
X138937480Y-88351982D01*
X137901290Y-87071982D02*
X137840337Y-87011030D01*
X137840337Y-87011030D02*
X137779385Y-86889125D01*
X137779385Y-86889125D02*
X137779385Y-86584363D01*
X137779385Y-86584363D02*
X137840337Y-86462458D01*
X137840337Y-86462458D02*
X137901290Y-86401506D01*
X137901290Y-86401506D02*
X138023194Y-86340553D01*
X138023194Y-86340553D02*
X138145099Y-86340553D01*
X138145099Y-86340553D02*
X138327956Y-86401506D01*
X138327956Y-86401506D02*
X139059385Y-87132934D01*
X139059385Y-87132934D02*
X139059385Y-86340553D01*
X119893485Y-92130230D02*
X119893485Y-92739754D01*
X119893485Y-92739754D02*
X120503009Y-92800706D01*
X120503009Y-92800706D02*
X120442056Y-92739754D01*
X120442056Y-92739754D02*
X120381104Y-92617849D01*
X120381104Y-92617849D02*
X120381104Y-92313087D01*
X120381104Y-92313087D02*
X120442056Y-92191182D01*
X120442056Y-92191182D02*
X120503009Y-92130230D01*
X120503009Y-92130230D02*
X120624913Y-92069277D01*
X120624913Y-92069277D02*
X120929675Y-92069277D01*
X120929675Y-92069277D02*
X121051580Y-92130230D01*
X121051580Y-92130230D02*
X121112533Y-92191182D01*
X121112533Y-92191182D02*
X121173485Y-92313087D01*
X121173485Y-92313087D02*
X121173485Y-92617849D01*
X121173485Y-92617849D02*
X121112533Y-92739754D01*
X121112533Y-92739754D02*
X121051580Y-92800706D01*
X119893485Y-91703563D02*
X121173485Y-91276896D01*
X121173485Y-91276896D02*
X119893485Y-90850229D01*
X122515837Y-92069277D02*
X122454885Y-92191182D01*
X122454885Y-92191182D02*
X122454885Y-92374039D01*
X122454885Y-92374039D02*
X122515837Y-92556896D01*
X122515837Y-92556896D02*
X122637742Y-92678801D01*
X122637742Y-92678801D02*
X122759647Y-92739754D01*
X122759647Y-92739754D02*
X123003456Y-92800706D01*
X123003456Y-92800706D02*
X123186313Y-92800706D01*
X123186313Y-92800706D02*
X123430123Y-92739754D01*
X123430123Y-92739754D02*
X123552028Y-92678801D01*
X123552028Y-92678801D02*
X123673933Y-92556896D01*
X123673933Y-92556896D02*
X123734885Y-92374039D01*
X123734885Y-92374039D02*
X123734885Y-92252135D01*
X123734885Y-92252135D02*
X123673933Y-92069277D01*
X123673933Y-92069277D02*
X123612980Y-92008325D01*
X123612980Y-92008325D02*
X123186313Y-92008325D01*
X123186313Y-92008325D02*
X123186313Y-92252135D01*
X123734885Y-91459754D02*
X122454885Y-91459754D01*
X122454885Y-91459754D02*
X123734885Y-90728325D01*
X123734885Y-90728325D02*
X122454885Y-90728325D01*
X123734885Y-90118802D02*
X122454885Y-90118802D01*
X122454885Y-90118802D02*
X122454885Y-89814040D01*
X122454885Y-89814040D02*
X122515837Y-89631183D01*
X122515837Y-89631183D02*
X122637742Y-89509278D01*
X122637742Y-89509278D02*
X122759647Y-89448325D01*
X122759647Y-89448325D02*
X123003456Y-89387373D01*
X123003456Y-89387373D02*
X123186313Y-89387373D01*
X123186313Y-89387373D02*
X123430123Y-89448325D01*
X123430123Y-89448325D02*
X123552028Y-89509278D01*
X123552028Y-89509278D02*
X123673933Y-89631183D01*
X123673933Y-89631183D02*
X123734885Y-89814040D01*
X123734885Y-89814040D02*
X123734885Y-90118802D01*
X132506337Y-103246877D02*
X132445385Y-103368782D01*
X132445385Y-103368782D02*
X132445385Y-103551639D01*
X132445385Y-103551639D02*
X132506337Y-103734496D01*
X132506337Y-103734496D02*
X132628242Y-103856401D01*
X132628242Y-103856401D02*
X132750147Y-103917354D01*
X132750147Y-103917354D02*
X132993956Y-103978306D01*
X132993956Y-103978306D02*
X133176813Y-103978306D01*
X133176813Y-103978306D02*
X133420623Y-103917354D01*
X133420623Y-103917354D02*
X133542528Y-103856401D01*
X133542528Y-103856401D02*
X133664433Y-103734496D01*
X133664433Y-103734496D02*
X133725385Y-103551639D01*
X133725385Y-103551639D02*
X133725385Y-103429735D01*
X133725385Y-103429735D02*
X133664433Y-103246877D01*
X133664433Y-103246877D02*
X133603480Y-103185925D01*
X133603480Y-103185925D02*
X133176813Y-103185925D01*
X133176813Y-103185925D02*
X133176813Y-103429735D01*
X133725385Y-102637354D02*
X132445385Y-102637354D01*
X132445385Y-102637354D02*
X132445385Y-102149735D01*
X132445385Y-102149735D02*
X132506337Y-102027830D01*
X132506337Y-102027830D02*
X132567290Y-101966877D01*
X132567290Y-101966877D02*
X132689194Y-101905925D01*
X132689194Y-101905925D02*
X132872052Y-101905925D01*
X132872052Y-101905925D02*
X132993956Y-101966877D01*
X132993956Y-101966877D02*
X133054909Y-102027830D01*
X133054909Y-102027830D02*
X133115861Y-102149735D01*
X133115861Y-102149735D02*
X133115861Y-102637354D01*
X133725385Y-101357354D02*
X132445385Y-101357354D01*
X132445385Y-100504020D02*
X132445385Y-100260211D01*
X132445385Y-100260211D02*
X132506337Y-100138306D01*
X132506337Y-100138306D02*
X132628242Y-100016401D01*
X132628242Y-100016401D02*
X132872052Y-99955449D01*
X132872052Y-99955449D02*
X133298718Y-99955449D01*
X133298718Y-99955449D02*
X133542528Y-100016401D01*
X133542528Y-100016401D02*
X133664433Y-100138306D01*
X133664433Y-100138306D02*
X133725385Y-100260211D01*
X133725385Y-100260211D02*
X133725385Y-100504020D01*
X133725385Y-100504020D02*
X133664433Y-100625925D01*
X133664433Y-100625925D02*
X133542528Y-100747830D01*
X133542528Y-100747830D02*
X133298718Y-100808782D01*
X133298718Y-100808782D02*
X132872052Y-100808782D01*
X132872052Y-100808782D02*
X132628242Y-100747830D01*
X132628242Y-100747830D02*
X132506337Y-100625925D01*
X132506337Y-100625925D02*
X132445385Y-100504020D01*
X133725385Y-98736401D02*
X133725385Y-99467830D01*
X133725385Y-99102116D02*
X132445385Y-99102116D01*
X132445385Y-99102116D02*
X132628242Y-99224020D01*
X132628242Y-99224020D02*
X132750147Y-99345925D01*
X132750147Y-99345925D02*
X132811099Y-99467830D01*
X132445385Y-97578306D02*
X132445385Y-98187830D01*
X132445385Y-98187830D02*
X133054909Y-98248782D01*
X133054909Y-98248782D02*
X132993956Y-98187830D01*
X132993956Y-98187830D02*
X132933004Y-98065925D01*
X132933004Y-98065925D02*
X132933004Y-97761163D01*
X132933004Y-97761163D02*
X132993956Y-97639258D01*
X132993956Y-97639258D02*
X133054909Y-97578306D01*
X133054909Y-97578306D02*
X133176813Y-97517353D01*
X133176813Y-97517353D02*
X133481575Y-97517353D01*
X133481575Y-97517353D02*
X133603480Y-97578306D01*
X133603480Y-97578306D02*
X133664433Y-97639258D01*
X133664433Y-97639258D02*
X133725385Y-97761163D01*
X133725385Y-97761163D02*
X133725385Y-98065925D01*
X133725385Y-98065925D02*
X133664433Y-98187830D01*
X133664433Y-98187830D02*
X133603480Y-98248782D01*
X142943985Y-92861658D02*
X142943985Y-92069277D01*
X142943985Y-92069277D02*
X143431604Y-92495944D01*
X143431604Y-92495944D02*
X143431604Y-92313087D01*
X143431604Y-92313087D02*
X143492556Y-92191182D01*
X143492556Y-92191182D02*
X143553509Y-92130230D01*
X143553509Y-92130230D02*
X143675413Y-92069277D01*
X143675413Y-92069277D02*
X143980175Y-92069277D01*
X143980175Y-92069277D02*
X144102080Y-92130230D01*
X144102080Y-92130230D02*
X144163033Y-92191182D01*
X144163033Y-92191182D02*
X144223985Y-92313087D01*
X144223985Y-92313087D02*
X144223985Y-92678801D01*
X144223985Y-92678801D02*
X144163033Y-92800706D01*
X144163033Y-92800706D02*
X144102080Y-92861658D01*
X144102080Y-91520706D02*
X144163033Y-91459753D01*
X144163033Y-91459753D02*
X144223985Y-91520706D01*
X144223985Y-91520706D02*
X144163033Y-91581658D01*
X144163033Y-91581658D02*
X144102080Y-91520706D01*
X144102080Y-91520706D02*
X144223985Y-91520706D01*
X142943985Y-91033086D02*
X142943985Y-90240705D01*
X142943985Y-90240705D02*
X143431604Y-90667372D01*
X143431604Y-90667372D02*
X143431604Y-90484515D01*
X143431604Y-90484515D02*
X143492556Y-90362610D01*
X143492556Y-90362610D02*
X143553509Y-90301658D01*
X143553509Y-90301658D02*
X143675413Y-90240705D01*
X143675413Y-90240705D02*
X143980175Y-90240705D01*
X143980175Y-90240705D02*
X144102080Y-90301658D01*
X144102080Y-90301658D02*
X144163033Y-90362610D01*
X144163033Y-90362610D02*
X144223985Y-90484515D01*
X144223985Y-90484515D02*
X144223985Y-90850229D01*
X144223985Y-90850229D02*
X144163033Y-90972134D01*
X144163033Y-90972134D02*
X144102080Y-91033086D01*
X142943985Y-89874991D02*
X144223985Y-89448324D01*
X144223985Y-89448324D02*
X142943985Y-89021657D01*
X140992409Y-92739754D02*
X140992409Y-92313087D01*
X141662885Y-92130230D02*
X141662885Y-92739754D01*
X141662885Y-92739754D02*
X140382885Y-92739754D01*
X140382885Y-92739754D02*
X140382885Y-92130230D01*
X141662885Y-91581659D02*
X140382885Y-91581659D01*
X140382885Y-91581659D02*
X141662885Y-90850230D01*
X141662885Y-90850230D02*
X140382885Y-90850230D01*
X125015885Y-92861658D02*
X125015885Y-92069277D01*
X125015885Y-92069277D02*
X125503504Y-92495944D01*
X125503504Y-92495944D02*
X125503504Y-92313087D01*
X125503504Y-92313087D02*
X125564456Y-92191182D01*
X125564456Y-92191182D02*
X125625409Y-92130230D01*
X125625409Y-92130230D02*
X125747313Y-92069277D01*
X125747313Y-92069277D02*
X126052075Y-92069277D01*
X126052075Y-92069277D02*
X126173980Y-92130230D01*
X126173980Y-92130230D02*
X126234933Y-92191182D01*
X126234933Y-92191182D02*
X126295885Y-92313087D01*
X126295885Y-92313087D02*
X126295885Y-92678801D01*
X126295885Y-92678801D02*
X126234933Y-92800706D01*
X126234933Y-92800706D02*
X126173980Y-92861658D01*
X126173980Y-91520706D02*
X126234933Y-91459753D01*
X126234933Y-91459753D02*
X126295885Y-91520706D01*
X126295885Y-91520706D02*
X126234933Y-91581658D01*
X126234933Y-91581658D02*
X126173980Y-91520706D01*
X126173980Y-91520706D02*
X126295885Y-91520706D01*
X125015885Y-91033086D02*
X125015885Y-90240705D01*
X125015885Y-90240705D02*
X125503504Y-90667372D01*
X125503504Y-90667372D02*
X125503504Y-90484515D01*
X125503504Y-90484515D02*
X125564456Y-90362610D01*
X125564456Y-90362610D02*
X125625409Y-90301658D01*
X125625409Y-90301658D02*
X125747313Y-90240705D01*
X125747313Y-90240705D02*
X126052075Y-90240705D01*
X126052075Y-90240705D02*
X126173980Y-90301658D01*
X126173980Y-90301658D02*
X126234933Y-90362610D01*
X126234933Y-90362610D02*
X126295885Y-90484515D01*
X126295885Y-90484515D02*
X126295885Y-90850229D01*
X126295885Y-90850229D02*
X126234933Y-90972134D01*
X126234933Y-90972134D02*
X126173980Y-91033086D01*
X125015885Y-89874991D02*
X126295885Y-89448324D01*
X126295885Y-89448324D02*
X125015885Y-89021657D01*
X145566337Y-92069277D02*
X145505385Y-92191182D01*
X145505385Y-92191182D02*
X145505385Y-92374039D01*
X145505385Y-92374039D02*
X145566337Y-92556896D01*
X145566337Y-92556896D02*
X145688242Y-92678801D01*
X145688242Y-92678801D02*
X145810147Y-92739754D01*
X145810147Y-92739754D02*
X146053956Y-92800706D01*
X146053956Y-92800706D02*
X146236813Y-92800706D01*
X146236813Y-92800706D02*
X146480623Y-92739754D01*
X146480623Y-92739754D02*
X146602528Y-92678801D01*
X146602528Y-92678801D02*
X146724433Y-92556896D01*
X146724433Y-92556896D02*
X146785385Y-92374039D01*
X146785385Y-92374039D02*
X146785385Y-92252135D01*
X146785385Y-92252135D02*
X146724433Y-92069277D01*
X146724433Y-92069277D02*
X146663480Y-92008325D01*
X146663480Y-92008325D02*
X146236813Y-92008325D01*
X146236813Y-92008325D02*
X146236813Y-92252135D01*
X146785385Y-91459754D02*
X145505385Y-91459754D01*
X145505385Y-91459754D02*
X146785385Y-90728325D01*
X146785385Y-90728325D02*
X145505385Y-90728325D01*
X146785385Y-90118802D02*
X145505385Y-90118802D01*
X145505385Y-90118802D02*
X145505385Y-89814040D01*
X145505385Y-89814040D02*
X145566337Y-89631183D01*
X145566337Y-89631183D02*
X145688242Y-89509278D01*
X145688242Y-89509278D02*
X145810147Y-89448325D01*
X145810147Y-89448325D02*
X146053956Y-89387373D01*
X146053956Y-89387373D02*
X146236813Y-89387373D01*
X146236813Y-89387373D02*
X146480623Y-89448325D01*
X146480623Y-89448325D02*
X146602528Y-89509278D01*
X146602528Y-89509278D02*
X146724433Y-89631183D01*
X146724433Y-89631183D02*
X146785385Y-89814040D01*
X146785385Y-89814040D02*
X146785385Y-90118802D01*
X130199337Y-92069277D02*
X130138385Y-92191182D01*
X130138385Y-92191182D02*
X130138385Y-92374039D01*
X130138385Y-92374039D02*
X130199337Y-92556896D01*
X130199337Y-92556896D02*
X130321242Y-92678801D01*
X130321242Y-92678801D02*
X130443147Y-92739754D01*
X130443147Y-92739754D02*
X130686956Y-92800706D01*
X130686956Y-92800706D02*
X130869813Y-92800706D01*
X130869813Y-92800706D02*
X131113623Y-92739754D01*
X131113623Y-92739754D02*
X131235528Y-92678801D01*
X131235528Y-92678801D02*
X131357433Y-92556896D01*
X131357433Y-92556896D02*
X131418385Y-92374039D01*
X131418385Y-92374039D02*
X131418385Y-92252135D01*
X131418385Y-92252135D02*
X131357433Y-92069277D01*
X131357433Y-92069277D02*
X131296480Y-92008325D01*
X131296480Y-92008325D02*
X130869813Y-92008325D01*
X130869813Y-92008325D02*
X130869813Y-92252135D01*
X131418385Y-91459754D02*
X130138385Y-91459754D01*
X130138385Y-91459754D02*
X130138385Y-90972135D01*
X130138385Y-90972135D02*
X130199337Y-90850230D01*
X130199337Y-90850230D02*
X130260290Y-90789277D01*
X130260290Y-90789277D02*
X130382194Y-90728325D01*
X130382194Y-90728325D02*
X130565052Y-90728325D01*
X130565052Y-90728325D02*
X130686956Y-90789277D01*
X130686956Y-90789277D02*
X130747909Y-90850230D01*
X130747909Y-90850230D02*
X130808861Y-90972135D01*
X130808861Y-90972135D02*
X130808861Y-91459754D01*
X131418385Y-90179754D02*
X130138385Y-90179754D01*
X130138385Y-89326420D02*
X130138385Y-89082611D01*
X130138385Y-89082611D02*
X130199337Y-88960706D01*
X130199337Y-88960706D02*
X130321242Y-88838801D01*
X130321242Y-88838801D02*
X130565052Y-88777849D01*
X130565052Y-88777849D02*
X130991718Y-88777849D01*
X130991718Y-88777849D02*
X131235528Y-88838801D01*
X131235528Y-88838801D02*
X131357433Y-88960706D01*
X131357433Y-88960706D02*
X131418385Y-89082611D01*
X131418385Y-89082611D02*
X131418385Y-89326420D01*
X131418385Y-89326420D02*
X131357433Y-89448325D01*
X131357433Y-89448325D02*
X131235528Y-89570230D01*
X131235528Y-89570230D02*
X130991718Y-89631182D01*
X130991718Y-89631182D02*
X130565052Y-89631182D01*
X130565052Y-89631182D02*
X130321242Y-89570230D01*
X130321242Y-89570230D02*
X130199337Y-89448325D01*
X130199337Y-89448325D02*
X130138385Y-89326420D01*
X130138385Y-87985468D02*
X130138385Y-87863563D01*
X130138385Y-87863563D02*
X130199337Y-87741659D01*
X130199337Y-87741659D02*
X130260290Y-87680706D01*
X130260290Y-87680706D02*
X130382194Y-87619754D01*
X130382194Y-87619754D02*
X130626004Y-87558801D01*
X130626004Y-87558801D02*
X130930766Y-87558801D01*
X130930766Y-87558801D02*
X131174575Y-87619754D01*
X131174575Y-87619754D02*
X131296480Y-87680706D01*
X131296480Y-87680706D02*
X131357433Y-87741659D01*
X131357433Y-87741659D02*
X131418385Y-87863563D01*
X131418385Y-87863563D02*
X131418385Y-87985468D01*
X131418385Y-87985468D02*
X131357433Y-88107373D01*
X131357433Y-88107373D02*
X131296480Y-88168325D01*
X131296480Y-88168325D02*
X131174575Y-88229278D01*
X131174575Y-88229278D02*
X130930766Y-88290230D01*
X130930766Y-88290230D02*
X130626004Y-88290230D01*
X130626004Y-88290230D02*
X130382194Y-88229278D01*
X130382194Y-88229278D02*
X130260290Y-88168325D01*
X130260290Y-88168325D02*
X130199337Y-88107373D01*
X130199337Y-88107373D02*
X130138385Y-87985468D01*
X131418385Y-86339753D02*
X131418385Y-87071182D01*
X131418385Y-86705468D02*
X130138385Y-86705468D01*
X130138385Y-86705468D02*
X130321242Y-86827372D01*
X130321242Y-86827372D02*
X130443147Y-86949277D01*
X130443147Y-86949277D02*
X130504099Y-87071182D01*
X130138385Y-85913086D02*
X130138385Y-85059753D01*
X130138385Y-85059753D02*
X131418385Y-85608324D01*
X142666337Y-103246077D02*
X142605385Y-103367982D01*
X142605385Y-103367982D02*
X142605385Y-103550839D01*
X142605385Y-103550839D02*
X142666337Y-103733696D01*
X142666337Y-103733696D02*
X142788242Y-103855601D01*
X142788242Y-103855601D02*
X142910147Y-103916554D01*
X142910147Y-103916554D02*
X143153956Y-103977506D01*
X143153956Y-103977506D02*
X143336813Y-103977506D01*
X143336813Y-103977506D02*
X143580623Y-103916554D01*
X143580623Y-103916554D02*
X143702528Y-103855601D01*
X143702528Y-103855601D02*
X143824433Y-103733696D01*
X143824433Y-103733696D02*
X143885385Y-103550839D01*
X143885385Y-103550839D02*
X143885385Y-103428935D01*
X143885385Y-103428935D02*
X143824433Y-103246077D01*
X143824433Y-103246077D02*
X143763480Y-103185125D01*
X143763480Y-103185125D02*
X143336813Y-103185125D01*
X143336813Y-103185125D02*
X143336813Y-103428935D01*
X143885385Y-102636554D02*
X142605385Y-102636554D01*
X142605385Y-102636554D02*
X142605385Y-102148935D01*
X142605385Y-102148935D02*
X142666337Y-102027030D01*
X142666337Y-102027030D02*
X142727290Y-101966077D01*
X142727290Y-101966077D02*
X142849194Y-101905125D01*
X142849194Y-101905125D02*
X143032052Y-101905125D01*
X143032052Y-101905125D02*
X143153956Y-101966077D01*
X143153956Y-101966077D02*
X143214909Y-102027030D01*
X143214909Y-102027030D02*
X143275861Y-102148935D01*
X143275861Y-102148935D02*
X143275861Y-102636554D01*
X143885385Y-101356554D02*
X142605385Y-101356554D01*
X142605385Y-100503220D02*
X142605385Y-100259411D01*
X142605385Y-100259411D02*
X142666337Y-100137506D01*
X142666337Y-100137506D02*
X142788242Y-100015601D01*
X142788242Y-100015601D02*
X143032052Y-99954649D01*
X143032052Y-99954649D02*
X143458718Y-99954649D01*
X143458718Y-99954649D02*
X143702528Y-100015601D01*
X143702528Y-100015601D02*
X143824433Y-100137506D01*
X143824433Y-100137506D02*
X143885385Y-100259411D01*
X143885385Y-100259411D02*
X143885385Y-100503220D01*
X143885385Y-100503220D02*
X143824433Y-100625125D01*
X143824433Y-100625125D02*
X143702528Y-100747030D01*
X143702528Y-100747030D02*
X143458718Y-100807982D01*
X143458718Y-100807982D02*
X143032052Y-100807982D01*
X143032052Y-100807982D02*
X142788242Y-100747030D01*
X142788242Y-100747030D02*
X142666337Y-100625125D01*
X142666337Y-100625125D02*
X142605385Y-100503220D01*
X142605385Y-99162268D02*
X142605385Y-99040363D01*
X142605385Y-99040363D02*
X142666337Y-98918459D01*
X142666337Y-98918459D02*
X142727290Y-98857506D01*
X142727290Y-98857506D02*
X142849194Y-98796554D01*
X142849194Y-98796554D02*
X143093004Y-98735601D01*
X143093004Y-98735601D02*
X143397766Y-98735601D01*
X143397766Y-98735601D02*
X143641575Y-98796554D01*
X143641575Y-98796554D02*
X143763480Y-98857506D01*
X143763480Y-98857506D02*
X143824433Y-98918459D01*
X143824433Y-98918459D02*
X143885385Y-99040363D01*
X143885385Y-99040363D02*
X143885385Y-99162268D01*
X143885385Y-99162268D02*
X143824433Y-99284173D01*
X143824433Y-99284173D02*
X143763480Y-99345125D01*
X143763480Y-99345125D02*
X143641575Y-99406078D01*
X143641575Y-99406078D02*
X143397766Y-99467030D01*
X143397766Y-99467030D02*
X143093004Y-99467030D01*
X143093004Y-99467030D02*
X142849194Y-99406078D01*
X142849194Y-99406078D02*
X142727290Y-99345125D01*
X142727290Y-99345125D02*
X142666337Y-99284173D01*
X142666337Y-99284173D02*
X142605385Y-99162268D01*
X142605385Y-97943220D02*
X142605385Y-97821315D01*
X142605385Y-97821315D02*
X142666337Y-97699411D01*
X142666337Y-97699411D02*
X142727290Y-97638458D01*
X142727290Y-97638458D02*
X142849194Y-97577506D01*
X142849194Y-97577506D02*
X143093004Y-97516553D01*
X143093004Y-97516553D02*
X143397766Y-97516553D01*
X143397766Y-97516553D02*
X143641575Y-97577506D01*
X143641575Y-97577506D02*
X143763480Y-97638458D01*
X143763480Y-97638458D02*
X143824433Y-97699411D01*
X143824433Y-97699411D02*
X143885385Y-97821315D01*
X143885385Y-97821315D02*
X143885385Y-97943220D01*
X143885385Y-97943220D02*
X143824433Y-98065125D01*
X143824433Y-98065125D02*
X143763480Y-98126077D01*
X143763480Y-98126077D02*
X143641575Y-98187030D01*
X143641575Y-98187030D02*
X143397766Y-98247982D01*
X143397766Y-98247982D02*
X143093004Y-98247982D01*
X143093004Y-98247982D02*
X142849194Y-98187030D01*
X142849194Y-98187030D02*
X142727290Y-98126077D01*
X142727290Y-98126077D02*
X142666337Y-98065125D01*
X142666337Y-98065125D02*
X142605385Y-97943220D01*
X129966337Y-103247877D02*
X129905385Y-103369782D01*
X129905385Y-103369782D02*
X129905385Y-103552639D01*
X129905385Y-103552639D02*
X129966337Y-103735496D01*
X129966337Y-103735496D02*
X130088242Y-103857401D01*
X130088242Y-103857401D02*
X130210147Y-103918354D01*
X130210147Y-103918354D02*
X130453956Y-103979306D01*
X130453956Y-103979306D02*
X130636813Y-103979306D01*
X130636813Y-103979306D02*
X130880623Y-103918354D01*
X130880623Y-103918354D02*
X131002528Y-103857401D01*
X131002528Y-103857401D02*
X131124433Y-103735496D01*
X131124433Y-103735496D02*
X131185385Y-103552639D01*
X131185385Y-103552639D02*
X131185385Y-103430735D01*
X131185385Y-103430735D02*
X131124433Y-103247877D01*
X131124433Y-103247877D02*
X131063480Y-103186925D01*
X131063480Y-103186925D02*
X130636813Y-103186925D01*
X130636813Y-103186925D02*
X130636813Y-103430735D01*
X131185385Y-102638354D02*
X129905385Y-102638354D01*
X129905385Y-102638354D02*
X129905385Y-102150735D01*
X129905385Y-102150735D02*
X129966337Y-102028830D01*
X129966337Y-102028830D02*
X130027290Y-101967877D01*
X130027290Y-101967877D02*
X130149194Y-101906925D01*
X130149194Y-101906925D02*
X130332052Y-101906925D01*
X130332052Y-101906925D02*
X130453956Y-101967877D01*
X130453956Y-101967877D02*
X130514909Y-102028830D01*
X130514909Y-102028830D02*
X130575861Y-102150735D01*
X130575861Y-102150735D02*
X130575861Y-102638354D01*
X131185385Y-101358354D02*
X129905385Y-101358354D01*
X129905385Y-100505020D02*
X129905385Y-100261211D01*
X129905385Y-100261211D02*
X129966337Y-100139306D01*
X129966337Y-100139306D02*
X130088242Y-100017401D01*
X130088242Y-100017401D02*
X130332052Y-99956449D01*
X130332052Y-99956449D02*
X130758718Y-99956449D01*
X130758718Y-99956449D02*
X131002528Y-100017401D01*
X131002528Y-100017401D02*
X131124433Y-100139306D01*
X131124433Y-100139306D02*
X131185385Y-100261211D01*
X131185385Y-100261211D02*
X131185385Y-100505020D01*
X131185385Y-100505020D02*
X131124433Y-100626925D01*
X131124433Y-100626925D02*
X131002528Y-100748830D01*
X131002528Y-100748830D02*
X130758718Y-100809782D01*
X130758718Y-100809782D02*
X130332052Y-100809782D01*
X130332052Y-100809782D02*
X130088242Y-100748830D01*
X130088242Y-100748830D02*
X129966337Y-100626925D01*
X129966337Y-100626925D02*
X129905385Y-100505020D01*
X131185385Y-98737401D02*
X131185385Y-99468830D01*
X131185385Y-99103116D02*
X129905385Y-99103116D01*
X129905385Y-99103116D02*
X130088242Y-99225020D01*
X130088242Y-99225020D02*
X130210147Y-99346925D01*
X130210147Y-99346925D02*
X130271099Y-99468830D01*
X130332052Y-97640258D02*
X131185385Y-97640258D01*
X129844433Y-97945020D02*
X130758718Y-98249782D01*
X130758718Y-98249782D02*
X130758718Y-97457401D01*
X127637937Y-92069277D02*
X127576985Y-92191182D01*
X127576985Y-92191182D02*
X127576985Y-92374039D01*
X127576985Y-92374039D02*
X127637937Y-92556896D01*
X127637937Y-92556896D02*
X127759842Y-92678801D01*
X127759842Y-92678801D02*
X127881747Y-92739754D01*
X127881747Y-92739754D02*
X128125556Y-92800706D01*
X128125556Y-92800706D02*
X128308413Y-92800706D01*
X128308413Y-92800706D02*
X128552223Y-92739754D01*
X128552223Y-92739754D02*
X128674128Y-92678801D01*
X128674128Y-92678801D02*
X128796033Y-92556896D01*
X128796033Y-92556896D02*
X128856985Y-92374039D01*
X128856985Y-92374039D02*
X128856985Y-92252135D01*
X128856985Y-92252135D02*
X128796033Y-92069277D01*
X128796033Y-92069277D02*
X128735080Y-92008325D01*
X128735080Y-92008325D02*
X128308413Y-92008325D01*
X128308413Y-92008325D02*
X128308413Y-92252135D01*
X128856985Y-91459754D02*
X127576985Y-91459754D01*
X127576985Y-91459754D02*
X128856985Y-90728325D01*
X128856985Y-90728325D02*
X127576985Y-90728325D01*
X128856985Y-90118802D02*
X127576985Y-90118802D01*
X127576985Y-90118802D02*
X127576985Y-89814040D01*
X127576985Y-89814040D02*
X127637937Y-89631183D01*
X127637937Y-89631183D02*
X127759842Y-89509278D01*
X127759842Y-89509278D02*
X127881747Y-89448325D01*
X127881747Y-89448325D02*
X128125556Y-89387373D01*
X128125556Y-89387373D02*
X128308413Y-89387373D01*
X128308413Y-89387373D02*
X128552223Y-89448325D01*
X128552223Y-89448325D02*
X128674128Y-89509278D01*
X128674128Y-89509278D02*
X128796033Y-89631183D01*
X128796033Y-89631183D02*
X128856985Y-89814040D01*
X128856985Y-89814040D02*
X128856985Y-90118802D01*
D14*
%TO.C,J3*%
X119490000Y-61540000D02*
X119490000Y-67510000D01*
X119490000Y-67510000D02*
X132110000Y-67510000D01*
X119500000Y-65250000D02*
X120250000Y-65250000D01*
X119500000Y-66750000D02*
X119500000Y-67500000D01*
X119500000Y-67500000D02*
X121300000Y-67500000D01*
X120250000Y-62300000D02*
X125800000Y-62300000D01*
X120250000Y-65250000D02*
X120250000Y-62300000D01*
X121300000Y-66750000D02*
X119500000Y-66750000D01*
X121300000Y-67500000D02*
X121300000Y-66750000D01*
X122800000Y-66750000D02*
X122800000Y-67500000D01*
X122800000Y-67500000D02*
X128800000Y-67500000D01*
X128800000Y-66750000D02*
X122800000Y-66750000D01*
X128800000Y-67500000D02*
X128800000Y-66750000D01*
X130300000Y-66750000D02*
X130300000Y-67500000D01*
X130300000Y-67500000D02*
X132100000Y-67500000D01*
X131150000Y-67800000D02*
X132400000Y-67800000D01*
X131350000Y-62300000D02*
X125800000Y-62300000D01*
X131350000Y-65250000D02*
X131350000Y-62300000D01*
X132100000Y-65250000D02*
X131350000Y-65250000D01*
X132100000Y-66750000D02*
X130300000Y-66750000D01*
X132100000Y-67500000D02*
X132100000Y-66750000D01*
X132110000Y-61540000D02*
X119490000Y-61540000D01*
X132110000Y-67510000D02*
X132110000Y-61540000D01*
X132400000Y-67800000D02*
X132400000Y-66550000D01*
%TO.C,R3*%
X132077500Y-122157776D02*
X132077500Y-122667224D01*
X133122500Y-122157776D02*
X133122500Y-122667224D01*
%TO.C,R4*%
X136277500Y-122704724D02*
X136277500Y-122195276D01*
X137322500Y-122704724D02*
X137322500Y-122195276D01*
%TO.C,U2*%
X162350000Y-60727500D02*
X161550000Y-60727500D01*
X162350000Y-60727500D02*
X163150000Y-60727500D01*
X162350000Y-63847500D02*
X161550000Y-63847500D01*
X162350000Y-63847500D02*
X163150000Y-63847500D01*
X161050000Y-60777500D02*
X160810000Y-60447500D01*
X161290000Y-60447500D01*
X161050000Y-60777500D01*
G36*
X161050000Y-60777500D02*
G01*
X160810000Y-60447500D01*
X161290000Y-60447500D01*
X161050000Y-60777500D01*
G37*
%TO.C,C2*%
X168603733Y-61790000D02*
X168896267Y-61790000D01*
X168603733Y-62810000D02*
X168896267Y-62810000D01*
%TO.C,Q1*%
X126460000Y-120400000D02*
X126460000Y-116800000D01*
X122010000Y-118600000D02*
G75*
G02*
X126448478Y-116761522I2600000J0D01*
G01*
X126448478Y-120438478D02*
G75*
G02*
X122009999Y-118600000I-1838478J1838478D01*
G01*
%TO.C,C3*%
X168353733Y-71890000D02*
X168646267Y-71890000D01*
X168353733Y-72910000D02*
X168646267Y-72910000D01*
%TO.C,C1*%
X162596267Y-67410000D02*
X162303733Y-67410000D01*
X162596267Y-66390000D02*
X162303733Y-66390000D01*
%TO.C,C4*%
X145046267Y-78160000D02*
X144753733Y-78160000D01*
X145046267Y-77140000D02*
X144753733Y-77140000D01*
%TO.C,J1*%
X168290000Y-104600000D02*
X179610000Y-104600000D01*
X168290000Y-114880000D02*
X168290000Y-104600000D01*
X168290000Y-114880000D02*
X179610000Y-114880000D01*
X170350000Y-114880000D02*
X170350000Y-104600000D01*
X172596000Y-105812000D02*
X172976000Y-106192000D01*
X172596000Y-110892000D02*
X172703000Y-110999000D01*
X172862000Y-105546000D02*
X173258000Y-105941000D01*
X172862000Y-110626000D02*
X172969000Y-110733000D01*
X175242000Y-108458000D02*
X175638000Y-108853000D01*
X175524000Y-108207000D02*
X175904000Y-108587000D01*
X175531000Y-113828000D02*
X175638000Y-113934000D01*
X175797000Y-113562000D02*
X175904000Y-113668000D01*
X176550000Y-114880000D02*
X176550000Y-104600000D01*
X179050000Y-114880000D02*
X179050000Y-104600000D01*
X179110000Y-115120000D02*
X179850000Y-115120000D01*
X179610000Y-114880000D02*
X179610000Y-104600000D01*
X179850000Y-115120000D02*
X179850000Y-114620000D01*
X176430000Y-107200000D02*
G75*
G02*
X172070000Y-107200000I-2180000J0D01*
G01*
X172070000Y-107200000D02*
G75*
G02*
X176430000Y-107200000I2180000J0D01*
G01*
X176430000Y-112280000D02*
G75*
G02*
X172070000Y-112280000I-2180000J0D01*
G01*
X172070000Y-112280000D02*
G75*
G02*
X176430000Y-112280000I2180000J0D01*
G01*
%TO.C,J4*%
X149250000Y-125880000D02*
X149250000Y-124550000D01*
X150580000Y-125880000D02*
X149250000Y-125880000D01*
X151850000Y-125880000D02*
X174770000Y-125880000D01*
X151850000Y-125880000D02*
X151850000Y-123220000D01*
X174770000Y-125880000D02*
X174770000Y-123220000D01*
X151850000Y-123220000D02*
X174770000Y-123220000D01*
%TO.C,J5*%
X168140000Y-87600000D02*
X179460000Y-87600000D01*
X168140000Y-97880000D02*
X168140000Y-87600000D01*
X168140000Y-97880000D02*
X179460000Y-97880000D01*
X170200000Y-97880000D02*
X170200000Y-87600000D01*
X172446000Y-88812000D02*
X172826000Y-89192000D01*
X172446000Y-93892000D02*
X172553000Y-93999000D01*
X172712000Y-88546000D02*
X173108000Y-88941000D01*
X172712000Y-93626000D02*
X172819000Y-93733000D01*
X175092000Y-91458000D02*
X175488000Y-91853000D01*
X175374000Y-91207000D02*
X175754000Y-91587000D01*
X175381000Y-96828000D02*
X175488000Y-96934000D01*
X175647000Y-96562000D02*
X175754000Y-96668000D01*
X176400000Y-97880000D02*
X176400000Y-87600000D01*
X178900000Y-97880000D02*
X178900000Y-87600000D01*
X178960000Y-98120000D02*
X179700000Y-98120000D01*
X179460000Y-97880000D02*
X179460000Y-87600000D01*
X179700000Y-98120000D02*
X179700000Y-97620000D01*
X176280000Y-90200000D02*
G75*
G02*
X171920000Y-90200000I-2180000J0D01*
G01*
X171920000Y-90200000D02*
G75*
G02*
X176280000Y-90200000I2180000J0D01*
G01*
X176280000Y-95280000D02*
G75*
G02*
X171920000Y-95280000I-2180000J0D01*
G01*
X171920000Y-95280000D02*
G75*
G02*
X176280000Y-95280000I2180000J0D01*
G01*
%TO.C,L1*%
X151750000Y-69800000D02*
G75*
G02*
X151817731Y-69176901I2899915J9D01*
G01*
X151818081Y-70424688D02*
G75*
G02*
X151750000Y-69800000I2831829J624678D01*
G01*
X157482559Y-69178219D02*
G75*
G02*
X157550000Y-69800000I-2832309J-621751D01*
G01*
X157550000Y-69800000D02*
G75*
G02*
X157481472Y-70429480I-2925297J-9D01*
G01*
%TO.C,Q2*%
X126410000Y-127600000D02*
X126410000Y-124000000D01*
X121960000Y-125800000D02*
G75*
G02*
X126398478Y-123961522I2600000J0D01*
G01*
X126398478Y-127638478D02*
G75*
G02*
X121959999Y-125800000I-1838478J1838478D01*
G01*
%TO.C,R2*%
X171022500Y-68795276D02*
X171022500Y-69304724D01*
X169977500Y-68795276D02*
X169977500Y-69304724D01*
%TO.C,J2*%
X106320000Y-116030000D02*
X107650000Y-116030000D01*
X106320000Y-117360000D02*
X106320000Y-116030000D01*
X106320000Y-118630000D02*
X106320000Y-131390000D01*
X106320000Y-118630000D02*
X108980000Y-118630000D01*
X106320000Y-131390000D02*
X108980000Y-131390000D01*
X108980000Y-118630000D02*
X108980000Y-131390000D01*
%TO.C,R1*%
X166327500Y-69304724D02*
X166327500Y-68795276D01*
X167372500Y-69304724D02*
X167372500Y-68795276D01*
D15*
%TO.C,U1*%
X96210100Y-86956900D02*
X96210100Y-102956900D01*
X96210100Y-86956900D02*
X119210200Y-86956900D01*
X96210100Y-102956900D02*
X119210200Y-102956900D01*
X101611100Y-81456900D02*
X157611000Y-81456900D01*
X101611100Y-108456800D02*
X101611100Y-81456900D01*
X119324100Y-87336900D02*
X119324100Y-102957900D01*
X155138100Y-90765900D02*
X155138100Y-93305900D01*
X155138100Y-93305900D02*
X157551100Y-93305900D01*
X155138100Y-96099900D02*
X155138100Y-98766900D01*
X155138100Y-98766900D02*
X157551100Y-98766900D01*
X157551100Y-93305900D02*
X157551100Y-96099900D01*
X157551100Y-96099900D02*
X155138100Y-96099900D01*
X157611000Y-81456900D02*
X157611000Y-108456800D01*
X157611000Y-108456800D02*
X101611100Y-108456800D01*
X157678100Y-90765900D02*
X155138100Y-90765900D01*
%TD*%
M02*
