M48
; DRILL file {KiCad 8.0.6} date 2025-02-09T15:22:38+0100
; FORMAT={-:-/ absolute / inch / decimal}
; #@! TF.CreationDate,2025-02-09T15:22:38+01:00
; #@! TF.GenerationSoftware,Kicad,Pcbnew,8.0.6
; #@! TF.FileFunction,Plated,1,4,PTH
FMAT,2
INCH
; #@! TA.AperFunction,Plated,PTH,ViaDrill
T1C0.0118
; #@! TA.AperFunction,Plated,PTH,ComponentDrill
T2C0.0295
; #@! TA.AperFunction,Plated,PTH,ComponentDrill
T3C0.0360
; #@! TA.AperFunction,Plated,PTH,ComponentDrill
T4C0.0374
; #@! TA.AperFunction,Plated,PTH,ComponentDrill
T5C0.0394
; #@! TA.AperFunction,Plated,PTH,ComponentDrill
T6C0.0512
; #@! TA.AperFunction,Plated,PTH,ComponentDrill
T7C0.1260
%
G90
G05
T1
X5.8976Y-3.8701
X6.0886Y-2.561
X6.0886Y-2.5984
X6.1053Y-2.5167
X6.2092Y-2.4523
X6.2441Y-2.5965
X6.2461Y-2.4523
X6.3469Y-2.5536
X6.4626Y-2.5748
X6.502Y-2.3484
X6.5034Y-2.4523
X6.5413Y-2.3937
X6.75Y-2.9331
T2
X4.9039Y-4.9028
X4.9039Y-4.9528
X4.9039Y-5.0028
X4.9059Y-4.6193
X4.9059Y-4.6693
X4.9059Y-4.7193
T3
X4.0378Y-3.4835
X4.0378Y-3.5835
X4.0378Y-3.8835
X4.0378Y-3.9835
X4.6378Y-3.2835
X4.6378Y-4.1835
X4.7378Y-3.2835
X4.7378Y-4.1835
X4.8378Y-3.2835
X4.8378Y-4.1835
X4.9378Y-3.2835
X4.9378Y-4.1835
X5.0378Y-3.2835
X5.0378Y-4.1835
X5.1378Y-3.2835
X5.1378Y-4.1835
X5.2378Y-3.2835
X5.2378Y-4.1835
X5.3378Y-3.2835
X5.3378Y-4.1835
X5.4378Y-3.2835
X5.4378Y-4.1835
X5.5378Y-3.2835
X5.5378Y-4.1835
X5.6378Y-3.2835
X5.6378Y-4.1835
X5.7378Y-3.2835
X5.7378Y-4.1835
X5.8378Y-3.2835
X5.8378Y-4.1835
T4
X4.8051Y-2.561
X4.9035Y-2.561
X5.002Y-2.561
X5.1004Y-2.561
T5
X4.2382Y-4.6205
X4.2382Y-4.7205
X4.2382Y-4.8205
X4.2382Y-4.9205
X4.2382Y-5.0205
X4.2382Y-5.1205
X5.9283Y-4.9035
X6.0283Y-4.9035
X6.1283Y-4.9035
X6.2283Y-4.9035
X6.3283Y-4.9035
X6.4283Y-4.9035
X6.5283Y-4.9035
X6.6283Y-4.9035
X6.7283Y-4.9035
X6.8283Y-4.9035
T6
X6.8543Y-3.5512
X6.8543Y-3.7512
X6.8602Y-4.2205
X6.8602Y-4.4205
T7
X4.2461Y-2.5748
X7.2323Y-2.5807
X7.2618Y-4.937
M30
