%TF.GenerationSoftware,KiCad,Pcbnew,8.0.6*%
%TF.CreationDate,2025-02-09T15:22:33+01:00*%
%TF.ProjectId,BaseBoard,42617365-426f-4617-9264-2e6b69636164,rev?*%
%TF.SameCoordinates,Original*%
%TF.FileFunction,Copper,L3,Inr*%
%TF.FilePolarity,Positive*%
%FSLAX46Y46*%
G04 Gerber Fmt 4.6, Leading zero omitted, Abs format (unit mm)*
G04 Created by KiCad (PCBNEW 8.0.6) date 2025-02-09 15:22:33*
%MOMM*%
%LPD*%
G01*
G04 APERTURE LIST*
G04 Aperture macros list*
%AMRoundRect*
0 Rectangle with rounded corners*
0 $1 Rounding radius*
0 $2 $3 $4 $5 $6 $7 $8 $9 X,Y pos of 4 corners*
0 Add a 4 corners polygon primitive as box body*
4,1,4,$2,$3,$4,$5,$6,$7,$8,$9,$2,$3,0*
0 Add four circle primitives for the rounded corners*
1,1,$1+$1,$2,$3*
1,1,$1+$1,$4,$5*
1,1,$1+$1,$6,$7*
1,1,$1+$1,$8,$9*
0 Add four rect primitives between the rounded corners*
20,1,$1+$1,$2,$3,$4,$5,0*
20,1,$1+$1,$4,$5,$6,$7,0*
20,1,$1+$1,$6,$7,$8,$9,0*
20,1,$1+$1,$8,$9,$2,$3,0*%
G04 Aperture macros list end*
%TA.AperFunction,ComponentPad*%
%ADD10RoundRect,0.250000X0.600000X0.725000X-0.600000X0.725000X-0.600000X-0.725000X0.600000X-0.725000X0*%
%TD*%
%TA.AperFunction,ComponentPad*%
%ADD11O,1.700000X1.950000*%
%TD*%
%TA.AperFunction,ComponentPad*%
%ADD12C,5.600000*%
%TD*%
%TA.AperFunction,ComponentPad*%
%ADD13R,1.500000X1.050000*%
%TD*%
%TA.AperFunction,ComponentPad*%
%ADD14O,1.500000X1.050000*%
%TD*%
%TA.AperFunction,ComponentPad*%
%ADD15R,2.600000X2.600000*%
%TD*%
%TA.AperFunction,ComponentPad*%
%ADD16C,2.600000*%
%TD*%
%TA.AperFunction,ComponentPad*%
%ADD17R,1.700000X1.700000*%
%TD*%
%TA.AperFunction,ComponentPad*%
%ADD18O,1.700000X1.700000*%
%TD*%
%TA.AperFunction,ComponentPad*%
%ADD19O,1.524000X1.524000*%
%TD*%
%TA.AperFunction,ViaPad*%
%ADD20C,0.600000*%
%TD*%
%TA.AperFunction,Conductor*%
%ADD21C,0.200000*%
%TD*%
G04 APERTURE END LIST*
D10*
%TO.N,+5V*%
%TO.C,J3*%
X129550000Y-65050000D03*
D11*
%TO.N,Net-(J3-Pin_2)*%
X127050000Y-65050000D03*
%TO.N,Net-(J3-Pin_3)*%
X124550000Y-65050000D03*
%TO.N,GND*%
X122050000Y-65050000D03*
%TD*%
D12*
%TO.N,GND*%
%TO.C,H3*%
X184450000Y-125400000D03*
%TD*%
D13*
%TO.N,Net-(J2-Pin_2)*%
%TO.C,Q1*%
X124610000Y-119870000D03*
D14*
%TO.N,Net-(Q1-B)*%
X124610000Y-118600000D03*
%TO.N,Net-(Q1-C)*%
X124610000Y-117330000D03*
%TD*%
D15*
%TO.N,+24V*%
%TO.C,J1*%
X174250000Y-112280000D03*
D16*
%TO.N,GND*%
X174250000Y-107200000D03*
%TD*%
D12*
%TO.N,GND*%
%TO.C,H1*%
X107850000Y-65400000D03*
%TD*%
D17*
%TO.N,Net-(J4-Pin_1)*%
%TO.C,J4*%
X150580000Y-124550000D03*
D18*
%TO.N,Net-(J4-Pin_2)*%
X153120000Y-124550000D03*
%TO.N,Net-(J4-Pin_3)*%
X155660000Y-124550000D03*
%TO.N,Net-(J4-Pin_4)*%
X158200000Y-124550000D03*
%TO.N,Net-(J4-Pin_5)*%
X160740000Y-124550000D03*
%TO.N,Net-(J4-Pin_6)*%
X163280000Y-124550000D03*
%TO.N,Net-(J4-Pin_7)*%
X165820000Y-124550000D03*
%TO.N,Net-(J4-Pin_8)*%
X168360000Y-124550000D03*
%TO.N,Net-(J4-Pin_9)*%
X170900000Y-124550000D03*
%TO.N,Net-(J4-Pin_10)*%
X173440000Y-124550000D03*
%TD*%
D15*
%TO.N,+5V*%
%TO.C,J5*%
X174100000Y-95280000D03*
D16*
%TO.N,GND*%
X174100000Y-90200000D03*
%TD*%
D13*
%TO.N,Net-(Q2-E)*%
%TO.C,Q2*%
X124560000Y-127070000D03*
D14*
%TO.N,Net-(Q2-B)*%
X124560000Y-125800000D03*
%TO.N,Net-(J2-Pin_6)*%
X124560000Y-124530000D03*
%TD*%
D12*
%TO.N,GND*%
%TO.C,H2*%
X183700000Y-65550000D03*
%TD*%
D17*
%TO.N,GND*%
%TO.C,J2*%
X107650000Y-117360000D03*
D18*
%TO.N,Net-(J2-Pin_2)*%
X107650000Y-119900000D03*
%TO.N,+5V*%
X107650000Y-122440000D03*
%TO.N,Net-(J2-Pin_4)*%
X107650000Y-124980000D03*
%TO.N,Net-(J2-Pin_5)*%
X107650000Y-127520000D03*
%TO.N,Net-(J2-Pin_6)*%
X107650000Y-130060000D03*
%TD*%
D19*
%TO.N,Net-(Q1-C)*%
%TO.C,U1*%
X117800000Y-83400000D03*
%TO.N,GND*%
X120340000Y-83400000D03*
%TO.N,+3.3V*%
X122880000Y-83400000D03*
%TO.N,Net-(J4-Pin_2)*%
X125420000Y-83400000D03*
%TO.N,Net-(J3-Pin_3)*%
X127960000Y-83400000D03*
%TO.N,Net-(J3-Pin_2)*%
X130500000Y-83400000D03*
%TO.N,Net-(J4-Pin_1)*%
X133040000Y-83400000D03*
%TO.N,unconnected-(U1-IO17{slash}UART2_TX-Pad8)*%
X135580000Y-83400000D03*
%TO.N,GND*%
X138120000Y-83400000D03*
%TO.N,+3V3*%
X140660000Y-83400000D03*
%TO.N,GND*%
X143200000Y-83400000D03*
%TO.N,+5V*%
X145740000Y-83400000D03*
%TO.N,unconnected-(U1-LINK_LED-Pad13)*%
X148280000Y-83400000D03*
%TO.N,GND*%
X117800000Y-106260000D03*
%TO.N,Net-(J4-Pin_3)*%
X120340000Y-106260000D03*
%TO.N,Net-(J4-Pin_4)*%
X122880000Y-106260000D03*
%TO.N,Net-(J4-Pin_5)*%
X125420000Y-106260000D03*
%TO.N,Net-(J4-Pin_6)*%
X127960000Y-106260000D03*
%TO.N,Net-(J4-Pin_7)*%
X130500000Y-106260000D03*
%TO.N,Net-(J4-Pin_8)*%
X133040000Y-106260000D03*
%TO.N,Net-(J4-Pin_9)*%
X135580000Y-106260000D03*
%TO.N,Net-(J4-Pin_10)*%
X138120000Y-106260000D03*
%TO.N,GND*%
X140660000Y-106260000D03*
%TO.N,Net-(Q2-E)*%
X143200000Y-106260000D03*
%TO.N,Net-(J2-Pin_4)*%
X145740000Y-106260000D03*
%TO.N,Net-(J2-Pin_5)*%
X148280000Y-106260000D03*
%TO.N,N/C*%
X102560000Y-88480000D03*
X102560000Y-91020000D03*
X102560000Y-98640000D03*
X102560000Y-101180000D03*
%TD*%
D20*
%TO.N,Net-(U2-SW)*%
X155075000Y-63925000D03*
X154650000Y-65050000D03*
X154650000Y-66000000D03*
X158600000Y-65950000D03*
X158650000Y-62287500D03*
X157712500Y-62287500D03*
%TO.N,Net-(U2-CB)*%
X166150000Y-60800000D03*
X164150000Y-65400000D03*
%TO.N,GND*%
X165150000Y-59650000D03*
%TO.N,+24V*%
X165187500Y-62287500D03*
X161212500Y-64862500D03*
%TO.N,GND*%
X171450000Y-74500000D03*
%TO.N,Net-(J4-Pin_2)*%
X149800000Y-98300000D03*
%TD*%
D21*
%TO.N,Net-(U2-CB)*%
X166400000Y-61050000D02*
X166400000Y-63150000D01*
X166150000Y-60800000D02*
X166400000Y-61050000D01*
X166400000Y-63150000D02*
X164150000Y-65400000D01*
%TO.N,Net-(J4-Pin_2)*%
X126950000Y-88150000D02*
X126950000Y-87950000D01*
X126950000Y-87950000D02*
X125420000Y-86420000D01*
X135750000Y-96950000D02*
X126950000Y-88150000D01*
X148450000Y-96950000D02*
X135750000Y-96950000D01*
X125420000Y-86420000D02*
X125420000Y-83400000D01*
X149800000Y-98300000D02*
X148450000Y-96950000D01*
%TO.N,Net-(J4-Pin_3)*%
X120340000Y-107990000D02*
X125500000Y-113150000D01*
X120340000Y-106260000D02*
X120340000Y-107990000D01*
X125500000Y-113150000D02*
X154000000Y-113150000D01*
X154000000Y-113150000D02*
X155660000Y-114810000D01*
X155660000Y-114810000D02*
X155660000Y-124550000D01*
%TO.N,Net-(J4-Pin_4)*%
X158200000Y-116250000D02*
X158200000Y-124550000D01*
X154700000Y-112750000D02*
X158200000Y-116250000D01*
X129370000Y-112750000D02*
X154700000Y-112750000D01*
X122880000Y-106260000D02*
X129370000Y-112750000D01*
%TO.N,Net-(J4-Pin_5)*%
X157187256Y-112350000D02*
X160740000Y-115902744D01*
X160740000Y-115902744D02*
X160740000Y-124550000D01*
X131510000Y-112350000D02*
X157187256Y-112350000D01*
X125420000Y-106260000D02*
X131510000Y-112350000D01*
%TO.N,Net-(J4-Pin_6)*%
X157302942Y-111900000D02*
X163280000Y-117877058D01*
X133600000Y-111900000D02*
X157302942Y-111900000D01*
X127960000Y-106260000D02*
X133600000Y-111900000D01*
X163280000Y-117877058D02*
X163280000Y-124550000D01*
%TO.N,Net-(J4-Pin_7)*%
X157468628Y-111500000D02*
X165820000Y-119851372D01*
X135740000Y-111500000D02*
X157468628Y-111500000D01*
X130500000Y-106260000D02*
X135740000Y-111500000D01*
X165820000Y-119851372D02*
X165820000Y-124550000D01*
%TO.N,Net-(J4-Pin_8)*%
X157634314Y-111100000D02*
X168360000Y-121825686D01*
X137880000Y-111100000D02*
X157634314Y-111100000D01*
X168360000Y-121825686D02*
X168360000Y-124550000D01*
X133040000Y-106260000D02*
X137880000Y-111100000D01*
%TO.N,Net-(J4-Pin_9)*%
X170900000Y-123800000D02*
X170900000Y-124550000D01*
X157750000Y-110650000D02*
X170900000Y-123800000D01*
X135580000Y-106260000D02*
X139970000Y-110650000D01*
X139970000Y-110650000D02*
X157750000Y-110650000D01*
%TO.N,Net-(J4-Pin_10)*%
X159040000Y-110150000D02*
X173440000Y-124550000D01*
X142010000Y-110150000D02*
X159040000Y-110150000D01*
X138120000Y-106260000D02*
X142010000Y-110150000D01*
%TO.N,Net-(J2-Pin_2)*%
X107650000Y-119900000D02*
X124580000Y-119900000D01*
X124580000Y-119900000D02*
X124610000Y-119870000D01*
%TO.N,Net-(J2-Pin_6)*%
X115570000Y-124530000D02*
X124560000Y-124530000D01*
X107650000Y-130060000D02*
X110040000Y-130060000D01*
X110040000Y-130060000D02*
X115570000Y-124530000D01*
%TD*%
%TA.AperFunction,Conductor*%
%TO.N,Net-(U2-SW)*%
G36*
X189442539Y-55520185D02*
G01*
X189488294Y-55572989D01*
X189499500Y-55624500D01*
X189499500Y-132875500D01*
X189479815Y-132942539D01*
X189427011Y-132988294D01*
X189375500Y-132999500D01*
X102023712Y-132999500D01*
X101956673Y-132979815D01*
X101910918Y-132927011D01*
X101899712Y-132875659D01*
X101885870Y-122099500D01*
X101883045Y-119899999D01*
X106294341Y-119899999D01*
X106294341Y-119900000D01*
X106314936Y-120135403D01*
X106314938Y-120135413D01*
X106376094Y-120363655D01*
X106376096Y-120363659D01*
X106376097Y-120363663D01*
X106440830Y-120502482D01*
X106475965Y-120577830D01*
X106475967Y-120577834D01*
X106611501Y-120771395D01*
X106611506Y-120771402D01*
X106778597Y-120938493D01*
X106778603Y-120938498D01*
X106964158Y-121068425D01*
X107007783Y-121123002D01*
X107014977Y-121192500D01*
X106983454Y-121254855D01*
X106964158Y-121271575D01*
X106778597Y-121401505D01*
X106611505Y-121568597D01*
X106475965Y-121762169D01*
X106475964Y-121762171D01*
X106376098Y-121976335D01*
X106376094Y-121976344D01*
X106314938Y-122204586D01*
X106314936Y-122204596D01*
X106294341Y-122439999D01*
X106294341Y-122440000D01*
X106314936Y-122675403D01*
X106314938Y-122675413D01*
X106376094Y-122903655D01*
X106376096Y-122903659D01*
X106376097Y-122903663D01*
X106394001Y-122942058D01*
X106475965Y-123117830D01*
X106475967Y-123117834D01*
X106611501Y-123311395D01*
X106611506Y-123311402D01*
X106778597Y-123478493D01*
X106778603Y-123478498D01*
X106964158Y-123608425D01*
X107007783Y-123663002D01*
X107014977Y-123732500D01*
X106983454Y-123794855D01*
X106964158Y-123811575D01*
X106778597Y-123941505D01*
X106611505Y-124108597D01*
X106475965Y-124302169D01*
X106475964Y-124302171D01*
X106376098Y-124516335D01*
X106376094Y-124516344D01*
X106314938Y-124744586D01*
X106314936Y-124744596D01*
X106294341Y-124979999D01*
X106294341Y-124980000D01*
X106314936Y-125215403D01*
X106314938Y-125215413D01*
X106376094Y-125443655D01*
X106376096Y-125443659D01*
X106376097Y-125443663D01*
X106443635Y-125588498D01*
X106475965Y-125657830D01*
X106475967Y-125657834D01*
X106611501Y-125851395D01*
X106611506Y-125851402D01*
X106778597Y-126018493D01*
X106778603Y-126018498D01*
X106964158Y-126148425D01*
X107007783Y-126203002D01*
X107014977Y-126272500D01*
X106983454Y-126334855D01*
X106964158Y-126351575D01*
X106778597Y-126481505D01*
X106611505Y-126648597D01*
X106475965Y-126842169D01*
X106475964Y-126842171D01*
X106376098Y-127056335D01*
X106376094Y-127056344D01*
X106314938Y-127284586D01*
X106314936Y-127284596D01*
X106294341Y-127519999D01*
X106294341Y-127520000D01*
X106314936Y-127755403D01*
X106314938Y-127755413D01*
X106376094Y-127983655D01*
X106376096Y-127983659D01*
X106376097Y-127983663D01*
X106425259Y-128089091D01*
X106475965Y-128197830D01*
X106475967Y-128197834D01*
X106611501Y-128391395D01*
X106611506Y-128391402D01*
X106778597Y-128558493D01*
X106778603Y-128558498D01*
X106964158Y-128688425D01*
X107007783Y-128743002D01*
X107014977Y-128812500D01*
X106983454Y-128874855D01*
X106964158Y-128891575D01*
X106778597Y-129021505D01*
X106611505Y-129188597D01*
X106475965Y-129382169D01*
X106475964Y-129382171D01*
X106376098Y-129596335D01*
X106376094Y-129596344D01*
X106314938Y-129824586D01*
X106314936Y-129824596D01*
X106294341Y-130059999D01*
X106294341Y-130060000D01*
X106314936Y-130295403D01*
X106314938Y-130295413D01*
X106376094Y-130523655D01*
X106376096Y-130523659D01*
X106376097Y-130523663D01*
X106439906Y-130660501D01*
X106475965Y-130737830D01*
X106475967Y-130737834D01*
X106584281Y-130892521D01*
X106611505Y-130931401D01*
X106778599Y-131098495D01*
X106875384Y-131166265D01*
X106972165Y-131234032D01*
X106972167Y-131234033D01*
X106972170Y-131234035D01*
X107186337Y-131333903D01*
X107414592Y-131395063D01*
X107602918Y-131411539D01*
X107649999Y-131415659D01*
X107650000Y-131415659D01*
X107650001Y-131415659D01*
X107689234Y-131412226D01*
X107885408Y-131395063D01*
X108113663Y-131333903D01*
X108327830Y-131234035D01*
X108521401Y-131098495D01*
X108688495Y-130931401D01*
X108824035Y-130737830D01*
X108826707Y-130732097D01*
X108872878Y-130679658D01*
X108939091Y-130660500D01*
X109953331Y-130660500D01*
X109953347Y-130660501D01*
X109960943Y-130660501D01*
X110119054Y-130660501D01*
X110119057Y-130660501D01*
X110271785Y-130619577D01*
X110321904Y-130590639D01*
X110408716Y-130540520D01*
X110520520Y-130428716D01*
X110520520Y-130428714D01*
X110530728Y-130418507D01*
X110530729Y-130418504D01*
X115782416Y-125166819D01*
X115843739Y-125133334D01*
X115870097Y-125130500D01*
X123317546Y-125130500D01*
X123384585Y-125150185D01*
X123430340Y-125202989D01*
X123440284Y-125272147D01*
X123428350Y-125308535D01*
X123428545Y-125308616D01*
X123427486Y-125311171D01*
X123426900Y-125312960D01*
X123426214Y-125314242D01*
X123348909Y-125500872D01*
X123348907Y-125500880D01*
X123309500Y-125698992D01*
X123309500Y-125901007D01*
X123348907Y-126099119D01*
X123348909Y-126099127D01*
X123382325Y-126179800D01*
X123389794Y-126249270D01*
X123370038Y-126294660D01*
X123370454Y-126294887D01*
X123367919Y-126299528D01*
X123367037Y-126301556D01*
X123366206Y-126302665D01*
X123366202Y-126302672D01*
X123315908Y-126437517D01*
X123311179Y-126481506D01*
X123309501Y-126497123D01*
X123309500Y-126497135D01*
X123309500Y-127642870D01*
X123309501Y-127642876D01*
X123315908Y-127702483D01*
X123366202Y-127837328D01*
X123366206Y-127837335D01*
X123452452Y-127952544D01*
X123452455Y-127952547D01*
X123567664Y-128038793D01*
X123567671Y-128038797D01*
X123702517Y-128089091D01*
X123702516Y-128089091D01*
X123709444Y-128089835D01*
X123762127Y-128095500D01*
X125357872Y-128095499D01*
X125417483Y-128089091D01*
X125552331Y-128038796D01*
X125667546Y-127952546D01*
X125753796Y-127837331D01*
X125804091Y-127702483D01*
X125810500Y-127642873D01*
X125810499Y-126497128D01*
X125804091Y-126437517D01*
X125769944Y-126345965D01*
X125753797Y-126302671D01*
X125753796Y-126302670D01*
X125753796Y-126302669D01*
X125752967Y-126301562D01*
X125752485Y-126300268D01*
X125749546Y-126294886D01*
X125750319Y-126294463D01*
X125728551Y-126236099D01*
X125737675Y-126179798D01*
X125771089Y-126099132D01*
X125771089Y-126099131D01*
X125771091Y-126099127D01*
X125810500Y-125901003D01*
X125810500Y-125698997D01*
X125771091Y-125500873D01*
X125693786Y-125314244D01*
X125640094Y-125233889D01*
X125619217Y-125167214D01*
X125637701Y-125099834D01*
X125640078Y-125096134D01*
X125693786Y-125015756D01*
X125771091Y-124829127D01*
X125810500Y-124631003D01*
X125810500Y-124428997D01*
X125771091Y-124230873D01*
X125693786Y-124044244D01*
X125693784Y-124044241D01*
X125693782Y-124044237D01*
X125581558Y-123876281D01*
X125438718Y-123733441D01*
X125270762Y-123621217D01*
X125270752Y-123621212D01*
X125084127Y-123543909D01*
X125084119Y-123543907D01*
X124886007Y-123504500D01*
X124886003Y-123504500D01*
X124233997Y-123504500D01*
X124233992Y-123504500D01*
X124035880Y-123543907D01*
X124035872Y-123543909D01*
X123849247Y-123621212D01*
X123849237Y-123621217D01*
X123681281Y-123733441D01*
X123538444Y-123876278D01*
X123534578Y-123880990D01*
X123533181Y-123879843D01*
X123486088Y-123919198D01*
X123436603Y-123929500D01*
X115656669Y-123929500D01*
X115656653Y-123929499D01*
X115649057Y-123929499D01*
X115490943Y-123929499D01*
X115383587Y-123958265D01*
X115338210Y-123970424D01*
X115338209Y-123970425D01*
X115288096Y-123999359D01*
X115288095Y-123999360D01*
X115244689Y-124024420D01*
X115201285Y-124049479D01*
X115201282Y-124049481D01*
X115089478Y-124161286D01*
X109827584Y-129423181D01*
X109766261Y-129456666D01*
X109739903Y-129459500D01*
X108939091Y-129459500D01*
X108872052Y-129439815D01*
X108826711Y-129387909D01*
X108824037Y-129382175D01*
X108824034Y-129382170D01*
X108824033Y-129382169D01*
X108688495Y-129188599D01*
X108688494Y-129188597D01*
X108521402Y-129021506D01*
X108521396Y-129021501D01*
X108335842Y-128891575D01*
X108292217Y-128836998D01*
X108285023Y-128767500D01*
X108316546Y-128705145D01*
X108335842Y-128688425D01*
X108483736Y-128584868D01*
X108521401Y-128558495D01*
X108688495Y-128391401D01*
X108824035Y-128197830D01*
X108923903Y-127983663D01*
X108985063Y-127755408D01*
X109005659Y-127520000D01*
X108985063Y-127284592D01*
X108923903Y-127056337D01*
X108824035Y-126842171D01*
X108786021Y-126787880D01*
X108688494Y-126648597D01*
X108521402Y-126481506D01*
X108521396Y-126481501D01*
X108335842Y-126351575D01*
X108292217Y-126296998D01*
X108285023Y-126227500D01*
X108316546Y-126165145D01*
X108335842Y-126148425D01*
X108358026Y-126132891D01*
X108521401Y-126018495D01*
X108688495Y-125851401D01*
X108824035Y-125657830D01*
X108923903Y-125443663D01*
X108985063Y-125215408D01*
X109005659Y-124980000D01*
X108985063Y-124744592D01*
X108923903Y-124516337D01*
X108824035Y-124302171D01*
X108774112Y-124230872D01*
X108688494Y-124108597D01*
X108521402Y-123941506D01*
X108521396Y-123941501D01*
X108335842Y-123811575D01*
X108292217Y-123756998D01*
X108285023Y-123687500D01*
X108316546Y-123625145D01*
X108335842Y-123608425D01*
X108474256Y-123511506D01*
X108521401Y-123478495D01*
X108688495Y-123311401D01*
X108824035Y-123117830D01*
X108923903Y-122903663D01*
X108985063Y-122675408D01*
X109005659Y-122440000D01*
X108985063Y-122204592D01*
X108923903Y-121976337D01*
X108824035Y-121762171D01*
X108688495Y-121568599D01*
X108688494Y-121568597D01*
X108521402Y-121401506D01*
X108521396Y-121401501D01*
X108335842Y-121271575D01*
X108292217Y-121216998D01*
X108285023Y-121147500D01*
X108316546Y-121085145D01*
X108335842Y-121068425D01*
X108358026Y-121052891D01*
X108521401Y-120938495D01*
X108688495Y-120771401D01*
X108824035Y-120577830D01*
X108826707Y-120572097D01*
X108872878Y-120519658D01*
X108939091Y-120500500D01*
X123279074Y-120500500D01*
X123346113Y-120520185D01*
X123391868Y-120572989D01*
X123395256Y-120581167D01*
X123416202Y-120637328D01*
X123416206Y-120637335D01*
X123502452Y-120752544D01*
X123502455Y-120752547D01*
X123617664Y-120838793D01*
X123617671Y-120838797D01*
X123752517Y-120889091D01*
X123752516Y-120889091D01*
X123759444Y-120889835D01*
X123812127Y-120895500D01*
X125407872Y-120895499D01*
X125467483Y-120889091D01*
X125602331Y-120838796D01*
X125717546Y-120752546D01*
X125803796Y-120637331D01*
X125854091Y-120502483D01*
X125860500Y-120442873D01*
X125860499Y-119297128D01*
X125854091Y-119237517D01*
X125850507Y-119227909D01*
X125803797Y-119102671D01*
X125803796Y-119102670D01*
X125803796Y-119102669D01*
X125802967Y-119101562D01*
X125802485Y-119100268D01*
X125799546Y-119094886D01*
X125800319Y-119094463D01*
X125778551Y-119036099D01*
X125787675Y-118979798D01*
X125821089Y-118899132D01*
X125821089Y-118899131D01*
X125821091Y-118899127D01*
X125860500Y-118701003D01*
X125860500Y-118498997D01*
X125821091Y-118300873D01*
X125743786Y-118114244D01*
X125690094Y-118033889D01*
X125669217Y-117967214D01*
X125687701Y-117899834D01*
X125690078Y-117896134D01*
X125743786Y-117815756D01*
X125821091Y-117629127D01*
X125860500Y-117431003D01*
X125860500Y-117228997D01*
X125821091Y-117030873D01*
X125743786Y-116844244D01*
X125743784Y-116844241D01*
X125743782Y-116844237D01*
X125631558Y-116676281D01*
X125488718Y-116533441D01*
X125320762Y-116421217D01*
X125320752Y-116421212D01*
X125134127Y-116343909D01*
X125134119Y-116343907D01*
X124936007Y-116304500D01*
X124936003Y-116304500D01*
X124283997Y-116304500D01*
X124283992Y-116304500D01*
X124085880Y-116343907D01*
X124085872Y-116343909D01*
X123899247Y-116421212D01*
X123899237Y-116421217D01*
X123731281Y-116533441D01*
X123588441Y-116676281D01*
X123476217Y-116844237D01*
X123476212Y-116844247D01*
X123398909Y-117030872D01*
X123398907Y-117030880D01*
X123359500Y-117228992D01*
X123359500Y-117431007D01*
X123398907Y-117629119D01*
X123398909Y-117629127D01*
X123476213Y-117815755D01*
X123529904Y-117896109D01*
X123550782Y-117962787D01*
X123532297Y-118030167D01*
X123529904Y-118033891D01*
X123476213Y-118114244D01*
X123398909Y-118300872D01*
X123398907Y-118300880D01*
X123359500Y-118498992D01*
X123359500Y-118701007D01*
X123398907Y-118899119D01*
X123398909Y-118899127D01*
X123432325Y-118979800D01*
X123439794Y-119049270D01*
X123420038Y-119094660D01*
X123420454Y-119094887D01*
X123417919Y-119099528D01*
X123417037Y-119101556D01*
X123416206Y-119102665D01*
X123416203Y-119102670D01*
X123372877Y-119218834D01*
X123331005Y-119274767D01*
X123265541Y-119299184D01*
X123256695Y-119299500D01*
X108939091Y-119299500D01*
X108872052Y-119279815D01*
X108826711Y-119227909D01*
X108824037Y-119222175D01*
X108824034Y-119222170D01*
X108824033Y-119222169D01*
X108734910Y-119094887D01*
X108688496Y-119028600D01*
X108632684Y-118972788D01*
X108566567Y-118906671D01*
X108533084Y-118845351D01*
X108538068Y-118775659D01*
X108579939Y-118719725D01*
X108610915Y-118702810D01*
X108742331Y-118653796D01*
X108857546Y-118567546D01*
X108943796Y-118452331D01*
X108994091Y-118317483D01*
X109000500Y-118257873D01*
X109000499Y-116462128D01*
X108994091Y-116402517D01*
X108943796Y-116267669D01*
X108943795Y-116267668D01*
X108943793Y-116267664D01*
X108857547Y-116152455D01*
X108857544Y-116152452D01*
X108742335Y-116066206D01*
X108742328Y-116066202D01*
X108607482Y-116015908D01*
X108607483Y-116015908D01*
X108547883Y-116009501D01*
X108547881Y-116009500D01*
X108547873Y-116009500D01*
X108547864Y-116009500D01*
X106752129Y-116009500D01*
X106752123Y-116009501D01*
X106692516Y-116015908D01*
X106557671Y-116066202D01*
X106557664Y-116066206D01*
X106442455Y-116152452D01*
X106442452Y-116152455D01*
X106356206Y-116267664D01*
X106356202Y-116267671D01*
X106305908Y-116402517D01*
X106303898Y-116421217D01*
X106299501Y-116462123D01*
X106299500Y-116462135D01*
X106299500Y-118257870D01*
X106299501Y-118257876D01*
X106305908Y-118317483D01*
X106356202Y-118452328D01*
X106356206Y-118452335D01*
X106442452Y-118567544D01*
X106442455Y-118567547D01*
X106557664Y-118653793D01*
X106557671Y-118653797D01*
X106689081Y-118702810D01*
X106745015Y-118744681D01*
X106769432Y-118810145D01*
X106754580Y-118878418D01*
X106733430Y-118906673D01*
X106611503Y-119028600D01*
X106475965Y-119222169D01*
X106475964Y-119222171D01*
X106376098Y-119436335D01*
X106376094Y-119436344D01*
X106314938Y-119664586D01*
X106314936Y-119664596D01*
X106294341Y-119899999D01*
X101883045Y-119899999D01*
X101866772Y-107232236D01*
X101886371Y-107165174D01*
X101939116Y-107119351D01*
X102008261Y-107109319D01*
X102059662Y-107128976D01*
X102086086Y-107146632D01*
X102086088Y-107146633D01*
X102086092Y-107146635D01*
X102214938Y-107200004D01*
X102268165Y-107222051D01*
X102268169Y-107222051D01*
X102268170Y-107222052D01*
X102461456Y-107260500D01*
X102461459Y-107260500D01*
X102658543Y-107260500D01*
X102800632Y-107232236D01*
X102851835Y-107222051D01*
X103033914Y-107146632D01*
X103197782Y-107037139D01*
X103337139Y-106897782D01*
X103446632Y-106733914D01*
X103522051Y-106551835D01*
X103548951Y-106416602D01*
X103560500Y-106358543D01*
X103560500Y-106259997D01*
X116532677Y-106259997D01*
X116532677Y-106260002D01*
X116551929Y-106480062D01*
X116551930Y-106480070D01*
X116609104Y-106693445D01*
X116609105Y-106693447D01*
X116609106Y-106693450D01*
X116642382Y-106764811D01*
X116702466Y-106893662D01*
X116702468Y-106893666D01*
X116829170Y-107074615D01*
X116829175Y-107074621D01*
X116985378Y-107230824D01*
X116985384Y-107230829D01*
X117166333Y-107357531D01*
X117166335Y-107357532D01*
X117166338Y-107357534D01*
X117366550Y-107450894D01*
X117579932Y-107508070D01*
X117726743Y-107520914D01*
X117799998Y-107527323D01*
X117800000Y-107527323D01*
X117800002Y-107527323D01*
X117855017Y-107522509D01*
X118020068Y-107508070D01*
X118233450Y-107450894D01*
X118433662Y-107357534D01*
X118614620Y-107230826D01*
X118770826Y-107074620D01*
X118897534Y-106893662D01*
X118957618Y-106764811D01*
X119003790Y-106712371D01*
X119070983Y-106693219D01*
X119137865Y-106713435D01*
X119182382Y-106764811D01*
X119242464Y-106893658D01*
X119242468Y-106893666D01*
X119369170Y-107074615D01*
X119369175Y-107074621D01*
X119525378Y-107230824D01*
X119525384Y-107230829D01*
X119567759Y-107260500D01*
X119686623Y-107343729D01*
X119730248Y-107398306D01*
X119739500Y-107445304D01*
X119739500Y-107903330D01*
X119739499Y-107903348D01*
X119739499Y-108069054D01*
X119739498Y-108069054D01*
X119739499Y-108069057D01*
X119780423Y-108221785D01*
X119806073Y-108266211D01*
X119859479Y-108358714D01*
X119859481Y-108358717D01*
X119978349Y-108477585D01*
X119978355Y-108477590D01*
X125015139Y-113514374D01*
X125015149Y-113514385D01*
X125019479Y-113518715D01*
X125019480Y-113518716D01*
X125131284Y-113630520D01*
X125218095Y-113680639D01*
X125218097Y-113680641D01*
X125256151Y-113702611D01*
X125268215Y-113709577D01*
X125420943Y-113750501D01*
X125420946Y-113750501D01*
X125586653Y-113750501D01*
X125586669Y-113750500D01*
X153699903Y-113750500D01*
X153766942Y-113770185D01*
X153787584Y-113786819D01*
X155023181Y-115022416D01*
X155056666Y-115083739D01*
X155059500Y-115110097D01*
X155059500Y-123260908D01*
X155039815Y-123327947D01*
X154987914Y-123373286D01*
X154982173Y-123375963D01*
X154982169Y-123375965D01*
X154788597Y-123511505D01*
X154621505Y-123678597D01*
X154491575Y-123864158D01*
X154436998Y-123907783D01*
X154367500Y-123914977D01*
X154305145Y-123883454D01*
X154288425Y-123864158D01*
X154158494Y-123678597D01*
X153991402Y-123511506D01*
X153991395Y-123511501D01*
X153797834Y-123375967D01*
X153797830Y-123375965D01*
X153792085Y-123373286D01*
X153583663Y-123276097D01*
X153583659Y-123276096D01*
X153583655Y-123276094D01*
X153355413Y-123214938D01*
X153355403Y-123214936D01*
X153120001Y-123194341D01*
X153119999Y-123194341D01*
X152884596Y-123214936D01*
X152884586Y-123214938D01*
X152656344Y-123276094D01*
X152656335Y-123276098D01*
X152442171Y-123375964D01*
X152442169Y-123375965D01*
X152248600Y-123511503D01*
X152126673Y-123633430D01*
X152065350Y-123666914D01*
X151995658Y-123661930D01*
X151939725Y-123620058D01*
X151922810Y-123589081D01*
X151873797Y-123457671D01*
X151873793Y-123457664D01*
X151787547Y-123342455D01*
X151787544Y-123342452D01*
X151672335Y-123256206D01*
X151672328Y-123256202D01*
X151537482Y-123205908D01*
X151537483Y-123205908D01*
X151477883Y-123199501D01*
X151477881Y-123199500D01*
X151477873Y-123199500D01*
X151477864Y-123199500D01*
X149682129Y-123199500D01*
X149682123Y-123199501D01*
X149622516Y-123205908D01*
X149487671Y-123256202D01*
X149487664Y-123256206D01*
X149372455Y-123342452D01*
X149372452Y-123342455D01*
X149286206Y-123457664D01*
X149286202Y-123457671D01*
X149235908Y-123592517D01*
X149229501Y-123652116D01*
X149229500Y-123652135D01*
X149229500Y-125447870D01*
X149229501Y-125447876D01*
X149235908Y-125507483D01*
X149286202Y-125642328D01*
X149286206Y-125642335D01*
X149372452Y-125757544D01*
X149372455Y-125757547D01*
X149487664Y-125843793D01*
X149487671Y-125843797D01*
X149622517Y-125894091D01*
X149622516Y-125894091D01*
X149629444Y-125894835D01*
X149682127Y-125900500D01*
X151477872Y-125900499D01*
X151537483Y-125894091D01*
X151672331Y-125843796D01*
X151787546Y-125757546D01*
X151873796Y-125642331D01*
X151922810Y-125510916D01*
X151964681Y-125454984D01*
X152030145Y-125430566D01*
X152098418Y-125445417D01*
X152126673Y-125466569D01*
X152248599Y-125588495D01*
X152345384Y-125656265D01*
X152442165Y-125724032D01*
X152442167Y-125724033D01*
X152442170Y-125724035D01*
X152656337Y-125823903D01*
X152884592Y-125885063D01*
X153061034Y-125900500D01*
X153119999Y-125905659D01*
X153120000Y-125905659D01*
X153120001Y-125905659D01*
X153173171Y-125901007D01*
X153355408Y-125885063D01*
X153583663Y-125823903D01*
X153797830Y-125724035D01*
X153991401Y-125588495D01*
X154158495Y-125421401D01*
X154288425Y-125235842D01*
X154343002Y-125192217D01*
X154412500Y-125185023D01*
X154474855Y-125216546D01*
X154491575Y-125235842D01*
X154621500Y-125421395D01*
X154621505Y-125421401D01*
X154788599Y-125588495D01*
X154885384Y-125656265D01*
X154982165Y-125724032D01*
X154982167Y-125724033D01*
X154982170Y-125724035D01*
X155196337Y-125823903D01*
X155424592Y-125885063D01*
X155601034Y-125900500D01*
X155659999Y-125905659D01*
X155660000Y-125905659D01*
X155660001Y-125905659D01*
X155713171Y-125901007D01*
X155895408Y-125885063D01*
X156123663Y-125823903D01*
X156337830Y-125724035D01*
X156531401Y-125588495D01*
X156698495Y-125421401D01*
X156828425Y-125235842D01*
X156883002Y-125192217D01*
X156952500Y-125185023D01*
X157014855Y-125216546D01*
X157031575Y-125235842D01*
X157161500Y-125421395D01*
X157161505Y-125421401D01*
X157328599Y-125588495D01*
X157425384Y-125656265D01*
X157522165Y-125724032D01*
X157522167Y-125724033D01*
X157522170Y-125724035D01*
X157736337Y-125823903D01*
X157964592Y-125885063D01*
X158141034Y-125900500D01*
X158199999Y-125905659D01*
X158200000Y-125905659D01*
X158200001Y-125905659D01*
X158253171Y-125901007D01*
X158435408Y-125885063D01*
X158663663Y-125823903D01*
X158877830Y-125724035D01*
X159071401Y-125588495D01*
X159238495Y-125421401D01*
X159368425Y-125235842D01*
X159423002Y-125192217D01*
X159492500Y-125185023D01*
X159554855Y-125216546D01*
X159571575Y-125235842D01*
X159701500Y-125421395D01*
X159701505Y-125421401D01*
X159868599Y-125588495D01*
X159965384Y-125656265D01*
X160062165Y-125724032D01*
X160062167Y-125724033D01*
X160062170Y-125724035D01*
X160276337Y-125823903D01*
X160504592Y-125885063D01*
X160681034Y-125900500D01*
X160739999Y-125905659D01*
X160740000Y-125905659D01*
X160740001Y-125905659D01*
X160793171Y-125901007D01*
X160975408Y-125885063D01*
X161203663Y-125823903D01*
X161417830Y-125724035D01*
X161611401Y-125588495D01*
X161778495Y-125421401D01*
X161908425Y-125235842D01*
X161963002Y-125192217D01*
X162032500Y-125185023D01*
X162094855Y-125216546D01*
X162111575Y-125235842D01*
X162241500Y-125421395D01*
X162241505Y-125421401D01*
X162408599Y-125588495D01*
X162505384Y-125656265D01*
X162602165Y-125724032D01*
X162602167Y-125724033D01*
X162602170Y-125724035D01*
X162816337Y-125823903D01*
X163044592Y-125885063D01*
X163221034Y-125900500D01*
X163279999Y-125905659D01*
X163280000Y-125905659D01*
X163280001Y-125905659D01*
X163333171Y-125901007D01*
X163515408Y-125885063D01*
X163743663Y-125823903D01*
X163957830Y-125724035D01*
X164151401Y-125588495D01*
X164318495Y-125421401D01*
X164448425Y-125235842D01*
X164503002Y-125192217D01*
X164572500Y-125185023D01*
X164634855Y-125216546D01*
X164651575Y-125235842D01*
X164781500Y-125421395D01*
X164781505Y-125421401D01*
X164948599Y-125588495D01*
X165045384Y-125656265D01*
X165142165Y-125724032D01*
X165142167Y-125724033D01*
X165142170Y-125724035D01*
X165356337Y-125823903D01*
X165584592Y-125885063D01*
X165761034Y-125900500D01*
X165819999Y-125905659D01*
X165820000Y-125905659D01*
X165820001Y-125905659D01*
X165873171Y-125901007D01*
X166055408Y-125885063D01*
X166283663Y-125823903D01*
X166497830Y-125724035D01*
X166691401Y-125588495D01*
X166858495Y-125421401D01*
X166988425Y-125235842D01*
X167043002Y-125192217D01*
X167112500Y-125185023D01*
X167174855Y-125216546D01*
X167191575Y-125235842D01*
X167321500Y-125421395D01*
X167321505Y-125421401D01*
X167488599Y-125588495D01*
X167585384Y-125656265D01*
X167682165Y-125724032D01*
X167682167Y-125724033D01*
X167682170Y-125724035D01*
X167896337Y-125823903D01*
X168124592Y-125885063D01*
X168301034Y-125900500D01*
X168359999Y-125905659D01*
X168360000Y-125905659D01*
X168360001Y-125905659D01*
X168413171Y-125901007D01*
X168595408Y-125885063D01*
X168823663Y-125823903D01*
X169037830Y-125724035D01*
X169231401Y-125588495D01*
X169398495Y-125421401D01*
X169528425Y-125235842D01*
X169583002Y-125192217D01*
X169652500Y-125185023D01*
X169714855Y-125216546D01*
X169731575Y-125235842D01*
X169861500Y-125421395D01*
X169861505Y-125421401D01*
X170028599Y-125588495D01*
X170125384Y-125656265D01*
X170222165Y-125724032D01*
X170222167Y-125724033D01*
X170222170Y-125724035D01*
X170436337Y-125823903D01*
X170664592Y-125885063D01*
X170841034Y-125900500D01*
X170899999Y-125905659D01*
X170900000Y-125905659D01*
X170900001Y-125905659D01*
X170953171Y-125901007D01*
X171135408Y-125885063D01*
X171363663Y-125823903D01*
X171577830Y-125724035D01*
X171771401Y-125588495D01*
X171938495Y-125421401D01*
X172068425Y-125235842D01*
X172123002Y-125192217D01*
X172192500Y-125185023D01*
X172254855Y-125216546D01*
X172271575Y-125235842D01*
X172401500Y-125421395D01*
X172401505Y-125421401D01*
X172568599Y-125588495D01*
X172665384Y-125656265D01*
X172762165Y-125724032D01*
X172762167Y-125724033D01*
X172762170Y-125724035D01*
X172976337Y-125823903D01*
X173204592Y-125885063D01*
X173381034Y-125900500D01*
X173439999Y-125905659D01*
X173440000Y-125905659D01*
X173440001Y-125905659D01*
X173493171Y-125901007D01*
X173675408Y-125885063D01*
X173903663Y-125823903D01*
X174117830Y-125724035D01*
X174311401Y-125588495D01*
X174478495Y-125421401D01*
X174493482Y-125399997D01*
X181144652Y-125399997D01*
X181144652Y-125400002D01*
X181150480Y-125507483D01*
X181162220Y-125724032D01*
X181164028Y-125757368D01*
X181164029Y-125757385D01*
X181221926Y-126110539D01*
X181221932Y-126110565D01*
X181317672Y-126455392D01*
X181317674Y-126455399D01*
X181450142Y-126787870D01*
X181450151Y-126787888D01*
X181617784Y-127104077D01*
X181617787Y-127104082D01*
X181617789Y-127104085D01*
X181740178Y-127284596D01*
X181818634Y-127400309D01*
X181818641Y-127400319D01*
X182024661Y-127642864D01*
X182050332Y-127673086D01*
X182310163Y-127919211D01*
X182595081Y-128135800D01*
X182901747Y-128320315D01*
X182901749Y-128320316D01*
X182901751Y-128320317D01*
X182901755Y-128320319D01*
X183055400Y-128391402D01*
X183226565Y-128470591D01*
X183565726Y-128584868D01*
X183915254Y-128661805D01*
X184271052Y-128700500D01*
X184271058Y-128700500D01*
X184628942Y-128700500D01*
X184628948Y-128700500D01*
X184984746Y-128661805D01*
X185334274Y-128584868D01*
X185673435Y-128470591D01*
X185998253Y-128320315D01*
X186304919Y-128135800D01*
X186589837Y-127919211D01*
X186849668Y-127673086D01*
X187081365Y-127400311D01*
X187282211Y-127104085D01*
X187449853Y-126787880D01*
X187582324Y-126455403D01*
X187678071Y-126110552D01*
X187695891Y-126001848D01*
X187735970Y-125757385D01*
X187735970Y-125757382D01*
X187735972Y-125757371D01*
X187755348Y-125400000D01*
X187735972Y-125042629D01*
X187732595Y-125022032D01*
X187678073Y-124689460D01*
X187678072Y-124689459D01*
X187678071Y-124689448D01*
X187630007Y-124516335D01*
X187582327Y-124344607D01*
X187582325Y-124344600D01*
X187570370Y-124314596D01*
X187509286Y-124161286D01*
X187449857Y-124012129D01*
X187449848Y-124012111D01*
X187443088Y-123999361D01*
X187297057Y-123723917D01*
X187282215Y-123695922D01*
X187282213Y-123695919D01*
X187282211Y-123695915D01*
X187081365Y-123399689D01*
X187081361Y-123399684D01*
X187081358Y-123399680D01*
X186849668Y-123126914D01*
X186725290Y-123009097D01*
X186589837Y-122880789D01*
X186589830Y-122880783D01*
X186589827Y-122880781D01*
X186522245Y-122829407D01*
X186304919Y-122664200D01*
X185998253Y-122479685D01*
X185998252Y-122479684D01*
X185998248Y-122479682D01*
X185998244Y-122479680D01*
X185673447Y-122329414D01*
X185673441Y-122329411D01*
X185673435Y-122329409D01*
X185503854Y-122272270D01*
X185334273Y-122215131D01*
X184984744Y-122138194D01*
X184628949Y-122099500D01*
X184628948Y-122099500D01*
X184271052Y-122099500D01*
X184271050Y-122099500D01*
X183915255Y-122138194D01*
X183565726Y-122215131D01*
X183309970Y-122301306D01*
X183226565Y-122329409D01*
X183226563Y-122329410D01*
X183226552Y-122329414D01*
X182901755Y-122479680D01*
X182901751Y-122479682D01*
X182673367Y-122617096D01*
X182595081Y-122664200D01*
X182580331Y-122675413D01*
X182310172Y-122880781D01*
X182310163Y-122880789D01*
X182050331Y-123126914D01*
X181818641Y-123399680D01*
X181818634Y-123399690D01*
X181617790Y-123695913D01*
X181617784Y-123695922D01*
X181450151Y-124012111D01*
X181450142Y-124012129D01*
X181317674Y-124344600D01*
X181317672Y-124344607D01*
X181221932Y-124689434D01*
X181221926Y-124689460D01*
X181164029Y-125042614D01*
X181164028Y-125042627D01*
X181164028Y-125042629D01*
X181159264Y-125130500D01*
X181144652Y-125399997D01*
X174493482Y-125399997D01*
X174614035Y-125227830D01*
X174713903Y-125013663D01*
X174775063Y-124785408D01*
X174795659Y-124550000D01*
X174775063Y-124314592D01*
X174719868Y-124108599D01*
X174713905Y-124086344D01*
X174713904Y-124086343D01*
X174713903Y-124086337D01*
X174614035Y-123872171D01*
X174608425Y-123864158D01*
X174478494Y-123678597D01*
X174311402Y-123511506D01*
X174311395Y-123511501D01*
X174117834Y-123375967D01*
X174117830Y-123375965D01*
X174112085Y-123373286D01*
X173903663Y-123276097D01*
X173903659Y-123276096D01*
X173903655Y-123276094D01*
X173675413Y-123214938D01*
X173675403Y-123214936D01*
X173440001Y-123194341D01*
X173439999Y-123194341D01*
X173204596Y-123214936D01*
X173204583Y-123214939D01*
X173076241Y-123249327D01*
X173006392Y-123247664D01*
X172956468Y-123217233D01*
X160671370Y-110932135D01*
X172449500Y-110932135D01*
X172449500Y-113627870D01*
X172449501Y-113627876D01*
X172455908Y-113687483D01*
X172506202Y-113822328D01*
X172506206Y-113822335D01*
X172592452Y-113937544D01*
X172592455Y-113937547D01*
X172707664Y-114023793D01*
X172707671Y-114023797D01*
X172842517Y-114074091D01*
X172842516Y-114074091D01*
X172849444Y-114074835D01*
X172902127Y-114080500D01*
X175597872Y-114080499D01*
X175657483Y-114074091D01*
X175792331Y-114023796D01*
X175907546Y-113937546D01*
X175993796Y-113822331D01*
X176044091Y-113687483D01*
X176050500Y-113627873D01*
X176050499Y-110932128D01*
X176044091Y-110872517D01*
X175993796Y-110737669D01*
X175993795Y-110737668D01*
X175993793Y-110737664D01*
X175907547Y-110622455D01*
X175907544Y-110622452D01*
X175792335Y-110536206D01*
X175792328Y-110536202D01*
X175657482Y-110485908D01*
X175657483Y-110485908D01*
X175597883Y-110479501D01*
X175597881Y-110479500D01*
X175597873Y-110479500D01*
X175597864Y-110479500D01*
X172902129Y-110479500D01*
X172902123Y-110479501D01*
X172842516Y-110485908D01*
X172707671Y-110536202D01*
X172707664Y-110536206D01*
X172592455Y-110622452D01*
X172592452Y-110622455D01*
X172506206Y-110737664D01*
X172506202Y-110737671D01*
X172455908Y-110872517D01*
X172449501Y-110932116D01*
X172449501Y-110932123D01*
X172449500Y-110932135D01*
X160671370Y-110932135D01*
X159527590Y-109788355D01*
X159527588Y-109788352D01*
X159408717Y-109669481D01*
X159408716Y-109669480D01*
X159321904Y-109619360D01*
X159321904Y-109619359D01*
X159321900Y-109619358D01*
X159271785Y-109590423D01*
X159119057Y-109549499D01*
X158960943Y-109549499D01*
X158953347Y-109549499D01*
X158953331Y-109549500D01*
X142310098Y-109549500D01*
X142243059Y-109529815D01*
X142222417Y-109513181D01*
X141472887Y-108763651D01*
X140436860Y-107727625D01*
X140403376Y-107666303D01*
X140408360Y-107596611D01*
X140450232Y-107540678D01*
X140515696Y-107516261D01*
X140535339Y-107516416D01*
X140647654Y-107526242D01*
X140659999Y-107527323D01*
X140660000Y-107527323D01*
X140660002Y-107527323D01*
X140715017Y-107522509D01*
X140880068Y-107508070D01*
X141093450Y-107450894D01*
X141293662Y-107357534D01*
X141474620Y-107230826D01*
X141630826Y-107074620D01*
X141757534Y-106893662D01*
X141817618Y-106764811D01*
X141863790Y-106712371D01*
X141930983Y-106693219D01*
X141997865Y-106713435D01*
X142042382Y-106764811D01*
X142102464Y-106893658D01*
X142102468Y-106893666D01*
X142229170Y-107074615D01*
X142229175Y-107074621D01*
X142385378Y-107230824D01*
X142385384Y-107230829D01*
X142566333Y-107357531D01*
X142566335Y-107357532D01*
X142566338Y-107357534D01*
X142766550Y-107450894D01*
X142979932Y-107508070D01*
X143126743Y-107520914D01*
X143199998Y-107527323D01*
X143200000Y-107527323D01*
X143200002Y-107527323D01*
X143255017Y-107522509D01*
X143420068Y-107508070D01*
X143633450Y-107450894D01*
X143833662Y-107357534D01*
X144014620Y-107230826D01*
X144170826Y-107074620D01*
X144297534Y-106893662D01*
X144357618Y-106764811D01*
X144403790Y-106712371D01*
X144470983Y-106693219D01*
X144537865Y-106713435D01*
X144582382Y-106764811D01*
X144642464Y-106893658D01*
X144642468Y-106893666D01*
X144769170Y-107074615D01*
X144769175Y-107074621D01*
X144925378Y-107230824D01*
X144925384Y-107230829D01*
X145106333Y-107357531D01*
X145106335Y-107357532D01*
X145106338Y-107357534D01*
X145306550Y-107450894D01*
X145519932Y-107508070D01*
X145666743Y-107520914D01*
X145739998Y-107527323D01*
X145740000Y-107527323D01*
X145740002Y-107527323D01*
X145795017Y-107522509D01*
X145960068Y-107508070D01*
X146173450Y-107450894D01*
X146373662Y-107357534D01*
X146554620Y-107230826D01*
X146710826Y-107074620D01*
X146837534Y-106893662D01*
X146897618Y-106764811D01*
X146943790Y-106712371D01*
X147010983Y-106693219D01*
X147077865Y-106713435D01*
X147122382Y-106764811D01*
X147182464Y-106893658D01*
X147182468Y-106893666D01*
X147309170Y-107074615D01*
X147309175Y-107074621D01*
X147465378Y-107230824D01*
X147465384Y-107230829D01*
X147646333Y-107357531D01*
X147646335Y-107357532D01*
X147646338Y-107357534D01*
X147846550Y-107450894D01*
X148059932Y-107508070D01*
X148206743Y-107520914D01*
X148279998Y-107527323D01*
X148280000Y-107527323D01*
X148280002Y-107527323D01*
X148335017Y-107522509D01*
X148500068Y-107508070D01*
X148713450Y-107450894D01*
X148913662Y-107357534D01*
X149094620Y-107230826D01*
X149125451Y-107199995D01*
X172444451Y-107199995D01*
X172444451Y-107200004D01*
X172464616Y-107469101D01*
X172524664Y-107732188D01*
X172524666Y-107732195D01*
X172594818Y-107910939D01*
X172623257Y-107983398D01*
X172758185Y-108217102D01*
X172871117Y-108358714D01*
X172926442Y-108428089D01*
X173113183Y-108601358D01*
X173124259Y-108611635D01*
X173347226Y-108763651D01*
X173590359Y-108880738D01*
X173848228Y-108960280D01*
X173848229Y-108960280D01*
X173848232Y-108960281D01*
X174115063Y-109000499D01*
X174115068Y-109000499D01*
X174115071Y-109000500D01*
X174115072Y-109000500D01*
X174384928Y-109000500D01*
X174384929Y-109000500D01*
X174384936Y-109000499D01*
X174651767Y-108960281D01*
X174651768Y-108960280D01*
X174651772Y-108960280D01*
X174909641Y-108880738D01*
X175152775Y-108763651D01*
X175375741Y-108611635D01*
X175573561Y-108428085D01*
X175741815Y-108217102D01*
X175876743Y-107983398D01*
X175975334Y-107732195D01*
X176035383Y-107469103D01*
X176051015Y-107260500D01*
X176055549Y-107200004D01*
X176055549Y-107199995D01*
X176035383Y-106930898D01*
X176027825Y-106897785D01*
X175975334Y-106667805D01*
X175876743Y-106416602D01*
X175741815Y-106182898D01*
X175573561Y-105971915D01*
X175573560Y-105971914D01*
X175573557Y-105971910D01*
X175375741Y-105788365D01*
X175327081Y-105755189D01*
X175152775Y-105636349D01*
X175152769Y-105636346D01*
X175152768Y-105636345D01*
X175152767Y-105636344D01*
X174909643Y-105519263D01*
X174909645Y-105519263D01*
X174651773Y-105439720D01*
X174651767Y-105439718D01*
X174384936Y-105399500D01*
X174384929Y-105399500D01*
X174115071Y-105399500D01*
X174115063Y-105399500D01*
X173848232Y-105439718D01*
X173848226Y-105439720D01*
X173590358Y-105519262D01*
X173347230Y-105636346D01*
X173124258Y-105788365D01*
X172926442Y-105971910D01*
X172758185Y-106182898D01*
X172623258Y-106416599D01*
X172623256Y-106416603D01*
X172524666Y-106667804D01*
X172524664Y-106667811D01*
X172464616Y-106930898D01*
X172444451Y-107199995D01*
X149125451Y-107199995D01*
X149250826Y-107074620D01*
X149377534Y-106893662D01*
X149470894Y-106693450D01*
X149528070Y-106480068D01*
X149547323Y-106260000D01*
X149528070Y-106039932D01*
X149470894Y-105826550D01*
X149377534Y-105626339D01*
X149250826Y-105445380D01*
X149094620Y-105289174D01*
X149094616Y-105289171D01*
X149094615Y-105289170D01*
X148913666Y-105162468D01*
X148913662Y-105162466D01*
X148913660Y-105162465D01*
X148713450Y-105069106D01*
X148713447Y-105069105D01*
X148713445Y-105069104D01*
X148500070Y-105011930D01*
X148500062Y-105011929D01*
X148280002Y-104992677D01*
X148279998Y-104992677D01*
X148059937Y-105011929D01*
X148059929Y-105011930D01*
X147846554Y-105069104D01*
X147846548Y-105069107D01*
X147646340Y-105162465D01*
X147646338Y-105162466D01*
X147465377Y-105289175D01*
X147309175Y-105445377D01*
X147182466Y-105626338D01*
X147182465Y-105626340D01*
X147122382Y-105755189D01*
X147076209Y-105807628D01*
X147009016Y-105826780D01*
X146942135Y-105806564D01*
X146897618Y-105755189D01*
X146879059Y-105715390D01*
X146837534Y-105626339D01*
X146710826Y-105445380D01*
X146554620Y-105289174D01*
X146554616Y-105289171D01*
X146554615Y-105289170D01*
X146373666Y-105162468D01*
X146373662Y-105162466D01*
X146373660Y-105162465D01*
X146173450Y-105069106D01*
X146173447Y-105069105D01*
X146173445Y-105069104D01*
X145960070Y-105011930D01*
X145960062Y-105011929D01*
X145740002Y-104992677D01*
X145739998Y-104992677D01*
X145519937Y-105011929D01*
X145519929Y-105011930D01*
X145306554Y-105069104D01*
X145306548Y-105069107D01*
X145106340Y-105162465D01*
X145106338Y-105162466D01*
X144925377Y-105289175D01*
X144769175Y-105445377D01*
X144642466Y-105626338D01*
X144642465Y-105626340D01*
X144582382Y-105755189D01*
X144536209Y-105807628D01*
X144469016Y-105826780D01*
X144402135Y-105806564D01*
X144357618Y-105755189D01*
X144339059Y-105715390D01*
X144297534Y-105626339D01*
X144170826Y-105445380D01*
X144014620Y-105289174D01*
X144014616Y-105289171D01*
X144014615Y-105289170D01*
X143833666Y-105162468D01*
X143833662Y-105162466D01*
X143833660Y-105162465D01*
X143633450Y-105069106D01*
X143633447Y-105069105D01*
X143633445Y-105069104D01*
X143420070Y-105011930D01*
X143420062Y-105011929D01*
X143200002Y-104992677D01*
X143199998Y-104992677D01*
X142979937Y-105011929D01*
X142979929Y-105011930D01*
X142766554Y-105069104D01*
X142766548Y-105069107D01*
X142566340Y-105162465D01*
X142566338Y-105162466D01*
X142385377Y-105289175D01*
X142229175Y-105445377D01*
X142102466Y-105626338D01*
X142102465Y-105626340D01*
X142042382Y-105755189D01*
X141996209Y-105807628D01*
X141929016Y-105826780D01*
X141862135Y-105806564D01*
X141817618Y-105755189D01*
X141799059Y-105715390D01*
X141757534Y-105626339D01*
X141630826Y-105445380D01*
X141474620Y-105289174D01*
X141474616Y-105289171D01*
X141474615Y-105289170D01*
X141293666Y-105162468D01*
X141293662Y-105162466D01*
X141293660Y-105162465D01*
X141093450Y-105069106D01*
X141093447Y-105069105D01*
X141093445Y-105069104D01*
X140880070Y-105011930D01*
X140880062Y-105011929D01*
X140660002Y-104992677D01*
X140659998Y-104992677D01*
X140439937Y-105011929D01*
X140439929Y-105011930D01*
X140226554Y-105069104D01*
X140226548Y-105069107D01*
X140026340Y-105162465D01*
X140026338Y-105162466D01*
X139845377Y-105289175D01*
X139689175Y-105445377D01*
X139562466Y-105626338D01*
X139562465Y-105626340D01*
X139502382Y-105755189D01*
X139456209Y-105807628D01*
X139389016Y-105826780D01*
X139322135Y-105806564D01*
X139277618Y-105755189D01*
X139259059Y-105715390D01*
X139217534Y-105626339D01*
X139090826Y-105445380D01*
X138934620Y-105289174D01*
X138934616Y-105289171D01*
X138934615Y-105289170D01*
X138753666Y-105162468D01*
X138753662Y-105162466D01*
X138753660Y-105162465D01*
X138553450Y-105069106D01*
X138553447Y-105069105D01*
X138553445Y-105069104D01*
X138340070Y-105011930D01*
X138340062Y-105011929D01*
X138120002Y-104992677D01*
X138119998Y-104992677D01*
X137899937Y-105011929D01*
X137899929Y-105011930D01*
X137686554Y-105069104D01*
X137686548Y-105069107D01*
X137486340Y-105162465D01*
X137486338Y-105162466D01*
X137305377Y-105289175D01*
X137149175Y-105445377D01*
X137022466Y-105626338D01*
X137022465Y-105626340D01*
X136962382Y-105755189D01*
X136916209Y-105807628D01*
X136849016Y-105826780D01*
X136782135Y-105806564D01*
X136737618Y-105755189D01*
X136719059Y-105715390D01*
X136677534Y-105626339D01*
X136550826Y-105445380D01*
X136394620Y-105289174D01*
X136394616Y-105289171D01*
X136394615Y-105289170D01*
X136213666Y-105162468D01*
X136213662Y-105162466D01*
X136213660Y-105162465D01*
X136013450Y-105069106D01*
X136013447Y-105069105D01*
X136013445Y-105069104D01*
X135800070Y-105011930D01*
X135800062Y-105011929D01*
X135580002Y-104992677D01*
X135579998Y-104992677D01*
X135359937Y-105011929D01*
X135359929Y-105011930D01*
X135146554Y-105069104D01*
X135146548Y-105069107D01*
X134946340Y-105162465D01*
X134946338Y-105162466D01*
X134765377Y-105289175D01*
X134609175Y-105445377D01*
X134482466Y-105626338D01*
X134482465Y-105626340D01*
X134422382Y-105755189D01*
X134376209Y-105807628D01*
X134309016Y-105826780D01*
X134242135Y-105806564D01*
X134197618Y-105755189D01*
X134179059Y-105715390D01*
X134137534Y-105626339D01*
X134010826Y-105445380D01*
X133854620Y-105289174D01*
X133854616Y-105289171D01*
X133854615Y-105289170D01*
X133673666Y-105162468D01*
X133673662Y-105162466D01*
X133673660Y-105162465D01*
X133473450Y-105069106D01*
X133473447Y-105069105D01*
X133473445Y-105069104D01*
X133260070Y-105011930D01*
X133260062Y-105011929D01*
X133040002Y-104992677D01*
X133039998Y-104992677D01*
X132819937Y-105011929D01*
X132819929Y-105011930D01*
X132606554Y-105069104D01*
X132606548Y-105069107D01*
X132406340Y-105162465D01*
X132406338Y-105162466D01*
X132225377Y-105289175D01*
X132069175Y-105445377D01*
X131942466Y-105626338D01*
X131942465Y-105626340D01*
X131882382Y-105755189D01*
X131836209Y-105807628D01*
X131769016Y-105826780D01*
X131702135Y-105806564D01*
X131657618Y-105755189D01*
X131639059Y-105715390D01*
X131597534Y-105626339D01*
X131470826Y-105445380D01*
X131314620Y-105289174D01*
X131314616Y-105289171D01*
X131314615Y-105289170D01*
X131133666Y-105162468D01*
X131133662Y-105162466D01*
X131133660Y-105162465D01*
X130933450Y-105069106D01*
X130933447Y-105069105D01*
X130933445Y-105069104D01*
X130720070Y-105011930D01*
X130720062Y-105011929D01*
X130500002Y-104992677D01*
X130499998Y-104992677D01*
X130279937Y-105011929D01*
X130279929Y-105011930D01*
X130066554Y-105069104D01*
X130066548Y-105069107D01*
X129866340Y-105162465D01*
X129866338Y-105162466D01*
X129685377Y-105289175D01*
X129529175Y-105445377D01*
X129402466Y-105626338D01*
X129402465Y-105626340D01*
X129342382Y-105755189D01*
X129296209Y-105807628D01*
X129229016Y-105826780D01*
X129162135Y-105806564D01*
X129117618Y-105755189D01*
X129099059Y-105715390D01*
X129057534Y-105626339D01*
X128930826Y-105445380D01*
X128774620Y-105289174D01*
X128774616Y-105289171D01*
X128774615Y-105289170D01*
X128593666Y-105162468D01*
X128593662Y-105162466D01*
X128593660Y-105162465D01*
X128393450Y-105069106D01*
X128393447Y-105069105D01*
X128393445Y-105069104D01*
X128180070Y-105011930D01*
X128180062Y-105011929D01*
X127960002Y-104992677D01*
X127959998Y-104992677D01*
X127739937Y-105011929D01*
X127739929Y-105011930D01*
X127526554Y-105069104D01*
X127526548Y-105069107D01*
X127326340Y-105162465D01*
X127326338Y-105162466D01*
X127145377Y-105289175D01*
X126989175Y-105445377D01*
X126862466Y-105626338D01*
X126862465Y-105626340D01*
X126802382Y-105755189D01*
X126756209Y-105807628D01*
X126689016Y-105826780D01*
X126622135Y-105806564D01*
X126577618Y-105755189D01*
X126559059Y-105715390D01*
X126517534Y-105626339D01*
X126390826Y-105445380D01*
X126234620Y-105289174D01*
X126234616Y-105289171D01*
X126234615Y-105289170D01*
X126053666Y-105162468D01*
X126053662Y-105162466D01*
X126053660Y-105162465D01*
X125853450Y-105069106D01*
X125853447Y-105069105D01*
X125853445Y-105069104D01*
X125640070Y-105011930D01*
X125640062Y-105011929D01*
X125420002Y-104992677D01*
X125419998Y-104992677D01*
X125199937Y-105011929D01*
X125199929Y-105011930D01*
X124986554Y-105069104D01*
X124986548Y-105069107D01*
X124786340Y-105162465D01*
X124786338Y-105162466D01*
X124605377Y-105289175D01*
X124449175Y-105445377D01*
X124322466Y-105626338D01*
X124322465Y-105626340D01*
X124262382Y-105755189D01*
X124216209Y-105807628D01*
X124149016Y-105826780D01*
X124082135Y-105806564D01*
X124037618Y-105755189D01*
X124019059Y-105715390D01*
X123977534Y-105626339D01*
X123850826Y-105445380D01*
X123694620Y-105289174D01*
X123694616Y-105289171D01*
X123694615Y-105289170D01*
X123513666Y-105162468D01*
X123513662Y-105162466D01*
X123513660Y-105162465D01*
X123313450Y-105069106D01*
X123313447Y-105069105D01*
X123313445Y-105069104D01*
X123100070Y-105011930D01*
X123100062Y-105011929D01*
X122880002Y-104992677D01*
X122879998Y-104992677D01*
X122659937Y-105011929D01*
X122659929Y-105011930D01*
X122446554Y-105069104D01*
X122446548Y-105069107D01*
X122246340Y-105162465D01*
X122246338Y-105162466D01*
X122065377Y-105289175D01*
X121909175Y-105445377D01*
X121782466Y-105626338D01*
X121782465Y-105626340D01*
X121722382Y-105755189D01*
X121676209Y-105807628D01*
X121609016Y-105826780D01*
X121542135Y-105806564D01*
X121497618Y-105755189D01*
X121479059Y-105715390D01*
X121437534Y-105626339D01*
X121310826Y-105445380D01*
X121154620Y-105289174D01*
X121154616Y-105289171D01*
X121154615Y-105289170D01*
X120973666Y-105162468D01*
X120973662Y-105162466D01*
X120973660Y-105162465D01*
X120773450Y-105069106D01*
X120773447Y-105069105D01*
X120773445Y-105069104D01*
X120560070Y-105011930D01*
X120560062Y-105011929D01*
X120340002Y-104992677D01*
X120339998Y-104992677D01*
X120119937Y-105011929D01*
X120119929Y-105011930D01*
X119906554Y-105069104D01*
X119906548Y-105069107D01*
X119706340Y-105162465D01*
X119706338Y-105162466D01*
X119525377Y-105289175D01*
X119369175Y-105445377D01*
X119242466Y-105626338D01*
X119242465Y-105626340D01*
X119182382Y-105755189D01*
X119136209Y-105807628D01*
X119069016Y-105826780D01*
X119002135Y-105806564D01*
X118957618Y-105755189D01*
X118939059Y-105715390D01*
X118897534Y-105626339D01*
X118770826Y-105445380D01*
X118614620Y-105289174D01*
X118614616Y-105289171D01*
X118614615Y-105289170D01*
X118433666Y-105162468D01*
X118433662Y-105162466D01*
X118433660Y-105162465D01*
X118233450Y-105069106D01*
X118233447Y-105069105D01*
X118233445Y-105069104D01*
X118020070Y-105011930D01*
X118020062Y-105011929D01*
X117800002Y-104992677D01*
X117799998Y-104992677D01*
X117579937Y-105011929D01*
X117579929Y-105011930D01*
X117366554Y-105069104D01*
X117366548Y-105069107D01*
X117166340Y-105162465D01*
X117166338Y-105162466D01*
X116985377Y-105289175D01*
X116829175Y-105445377D01*
X116702466Y-105626338D01*
X116702465Y-105626340D01*
X116609107Y-105826548D01*
X116609104Y-105826554D01*
X116551930Y-106039929D01*
X116551929Y-106039937D01*
X116532677Y-106259997D01*
X103560500Y-106259997D01*
X103560500Y-106161456D01*
X103522052Y-105968170D01*
X103522051Y-105968169D01*
X103522051Y-105968165D01*
X103463488Y-105826780D01*
X103446635Y-105786092D01*
X103446628Y-105786079D01*
X103337139Y-105622218D01*
X103337136Y-105622214D01*
X103197785Y-105482863D01*
X103197781Y-105482860D01*
X103033920Y-105373371D01*
X103033907Y-105373364D01*
X102851839Y-105297950D01*
X102851829Y-105297947D01*
X102658543Y-105259500D01*
X102658541Y-105259500D01*
X102461459Y-105259500D01*
X102461457Y-105259500D01*
X102268170Y-105297947D01*
X102268160Y-105297950D01*
X102086092Y-105373364D01*
X102086078Y-105373372D01*
X102057164Y-105392691D01*
X101990486Y-105413567D01*
X101923106Y-105395081D01*
X101876418Y-105343100D01*
X101864277Y-105289750D01*
X101860618Y-102441684D01*
X101880217Y-102374623D01*
X101932962Y-102328800D01*
X102002107Y-102318768D01*
X102037016Y-102329144D01*
X102126550Y-102370894D01*
X102339932Y-102428070D01*
X102495544Y-102441684D01*
X102559998Y-102447323D01*
X102560000Y-102447323D01*
X102560002Y-102447323D01*
X102615017Y-102442509D01*
X102780068Y-102428070D01*
X102993450Y-102370894D01*
X103193662Y-102277534D01*
X103374620Y-102150826D01*
X103530826Y-101994620D01*
X103657534Y-101813662D01*
X103750894Y-101613450D01*
X103808070Y-101400068D01*
X103827323Y-101180000D01*
X103808070Y-100959932D01*
X103750894Y-100746550D01*
X103657534Y-100546339D01*
X103530826Y-100365380D01*
X103374620Y-100209174D01*
X103374616Y-100209171D01*
X103374615Y-100209170D01*
X103193666Y-100082468D01*
X103193658Y-100082464D01*
X103064811Y-100022382D01*
X103012371Y-99976210D01*
X102993219Y-99909017D01*
X103013435Y-99842135D01*
X103064811Y-99797618D01*
X103070802Y-99794824D01*
X103193662Y-99737534D01*
X103374620Y-99610826D01*
X103530826Y-99454620D01*
X103657534Y-99273662D01*
X103750894Y-99073450D01*
X103808070Y-98860068D01*
X103827323Y-98640000D01*
X103808070Y-98419932D01*
X103750894Y-98206550D01*
X103657534Y-98006339D01*
X103530826Y-97825380D01*
X103374620Y-97669174D01*
X103374616Y-97669171D01*
X103374615Y-97669170D01*
X103193666Y-97542468D01*
X103193662Y-97542466D01*
X103187364Y-97539529D01*
X102993450Y-97449106D01*
X102993447Y-97449105D01*
X102993445Y-97449104D01*
X102780070Y-97391930D01*
X102780062Y-97391929D01*
X102560002Y-97372677D01*
X102559998Y-97372677D01*
X102339937Y-97391929D01*
X102339929Y-97391930D01*
X102126554Y-97449104D01*
X102126543Y-97449108D01*
X102030522Y-97493884D01*
X101961445Y-97504376D01*
X101897661Y-97475856D01*
X101859422Y-97417379D01*
X101854119Y-97381667D01*
X101847560Y-92275597D01*
X101867159Y-92208534D01*
X101919904Y-92162711D01*
X101989049Y-92152679D01*
X102023958Y-92163055D01*
X102126550Y-92210894D01*
X102339932Y-92268070D01*
X102497123Y-92281822D01*
X102559998Y-92287323D01*
X102560000Y-92287323D01*
X102560002Y-92287323D01*
X102615017Y-92282509D01*
X102780068Y-92268070D01*
X102993450Y-92210894D01*
X103193662Y-92117534D01*
X103374620Y-91990826D01*
X103530826Y-91834620D01*
X103657534Y-91653662D01*
X103750894Y-91453450D01*
X103808070Y-91240068D01*
X103827323Y-91020000D01*
X103808070Y-90799932D01*
X103750894Y-90586550D01*
X103657534Y-90386339D01*
X103530826Y-90205380D01*
X103374620Y-90049174D01*
X103374616Y-90049171D01*
X103374615Y-90049170D01*
X103193666Y-89922468D01*
X103193658Y-89922464D01*
X103064811Y-89862382D01*
X103012371Y-89816210D01*
X102993219Y-89749017D01*
X103013435Y-89682135D01*
X103064811Y-89637618D01*
X103070802Y-89634824D01*
X103193662Y-89577534D01*
X103374620Y-89450826D01*
X103530826Y-89294620D01*
X103657534Y-89113662D01*
X103750894Y-88913450D01*
X103808070Y-88700068D01*
X103827323Y-88480000D01*
X103808070Y-88259932D01*
X103750894Y-88046550D01*
X103657534Y-87846339D01*
X103530826Y-87665380D01*
X103374620Y-87509174D01*
X103374616Y-87509171D01*
X103374615Y-87509170D01*
X103193666Y-87382468D01*
X103193662Y-87382466D01*
X103102520Y-87339966D01*
X102993450Y-87289106D01*
X102993447Y-87289105D01*
X102993445Y-87289104D01*
X102780070Y-87231930D01*
X102780062Y-87231929D01*
X102560002Y-87212677D01*
X102559998Y-87212677D01*
X102339937Y-87231929D01*
X102339929Y-87231930D01*
X102126554Y-87289104D01*
X102126543Y-87289108D01*
X102017479Y-87339966D01*
X101948402Y-87350458D01*
X101884618Y-87321938D01*
X101846379Y-87263461D01*
X101841076Y-87227750D01*
X101837382Y-84352597D01*
X101856981Y-84285537D01*
X101909726Y-84239714D01*
X101978871Y-84229682D01*
X102030272Y-84249339D01*
X102086081Y-84286629D01*
X102086092Y-84286635D01*
X102245341Y-84352597D01*
X102268165Y-84362051D01*
X102268169Y-84362051D01*
X102268170Y-84362052D01*
X102461456Y-84400500D01*
X102461459Y-84400500D01*
X102658543Y-84400500D01*
X102788582Y-84374632D01*
X102851835Y-84362051D01*
X103033914Y-84286632D01*
X103197782Y-84177139D01*
X103337139Y-84037782D01*
X103446632Y-83873914D01*
X103522051Y-83691835D01*
X103560500Y-83498541D01*
X103560500Y-83399997D01*
X116532677Y-83399997D01*
X116532677Y-83400002D01*
X116551929Y-83620062D01*
X116551930Y-83620070D01*
X116609104Y-83833445D01*
X116609105Y-83833447D01*
X116609106Y-83833450D01*
X116642382Y-83904811D01*
X116702466Y-84033662D01*
X116702468Y-84033666D01*
X116829170Y-84214615D01*
X116829175Y-84214621D01*
X116985378Y-84370824D01*
X116985384Y-84370829D01*
X117166333Y-84497531D01*
X117166335Y-84497532D01*
X117166338Y-84497534D01*
X117366550Y-84590894D01*
X117579932Y-84648070D01*
X117737123Y-84661822D01*
X117799998Y-84667323D01*
X117800000Y-84667323D01*
X117800002Y-84667323D01*
X117855017Y-84662509D01*
X118020068Y-84648070D01*
X118233450Y-84590894D01*
X118433662Y-84497534D01*
X118614620Y-84370826D01*
X118770826Y-84214620D01*
X118897534Y-84033662D01*
X118957618Y-83904811D01*
X119003790Y-83852371D01*
X119070983Y-83833219D01*
X119137865Y-83853435D01*
X119182382Y-83904811D01*
X119242464Y-84033658D01*
X119242468Y-84033666D01*
X119369170Y-84214615D01*
X119369175Y-84214621D01*
X119525378Y-84370824D01*
X119525384Y-84370829D01*
X119706333Y-84497531D01*
X119706335Y-84497532D01*
X119706338Y-84497534D01*
X119906550Y-84590894D01*
X120119932Y-84648070D01*
X120277123Y-84661822D01*
X120339998Y-84667323D01*
X120340000Y-84667323D01*
X120340002Y-84667323D01*
X120395017Y-84662509D01*
X120560068Y-84648070D01*
X120773450Y-84590894D01*
X120973662Y-84497534D01*
X121154620Y-84370826D01*
X121310826Y-84214620D01*
X121437534Y-84033662D01*
X121497618Y-83904811D01*
X121543790Y-83852371D01*
X121610983Y-83833219D01*
X121677865Y-83853435D01*
X121722382Y-83904811D01*
X121782464Y-84033658D01*
X121782468Y-84033666D01*
X121909170Y-84214615D01*
X121909175Y-84214621D01*
X122065378Y-84370824D01*
X122065384Y-84370829D01*
X122246333Y-84497531D01*
X122246335Y-84497532D01*
X122246338Y-84497534D01*
X122446550Y-84590894D01*
X122659932Y-84648070D01*
X122817123Y-84661822D01*
X122879998Y-84667323D01*
X122880000Y-84667323D01*
X122880002Y-84667323D01*
X122935017Y-84662509D01*
X123100068Y-84648070D01*
X123313450Y-84590894D01*
X123513662Y-84497534D01*
X123694620Y-84370826D01*
X123850826Y-84214620D01*
X123977534Y-84033662D01*
X124037618Y-83904811D01*
X124083790Y-83852371D01*
X124150983Y-83833219D01*
X124217865Y-83853435D01*
X124262382Y-83904811D01*
X124322464Y-84033658D01*
X124322468Y-84033666D01*
X124449170Y-84214615D01*
X124449174Y-84214620D01*
X124605380Y-84370826D01*
X124766623Y-84483729D01*
X124810248Y-84538306D01*
X124819500Y-84585304D01*
X124819500Y-86333330D01*
X124819499Y-86333348D01*
X124819499Y-86499054D01*
X124819498Y-86499054D01*
X124860423Y-86651785D01*
X124889358Y-86701900D01*
X124889359Y-86701904D01*
X124889360Y-86701904D01*
X124939479Y-86788714D01*
X124939481Y-86788717D01*
X125058349Y-86907585D01*
X125058355Y-86907590D01*
X126315137Y-88164372D01*
X126346327Y-88221492D01*
X126347396Y-88221206D01*
X126348576Y-88225611D01*
X126348622Y-88225695D01*
X126348665Y-88225943D01*
X126349499Y-88229055D01*
X126349499Y-88229057D01*
X126390423Y-88381785D01*
X126392669Y-88385675D01*
X126392670Y-88385676D01*
X126392670Y-88385677D01*
X126469477Y-88518712D01*
X126469481Y-88518717D01*
X126588349Y-88637585D01*
X126588355Y-88637590D01*
X135265139Y-97314374D01*
X135265149Y-97314385D01*
X135269479Y-97318715D01*
X135269480Y-97318716D01*
X135381284Y-97430520D01*
X135381286Y-97430521D01*
X135381290Y-97430524D01*
X135510006Y-97504837D01*
X135518216Y-97509577D01*
X135630019Y-97539534D01*
X135670942Y-97550500D01*
X135670943Y-97550500D01*
X148149903Y-97550500D01*
X148216942Y-97570185D01*
X148237584Y-97586819D01*
X148969298Y-98318533D01*
X149002783Y-98379856D01*
X149004837Y-98392330D01*
X149014630Y-98479249D01*
X149074210Y-98649521D01*
X149170184Y-98802262D01*
X149297738Y-98929816D01*
X149450478Y-99025789D01*
X149586671Y-99073445D01*
X149620745Y-99085368D01*
X149620750Y-99085369D01*
X149799996Y-99105565D01*
X149800000Y-99105565D01*
X149800004Y-99105565D01*
X149979249Y-99085369D01*
X149979252Y-99085368D01*
X149979255Y-99085368D01*
X150149522Y-99025789D01*
X150302262Y-98929816D01*
X150429816Y-98802262D01*
X150525789Y-98649522D01*
X150585368Y-98479255D01*
X150585369Y-98479249D01*
X150605565Y-98300003D01*
X150605565Y-98299996D01*
X150585369Y-98120750D01*
X150585368Y-98120745D01*
X150545336Y-98006340D01*
X150525789Y-97950478D01*
X150429816Y-97797738D01*
X150302262Y-97670184D01*
X150300648Y-97669170D01*
X150149521Y-97574210D01*
X149979249Y-97514630D01*
X149892330Y-97504837D01*
X149827916Y-97477770D01*
X149818533Y-97469298D01*
X148937590Y-96588355D01*
X148937588Y-96588352D01*
X148818717Y-96469481D01*
X148818716Y-96469480D01*
X148731904Y-96419360D01*
X148731904Y-96419359D01*
X148731900Y-96419358D01*
X148681785Y-96390423D01*
X148529057Y-96349499D01*
X148370943Y-96349499D01*
X148363347Y-96349499D01*
X148363331Y-96349500D01*
X136050097Y-96349500D01*
X135983058Y-96329815D01*
X135962416Y-96313181D01*
X133581370Y-93932135D01*
X172299500Y-93932135D01*
X172299500Y-96627870D01*
X172299501Y-96627876D01*
X172305908Y-96687483D01*
X172356202Y-96822328D01*
X172356206Y-96822335D01*
X172442452Y-96937544D01*
X172442455Y-96937547D01*
X172557664Y-97023793D01*
X172557671Y-97023797D01*
X172692517Y-97074091D01*
X172692516Y-97074091D01*
X172699444Y-97074835D01*
X172752127Y-97080500D01*
X175447872Y-97080499D01*
X175507483Y-97074091D01*
X175642331Y-97023796D01*
X175757546Y-96937546D01*
X175843796Y-96822331D01*
X175894091Y-96687483D01*
X175900500Y-96627873D01*
X175900499Y-93932128D01*
X175894091Y-93872517D01*
X175843796Y-93737669D01*
X175843795Y-93737668D01*
X175843793Y-93737664D01*
X175757547Y-93622455D01*
X175757544Y-93622452D01*
X175642335Y-93536206D01*
X175642328Y-93536202D01*
X175507482Y-93485908D01*
X175507483Y-93485908D01*
X175447883Y-93479501D01*
X175447881Y-93479500D01*
X175447873Y-93479500D01*
X175447864Y-93479500D01*
X172752129Y-93479500D01*
X172752123Y-93479501D01*
X172692516Y-93485908D01*
X172557671Y-93536202D01*
X172557664Y-93536206D01*
X172442455Y-93622452D01*
X172442452Y-93622455D01*
X172356206Y-93737664D01*
X172356202Y-93737671D01*
X172305908Y-93872517D01*
X172299501Y-93932116D01*
X172299501Y-93932123D01*
X172299500Y-93932135D01*
X133581370Y-93932135D01*
X129849230Y-90199995D01*
X172294451Y-90199995D01*
X172294451Y-90200004D01*
X172314616Y-90469101D01*
X172341423Y-90586548D01*
X172374666Y-90732195D01*
X172473257Y-90983398D01*
X172608185Y-91217102D01*
X172744080Y-91387509D01*
X172776442Y-91428089D01*
X172963183Y-91601358D01*
X172974259Y-91611635D01*
X173197226Y-91763651D01*
X173440359Y-91880738D01*
X173698228Y-91960280D01*
X173698229Y-91960280D01*
X173698232Y-91960281D01*
X173965063Y-92000499D01*
X173965068Y-92000499D01*
X173965071Y-92000500D01*
X173965072Y-92000500D01*
X174234928Y-92000500D01*
X174234929Y-92000500D01*
X174234936Y-92000499D01*
X174501767Y-91960281D01*
X174501768Y-91960280D01*
X174501772Y-91960280D01*
X174759641Y-91880738D01*
X175002775Y-91763651D01*
X175225741Y-91611635D01*
X175396224Y-91453450D01*
X175423557Y-91428089D01*
X175423557Y-91428087D01*
X175423561Y-91428085D01*
X175591815Y-91217102D01*
X175726743Y-90983398D01*
X175825334Y-90732195D01*
X175885383Y-90469103D01*
X175905549Y-90200000D01*
X175894246Y-90049174D01*
X175885383Y-89930898D01*
X175883459Y-89922468D01*
X175825334Y-89667805D01*
X175726743Y-89416602D01*
X175591815Y-89182898D01*
X175423561Y-88971915D01*
X175423560Y-88971914D01*
X175423557Y-88971910D01*
X175225741Y-88788365D01*
X175096233Y-88700068D01*
X175002775Y-88636349D01*
X175002769Y-88636346D01*
X175002768Y-88636345D01*
X175002767Y-88636344D01*
X174759643Y-88519263D01*
X174759645Y-88519263D01*
X174501773Y-88439720D01*
X174501767Y-88439718D01*
X174234936Y-88399500D01*
X174234929Y-88399500D01*
X173965071Y-88399500D01*
X173965063Y-88399500D01*
X173698232Y-88439718D01*
X173698226Y-88439720D01*
X173440358Y-88519262D01*
X173197230Y-88636346D01*
X172974258Y-88788365D01*
X172776442Y-88971910D01*
X172608185Y-89182898D01*
X172473258Y-89416599D01*
X172473256Y-89416603D01*
X172374666Y-89667804D01*
X172374664Y-89667811D01*
X172314616Y-89930898D01*
X172294451Y-90199995D01*
X129849230Y-90199995D01*
X127584862Y-87935627D01*
X127553671Y-87878506D01*
X127552604Y-87878793D01*
X127551424Y-87874390D01*
X127551377Y-87874304D01*
X127551332Y-87874046D01*
X127543907Y-87846338D01*
X127509577Y-87718216D01*
X127479073Y-87665381D01*
X127430524Y-87581290D01*
X127430518Y-87581282D01*
X126056819Y-86207583D01*
X126023334Y-86146260D01*
X126020500Y-86119902D01*
X126020500Y-84585304D01*
X126040185Y-84518265D01*
X126073375Y-84483730D01*
X126234620Y-84370826D01*
X126390826Y-84214620D01*
X126517534Y-84033662D01*
X126577618Y-83904811D01*
X126623790Y-83852371D01*
X126690983Y-83833219D01*
X126757865Y-83853435D01*
X126802382Y-83904811D01*
X126862464Y-84033658D01*
X126862468Y-84033666D01*
X126989170Y-84214615D01*
X126989175Y-84214621D01*
X127145378Y-84370824D01*
X127145384Y-84370829D01*
X127326333Y-84497531D01*
X127326335Y-84497532D01*
X127326338Y-84497534D01*
X127526550Y-84590894D01*
X127739932Y-84648070D01*
X127897123Y-84661822D01*
X127959998Y-84667323D01*
X127960000Y-84667323D01*
X127960002Y-84667323D01*
X128015017Y-84662509D01*
X128180068Y-84648070D01*
X128393450Y-84590894D01*
X128593662Y-84497534D01*
X128774620Y-84370826D01*
X128930826Y-84214620D01*
X129057534Y-84033662D01*
X129117618Y-83904811D01*
X129163790Y-83852371D01*
X129230983Y-83833219D01*
X129297865Y-83853435D01*
X129342382Y-83904811D01*
X129402464Y-84033658D01*
X129402468Y-84033666D01*
X129529170Y-84214615D01*
X129529175Y-84214621D01*
X129685378Y-84370824D01*
X129685384Y-84370829D01*
X129866333Y-84497531D01*
X129866335Y-84497532D01*
X129866338Y-84497534D01*
X130066550Y-84590894D01*
X130279932Y-84648070D01*
X130437123Y-84661822D01*
X130499998Y-84667323D01*
X130500000Y-84667323D01*
X130500002Y-84667323D01*
X130555017Y-84662509D01*
X130720068Y-84648070D01*
X130933450Y-84590894D01*
X131133662Y-84497534D01*
X131314620Y-84370826D01*
X131470826Y-84214620D01*
X131597534Y-84033662D01*
X131657618Y-83904811D01*
X131703790Y-83852371D01*
X131770983Y-83833219D01*
X131837865Y-83853435D01*
X131882382Y-83904811D01*
X131942464Y-84033658D01*
X131942468Y-84033666D01*
X132069170Y-84214615D01*
X132069175Y-84214621D01*
X132225378Y-84370824D01*
X132225384Y-84370829D01*
X132406333Y-84497531D01*
X132406335Y-84497532D01*
X132406338Y-84497534D01*
X132606550Y-84590894D01*
X132819932Y-84648070D01*
X132977123Y-84661822D01*
X133039998Y-84667323D01*
X133040000Y-84667323D01*
X133040002Y-84667323D01*
X133095017Y-84662509D01*
X133260068Y-84648070D01*
X133473450Y-84590894D01*
X133673662Y-84497534D01*
X133854620Y-84370826D01*
X134010826Y-84214620D01*
X134137534Y-84033662D01*
X134197618Y-83904811D01*
X134243790Y-83852371D01*
X134310983Y-83833219D01*
X134377865Y-83853435D01*
X134422382Y-83904811D01*
X134482464Y-84033658D01*
X134482468Y-84033666D01*
X134609170Y-84214615D01*
X134609175Y-84214621D01*
X134765378Y-84370824D01*
X134765384Y-84370829D01*
X134946333Y-84497531D01*
X134946335Y-84497532D01*
X134946338Y-84497534D01*
X135146550Y-84590894D01*
X135359932Y-84648070D01*
X135517123Y-84661822D01*
X135579998Y-84667323D01*
X135580000Y-84667323D01*
X135580002Y-84667323D01*
X135635017Y-84662509D01*
X135800068Y-84648070D01*
X136013450Y-84590894D01*
X136213662Y-84497534D01*
X136394620Y-84370826D01*
X136550826Y-84214620D01*
X136677534Y-84033662D01*
X136737618Y-83904811D01*
X136783790Y-83852371D01*
X136850983Y-83833219D01*
X136917865Y-83853435D01*
X136962382Y-83904811D01*
X137022464Y-84033658D01*
X137022468Y-84033666D01*
X137149170Y-84214615D01*
X137149175Y-84214621D01*
X137305378Y-84370824D01*
X137305384Y-84370829D01*
X137486333Y-84497531D01*
X137486335Y-84497532D01*
X137486338Y-84497534D01*
X137686550Y-84590894D01*
X137899932Y-84648070D01*
X138057123Y-84661822D01*
X138119998Y-84667323D01*
X138120000Y-84667323D01*
X138120002Y-84667323D01*
X138175017Y-84662509D01*
X138340068Y-84648070D01*
X138553450Y-84590894D01*
X138753662Y-84497534D01*
X138934620Y-84370826D01*
X139090826Y-84214620D01*
X139217534Y-84033662D01*
X139277618Y-83904811D01*
X139323790Y-83852371D01*
X139390983Y-83833219D01*
X139457865Y-83853435D01*
X139502382Y-83904811D01*
X139562464Y-84033658D01*
X139562468Y-84033666D01*
X139689170Y-84214615D01*
X139689175Y-84214621D01*
X139845378Y-84370824D01*
X139845384Y-84370829D01*
X140026333Y-84497531D01*
X140026335Y-84497532D01*
X140026338Y-84497534D01*
X140226550Y-84590894D01*
X140439932Y-84648070D01*
X140597123Y-84661822D01*
X140659998Y-84667323D01*
X140660000Y-84667323D01*
X140660002Y-84667323D01*
X140715017Y-84662509D01*
X140880068Y-84648070D01*
X141093450Y-84590894D01*
X141293662Y-84497534D01*
X141474620Y-84370826D01*
X141630826Y-84214620D01*
X141757534Y-84033662D01*
X141817618Y-83904811D01*
X141863790Y-83852371D01*
X141930983Y-83833219D01*
X141997865Y-83853435D01*
X142042382Y-83904811D01*
X142102464Y-84033658D01*
X142102468Y-84033666D01*
X142229170Y-84214615D01*
X142229175Y-84214621D01*
X142385378Y-84370824D01*
X142385384Y-84370829D01*
X142566333Y-84497531D01*
X142566335Y-84497532D01*
X142566338Y-84497534D01*
X142766550Y-84590894D01*
X142979932Y-84648070D01*
X143137123Y-84661822D01*
X143199998Y-84667323D01*
X143200000Y-84667323D01*
X143200002Y-84667323D01*
X143255017Y-84662509D01*
X143420068Y-84648070D01*
X143633450Y-84590894D01*
X143833662Y-84497534D01*
X144014620Y-84370826D01*
X144170826Y-84214620D01*
X144297534Y-84033662D01*
X144357618Y-83904811D01*
X144403790Y-83852371D01*
X144470983Y-83833219D01*
X144537865Y-83853435D01*
X144582382Y-83904811D01*
X144642464Y-84033658D01*
X144642468Y-84033666D01*
X144769170Y-84214615D01*
X144769175Y-84214621D01*
X144925378Y-84370824D01*
X144925384Y-84370829D01*
X145106333Y-84497531D01*
X145106335Y-84497532D01*
X145106338Y-84497534D01*
X145306550Y-84590894D01*
X145519932Y-84648070D01*
X145677123Y-84661822D01*
X145739998Y-84667323D01*
X145740000Y-84667323D01*
X145740002Y-84667323D01*
X145795017Y-84662509D01*
X145960068Y-84648070D01*
X146173450Y-84590894D01*
X146373662Y-84497534D01*
X146554620Y-84370826D01*
X146710826Y-84214620D01*
X146837534Y-84033662D01*
X146897618Y-83904811D01*
X146943790Y-83852371D01*
X147010983Y-83833219D01*
X147077865Y-83853435D01*
X147122382Y-83904811D01*
X147182464Y-84033658D01*
X147182468Y-84033666D01*
X147309170Y-84214615D01*
X147309175Y-84214621D01*
X147465378Y-84370824D01*
X147465384Y-84370829D01*
X147646333Y-84497531D01*
X147646335Y-84497532D01*
X147646338Y-84497534D01*
X147846550Y-84590894D01*
X148059932Y-84648070D01*
X148217123Y-84661822D01*
X148279998Y-84667323D01*
X148280000Y-84667323D01*
X148280002Y-84667323D01*
X148335017Y-84662509D01*
X148500068Y-84648070D01*
X148713450Y-84590894D01*
X148913662Y-84497534D01*
X149094620Y-84370826D01*
X149250826Y-84214620D01*
X149377534Y-84033662D01*
X149470894Y-83833450D01*
X149528070Y-83620068D01*
X149547323Y-83400000D01*
X149528070Y-83179932D01*
X149470894Y-82966550D01*
X149377534Y-82766339D01*
X149250826Y-82585380D01*
X149094620Y-82429174D01*
X149094616Y-82429171D01*
X149094615Y-82429170D01*
X148913666Y-82302468D01*
X148913662Y-82302466D01*
X148913660Y-82302465D01*
X148713450Y-82209106D01*
X148713447Y-82209105D01*
X148713445Y-82209104D01*
X148500070Y-82151930D01*
X148500062Y-82151929D01*
X148280002Y-82132677D01*
X148279998Y-82132677D01*
X148059937Y-82151929D01*
X148059929Y-82151930D01*
X147846554Y-82209104D01*
X147846548Y-82209107D01*
X147646340Y-82302465D01*
X147646338Y-82302466D01*
X147465377Y-82429175D01*
X147309175Y-82585377D01*
X147182466Y-82766338D01*
X147182465Y-82766340D01*
X147122382Y-82895189D01*
X147076209Y-82947628D01*
X147009016Y-82966780D01*
X146942135Y-82946564D01*
X146897618Y-82895189D01*
X146837534Y-82766340D01*
X146837533Y-82766338D01*
X146834645Y-82762214D01*
X146710826Y-82585380D01*
X146554620Y-82429174D01*
X146554616Y-82429171D01*
X146554615Y-82429170D01*
X146373666Y-82302468D01*
X146373662Y-82302466D01*
X146373660Y-82302465D01*
X146173450Y-82209106D01*
X146173447Y-82209105D01*
X146173445Y-82209104D01*
X145960070Y-82151930D01*
X145960062Y-82151929D01*
X145740002Y-82132677D01*
X145739998Y-82132677D01*
X145519937Y-82151929D01*
X145519929Y-82151930D01*
X145306554Y-82209104D01*
X145306548Y-82209107D01*
X145106340Y-82302465D01*
X145106338Y-82302466D01*
X144925377Y-82429175D01*
X144769175Y-82585377D01*
X144642466Y-82766338D01*
X144642465Y-82766340D01*
X144582382Y-82895189D01*
X144536209Y-82947628D01*
X144469016Y-82966780D01*
X144402135Y-82946564D01*
X144357618Y-82895189D01*
X144297534Y-82766340D01*
X144297533Y-82766338D01*
X144294645Y-82762214D01*
X144170826Y-82585380D01*
X144014620Y-82429174D01*
X144014616Y-82429171D01*
X144014615Y-82429170D01*
X143833666Y-82302468D01*
X143833662Y-82302466D01*
X143833660Y-82302465D01*
X143633450Y-82209106D01*
X143633447Y-82209105D01*
X143633445Y-82209104D01*
X143420070Y-82151930D01*
X143420062Y-82151929D01*
X143200002Y-82132677D01*
X143199998Y-82132677D01*
X142979937Y-82151929D01*
X142979929Y-82151930D01*
X142766554Y-82209104D01*
X142766548Y-82209107D01*
X142566340Y-82302465D01*
X142566338Y-82302466D01*
X142385377Y-82429175D01*
X142229175Y-82585377D01*
X142102466Y-82766338D01*
X142102465Y-82766340D01*
X142042382Y-82895189D01*
X141996209Y-82947628D01*
X141929016Y-82966780D01*
X141862135Y-82946564D01*
X141817618Y-82895189D01*
X141757534Y-82766340D01*
X141757533Y-82766338D01*
X141754645Y-82762214D01*
X141630826Y-82585380D01*
X141474620Y-82429174D01*
X141474616Y-82429171D01*
X141474615Y-82429170D01*
X141293666Y-82302468D01*
X141293662Y-82302466D01*
X141293660Y-82302465D01*
X141093450Y-82209106D01*
X141093447Y-82209105D01*
X141093445Y-82209104D01*
X140880070Y-82151930D01*
X140880062Y-82151929D01*
X140660002Y-82132677D01*
X140659998Y-82132677D01*
X140439937Y-82151929D01*
X140439929Y-82151930D01*
X140226554Y-82209104D01*
X140226548Y-82209107D01*
X140026340Y-82302465D01*
X140026338Y-82302466D01*
X139845377Y-82429175D01*
X139689175Y-82585377D01*
X139562466Y-82766338D01*
X139562465Y-82766340D01*
X139502382Y-82895189D01*
X139456209Y-82947628D01*
X139389016Y-82966780D01*
X139322135Y-82946564D01*
X139277618Y-82895189D01*
X139217534Y-82766340D01*
X139217533Y-82766338D01*
X139214645Y-82762214D01*
X139090826Y-82585380D01*
X138934620Y-82429174D01*
X138934616Y-82429171D01*
X138934615Y-82429170D01*
X138753666Y-82302468D01*
X138753662Y-82302466D01*
X138753660Y-82302465D01*
X138553450Y-82209106D01*
X138553447Y-82209105D01*
X138553445Y-82209104D01*
X138340070Y-82151930D01*
X138340062Y-82151929D01*
X138120002Y-82132677D01*
X138119998Y-82132677D01*
X137899937Y-82151929D01*
X137899929Y-82151930D01*
X137686554Y-82209104D01*
X137686548Y-82209107D01*
X137486340Y-82302465D01*
X137486338Y-82302466D01*
X137305377Y-82429175D01*
X137149175Y-82585377D01*
X137022466Y-82766338D01*
X137022465Y-82766340D01*
X136962382Y-82895189D01*
X136916209Y-82947628D01*
X136849016Y-82966780D01*
X136782135Y-82946564D01*
X136737618Y-82895189D01*
X136677534Y-82766340D01*
X136677533Y-82766338D01*
X136674645Y-82762214D01*
X136550826Y-82585380D01*
X136394620Y-82429174D01*
X136394616Y-82429171D01*
X136394615Y-82429170D01*
X136213666Y-82302468D01*
X136213662Y-82302466D01*
X136213660Y-82302465D01*
X136013450Y-82209106D01*
X136013447Y-82209105D01*
X136013445Y-82209104D01*
X135800070Y-82151930D01*
X135800062Y-82151929D01*
X135580002Y-82132677D01*
X135579998Y-82132677D01*
X135359937Y-82151929D01*
X135359929Y-82151930D01*
X135146554Y-82209104D01*
X135146548Y-82209107D01*
X134946340Y-82302465D01*
X134946338Y-82302466D01*
X134765377Y-82429175D01*
X134609175Y-82585377D01*
X134482466Y-82766338D01*
X134482465Y-82766340D01*
X134422382Y-82895189D01*
X134376209Y-82947628D01*
X134309016Y-82966780D01*
X134242135Y-82946564D01*
X134197618Y-82895189D01*
X134137534Y-82766340D01*
X134137533Y-82766338D01*
X134134645Y-82762214D01*
X134010826Y-82585380D01*
X133854620Y-82429174D01*
X133854616Y-82429171D01*
X133854615Y-82429170D01*
X133673666Y-82302468D01*
X133673662Y-82302466D01*
X133673660Y-82302465D01*
X133473450Y-82209106D01*
X133473447Y-82209105D01*
X133473445Y-82209104D01*
X133260070Y-82151930D01*
X133260062Y-82151929D01*
X133040002Y-82132677D01*
X133039998Y-82132677D01*
X132819937Y-82151929D01*
X132819929Y-82151930D01*
X132606554Y-82209104D01*
X132606548Y-82209107D01*
X132406340Y-82302465D01*
X132406338Y-82302466D01*
X132225377Y-82429175D01*
X132069175Y-82585377D01*
X131942466Y-82766338D01*
X131942465Y-82766340D01*
X131882382Y-82895189D01*
X131836209Y-82947628D01*
X131769016Y-82966780D01*
X131702135Y-82946564D01*
X131657618Y-82895189D01*
X131597534Y-82766340D01*
X131597533Y-82766338D01*
X131594645Y-82762214D01*
X131470826Y-82585380D01*
X131314620Y-82429174D01*
X131314616Y-82429171D01*
X131314615Y-82429170D01*
X131133666Y-82302468D01*
X131133662Y-82302466D01*
X131133660Y-82302465D01*
X130933450Y-82209106D01*
X130933447Y-82209105D01*
X130933445Y-82209104D01*
X130720070Y-82151930D01*
X130720062Y-82151929D01*
X130500002Y-82132677D01*
X130499998Y-82132677D01*
X130279937Y-82151929D01*
X130279929Y-82151930D01*
X130066554Y-82209104D01*
X130066548Y-82209107D01*
X129866340Y-82302465D01*
X129866338Y-82302466D01*
X129685377Y-82429175D01*
X129529175Y-82585377D01*
X129402466Y-82766338D01*
X129402465Y-82766340D01*
X129342382Y-82895189D01*
X129296209Y-82947628D01*
X129229016Y-82966780D01*
X129162135Y-82946564D01*
X129117618Y-82895189D01*
X129057534Y-82766340D01*
X129057533Y-82766338D01*
X129054645Y-82762214D01*
X128930826Y-82585380D01*
X128774620Y-82429174D01*
X128774616Y-82429171D01*
X128774615Y-82429170D01*
X128593666Y-82302468D01*
X128593662Y-82302466D01*
X128593660Y-82302465D01*
X128393450Y-82209106D01*
X128393447Y-82209105D01*
X128393445Y-82209104D01*
X128180070Y-82151930D01*
X128180062Y-82151929D01*
X127960002Y-82132677D01*
X127959998Y-82132677D01*
X127739937Y-82151929D01*
X127739929Y-82151930D01*
X127526554Y-82209104D01*
X127526548Y-82209107D01*
X127326340Y-82302465D01*
X127326338Y-82302466D01*
X127145377Y-82429175D01*
X126989175Y-82585377D01*
X126862466Y-82766338D01*
X126862465Y-82766340D01*
X126802382Y-82895189D01*
X126756209Y-82947628D01*
X126689016Y-82966780D01*
X126622135Y-82946564D01*
X126577618Y-82895189D01*
X126517534Y-82766340D01*
X126517533Y-82766338D01*
X126514645Y-82762214D01*
X126390826Y-82585380D01*
X126234620Y-82429174D01*
X126234616Y-82429171D01*
X126234615Y-82429170D01*
X126053666Y-82302468D01*
X126053662Y-82302466D01*
X126053660Y-82302465D01*
X125853450Y-82209106D01*
X125853447Y-82209105D01*
X125853445Y-82209104D01*
X125640070Y-82151930D01*
X125640062Y-82151929D01*
X125420002Y-82132677D01*
X125419998Y-82132677D01*
X125199937Y-82151929D01*
X125199929Y-82151930D01*
X124986554Y-82209104D01*
X124986548Y-82209107D01*
X124786340Y-82302465D01*
X124786338Y-82302466D01*
X124605377Y-82429175D01*
X124449175Y-82585377D01*
X124322466Y-82766338D01*
X124322465Y-82766340D01*
X124262382Y-82895189D01*
X124216209Y-82947628D01*
X124149016Y-82966780D01*
X124082135Y-82946564D01*
X124037618Y-82895189D01*
X123977534Y-82766340D01*
X123977533Y-82766338D01*
X123974645Y-82762214D01*
X123850826Y-82585380D01*
X123694620Y-82429174D01*
X123694616Y-82429171D01*
X123694615Y-82429170D01*
X123513666Y-82302468D01*
X123513662Y-82302466D01*
X123513660Y-82302465D01*
X123313450Y-82209106D01*
X123313447Y-82209105D01*
X123313445Y-82209104D01*
X123100070Y-82151930D01*
X123100062Y-82151929D01*
X122880002Y-82132677D01*
X122879998Y-82132677D01*
X122659937Y-82151929D01*
X122659929Y-82151930D01*
X122446554Y-82209104D01*
X122446548Y-82209107D01*
X122246340Y-82302465D01*
X122246338Y-82302466D01*
X122065377Y-82429175D01*
X121909175Y-82585377D01*
X121782466Y-82766338D01*
X121782465Y-82766340D01*
X121722382Y-82895189D01*
X121676209Y-82947628D01*
X121609016Y-82966780D01*
X121542135Y-82946564D01*
X121497618Y-82895189D01*
X121437534Y-82766340D01*
X121437533Y-82766338D01*
X121434645Y-82762214D01*
X121310826Y-82585380D01*
X121154620Y-82429174D01*
X121154616Y-82429171D01*
X121154615Y-82429170D01*
X120973666Y-82302468D01*
X120973662Y-82302466D01*
X120973660Y-82302465D01*
X120773450Y-82209106D01*
X120773447Y-82209105D01*
X120773445Y-82209104D01*
X120560070Y-82151930D01*
X120560062Y-82151929D01*
X120340002Y-82132677D01*
X120339998Y-82132677D01*
X120119937Y-82151929D01*
X120119929Y-82151930D01*
X119906554Y-82209104D01*
X119906548Y-82209107D01*
X119706340Y-82302465D01*
X119706338Y-82302466D01*
X119525377Y-82429175D01*
X119369175Y-82585377D01*
X119242466Y-82766338D01*
X119242465Y-82766340D01*
X119182382Y-82895189D01*
X119136209Y-82947628D01*
X119069016Y-82966780D01*
X119002135Y-82946564D01*
X118957618Y-82895189D01*
X118897534Y-82766340D01*
X118897533Y-82766338D01*
X118894645Y-82762214D01*
X118770826Y-82585380D01*
X118614620Y-82429174D01*
X118614616Y-82429171D01*
X118614615Y-82429170D01*
X118433666Y-82302468D01*
X118433662Y-82302466D01*
X118433660Y-82302465D01*
X118233450Y-82209106D01*
X118233447Y-82209105D01*
X118233445Y-82209104D01*
X118020070Y-82151930D01*
X118020062Y-82151929D01*
X117800002Y-82132677D01*
X117799998Y-82132677D01*
X117579937Y-82151929D01*
X117579929Y-82151930D01*
X117366554Y-82209104D01*
X117366548Y-82209107D01*
X117166340Y-82302465D01*
X117166338Y-82302466D01*
X116985377Y-82429175D01*
X116829175Y-82585377D01*
X116702466Y-82766338D01*
X116702465Y-82766340D01*
X116609107Y-82966548D01*
X116609104Y-82966554D01*
X116551930Y-83179929D01*
X116551929Y-83179937D01*
X116532677Y-83399997D01*
X103560500Y-83399997D01*
X103560500Y-83301459D01*
X103560500Y-83301456D01*
X103522052Y-83108170D01*
X103522051Y-83108169D01*
X103522051Y-83108165D01*
X103463488Y-82966780D01*
X103446635Y-82926092D01*
X103446628Y-82926079D01*
X103337139Y-82762218D01*
X103337136Y-82762214D01*
X103197785Y-82622863D01*
X103197781Y-82622860D01*
X103033920Y-82513371D01*
X103033907Y-82513364D01*
X102851839Y-82437950D01*
X102851829Y-82437947D01*
X102658543Y-82399500D01*
X102658541Y-82399500D01*
X102461459Y-82399500D01*
X102461457Y-82399500D01*
X102268170Y-82437947D01*
X102268160Y-82437950D01*
X102086092Y-82513364D01*
X102086076Y-82513373D01*
X102027826Y-82552294D01*
X101961149Y-82573171D01*
X101893769Y-82554686D01*
X101847079Y-82502706D01*
X101834938Y-82449355D01*
X101824727Y-74499996D01*
X170644435Y-74499996D01*
X170644435Y-74500003D01*
X170664630Y-74679249D01*
X170664631Y-74679254D01*
X170724211Y-74849523D01*
X170820184Y-75002262D01*
X170947738Y-75129816D01*
X171100478Y-75225789D01*
X171270745Y-75285368D01*
X171270750Y-75285369D01*
X171449996Y-75305565D01*
X171450000Y-75305565D01*
X171450004Y-75305565D01*
X171629249Y-75285369D01*
X171629252Y-75285368D01*
X171629255Y-75285368D01*
X171799522Y-75225789D01*
X171952262Y-75129816D01*
X172079816Y-75002262D01*
X172175789Y-74849522D01*
X172235368Y-74679255D01*
X172255565Y-74500000D01*
X172235368Y-74320745D01*
X172175789Y-74150478D01*
X172079816Y-73997738D01*
X171952262Y-73870184D01*
X171799523Y-73774211D01*
X171629254Y-73714631D01*
X171629249Y-73714630D01*
X171450004Y-73694435D01*
X171449996Y-73694435D01*
X171270750Y-73714630D01*
X171270745Y-73714631D01*
X171100476Y-73774211D01*
X170947737Y-73870184D01*
X170820184Y-73997737D01*
X170724211Y-74150476D01*
X170664631Y-74320745D01*
X170664630Y-74320750D01*
X170644435Y-74499996D01*
X101824727Y-74499996D01*
X101813038Y-65400000D01*
X104544652Y-65400000D01*
X104563602Y-65749523D01*
X104564028Y-65757368D01*
X104564029Y-65757385D01*
X104621926Y-66110539D01*
X104621932Y-66110565D01*
X104717672Y-66455392D01*
X104717674Y-66455399D01*
X104850142Y-66787870D01*
X104850151Y-66787888D01*
X105017784Y-67104077D01*
X105017787Y-67104082D01*
X105017789Y-67104085D01*
X105119491Y-67254085D01*
X105218634Y-67400309D01*
X105218641Y-67400319D01*
X105450331Y-67673085D01*
X105450332Y-67673086D01*
X105710163Y-67919211D01*
X105995081Y-68135800D01*
X106301747Y-68320315D01*
X106301749Y-68320316D01*
X106301751Y-68320317D01*
X106301755Y-68320319D01*
X106625968Y-68470315D01*
X106626565Y-68470591D01*
X106965726Y-68584868D01*
X107315254Y-68661805D01*
X107671052Y-68700500D01*
X107671058Y-68700500D01*
X108028942Y-68700500D01*
X108028948Y-68700500D01*
X108384746Y-68661805D01*
X108734274Y-68584868D01*
X109073435Y-68470591D01*
X109398253Y-68320315D01*
X109704919Y-68135800D01*
X109989837Y-67919211D01*
X110249668Y-67673086D01*
X110481365Y-67400311D01*
X110682211Y-67104085D01*
X110849853Y-66787880D01*
X110982324Y-66455403D01*
X111078071Y-66110552D01*
X111108032Y-65927797D01*
X111135970Y-65757385D01*
X111135970Y-65757382D01*
X111135972Y-65757371D01*
X111155348Y-65400000D01*
X111135972Y-65042629D01*
X111112218Y-64897738D01*
X111099263Y-64818713D01*
X120699500Y-64818713D01*
X120699500Y-65281287D01*
X120732754Y-65491243D01*
X120790207Y-65668065D01*
X120798444Y-65693414D01*
X120894951Y-65882820D01*
X121019890Y-66054786D01*
X121170213Y-66205109D01*
X121342179Y-66330048D01*
X121342181Y-66330049D01*
X121342184Y-66330051D01*
X121531588Y-66426557D01*
X121733757Y-66492246D01*
X121943713Y-66525500D01*
X121943714Y-66525500D01*
X122156286Y-66525500D01*
X122156287Y-66525500D01*
X122366243Y-66492246D01*
X122568412Y-66426557D01*
X122757816Y-66330051D01*
X122853492Y-66260539D01*
X122929786Y-66205109D01*
X122929788Y-66205106D01*
X122929792Y-66205104D01*
X123080104Y-66054792D01*
X123199683Y-65890204D01*
X123255011Y-65847540D01*
X123324624Y-65841561D01*
X123386420Y-65874166D01*
X123400313Y-65890199D01*
X123501749Y-66029815D01*
X123519896Y-66054792D01*
X123670213Y-66205109D01*
X123842179Y-66330048D01*
X123842181Y-66330049D01*
X123842184Y-66330051D01*
X124031588Y-66426557D01*
X124233757Y-66492246D01*
X124443713Y-66525500D01*
X124443714Y-66525500D01*
X124656286Y-66525500D01*
X124656287Y-66525500D01*
X124866243Y-66492246D01*
X125068412Y-66426557D01*
X125257816Y-66330051D01*
X125353492Y-66260539D01*
X125429786Y-66205109D01*
X125429788Y-66205106D01*
X125429792Y-66205104D01*
X125580104Y-66054792D01*
X125699683Y-65890204D01*
X125755011Y-65847540D01*
X125824624Y-65841561D01*
X125886420Y-65874166D01*
X125900313Y-65890199D01*
X126001749Y-66029815D01*
X126019896Y-66054792D01*
X126170213Y-66205109D01*
X126342179Y-66330048D01*
X126342181Y-66330049D01*
X126342184Y-66330051D01*
X126531588Y-66426557D01*
X126733757Y-66492246D01*
X126943713Y-66525500D01*
X126943714Y-66525500D01*
X127156286Y-66525500D01*
X127156287Y-66525500D01*
X127366243Y-66492246D01*
X127568412Y-66426557D01*
X127757816Y-66330051D01*
X127876729Y-66243656D01*
X127929784Y-66205110D01*
X127929784Y-66205109D01*
X127929792Y-66205104D01*
X128068604Y-66066291D01*
X128129923Y-66032809D01*
X128199615Y-66037793D01*
X128255549Y-66079664D01*
X128261821Y-66088878D01*
X128265185Y-66094333D01*
X128265186Y-66094334D01*
X128357288Y-66243656D01*
X128481344Y-66367712D01*
X128630666Y-66459814D01*
X128797203Y-66514999D01*
X128899991Y-66525500D01*
X130200008Y-66525499D01*
X130302797Y-66514999D01*
X130469334Y-66459814D01*
X130618656Y-66367712D01*
X130742712Y-66243656D01*
X130834814Y-66094334D01*
X130889999Y-65927797D01*
X130900500Y-65825009D01*
X130900499Y-64862496D01*
X160406935Y-64862496D01*
X160406935Y-64862503D01*
X160427130Y-65041749D01*
X160427131Y-65041754D01*
X160486711Y-65212023D01*
X160492195Y-65220750D01*
X160582684Y-65364762D01*
X160710238Y-65492316D01*
X160862978Y-65588289D01*
X161033245Y-65647868D01*
X161033250Y-65647869D01*
X161212496Y-65668065D01*
X161212500Y-65668065D01*
X161212504Y-65668065D01*
X161391749Y-65647869D01*
X161391752Y-65647868D01*
X161391755Y-65647868D01*
X161562022Y-65588289D01*
X161714762Y-65492316D01*
X161807082Y-65399996D01*
X163344435Y-65399996D01*
X163344435Y-65400003D01*
X163364630Y-65579249D01*
X163364631Y-65579254D01*
X163424211Y-65749523D01*
X163471647Y-65825016D01*
X163520184Y-65902262D01*
X163647738Y-66029816D01*
X163800478Y-66125789D01*
X163970745Y-66185368D01*
X163970750Y-66185369D01*
X164149996Y-66205565D01*
X164150000Y-66205565D01*
X164150004Y-66205565D01*
X164329249Y-66185369D01*
X164329252Y-66185368D01*
X164329255Y-66185368D01*
X164499522Y-66125789D01*
X164652262Y-66029816D01*
X164779816Y-65902262D01*
X164875789Y-65749522D01*
X164935368Y-65579255D01*
X164938664Y-65550000D01*
X180394652Y-65550000D01*
X180409562Y-65825009D01*
X180414028Y-65907368D01*
X180414029Y-65907385D01*
X180471926Y-66260539D01*
X180471932Y-66260565D01*
X180567672Y-66605392D01*
X180567674Y-66605399D01*
X180700142Y-66937870D01*
X180700151Y-66937888D01*
X180867784Y-67254077D01*
X180867787Y-67254082D01*
X180867789Y-67254085D01*
X180966931Y-67400309D01*
X181068634Y-67550309D01*
X181068641Y-67550319D01*
X181300331Y-67823085D01*
X181300332Y-67823086D01*
X181560163Y-68069211D01*
X181845081Y-68285800D01*
X182151747Y-68470315D01*
X182151749Y-68470316D01*
X182151751Y-68470317D01*
X182151755Y-68470319D01*
X182476552Y-68620585D01*
X182476565Y-68620591D01*
X182815726Y-68734868D01*
X183165254Y-68811805D01*
X183521052Y-68850500D01*
X183521058Y-68850500D01*
X183878942Y-68850500D01*
X183878948Y-68850500D01*
X184234746Y-68811805D01*
X184584274Y-68734868D01*
X184923435Y-68620591D01*
X185248253Y-68470315D01*
X185554919Y-68285800D01*
X185839837Y-68069211D01*
X186099668Y-67823086D01*
X186331365Y-67550311D01*
X186532211Y-67254085D01*
X186699853Y-66937880D01*
X186832324Y-66605403D01*
X186928071Y-66260552D01*
X186955322Y-66094331D01*
X186985970Y-65907385D01*
X186985970Y-65907382D01*
X186985972Y-65907371D01*
X187005348Y-65550000D01*
X186985972Y-65192629D01*
X186962667Y-65050476D01*
X186928073Y-64839460D01*
X186928072Y-64839459D01*
X186928071Y-64839448D01*
X186882193Y-64674210D01*
X186832327Y-64494607D01*
X186832325Y-64494600D01*
X186699857Y-64162129D01*
X186699848Y-64162111D01*
X186532215Y-63845922D01*
X186532213Y-63845919D01*
X186532211Y-63845915D01*
X186331365Y-63549689D01*
X186331361Y-63549684D01*
X186331358Y-63549680D01*
X186099668Y-63276914D01*
X185953850Y-63138788D01*
X185839837Y-63030789D01*
X185839830Y-63030783D01*
X185839827Y-63030781D01*
X185772245Y-62979407D01*
X185554919Y-62814200D01*
X185248253Y-62629685D01*
X185248252Y-62629684D01*
X185248248Y-62629682D01*
X185248244Y-62629680D01*
X184923447Y-62479414D01*
X184923441Y-62479411D01*
X184923435Y-62479409D01*
X184753854Y-62422270D01*
X184584273Y-62365131D01*
X184234744Y-62288194D01*
X183878949Y-62249500D01*
X183878948Y-62249500D01*
X183521052Y-62249500D01*
X183521050Y-62249500D01*
X183165255Y-62288194D01*
X182815726Y-62365131D01*
X182559970Y-62451306D01*
X182476565Y-62479409D01*
X182476563Y-62479410D01*
X182476552Y-62479414D01*
X182151755Y-62629680D01*
X182151751Y-62629682D01*
X181923367Y-62767096D01*
X181845081Y-62814200D01*
X181757495Y-62880781D01*
X181560172Y-63030781D01*
X181560163Y-63030789D01*
X181300331Y-63276914D01*
X181068641Y-63549680D01*
X181068634Y-63549690D01*
X180867790Y-63845913D01*
X180867784Y-63845922D01*
X180700151Y-64162111D01*
X180700142Y-64162129D01*
X180567674Y-64494600D01*
X180567672Y-64494607D01*
X180471932Y-64839434D01*
X180471926Y-64839460D01*
X180414029Y-65192614D01*
X180414028Y-65192627D01*
X180414028Y-65192629D01*
X180412504Y-65220745D01*
X180397779Y-65492333D01*
X180394652Y-65550000D01*
X164938664Y-65550000D01*
X164945161Y-65492329D01*
X164972226Y-65427918D01*
X164980690Y-65418543D01*
X166880520Y-63518716D01*
X166959577Y-63381784D01*
X167000501Y-63229057D01*
X167000501Y-63070942D01*
X167000501Y-63063347D01*
X167000500Y-63063329D01*
X167000500Y-60970945D01*
X167000500Y-60970943D01*
X166959577Y-60818216D01*
X166959575Y-60818213D01*
X166958599Y-60814569D01*
X166955155Y-60796366D01*
X166935369Y-60620750D01*
X166935369Y-60620749D01*
X166935368Y-60620745D01*
X166894905Y-60505108D01*
X166875789Y-60450478D01*
X166866295Y-60435369D01*
X166779815Y-60297737D01*
X166652262Y-60170184D01*
X166499523Y-60074211D01*
X166329254Y-60014631D01*
X166329249Y-60014630D01*
X166150004Y-59994435D01*
X166149996Y-59994435D01*
X166062491Y-60004294D01*
X165993669Y-59992239D01*
X165942290Y-59944890D01*
X165924666Y-59877280D01*
X165931568Y-59840116D01*
X165935366Y-59829260D01*
X165935368Y-59829255D01*
X165955565Y-59650000D01*
X165935368Y-59470745D01*
X165875789Y-59300478D01*
X165779816Y-59147738D01*
X165652262Y-59020184D01*
X165499523Y-58924211D01*
X165329254Y-58864631D01*
X165329249Y-58864630D01*
X165150004Y-58844435D01*
X165149996Y-58844435D01*
X164970750Y-58864630D01*
X164970745Y-58864631D01*
X164800476Y-58924211D01*
X164647737Y-59020184D01*
X164520184Y-59147737D01*
X164424211Y-59300476D01*
X164364631Y-59470745D01*
X164364630Y-59470750D01*
X164344435Y-59649996D01*
X164344435Y-59650003D01*
X164364630Y-59829249D01*
X164364631Y-59829254D01*
X164424211Y-59999523D01*
X164433705Y-60014632D01*
X164520184Y-60152262D01*
X164647738Y-60279816D01*
X164800478Y-60375789D01*
X164970745Y-60435368D01*
X164970750Y-60435369D01*
X165149996Y-60455565D01*
X165150000Y-60455565D01*
X165150002Y-60455565D01*
X165180522Y-60452126D01*
X165237508Y-60445705D01*
X165306329Y-60457759D01*
X165357708Y-60505108D01*
X165375333Y-60572718D01*
X165368434Y-60609875D01*
X165364633Y-60620736D01*
X165364630Y-60620750D01*
X165344435Y-60799996D01*
X165344435Y-60800003D01*
X165364630Y-60979249D01*
X165364631Y-60979254D01*
X165424211Y-61149523D01*
X165520184Y-61302262D01*
X165526063Y-61308141D01*
X165559548Y-61369464D01*
X165554564Y-61439156D01*
X165512692Y-61495089D01*
X165447228Y-61519506D01*
X165397429Y-61512864D01*
X165366761Y-61502133D01*
X165366749Y-61502130D01*
X165187504Y-61481935D01*
X165187496Y-61481935D01*
X165008250Y-61502130D01*
X165008245Y-61502131D01*
X164837976Y-61561711D01*
X164685237Y-61657684D01*
X164557684Y-61785237D01*
X164461711Y-61937976D01*
X164402131Y-62108245D01*
X164402130Y-62108250D01*
X164381935Y-62287496D01*
X164381935Y-62287503D01*
X164402130Y-62466749D01*
X164402131Y-62466754D01*
X164461711Y-62637023D01*
X164478787Y-62664199D01*
X164557684Y-62789762D01*
X164685238Y-62917316D01*
X164837978Y-63013289D01*
X164980984Y-63063329D01*
X165008245Y-63072868D01*
X165008250Y-63072869D01*
X165187496Y-63093065D01*
X165187500Y-63093065D01*
X165187502Y-63093065D01*
X165241614Y-63086967D01*
X165308912Y-63079385D01*
X165377734Y-63091439D01*
X165429113Y-63138788D01*
X165446738Y-63206398D01*
X165425012Y-63272804D01*
X165410477Y-63290286D01*
X164131465Y-64569298D01*
X164070142Y-64602783D01*
X164057668Y-64604837D01*
X163970750Y-64614630D01*
X163800478Y-64674210D01*
X163647737Y-64770184D01*
X163520184Y-64897737D01*
X163424211Y-65050476D01*
X163364631Y-65220745D01*
X163364630Y-65220750D01*
X163344435Y-65399996D01*
X161807082Y-65399996D01*
X161842316Y-65364762D01*
X161938289Y-65212022D01*
X161997868Y-65041755D01*
X162018065Y-64862500D01*
X162015466Y-64839434D01*
X161997869Y-64683250D01*
X161997868Y-64683245D01*
X161973859Y-64614632D01*
X161938289Y-64512978D01*
X161926741Y-64494600D01*
X161899082Y-64450580D01*
X161842316Y-64360238D01*
X161714762Y-64232684D01*
X161703859Y-64225833D01*
X161562023Y-64136711D01*
X161391754Y-64077131D01*
X161391749Y-64077130D01*
X161212504Y-64056935D01*
X161212496Y-64056935D01*
X161033250Y-64077130D01*
X161033245Y-64077131D01*
X160862976Y-64136711D01*
X160710237Y-64232684D01*
X160582684Y-64360237D01*
X160486711Y-64512976D01*
X160427131Y-64683245D01*
X160427130Y-64683250D01*
X160406935Y-64862496D01*
X130900499Y-64862496D01*
X130900499Y-64274992D01*
X130889999Y-64172203D01*
X130834814Y-64005666D01*
X130742712Y-63856344D01*
X130618656Y-63732288D01*
X130469334Y-63640186D01*
X130302797Y-63585001D01*
X130302795Y-63585000D01*
X130200010Y-63574500D01*
X128899998Y-63574500D01*
X128899981Y-63574501D01*
X128797203Y-63585000D01*
X128797200Y-63585001D01*
X128630668Y-63640185D01*
X128630663Y-63640187D01*
X128481342Y-63732289D01*
X128357289Y-63856342D01*
X128261821Y-64011121D01*
X128209873Y-64057845D01*
X128140910Y-64069068D01*
X128076828Y-64041224D01*
X128068601Y-64033705D01*
X127929786Y-63894890D01*
X127757820Y-63769951D01*
X127568414Y-63673444D01*
X127568413Y-63673443D01*
X127568412Y-63673443D01*
X127366243Y-63607754D01*
X127366241Y-63607753D01*
X127366240Y-63607753D01*
X127204957Y-63582208D01*
X127156287Y-63574500D01*
X126943713Y-63574500D01*
X126895042Y-63582208D01*
X126733760Y-63607753D01*
X126531585Y-63673444D01*
X126342179Y-63769951D01*
X126170213Y-63894890D01*
X126019894Y-64045209D01*
X126019890Y-64045214D01*
X125900318Y-64209793D01*
X125844989Y-64252459D01*
X125775375Y-64258438D01*
X125713580Y-64225833D01*
X125699682Y-64209793D01*
X125580109Y-64045214D01*
X125580105Y-64045209D01*
X125429786Y-63894890D01*
X125257820Y-63769951D01*
X125068414Y-63673444D01*
X125068413Y-63673443D01*
X125068412Y-63673443D01*
X124866243Y-63607754D01*
X124866241Y-63607753D01*
X124866240Y-63607753D01*
X124704957Y-63582208D01*
X124656287Y-63574500D01*
X124443713Y-63574500D01*
X124395042Y-63582208D01*
X124233760Y-63607753D01*
X124031585Y-63673444D01*
X123842179Y-63769951D01*
X123670213Y-63894890D01*
X123519894Y-64045209D01*
X123519890Y-64045214D01*
X123400318Y-64209793D01*
X123344989Y-64252459D01*
X123275375Y-64258438D01*
X123213580Y-64225833D01*
X123199682Y-64209793D01*
X123080109Y-64045214D01*
X123080105Y-64045209D01*
X122929786Y-63894890D01*
X122757820Y-63769951D01*
X122568414Y-63673444D01*
X122568413Y-63673443D01*
X122568412Y-63673443D01*
X122366243Y-63607754D01*
X122366241Y-63607753D01*
X122366240Y-63607753D01*
X122204957Y-63582208D01*
X122156287Y-63574500D01*
X121943713Y-63574500D01*
X121895042Y-63582208D01*
X121733760Y-63607753D01*
X121531585Y-63673444D01*
X121342179Y-63769951D01*
X121170213Y-63894890D01*
X121019890Y-64045213D01*
X120894951Y-64217179D01*
X120798444Y-64406585D01*
X120732753Y-64608760D01*
X120707186Y-64770184D01*
X120699500Y-64818713D01*
X111099263Y-64818713D01*
X111078073Y-64689460D01*
X111078072Y-64689459D01*
X111078071Y-64689448D01*
X110986667Y-64360238D01*
X110982327Y-64344607D01*
X110982325Y-64344600D01*
X110849857Y-64012129D01*
X110849848Y-64012111D01*
X110846429Y-64005663D01*
X110721462Y-63769949D01*
X110682215Y-63695922D01*
X110682213Y-63695919D01*
X110682211Y-63695915D01*
X110481365Y-63399689D01*
X110481361Y-63399684D01*
X110481358Y-63399680D01*
X110249668Y-63126914D01*
X110148190Y-63030789D01*
X109989837Y-62880789D01*
X109989830Y-62880783D01*
X109989827Y-62880781D01*
X109902239Y-62814199D01*
X109704919Y-62664200D01*
X109398253Y-62479685D01*
X109398252Y-62479684D01*
X109398248Y-62479682D01*
X109398244Y-62479680D01*
X109073447Y-62329414D01*
X109073441Y-62329411D01*
X109073435Y-62329409D01*
X108903854Y-62272270D01*
X108734273Y-62215131D01*
X108384744Y-62138194D01*
X108028949Y-62099500D01*
X108028948Y-62099500D01*
X107671052Y-62099500D01*
X107671050Y-62099500D01*
X107315255Y-62138194D01*
X106965726Y-62215131D01*
X106750946Y-62287500D01*
X106626565Y-62329409D01*
X106626563Y-62329410D01*
X106626552Y-62329414D01*
X106301755Y-62479680D01*
X106301751Y-62479682D01*
X106073367Y-62617096D01*
X105995081Y-62664200D01*
X105906768Y-62731333D01*
X105710172Y-62880781D01*
X105710163Y-62880789D01*
X105450331Y-63126914D01*
X105218641Y-63399680D01*
X105218634Y-63399690D01*
X105017790Y-63695913D01*
X105017784Y-63695922D01*
X104850151Y-64012111D01*
X104850142Y-64012129D01*
X104717674Y-64344600D01*
X104717672Y-64344607D01*
X104621932Y-64689434D01*
X104621926Y-64689460D01*
X104564029Y-65042614D01*
X104564028Y-65042627D01*
X104564028Y-65042629D01*
X104556277Y-65185577D01*
X104546563Y-65364762D01*
X104544652Y-65400000D01*
X101813038Y-65400000D01*
X101800481Y-55624658D01*
X101820080Y-55557595D01*
X101872825Y-55511772D01*
X101924481Y-55500500D01*
X189375500Y-55500500D01*
X189442539Y-55520185D01*
G37*
%TD.AperFunction*%
%TD*%
M02*
