M48
INCH
T1C0.0118
T2C0.0374
T3C0.1260
%
G90
G05
T1
X1.2205Y-4.0157
X1.2205Y-4.1142
X1.8331Y-2.9543
X1.8917Y-2.3465
X2.0433Y-2.4528
X2.0492Y-2.5543
X2.0512Y-2.5039
X2.3445Y-3.4941
X2.5138Y-3.5492
X2.6299Y-2.9516
X2.6398Y-3.5118
X2.688Y-2.3386
X2.7252Y-3.1441
X2.7579Y-3.2047
X2.815Y-3.6949
X2.8386Y-2.4537
X2.8386Y-2.5039
X2.872Y-3.3071
X3.1476Y-3.0118
X3.1484Y-2.8516
X3.1496Y-2.752
X3.1496Y-2.8016
X3.1496Y-2.9016
X3.1496Y-3.0512
X3.1496Y-3.0906
X3.1496Y-3.1299
X3.1515Y-3.1614
X3.189Y-3.1634
X3.2185Y-2.9744
X3.2362Y-2.9449
X3.4075Y-2.9232
X3.4222Y-2.5305
X3.4754Y-2.2835
X3.622Y-2.5039
X3.6339Y-2.4537
X3.6398Y-3.1535
X3.6398Y-4.8819
X3.6673Y-3.1299
X3.7205Y-3.1142
X3.7657Y-2.8425
X3.7677Y-2.5354
X3.7815Y-2.815
X3.7894Y-3.0925
X3.8189Y-2.5591
X3.8189Y-2.5984
X3.8189Y-2.6516
X3.8189Y-2.6969
X3.8189Y-2.7441
X3.8189Y-2.7953
X3.8386Y-3.0787
X3.8406Y-4.8819
X3.8848Y-3.0659
X3.9514Y-3.0504
X4.2343Y-4.8799
X4.2559Y-3.0295
X4.2628Y-2.2943
X4.2717Y-2.4291
X4.4016Y-2.4537
X4.4055Y-2.5039
X4.4606Y-4.8799
X4.5413Y-2.7008
X4.5689Y-2.7441
X4.5965Y-2.6929
X4.6142Y-2.8386
X4.6201Y-2.7461
X4.6457Y-2.9114
X4.6496Y-2.815
X4.6634Y-2.9508
X4.998Y-4.8819
X5.0Y-2.8858
X5.0492Y-2.3524
X5.0709Y-4.8819
X5.0846Y-2.748
X5.0846Y-2.7953
X5.0846Y-2.8327
X5.0906Y-2.874
X5.0906Y-2.9193
X5.0906Y-3.124
X5.1102Y-2.9528
X5.1339Y-3.0886
X5.1811Y-2.5039
X5.1831Y-4.7874
X5.1909Y-4.7421
X5.1969Y-2.4528
X5.2106Y-4.7008
X5.2224Y-4.7913
X5.3563Y-2.5512
X5.4055Y-2.7008
X5.439Y-2.6516
X5.4458Y-2.6013
X5.4941Y-2.5512
X5.7874Y-2.9516
X5.8327Y-2.3504
X5.9724Y-2.5039
X5.9882Y-2.4528
T2
X1.4764Y-3.9173
X1.4764Y-4.0157
X1.4764Y-4.1142
X1.4764Y-4.2126
X1.8898Y-3.6614
X1.8898Y-4.0551
X1.8898Y-4.4488
X1.9882Y-3.6614
X1.9882Y-4.0551
X1.9882Y-4.4488
X2.0866Y-3.6614
X2.0866Y-4.0551
X2.0866Y-4.4488
X2.185Y-3.6614
X2.185Y-4.0551
X2.185Y-4.4488
X2.2835Y-3.6614
X2.2835Y-4.0551
X2.2835Y-4.4488
X2.3819Y-3.6614
X2.3819Y-4.0551
X2.3819Y-4.4488
X2.4803Y-3.6614
X2.4803Y-4.0551
X2.4803Y-4.4488
X2.5787Y-3.6614
X2.5787Y-4.0551
X2.5787Y-4.4488
X2.6772Y-3.6614
X2.6772Y-4.0551
X2.6772Y-4.4488
X2.9724Y-3.6614
X2.9724Y-4.0551
X2.9724Y-4.4488
X3.0709Y-3.6614
X3.0709Y-4.0551
X3.0709Y-4.4488
X3.1693Y-3.6614
X3.1693Y-4.0551
X3.1693Y-4.4488
X3.2677Y-3.6614
X3.2677Y-4.0551
X3.2677Y-4.4488
X3.3661Y-3.6614
X3.3661Y-4.0551
X3.4646Y-3.6614
X3.4646Y-4.0551
X3.563Y-3.6614
X3.563Y-4.0551
X3.563Y-4.4488
X3.6614Y-3.6614
X3.6614Y-4.0551
X3.6614Y-4.4488
X3.7598Y-3.6614
X3.7598Y-4.0551
X3.7598Y-4.4488
X3.8583Y-4.4488
X4.0551Y-3.6614
X4.0551Y-4.0551
X4.1535Y-3.6614
X4.1535Y-4.0551
X4.1535Y-4.4488
X4.252Y-3.6614
X4.252Y-4.0551
X4.252Y-4.4488
X4.3504Y-3.6614
X4.3504Y-4.0551
X4.3504Y-4.4488
X4.4488Y-3.6614
X4.4488Y-4.0551
X4.4488Y-4.4488
X4.5472Y-3.6614
X4.5472Y-4.0551
X4.6457Y-3.6614
X4.6457Y-4.0551
X4.7441Y-3.6614
X4.7441Y-4.0551
X4.7441Y-4.4488
X4.8425Y-3.6614
X4.8425Y-4.0551
X4.8425Y-4.4488
X4.9409Y-4.4488
X5.0394Y-4.4488
X5.1378Y-3.6614
X5.1378Y-4.0551
X5.2362Y-3.6614
X5.2362Y-4.0551
X5.3346Y-3.6614
X5.3346Y-4.0551
X5.4331Y-3.6614
X5.4331Y-4.0551
X5.5315Y-3.6614
X5.5315Y-4.0551
X5.6299Y-3.6614
X5.6299Y-4.0551
X5.7283Y-3.6614
X5.7283Y-4.0551
X5.8268Y-3.6614
X5.8268Y-4.0551
X5.9252Y-3.6614
X5.9252Y-4.0551
T3
X1.1811Y-2.2815
X1.1825Y-4.784
X6.1029Y-4.784
M30
