%TF.GenerationSoftware,KiCad,Pcbnew,8.0.6*%
%TF.CreationDate,2024-12-01T20:19:37+01:00*%
%TF.ProjectId,puzzle1,70757a7a-6c65-4312-9e6b-696361645f70,rev?*%
%TF.SameCoordinates,Original*%
%TF.FileFunction,Legend,Top*%
%TF.FilePolarity,Positive*%
%FSLAX46Y46*%
G04 Gerber Fmt 4.6, Leading zero omitted, Abs format (unit mm)*
G04 Created by KiCad (PCBNEW 8.0.6) date 2024-12-01 20:19:37*
%MOMM*%
%LPD*%
G01*
G04 APERTURE LIST*
G04 Aperture macros list*
%AMRoundRect*
0 Rectangle with rounded corners*
0 $1 Rounding radius*
0 $2 $3 $4 $5 $6 $7 $8 $9 X,Y pos of 4 corners*
0 Add a 4 corners polygon primitive as box body*
4,1,4,$2,$3,$4,$5,$6,$7,$8,$9,$2,$3,0*
0 Add four circle primitives for the rounded corners*
1,1,$1+$1,$2,$3*
1,1,$1+$1,$4,$5*
1,1,$1+$1,$6,$7*
1,1,$1+$1,$8,$9*
0 Add four rect primitives between the rounded corners*
20,1,$1+$1,$2,$3,$4,$5,0*
20,1,$1+$1,$4,$5,$6,$7,0*
20,1,$1+$1,$6,$7,$8,$9,0*
20,1,$1+$1,$8,$9,$2,$3,0*%
G04 Aperture macros list end*
%ADD10C,0.100000*%
%ADD11C,0.150000*%
%ADD12C,0.120000*%
%ADD13RoundRect,0.237500X0.237500X-0.250000X0.237500X0.250000X-0.237500X0.250000X-0.237500X-0.250000X0*%
%ADD14C,5.600000*%
%ADD15RoundRect,0.250000X-0.600000X-0.725000X0.600000X-0.725000X0.600000X0.725000X-0.600000X0.725000X0*%
%ADD16O,1.700000X1.950000*%
%ADD17RoundRect,0.150000X-0.875000X-0.150000X0.875000X-0.150000X0.875000X0.150000X-0.875000X0.150000X0*%
%ADD18RoundRect,0.237500X-0.237500X0.250000X-0.237500X-0.250000X0.237500X-0.250000X0.237500X0.250000X0*%
%ADD19RoundRect,0.237500X0.300000X0.237500X-0.300000X0.237500X-0.300000X-0.237500X0.300000X-0.237500X0*%
%ADD20RoundRect,0.250000X-0.725000X0.600000X-0.725000X-0.600000X0.725000X-0.600000X0.725000X0.600000X0*%
%ADD21O,1.950000X1.700000*%
G04 APERTURE END LIST*
D10*
X83527580Y-117158646D02*
X82527580Y-117396741D01*
X82527580Y-117396741D02*
X83241866Y-117587217D01*
X83241866Y-117587217D02*
X82527580Y-117777693D01*
X82527580Y-117777693D02*
X83527580Y-118015789D01*
X82527580Y-118396741D02*
X83194247Y-118396741D01*
X83527580Y-118396741D02*
X83479961Y-118349122D01*
X83479961Y-118349122D02*
X83432342Y-118396741D01*
X83432342Y-118396741D02*
X83479961Y-118444360D01*
X83479961Y-118444360D02*
X83527580Y-118396741D01*
X83527580Y-118396741D02*
X83432342Y-118396741D01*
X82527580Y-118872931D02*
X83194247Y-118872931D01*
X83003771Y-118872931D02*
X83099009Y-118920550D01*
X83099009Y-118920550D02*
X83146628Y-118968169D01*
X83146628Y-118968169D02*
X83194247Y-119063407D01*
X83194247Y-119063407D02*
X83194247Y-119158645D01*
X82575200Y-119872931D02*
X82527580Y-119777693D01*
X82527580Y-119777693D02*
X82527580Y-119587217D01*
X82527580Y-119587217D02*
X82575200Y-119491979D01*
X82575200Y-119491979D02*
X82670438Y-119444360D01*
X82670438Y-119444360D02*
X83051390Y-119444360D01*
X83051390Y-119444360D02*
X83146628Y-119491979D01*
X83146628Y-119491979D02*
X83194247Y-119587217D01*
X83194247Y-119587217D02*
X83194247Y-119777693D01*
X83194247Y-119777693D02*
X83146628Y-119872931D01*
X83146628Y-119872931D02*
X83051390Y-119920550D01*
X83051390Y-119920550D02*
X82956152Y-119920550D01*
X82956152Y-119920550D02*
X82860914Y-119444360D01*
X83527580Y-120253884D02*
X83527580Y-120872931D01*
X83527580Y-120872931D02*
X83146628Y-120539598D01*
X83146628Y-120539598D02*
X83146628Y-120682455D01*
X83146628Y-120682455D02*
X83099009Y-120777693D01*
X83099009Y-120777693D02*
X83051390Y-120825312D01*
X83051390Y-120825312D02*
X82956152Y-120872931D01*
X82956152Y-120872931D02*
X82718057Y-120872931D01*
X82718057Y-120872931D02*
X82622819Y-120825312D01*
X82622819Y-120825312D02*
X82575200Y-120777693D01*
X82575200Y-120777693D02*
X82527580Y-120682455D01*
X82527580Y-120682455D02*
X82527580Y-120396741D01*
X82527580Y-120396741D02*
X82575200Y-120301503D01*
X82575200Y-120301503D02*
X82622819Y-120253884D01*
X96177693Y-117020038D02*
X96082455Y-116972419D01*
X96082455Y-116972419D02*
X95939598Y-116972419D01*
X95939598Y-116972419D02*
X95796741Y-117020038D01*
X95796741Y-117020038D02*
X95701503Y-117115276D01*
X95701503Y-117115276D02*
X95653884Y-117210514D01*
X95653884Y-117210514D02*
X95606265Y-117400990D01*
X95606265Y-117400990D02*
X95606265Y-117543847D01*
X95606265Y-117543847D02*
X95653884Y-117734323D01*
X95653884Y-117734323D02*
X95701503Y-117829561D01*
X95701503Y-117829561D02*
X95796741Y-117924800D01*
X95796741Y-117924800D02*
X95939598Y-117972419D01*
X95939598Y-117972419D02*
X96034836Y-117972419D01*
X96034836Y-117972419D02*
X96177693Y-117924800D01*
X96177693Y-117924800D02*
X96225312Y-117877180D01*
X96225312Y-117877180D02*
X96225312Y-117543847D01*
X96225312Y-117543847D02*
X96034836Y-117543847D01*
X96653884Y-117972419D02*
X96653884Y-116972419D01*
X96653884Y-116972419D02*
X97225312Y-117972419D01*
X97225312Y-117972419D02*
X97225312Y-116972419D01*
X97701503Y-117972419D02*
X97701503Y-116972419D01*
X97701503Y-116972419D02*
X97939598Y-116972419D01*
X97939598Y-116972419D02*
X98082455Y-117020038D01*
X98082455Y-117020038D02*
X98177693Y-117115276D01*
X98177693Y-117115276D02*
X98225312Y-117210514D01*
X98225312Y-117210514D02*
X98272931Y-117400990D01*
X98272931Y-117400990D02*
X98272931Y-117543847D01*
X98272931Y-117543847D02*
X98225312Y-117734323D01*
X98225312Y-117734323D02*
X98177693Y-117829561D01*
X98177693Y-117829561D02*
X98082455Y-117924800D01*
X98082455Y-117924800D02*
X97939598Y-117972419D01*
X97939598Y-117972419D02*
X97701503Y-117972419D01*
X78377580Y-117058646D02*
X77377580Y-117296741D01*
X77377580Y-117296741D02*
X78091866Y-117487217D01*
X78091866Y-117487217D02*
X77377580Y-117677693D01*
X77377580Y-117677693D02*
X78377580Y-117915789D01*
X77377580Y-118296741D02*
X78044247Y-118296741D01*
X78377580Y-118296741D02*
X78329961Y-118249122D01*
X78329961Y-118249122D02*
X78282342Y-118296741D01*
X78282342Y-118296741D02*
X78329961Y-118344360D01*
X78329961Y-118344360D02*
X78377580Y-118296741D01*
X78377580Y-118296741D02*
X78282342Y-118296741D01*
X77377580Y-118772931D02*
X78044247Y-118772931D01*
X77853771Y-118772931D02*
X77949009Y-118820550D01*
X77949009Y-118820550D02*
X77996628Y-118868169D01*
X77996628Y-118868169D02*
X78044247Y-118963407D01*
X78044247Y-118963407D02*
X78044247Y-119058645D01*
X77425200Y-119772931D02*
X77377580Y-119677693D01*
X77377580Y-119677693D02*
X77377580Y-119487217D01*
X77377580Y-119487217D02*
X77425200Y-119391979D01*
X77425200Y-119391979D02*
X77520438Y-119344360D01*
X77520438Y-119344360D02*
X77901390Y-119344360D01*
X77901390Y-119344360D02*
X77996628Y-119391979D01*
X77996628Y-119391979D02*
X78044247Y-119487217D01*
X78044247Y-119487217D02*
X78044247Y-119677693D01*
X78044247Y-119677693D02*
X77996628Y-119772931D01*
X77996628Y-119772931D02*
X77901390Y-119820550D01*
X77901390Y-119820550D02*
X77806152Y-119820550D01*
X77806152Y-119820550D02*
X77710914Y-119344360D01*
X77377580Y-120772931D02*
X77377580Y-120201503D01*
X77377580Y-120487217D02*
X78377580Y-120487217D01*
X78377580Y-120487217D02*
X78234723Y-120391979D01*
X78234723Y-120391979D02*
X78139485Y-120296741D01*
X78139485Y-120296741D02*
X78091866Y-120201503D01*
X107320038Y-118472306D02*
X107272419Y-118567544D01*
X107272419Y-118567544D02*
X107272419Y-118710401D01*
X107272419Y-118710401D02*
X107320038Y-118853258D01*
X107320038Y-118853258D02*
X107415276Y-118948496D01*
X107415276Y-118948496D02*
X107510514Y-118996115D01*
X107510514Y-118996115D02*
X107700990Y-119043734D01*
X107700990Y-119043734D02*
X107843847Y-119043734D01*
X107843847Y-119043734D02*
X108034323Y-118996115D01*
X108034323Y-118996115D02*
X108129561Y-118948496D01*
X108129561Y-118948496D02*
X108224800Y-118853258D01*
X108224800Y-118853258D02*
X108272419Y-118710401D01*
X108272419Y-118710401D02*
X108272419Y-118615163D01*
X108272419Y-118615163D02*
X108224800Y-118472306D01*
X108224800Y-118472306D02*
X108177180Y-118424687D01*
X108177180Y-118424687D02*
X107843847Y-118424687D01*
X107843847Y-118424687D02*
X107843847Y-118615163D01*
X108272419Y-117996115D02*
X107605752Y-117996115D01*
X107796228Y-117996115D02*
X107700990Y-117948496D01*
X107700990Y-117948496D02*
X107653371Y-117900877D01*
X107653371Y-117900877D02*
X107605752Y-117805639D01*
X107605752Y-117805639D02*
X107605752Y-117710401D01*
X108224800Y-116996115D02*
X108272419Y-117091353D01*
X108272419Y-117091353D02*
X108272419Y-117281829D01*
X108272419Y-117281829D02*
X108224800Y-117377067D01*
X108224800Y-117377067D02*
X108129561Y-117424686D01*
X108129561Y-117424686D02*
X107748609Y-117424686D01*
X107748609Y-117424686D02*
X107653371Y-117377067D01*
X107653371Y-117377067D02*
X107605752Y-117281829D01*
X107605752Y-117281829D02*
X107605752Y-117091353D01*
X107605752Y-117091353D02*
X107653371Y-116996115D01*
X107653371Y-116996115D02*
X107748609Y-116948496D01*
X107748609Y-116948496D02*
X107843847Y-116948496D01*
X107843847Y-116948496D02*
X107939085Y-117424686D01*
X40777693Y-106670038D02*
X40682455Y-106622419D01*
X40682455Y-106622419D02*
X40539598Y-106622419D01*
X40539598Y-106622419D02*
X40396741Y-106670038D01*
X40396741Y-106670038D02*
X40301503Y-106765276D01*
X40301503Y-106765276D02*
X40253884Y-106860514D01*
X40253884Y-106860514D02*
X40206265Y-107050990D01*
X40206265Y-107050990D02*
X40206265Y-107193847D01*
X40206265Y-107193847D02*
X40253884Y-107384323D01*
X40253884Y-107384323D02*
X40301503Y-107479561D01*
X40301503Y-107479561D02*
X40396741Y-107574800D01*
X40396741Y-107574800D02*
X40539598Y-107622419D01*
X40539598Y-107622419D02*
X40634836Y-107622419D01*
X40634836Y-107622419D02*
X40777693Y-107574800D01*
X40777693Y-107574800D02*
X40825312Y-107527180D01*
X40825312Y-107527180D02*
X40825312Y-107193847D01*
X40825312Y-107193847D02*
X40634836Y-107193847D01*
X41253884Y-107622419D02*
X41253884Y-106622419D01*
X41253884Y-106622419D02*
X41825312Y-107622419D01*
X41825312Y-107622419D02*
X41825312Y-106622419D01*
X42301503Y-107622419D02*
X42301503Y-106622419D01*
X42301503Y-106622419D02*
X42539598Y-106622419D01*
X42539598Y-106622419D02*
X42682455Y-106670038D01*
X42682455Y-106670038D02*
X42777693Y-106765276D01*
X42777693Y-106765276D02*
X42825312Y-106860514D01*
X42825312Y-106860514D02*
X42872931Y-107050990D01*
X42872931Y-107050990D02*
X42872931Y-107193847D01*
X42872931Y-107193847D02*
X42825312Y-107384323D01*
X42825312Y-107384323D02*
X42777693Y-107479561D01*
X42777693Y-107479561D02*
X42682455Y-107574800D01*
X42682455Y-107574800D02*
X42539598Y-107622419D01*
X42539598Y-107622419D02*
X42301503Y-107622419D01*
X75827580Y-117111027D02*
X74827580Y-117444360D01*
X74827580Y-117444360D02*
X75827580Y-117777693D01*
X74922819Y-118682455D02*
X74875200Y-118634836D01*
X74875200Y-118634836D02*
X74827580Y-118491979D01*
X74827580Y-118491979D02*
X74827580Y-118396741D01*
X74827580Y-118396741D02*
X74875200Y-118253884D01*
X74875200Y-118253884D02*
X74970438Y-118158646D01*
X74970438Y-118158646D02*
X75065676Y-118111027D01*
X75065676Y-118111027D02*
X75256152Y-118063408D01*
X75256152Y-118063408D02*
X75399009Y-118063408D01*
X75399009Y-118063408D02*
X75589485Y-118111027D01*
X75589485Y-118111027D02*
X75684723Y-118158646D01*
X75684723Y-118158646D02*
X75779961Y-118253884D01*
X75779961Y-118253884D02*
X75827580Y-118396741D01*
X75827580Y-118396741D02*
X75827580Y-118491979D01*
X75827580Y-118491979D02*
X75779961Y-118634836D01*
X75779961Y-118634836D02*
X75732342Y-118682455D01*
X74922819Y-119682455D02*
X74875200Y-119634836D01*
X74875200Y-119634836D02*
X74827580Y-119491979D01*
X74827580Y-119491979D02*
X74827580Y-119396741D01*
X74827580Y-119396741D02*
X74875200Y-119253884D01*
X74875200Y-119253884D02*
X74970438Y-119158646D01*
X74970438Y-119158646D02*
X75065676Y-119111027D01*
X75065676Y-119111027D02*
X75256152Y-119063408D01*
X75256152Y-119063408D02*
X75399009Y-119063408D01*
X75399009Y-119063408D02*
X75589485Y-119111027D01*
X75589485Y-119111027D02*
X75684723Y-119158646D01*
X75684723Y-119158646D02*
X75779961Y-119253884D01*
X75779961Y-119253884D02*
X75827580Y-119396741D01*
X75827580Y-119396741D02*
X75827580Y-119491979D01*
X75827580Y-119491979D02*
X75779961Y-119634836D01*
X75779961Y-119634836D02*
X75732342Y-119682455D01*
X126377693Y-117220038D02*
X126282455Y-117172419D01*
X126282455Y-117172419D02*
X126139598Y-117172419D01*
X126139598Y-117172419D02*
X125996741Y-117220038D01*
X125996741Y-117220038D02*
X125901503Y-117315276D01*
X125901503Y-117315276D02*
X125853884Y-117410514D01*
X125853884Y-117410514D02*
X125806265Y-117600990D01*
X125806265Y-117600990D02*
X125806265Y-117743847D01*
X125806265Y-117743847D02*
X125853884Y-117934323D01*
X125853884Y-117934323D02*
X125901503Y-118029561D01*
X125901503Y-118029561D02*
X125996741Y-118124800D01*
X125996741Y-118124800D02*
X126139598Y-118172419D01*
X126139598Y-118172419D02*
X126234836Y-118172419D01*
X126234836Y-118172419D02*
X126377693Y-118124800D01*
X126377693Y-118124800D02*
X126425312Y-118077180D01*
X126425312Y-118077180D02*
X126425312Y-117743847D01*
X126425312Y-117743847D02*
X126234836Y-117743847D01*
X126853884Y-118172419D02*
X126853884Y-117172419D01*
X126853884Y-117172419D02*
X127425312Y-118172419D01*
X127425312Y-118172419D02*
X127425312Y-117172419D01*
X127901503Y-118172419D02*
X127901503Y-117172419D01*
X127901503Y-117172419D02*
X128139598Y-117172419D01*
X128139598Y-117172419D02*
X128282455Y-117220038D01*
X128282455Y-117220038D02*
X128377693Y-117315276D01*
X128377693Y-117315276D02*
X128425312Y-117410514D01*
X128425312Y-117410514D02*
X128472931Y-117600990D01*
X128472931Y-117600990D02*
X128472931Y-117743847D01*
X128472931Y-117743847D02*
X128425312Y-117934323D01*
X128425312Y-117934323D02*
X128377693Y-118029561D01*
X128377693Y-118029561D02*
X128282455Y-118124800D01*
X128282455Y-118124800D02*
X128139598Y-118172419D01*
X128139598Y-118172419D02*
X127901503Y-118172419D01*
X120822419Y-118574687D02*
X120346228Y-118908020D01*
X120822419Y-119146115D02*
X119822419Y-119146115D01*
X119822419Y-119146115D02*
X119822419Y-118765163D01*
X119822419Y-118765163D02*
X119870038Y-118669925D01*
X119870038Y-118669925D02*
X119917657Y-118622306D01*
X119917657Y-118622306D02*
X120012895Y-118574687D01*
X120012895Y-118574687D02*
X120155752Y-118574687D01*
X120155752Y-118574687D02*
X120250990Y-118622306D01*
X120250990Y-118622306D02*
X120298609Y-118669925D01*
X120298609Y-118669925D02*
X120346228Y-118765163D01*
X120346228Y-118765163D02*
X120346228Y-119146115D01*
X120774800Y-117765163D02*
X120822419Y-117860401D01*
X120822419Y-117860401D02*
X120822419Y-118050877D01*
X120822419Y-118050877D02*
X120774800Y-118146115D01*
X120774800Y-118146115D02*
X120679561Y-118193734D01*
X120679561Y-118193734D02*
X120298609Y-118193734D01*
X120298609Y-118193734D02*
X120203371Y-118146115D01*
X120203371Y-118146115D02*
X120155752Y-118050877D01*
X120155752Y-118050877D02*
X120155752Y-117860401D01*
X120155752Y-117860401D02*
X120203371Y-117765163D01*
X120203371Y-117765163D02*
X120298609Y-117717544D01*
X120298609Y-117717544D02*
X120393847Y-117717544D01*
X120393847Y-117717544D02*
X120489085Y-118193734D01*
X120822419Y-116860401D02*
X119822419Y-116860401D01*
X120774800Y-116860401D02*
X120822419Y-116955639D01*
X120822419Y-116955639D02*
X120822419Y-117146115D01*
X120822419Y-117146115D02*
X120774800Y-117241353D01*
X120774800Y-117241353D02*
X120727180Y-117288972D01*
X120727180Y-117288972D02*
X120631942Y-117336591D01*
X120631942Y-117336591D02*
X120346228Y-117336591D01*
X120346228Y-117336591D02*
X120250990Y-117288972D01*
X120250990Y-117288972D02*
X120203371Y-117241353D01*
X120203371Y-117241353D02*
X120155752Y-117146115D01*
X120155752Y-117146115D02*
X120155752Y-116955639D01*
X120155752Y-116955639D02*
X120203371Y-116860401D01*
X92420038Y-118422306D02*
X92372419Y-118517544D01*
X92372419Y-118517544D02*
X92372419Y-118660401D01*
X92372419Y-118660401D02*
X92420038Y-118803258D01*
X92420038Y-118803258D02*
X92515276Y-118898496D01*
X92515276Y-118898496D02*
X92610514Y-118946115D01*
X92610514Y-118946115D02*
X92800990Y-118993734D01*
X92800990Y-118993734D02*
X92943847Y-118993734D01*
X92943847Y-118993734D02*
X93134323Y-118946115D01*
X93134323Y-118946115D02*
X93229561Y-118898496D01*
X93229561Y-118898496D02*
X93324800Y-118803258D01*
X93324800Y-118803258D02*
X93372419Y-118660401D01*
X93372419Y-118660401D02*
X93372419Y-118565163D01*
X93372419Y-118565163D02*
X93324800Y-118422306D01*
X93324800Y-118422306D02*
X93277180Y-118374687D01*
X93277180Y-118374687D02*
X92943847Y-118374687D01*
X92943847Y-118374687D02*
X92943847Y-118565163D01*
X93372419Y-117946115D02*
X92705752Y-117946115D01*
X92896228Y-117946115D02*
X92800990Y-117898496D01*
X92800990Y-117898496D02*
X92753371Y-117850877D01*
X92753371Y-117850877D02*
X92705752Y-117755639D01*
X92705752Y-117755639D02*
X92705752Y-117660401D01*
X93324800Y-116946115D02*
X93372419Y-117041353D01*
X93372419Y-117041353D02*
X93372419Y-117231829D01*
X93372419Y-117231829D02*
X93324800Y-117327067D01*
X93324800Y-117327067D02*
X93229561Y-117374686D01*
X93229561Y-117374686D02*
X92848609Y-117374686D01*
X92848609Y-117374686D02*
X92753371Y-117327067D01*
X92753371Y-117327067D02*
X92705752Y-117231829D01*
X92705752Y-117231829D02*
X92705752Y-117041353D01*
X92705752Y-117041353D02*
X92753371Y-116946115D01*
X92753371Y-116946115D02*
X92848609Y-116898496D01*
X92848609Y-116898496D02*
X92943847Y-116898496D01*
X92943847Y-116898496D02*
X93039085Y-117374686D01*
X123058646Y-79425920D02*
X123249122Y-80092587D01*
X123249122Y-80092587D02*
X123439598Y-79616396D01*
X123439598Y-79616396D02*
X123630074Y-80092587D01*
X123630074Y-80092587D02*
X123820550Y-79425920D01*
X124106265Y-79425920D02*
X124296741Y-80092587D01*
X124296741Y-80092587D02*
X124487217Y-79616396D01*
X124487217Y-79616396D02*
X124677693Y-80092587D01*
X124677693Y-80092587D02*
X124868169Y-79425920D01*
X125153884Y-79425920D02*
X125344360Y-80092587D01*
X125344360Y-80092587D02*
X125534836Y-79616396D01*
X125534836Y-79616396D02*
X125725312Y-80092587D01*
X125725312Y-80092587D02*
X125915788Y-79425920D01*
X126296741Y-79997348D02*
X126344360Y-80044968D01*
X126344360Y-80044968D02*
X126296741Y-80092587D01*
X126296741Y-80092587D02*
X126249122Y-80044968D01*
X126249122Y-80044968D02*
X126296741Y-79997348D01*
X126296741Y-79997348D02*
X126296741Y-80092587D01*
X126772931Y-79425920D02*
X126772931Y-80425920D01*
X126772931Y-79473539D02*
X126868169Y-79425920D01*
X126868169Y-79425920D02*
X127058645Y-79425920D01*
X127058645Y-79425920D02*
X127153883Y-79473539D01*
X127153883Y-79473539D02*
X127201502Y-79521158D01*
X127201502Y-79521158D02*
X127249121Y-79616396D01*
X127249121Y-79616396D02*
X127249121Y-79902110D01*
X127249121Y-79902110D02*
X127201502Y-79997348D01*
X127201502Y-79997348D02*
X127153883Y-80044968D01*
X127153883Y-80044968D02*
X127058645Y-80092587D01*
X127058645Y-80092587D02*
X126868169Y-80092587D01*
X126868169Y-80092587D02*
X126772931Y-80044968D01*
X127677693Y-80092587D02*
X127677693Y-79092587D01*
X128106264Y-80092587D02*
X128106264Y-79568777D01*
X128106264Y-79568777D02*
X128058645Y-79473539D01*
X128058645Y-79473539D02*
X127963407Y-79425920D01*
X127963407Y-79425920D02*
X127820550Y-79425920D01*
X127820550Y-79425920D02*
X127725312Y-79473539D01*
X127725312Y-79473539D02*
X127677693Y-79521158D01*
X129011026Y-80092587D02*
X129011026Y-79568777D01*
X129011026Y-79568777D02*
X128963407Y-79473539D01*
X128963407Y-79473539D02*
X128868169Y-79425920D01*
X128868169Y-79425920D02*
X128677693Y-79425920D01*
X128677693Y-79425920D02*
X128582455Y-79473539D01*
X129011026Y-80044968D02*
X128915788Y-80092587D01*
X128915788Y-80092587D02*
X128677693Y-80092587D01*
X128677693Y-80092587D02*
X128582455Y-80044968D01*
X128582455Y-80044968D02*
X128534836Y-79949729D01*
X128534836Y-79949729D02*
X128534836Y-79854491D01*
X128534836Y-79854491D02*
X128582455Y-79759253D01*
X128582455Y-79759253D02*
X128677693Y-79711634D01*
X128677693Y-79711634D02*
X128915788Y-79711634D01*
X128915788Y-79711634D02*
X129011026Y-79664015D01*
X129487217Y-79425920D02*
X129487217Y-80092587D01*
X129487217Y-79521158D02*
X129534836Y-79473539D01*
X129534836Y-79473539D02*
X129630074Y-79425920D01*
X129630074Y-79425920D02*
X129772931Y-79425920D01*
X129772931Y-79425920D02*
X129868169Y-79473539D01*
X129868169Y-79473539D02*
X129915788Y-79568777D01*
X129915788Y-79568777D02*
X129915788Y-80092587D01*
X130249122Y-79425920D02*
X130630074Y-79425920D01*
X130391979Y-79092587D02*
X130391979Y-79949729D01*
X130391979Y-79949729D02*
X130439598Y-80044968D01*
X130439598Y-80044968D02*
X130534836Y-80092587D01*
X130534836Y-80092587D02*
X130630074Y-80092587D01*
X131106265Y-80092587D02*
X131011027Y-80044968D01*
X131011027Y-80044968D02*
X130963408Y-79997348D01*
X130963408Y-79997348D02*
X130915789Y-79902110D01*
X130915789Y-79902110D02*
X130915789Y-79616396D01*
X130915789Y-79616396D02*
X130963408Y-79521158D01*
X130963408Y-79521158D02*
X131011027Y-79473539D01*
X131011027Y-79473539D02*
X131106265Y-79425920D01*
X131106265Y-79425920D02*
X131249122Y-79425920D01*
X131249122Y-79425920D02*
X131344360Y-79473539D01*
X131344360Y-79473539D02*
X131391979Y-79521158D01*
X131391979Y-79521158D02*
X131439598Y-79616396D01*
X131439598Y-79616396D02*
X131439598Y-79902110D01*
X131439598Y-79902110D02*
X131391979Y-79997348D01*
X131391979Y-79997348D02*
X131344360Y-80044968D01*
X131344360Y-80044968D02*
X131249122Y-80092587D01*
X131249122Y-80092587D02*
X131106265Y-80092587D01*
X131868170Y-80092587D02*
X131868170Y-79425920D01*
X131868170Y-79521158D02*
X131915789Y-79473539D01*
X131915789Y-79473539D02*
X132011027Y-79425920D01*
X132011027Y-79425920D02*
X132153884Y-79425920D01*
X132153884Y-79425920D02*
X132249122Y-79473539D01*
X132249122Y-79473539D02*
X132296741Y-79568777D01*
X132296741Y-79568777D02*
X132296741Y-80092587D01*
X132296741Y-79568777D02*
X132344360Y-79473539D01*
X132344360Y-79473539D02*
X132439598Y-79425920D01*
X132439598Y-79425920D02*
X132582455Y-79425920D01*
X132582455Y-79425920D02*
X132677694Y-79473539D01*
X132677694Y-79473539D02*
X132725313Y-79568777D01*
X132725313Y-79568777D02*
X132725313Y-80092587D01*
X133106265Y-79425920D02*
X133344360Y-80092587D01*
X133344360Y-80092587D02*
X133582455Y-79425920D01*
X134391979Y-80092587D02*
X134391979Y-79568777D01*
X134391979Y-79568777D02*
X134344360Y-79473539D01*
X134344360Y-79473539D02*
X134249122Y-79425920D01*
X134249122Y-79425920D02*
X134058646Y-79425920D01*
X134058646Y-79425920D02*
X133963408Y-79473539D01*
X134391979Y-80044968D02*
X134296741Y-80092587D01*
X134296741Y-80092587D02*
X134058646Y-80092587D01*
X134058646Y-80092587D02*
X133963408Y-80044968D01*
X133963408Y-80044968D02*
X133915789Y-79949729D01*
X133915789Y-79949729D02*
X133915789Y-79854491D01*
X133915789Y-79854491D02*
X133963408Y-79759253D01*
X133963408Y-79759253D02*
X134058646Y-79711634D01*
X134058646Y-79711634D02*
X134296741Y-79711634D01*
X134296741Y-79711634D02*
X134391979Y-79664015D01*
X135296741Y-79425920D02*
X135296741Y-80092587D01*
X134868170Y-79425920D02*
X134868170Y-79949729D01*
X134868170Y-79949729D02*
X134915789Y-80044968D01*
X134915789Y-80044968D02*
X135011027Y-80092587D01*
X135011027Y-80092587D02*
X135153884Y-80092587D01*
X135153884Y-80092587D02*
X135249122Y-80044968D01*
X135249122Y-80044968D02*
X135296741Y-79997348D01*
X135915789Y-80092587D02*
X135820551Y-80044968D01*
X135820551Y-80044968D02*
X135772932Y-79949729D01*
X135772932Y-79949729D02*
X135772932Y-79092587D01*
X136153885Y-79425920D02*
X136534837Y-79425920D01*
X136296742Y-79092587D02*
X136296742Y-79949729D01*
X136296742Y-79949729D02*
X136344361Y-80044968D01*
X136344361Y-80044968D02*
X136439599Y-80092587D01*
X136439599Y-80092587D02*
X136534837Y-80092587D01*
X136868171Y-79997348D02*
X136915790Y-80044968D01*
X136915790Y-80044968D02*
X136868171Y-80092587D01*
X136868171Y-80092587D02*
X136820552Y-80044968D01*
X136820552Y-80044968D02*
X136868171Y-79997348D01*
X136868171Y-79997348D02*
X136868171Y-80092587D01*
X137344361Y-79425920D02*
X137344361Y-80092587D01*
X137344361Y-79521158D02*
X137391980Y-79473539D01*
X137391980Y-79473539D02*
X137487218Y-79425920D01*
X137487218Y-79425920D02*
X137630075Y-79425920D01*
X137630075Y-79425920D02*
X137725313Y-79473539D01*
X137725313Y-79473539D02*
X137772932Y-79568777D01*
X137772932Y-79568777D02*
X137772932Y-80092587D01*
X138391980Y-80092587D02*
X138296742Y-80044968D01*
X138296742Y-80044968D02*
X138249123Y-79949729D01*
X138249123Y-79949729D02*
X138249123Y-79092587D01*
X123153884Y-81702531D02*
X123153884Y-80702531D01*
X123153884Y-80702531D02*
X123534836Y-80702531D01*
X123534836Y-80702531D02*
X123630074Y-80750150D01*
X123630074Y-80750150D02*
X123677693Y-80797769D01*
X123677693Y-80797769D02*
X123725312Y-80893007D01*
X123725312Y-80893007D02*
X123725312Y-81035864D01*
X123725312Y-81035864D02*
X123677693Y-81131102D01*
X123677693Y-81131102D02*
X123630074Y-81178721D01*
X123630074Y-81178721D02*
X123534836Y-81226340D01*
X123534836Y-81226340D02*
X123153884Y-81226340D01*
X124582455Y-81035864D02*
X124582455Y-81702531D01*
X124153884Y-81035864D02*
X124153884Y-81559673D01*
X124153884Y-81559673D02*
X124201503Y-81654912D01*
X124201503Y-81654912D02*
X124296741Y-81702531D01*
X124296741Y-81702531D02*
X124439598Y-81702531D01*
X124439598Y-81702531D02*
X124534836Y-81654912D01*
X124534836Y-81654912D02*
X124582455Y-81607292D01*
X124963408Y-81035864D02*
X125487217Y-81035864D01*
X125487217Y-81035864D02*
X124963408Y-81702531D01*
X124963408Y-81702531D02*
X125487217Y-81702531D01*
X125772932Y-81035864D02*
X126296741Y-81035864D01*
X126296741Y-81035864D02*
X125772932Y-81702531D01*
X125772932Y-81702531D02*
X126296741Y-81702531D01*
X126820551Y-81702531D02*
X126725313Y-81654912D01*
X126725313Y-81654912D02*
X126677694Y-81559673D01*
X126677694Y-81559673D02*
X126677694Y-80702531D01*
X127582456Y-81654912D02*
X127487218Y-81702531D01*
X127487218Y-81702531D02*
X127296742Y-81702531D01*
X127296742Y-81702531D02*
X127201504Y-81654912D01*
X127201504Y-81654912D02*
X127153885Y-81559673D01*
X127153885Y-81559673D02*
X127153885Y-81178721D01*
X127153885Y-81178721D02*
X127201504Y-81083483D01*
X127201504Y-81083483D02*
X127296742Y-81035864D01*
X127296742Y-81035864D02*
X127487218Y-81035864D01*
X127487218Y-81035864D02*
X127582456Y-81083483D01*
X127582456Y-81083483D02*
X127630075Y-81178721D01*
X127630075Y-81178721D02*
X127630075Y-81273959D01*
X127630075Y-81273959D02*
X127153885Y-81369197D01*
X128582456Y-81702531D02*
X128011028Y-81702531D01*
X128296742Y-81702531D02*
X128296742Y-80702531D01*
X128296742Y-80702531D02*
X128201504Y-80845388D01*
X128201504Y-80845388D02*
X128106266Y-80940626D01*
X128106266Y-80940626D02*
X128011028Y-80988245D01*
X129772933Y-81702531D02*
X129772933Y-81035864D01*
X129772933Y-80702531D02*
X129725314Y-80750150D01*
X129725314Y-80750150D02*
X129772933Y-80797769D01*
X129772933Y-80797769D02*
X129820552Y-80750150D01*
X129820552Y-80750150D02*
X129772933Y-80702531D01*
X129772933Y-80702531D02*
X129772933Y-80797769D01*
X130249123Y-81035864D02*
X130249123Y-81702531D01*
X130249123Y-81131102D02*
X130296742Y-81083483D01*
X130296742Y-81083483D02*
X130391980Y-81035864D01*
X130391980Y-81035864D02*
X130534837Y-81035864D01*
X130534837Y-81035864D02*
X130630075Y-81083483D01*
X130630075Y-81083483D02*
X130677694Y-81178721D01*
X130677694Y-81178721D02*
X130677694Y-81702531D01*
X131011028Y-81035864D02*
X131391980Y-81035864D01*
X131153885Y-80702531D02*
X131153885Y-81559673D01*
X131153885Y-81559673D02*
X131201504Y-81654912D01*
X131201504Y-81654912D02*
X131296742Y-81702531D01*
X131296742Y-81702531D02*
X131391980Y-81702531D01*
X132106266Y-81654912D02*
X132011028Y-81702531D01*
X132011028Y-81702531D02*
X131820552Y-81702531D01*
X131820552Y-81702531D02*
X131725314Y-81654912D01*
X131725314Y-81654912D02*
X131677695Y-81559673D01*
X131677695Y-81559673D02*
X131677695Y-81178721D01*
X131677695Y-81178721D02*
X131725314Y-81083483D01*
X131725314Y-81083483D02*
X131820552Y-81035864D01*
X131820552Y-81035864D02*
X132011028Y-81035864D01*
X132011028Y-81035864D02*
X132106266Y-81083483D01*
X132106266Y-81083483D02*
X132153885Y-81178721D01*
X132153885Y-81178721D02*
X132153885Y-81273959D01*
X132153885Y-81273959D02*
X131677695Y-81369197D01*
X132582457Y-81702531D02*
X132582457Y-81035864D01*
X132582457Y-81226340D02*
X132630076Y-81131102D01*
X132630076Y-81131102D02*
X132677695Y-81083483D01*
X132677695Y-81083483D02*
X132772933Y-81035864D01*
X132772933Y-81035864D02*
X132868171Y-81035864D01*
X133058648Y-81035864D02*
X133439600Y-81035864D01*
X133201505Y-81702531D02*
X133201505Y-80845388D01*
X133201505Y-80845388D02*
X133249124Y-80750150D01*
X133249124Y-80750150D02*
X133344362Y-80702531D01*
X133344362Y-80702531D02*
X133439600Y-80702531D01*
X134201505Y-81702531D02*
X134201505Y-81178721D01*
X134201505Y-81178721D02*
X134153886Y-81083483D01*
X134153886Y-81083483D02*
X134058648Y-81035864D01*
X134058648Y-81035864D02*
X133868172Y-81035864D01*
X133868172Y-81035864D02*
X133772934Y-81083483D01*
X134201505Y-81654912D02*
X134106267Y-81702531D01*
X134106267Y-81702531D02*
X133868172Y-81702531D01*
X133868172Y-81702531D02*
X133772934Y-81654912D01*
X133772934Y-81654912D02*
X133725315Y-81559673D01*
X133725315Y-81559673D02*
X133725315Y-81464435D01*
X133725315Y-81464435D02*
X133772934Y-81369197D01*
X133772934Y-81369197D02*
X133868172Y-81321578D01*
X133868172Y-81321578D02*
X134106267Y-81321578D01*
X134106267Y-81321578D02*
X134201505Y-81273959D01*
X135106267Y-81654912D02*
X135011029Y-81702531D01*
X135011029Y-81702531D02*
X134820553Y-81702531D01*
X134820553Y-81702531D02*
X134725315Y-81654912D01*
X134725315Y-81654912D02*
X134677696Y-81607292D01*
X134677696Y-81607292D02*
X134630077Y-81512054D01*
X134630077Y-81512054D02*
X134630077Y-81226340D01*
X134630077Y-81226340D02*
X134677696Y-81131102D01*
X134677696Y-81131102D02*
X134725315Y-81083483D01*
X134725315Y-81083483D02*
X134820553Y-81035864D01*
X134820553Y-81035864D02*
X135011029Y-81035864D01*
X135011029Y-81035864D02*
X135106267Y-81083483D01*
X135915791Y-81654912D02*
X135820553Y-81702531D01*
X135820553Y-81702531D02*
X135630077Y-81702531D01*
X135630077Y-81702531D02*
X135534839Y-81654912D01*
X135534839Y-81654912D02*
X135487220Y-81559673D01*
X135487220Y-81559673D02*
X135487220Y-81178721D01*
X135487220Y-81178721D02*
X135534839Y-81083483D01*
X135534839Y-81083483D02*
X135630077Y-81035864D01*
X135630077Y-81035864D02*
X135820553Y-81035864D01*
X135820553Y-81035864D02*
X135915791Y-81083483D01*
X135915791Y-81083483D02*
X135963410Y-81178721D01*
X135963410Y-81178721D02*
X135963410Y-81273959D01*
X135963410Y-81273959D02*
X135487220Y-81369197D01*
X137153887Y-81702531D02*
X137153887Y-80702531D01*
X137153887Y-80702531D02*
X137534839Y-80702531D01*
X137534839Y-80702531D02*
X137630077Y-80750150D01*
X137630077Y-80750150D02*
X137677696Y-80797769D01*
X137677696Y-80797769D02*
X137725315Y-80893007D01*
X137725315Y-80893007D02*
X137725315Y-81035864D01*
X137725315Y-81035864D02*
X137677696Y-81131102D01*
X137677696Y-81131102D02*
X137630077Y-81178721D01*
X137630077Y-81178721D02*
X137534839Y-81226340D01*
X137534839Y-81226340D02*
X137153887Y-81226340D01*
X138725315Y-81607292D02*
X138677696Y-81654912D01*
X138677696Y-81654912D02*
X138534839Y-81702531D01*
X138534839Y-81702531D02*
X138439601Y-81702531D01*
X138439601Y-81702531D02*
X138296744Y-81654912D01*
X138296744Y-81654912D02*
X138201506Y-81559673D01*
X138201506Y-81559673D02*
X138153887Y-81464435D01*
X138153887Y-81464435D02*
X138106268Y-81273959D01*
X138106268Y-81273959D02*
X138106268Y-81131102D01*
X138106268Y-81131102D02*
X138153887Y-80940626D01*
X138153887Y-80940626D02*
X138201506Y-80845388D01*
X138201506Y-80845388D02*
X138296744Y-80750150D01*
X138296744Y-80750150D02*
X138439601Y-80702531D01*
X138439601Y-80702531D02*
X138534839Y-80702531D01*
X138534839Y-80702531D02*
X138677696Y-80750150D01*
X138677696Y-80750150D02*
X138725315Y-80797769D01*
X139487220Y-81178721D02*
X139630077Y-81226340D01*
X139630077Y-81226340D02*
X139677696Y-81273959D01*
X139677696Y-81273959D02*
X139725315Y-81369197D01*
X139725315Y-81369197D02*
X139725315Y-81512054D01*
X139725315Y-81512054D02*
X139677696Y-81607292D01*
X139677696Y-81607292D02*
X139630077Y-81654912D01*
X139630077Y-81654912D02*
X139534839Y-81702531D01*
X139534839Y-81702531D02*
X139153887Y-81702531D01*
X139153887Y-81702531D02*
X139153887Y-80702531D01*
X139153887Y-80702531D02*
X139487220Y-80702531D01*
X139487220Y-80702531D02*
X139582458Y-80750150D01*
X139582458Y-80750150D02*
X139630077Y-80797769D01*
X139630077Y-80797769D02*
X139677696Y-80893007D01*
X139677696Y-80893007D02*
X139677696Y-80988245D01*
X139677696Y-80988245D02*
X139630077Y-81083483D01*
X139630077Y-81083483D02*
X139582458Y-81131102D01*
X139582458Y-81131102D02*
X139487220Y-81178721D01*
X139487220Y-81178721D02*
X139153887Y-81178721D01*
X123011027Y-82312475D02*
X123344360Y-83312475D01*
X123344360Y-83312475D02*
X123677693Y-82312475D01*
X124391979Y-83264856D02*
X124296741Y-83312475D01*
X124296741Y-83312475D02*
X124106265Y-83312475D01*
X124106265Y-83312475D02*
X124011027Y-83264856D01*
X124011027Y-83264856D02*
X123963408Y-83169617D01*
X123963408Y-83169617D02*
X123963408Y-82788665D01*
X123963408Y-82788665D02*
X124011027Y-82693427D01*
X124011027Y-82693427D02*
X124106265Y-82645808D01*
X124106265Y-82645808D02*
X124296741Y-82645808D01*
X124296741Y-82645808D02*
X124391979Y-82693427D01*
X124391979Y-82693427D02*
X124439598Y-82788665D01*
X124439598Y-82788665D02*
X124439598Y-82883903D01*
X124439598Y-82883903D02*
X123963408Y-82979141D01*
X124868170Y-83312475D02*
X124868170Y-82645808D01*
X124868170Y-82836284D02*
X124915789Y-82741046D01*
X124915789Y-82741046D02*
X124963408Y-82693427D01*
X124963408Y-82693427D02*
X125058646Y-82645808D01*
X125058646Y-82645808D02*
X125153884Y-82645808D01*
X125439599Y-83264856D02*
X125534837Y-83312475D01*
X125534837Y-83312475D02*
X125725313Y-83312475D01*
X125725313Y-83312475D02*
X125820551Y-83264856D01*
X125820551Y-83264856D02*
X125868170Y-83169617D01*
X125868170Y-83169617D02*
X125868170Y-83121998D01*
X125868170Y-83121998D02*
X125820551Y-83026760D01*
X125820551Y-83026760D02*
X125725313Y-82979141D01*
X125725313Y-82979141D02*
X125582456Y-82979141D01*
X125582456Y-82979141D02*
X125487218Y-82931522D01*
X125487218Y-82931522D02*
X125439599Y-82836284D01*
X125439599Y-82836284D02*
X125439599Y-82788665D01*
X125439599Y-82788665D02*
X125487218Y-82693427D01*
X125487218Y-82693427D02*
X125582456Y-82645808D01*
X125582456Y-82645808D02*
X125725313Y-82645808D01*
X125725313Y-82645808D02*
X125820551Y-82693427D01*
X126296742Y-83312475D02*
X126296742Y-82645808D01*
X126296742Y-82312475D02*
X126249123Y-82360094D01*
X126249123Y-82360094D02*
X126296742Y-82407713D01*
X126296742Y-82407713D02*
X126344361Y-82360094D01*
X126344361Y-82360094D02*
X126296742Y-82312475D01*
X126296742Y-82312475D02*
X126296742Y-82407713D01*
X126915789Y-83312475D02*
X126820551Y-83264856D01*
X126820551Y-83264856D02*
X126772932Y-83217236D01*
X126772932Y-83217236D02*
X126725313Y-83121998D01*
X126725313Y-83121998D02*
X126725313Y-82836284D01*
X126725313Y-82836284D02*
X126772932Y-82741046D01*
X126772932Y-82741046D02*
X126820551Y-82693427D01*
X126820551Y-82693427D02*
X126915789Y-82645808D01*
X126915789Y-82645808D02*
X127058646Y-82645808D01*
X127058646Y-82645808D02*
X127153884Y-82693427D01*
X127153884Y-82693427D02*
X127201503Y-82741046D01*
X127201503Y-82741046D02*
X127249122Y-82836284D01*
X127249122Y-82836284D02*
X127249122Y-83121998D01*
X127249122Y-83121998D02*
X127201503Y-83217236D01*
X127201503Y-83217236D02*
X127153884Y-83264856D01*
X127153884Y-83264856D02*
X127058646Y-83312475D01*
X127058646Y-83312475D02*
X126915789Y-83312475D01*
X127677694Y-82645808D02*
X127677694Y-83312475D01*
X127677694Y-82741046D02*
X127725313Y-82693427D01*
X127725313Y-82693427D02*
X127820551Y-82645808D01*
X127820551Y-82645808D02*
X127963408Y-82645808D01*
X127963408Y-82645808D02*
X128058646Y-82693427D01*
X128058646Y-82693427D02*
X128106265Y-82788665D01*
X128106265Y-82788665D02*
X128106265Y-83312475D01*
X128582456Y-83217236D02*
X128630075Y-83264856D01*
X128630075Y-83264856D02*
X128582456Y-83312475D01*
X128582456Y-83312475D02*
X128534837Y-83264856D01*
X128534837Y-83264856D02*
X128582456Y-83217236D01*
X128582456Y-83217236D02*
X128582456Y-83312475D01*
X128582456Y-82693427D02*
X128630075Y-82741046D01*
X128630075Y-82741046D02*
X128582456Y-82788665D01*
X128582456Y-82788665D02*
X128534837Y-82741046D01*
X128534837Y-82741046D02*
X128582456Y-82693427D01*
X128582456Y-82693427D02*
X128582456Y-82788665D01*
X135439597Y-83312475D02*
X134868169Y-83312475D01*
X135153883Y-83312475D02*
X135153883Y-82312475D01*
X135153883Y-82312475D02*
X135058645Y-82455332D01*
X135058645Y-82455332D02*
X134963407Y-82550570D01*
X134963407Y-82550570D02*
X134868169Y-82598189D01*
X135868169Y-83217236D02*
X135915788Y-83264856D01*
X135915788Y-83264856D02*
X135868169Y-83312475D01*
X135868169Y-83312475D02*
X135820550Y-83264856D01*
X135820550Y-83264856D02*
X135868169Y-83217236D01*
X135868169Y-83217236D02*
X135868169Y-83312475D01*
X136534835Y-82312475D02*
X136630073Y-82312475D01*
X136630073Y-82312475D02*
X136725311Y-82360094D01*
X136725311Y-82360094D02*
X136772930Y-82407713D01*
X136772930Y-82407713D02*
X136820549Y-82502951D01*
X136820549Y-82502951D02*
X136868168Y-82693427D01*
X136868168Y-82693427D02*
X136868168Y-82931522D01*
X136868168Y-82931522D02*
X136820549Y-83121998D01*
X136820549Y-83121998D02*
X136772930Y-83217236D01*
X136772930Y-83217236D02*
X136725311Y-83264856D01*
X136725311Y-83264856D02*
X136630073Y-83312475D01*
X136630073Y-83312475D02*
X136534835Y-83312475D01*
X136534835Y-83312475D02*
X136439597Y-83264856D01*
X136439597Y-83264856D02*
X136391978Y-83217236D01*
X136391978Y-83217236D02*
X136344359Y-83121998D01*
X136344359Y-83121998D02*
X136296740Y-82931522D01*
X136296740Y-82931522D02*
X136296740Y-82693427D01*
X136296740Y-82693427D02*
X136344359Y-82502951D01*
X136344359Y-82502951D02*
X136391978Y-82407713D01*
X136391978Y-82407713D02*
X136439597Y-82360094D01*
X136439597Y-82360094D02*
X136534835Y-82312475D01*
X123153884Y-84398609D02*
X123487217Y-84398609D01*
X123630074Y-84922419D02*
X123153884Y-84922419D01*
X123153884Y-84922419D02*
X123153884Y-83922419D01*
X123153884Y-83922419D02*
X123630074Y-83922419D01*
X124058646Y-84255752D02*
X124058646Y-84922419D01*
X124058646Y-84350990D02*
X124106265Y-84303371D01*
X124106265Y-84303371D02*
X124201503Y-84255752D01*
X124201503Y-84255752D02*
X124344360Y-84255752D01*
X124344360Y-84255752D02*
X124439598Y-84303371D01*
X124439598Y-84303371D02*
X124487217Y-84398609D01*
X124487217Y-84398609D02*
X124487217Y-84922419D01*
X125391979Y-84255752D02*
X125391979Y-85065276D01*
X125391979Y-85065276D02*
X125344360Y-85160514D01*
X125344360Y-85160514D02*
X125296741Y-85208133D01*
X125296741Y-85208133D02*
X125201503Y-85255752D01*
X125201503Y-85255752D02*
X125058646Y-85255752D01*
X125058646Y-85255752D02*
X124963408Y-85208133D01*
X125391979Y-84874800D02*
X125296741Y-84922419D01*
X125296741Y-84922419D02*
X125106265Y-84922419D01*
X125106265Y-84922419D02*
X125011027Y-84874800D01*
X125011027Y-84874800D02*
X124963408Y-84827180D01*
X124963408Y-84827180D02*
X124915789Y-84731942D01*
X124915789Y-84731942D02*
X124915789Y-84446228D01*
X124915789Y-84446228D02*
X124963408Y-84350990D01*
X124963408Y-84350990D02*
X125011027Y-84303371D01*
X125011027Y-84303371D02*
X125106265Y-84255752D01*
X125106265Y-84255752D02*
X125296741Y-84255752D01*
X125296741Y-84255752D02*
X125391979Y-84303371D01*
X125868170Y-84922419D02*
X125868170Y-84255752D01*
X125868170Y-83922419D02*
X125820551Y-83970038D01*
X125820551Y-83970038D02*
X125868170Y-84017657D01*
X125868170Y-84017657D02*
X125915789Y-83970038D01*
X125915789Y-83970038D02*
X125868170Y-83922419D01*
X125868170Y-83922419D02*
X125868170Y-84017657D01*
X126344360Y-84255752D02*
X126344360Y-84922419D01*
X126344360Y-84350990D02*
X126391979Y-84303371D01*
X126391979Y-84303371D02*
X126487217Y-84255752D01*
X126487217Y-84255752D02*
X126630074Y-84255752D01*
X126630074Y-84255752D02*
X126725312Y-84303371D01*
X126725312Y-84303371D02*
X126772931Y-84398609D01*
X126772931Y-84398609D02*
X126772931Y-84922419D01*
X127630074Y-84874800D02*
X127534836Y-84922419D01*
X127534836Y-84922419D02*
X127344360Y-84922419D01*
X127344360Y-84922419D02*
X127249122Y-84874800D01*
X127249122Y-84874800D02*
X127201503Y-84779561D01*
X127201503Y-84779561D02*
X127201503Y-84398609D01*
X127201503Y-84398609D02*
X127249122Y-84303371D01*
X127249122Y-84303371D02*
X127344360Y-84255752D01*
X127344360Y-84255752D02*
X127534836Y-84255752D01*
X127534836Y-84255752D02*
X127630074Y-84303371D01*
X127630074Y-84303371D02*
X127677693Y-84398609D01*
X127677693Y-84398609D02*
X127677693Y-84493847D01*
X127677693Y-84493847D02*
X127201503Y-84589085D01*
X128487217Y-84874800D02*
X128391979Y-84922419D01*
X128391979Y-84922419D02*
X128201503Y-84922419D01*
X128201503Y-84922419D02*
X128106265Y-84874800D01*
X128106265Y-84874800D02*
X128058646Y-84779561D01*
X128058646Y-84779561D02*
X128058646Y-84398609D01*
X128058646Y-84398609D02*
X128106265Y-84303371D01*
X128106265Y-84303371D02*
X128201503Y-84255752D01*
X128201503Y-84255752D02*
X128391979Y-84255752D01*
X128391979Y-84255752D02*
X128487217Y-84303371D01*
X128487217Y-84303371D02*
X128534836Y-84398609D01*
X128534836Y-84398609D02*
X128534836Y-84493847D01*
X128534836Y-84493847D02*
X128058646Y-84589085D01*
X128963408Y-84922419D02*
X128963408Y-84255752D01*
X128963408Y-84446228D02*
X129011027Y-84350990D01*
X129011027Y-84350990D02*
X129058646Y-84303371D01*
X129058646Y-84303371D02*
X129153884Y-84255752D01*
X129153884Y-84255752D02*
X129249122Y-84255752D01*
X129582456Y-84827180D02*
X129630075Y-84874800D01*
X129630075Y-84874800D02*
X129582456Y-84922419D01*
X129582456Y-84922419D02*
X129534837Y-84874800D01*
X129534837Y-84874800D02*
X129582456Y-84827180D01*
X129582456Y-84827180D02*
X129582456Y-84922419D01*
X129582456Y-84303371D02*
X129630075Y-84350990D01*
X129630075Y-84350990D02*
X129582456Y-84398609D01*
X129582456Y-84398609D02*
X129534837Y-84350990D01*
X129534837Y-84350990D02*
X129582456Y-84303371D01*
X129582456Y-84303371D02*
X129582456Y-84398609D01*
X135487216Y-84827180D02*
X135439597Y-84874800D01*
X135439597Y-84874800D02*
X135296740Y-84922419D01*
X135296740Y-84922419D02*
X135201502Y-84922419D01*
X135201502Y-84922419D02*
X135058645Y-84874800D01*
X135058645Y-84874800D02*
X134963407Y-84779561D01*
X134963407Y-84779561D02*
X134915788Y-84684323D01*
X134915788Y-84684323D02*
X134868169Y-84493847D01*
X134868169Y-84493847D02*
X134868169Y-84350990D01*
X134868169Y-84350990D02*
X134915788Y-84160514D01*
X134915788Y-84160514D02*
X134963407Y-84065276D01*
X134963407Y-84065276D02*
X135058645Y-83970038D01*
X135058645Y-83970038D02*
X135201502Y-83922419D01*
X135201502Y-83922419D02*
X135296740Y-83922419D01*
X135296740Y-83922419D02*
X135439597Y-83970038D01*
X135439597Y-83970038D02*
X135487216Y-84017657D01*
X136487216Y-84827180D02*
X136439597Y-84874800D01*
X136439597Y-84874800D02*
X136296740Y-84922419D01*
X136296740Y-84922419D02*
X136201502Y-84922419D01*
X136201502Y-84922419D02*
X136058645Y-84874800D01*
X136058645Y-84874800D02*
X135963407Y-84779561D01*
X135963407Y-84779561D02*
X135915788Y-84684323D01*
X135915788Y-84684323D02*
X135868169Y-84493847D01*
X135868169Y-84493847D02*
X135868169Y-84350990D01*
X135868169Y-84350990D02*
X135915788Y-84160514D01*
X135915788Y-84160514D02*
X135963407Y-84065276D01*
X135963407Y-84065276D02*
X136058645Y-83970038D01*
X136058645Y-83970038D02*
X136201502Y-83922419D01*
X136201502Y-83922419D02*
X136296740Y-83922419D01*
X136296740Y-83922419D02*
X136439597Y-83970038D01*
X136439597Y-83970038D02*
X136487216Y-84017657D01*
X137106264Y-83922419D02*
X137296740Y-83922419D01*
X137296740Y-83922419D02*
X137391978Y-83970038D01*
X137391978Y-83970038D02*
X137487216Y-84065276D01*
X137487216Y-84065276D02*
X137534835Y-84255752D01*
X137534835Y-84255752D02*
X137534835Y-84589085D01*
X137534835Y-84589085D02*
X137487216Y-84779561D01*
X137487216Y-84779561D02*
X137391978Y-84874800D01*
X137391978Y-84874800D02*
X137296740Y-84922419D01*
X137296740Y-84922419D02*
X137106264Y-84922419D01*
X137106264Y-84922419D02*
X137011026Y-84874800D01*
X137011026Y-84874800D02*
X136915788Y-84779561D01*
X136915788Y-84779561D02*
X136868169Y-84589085D01*
X136868169Y-84589085D02*
X136868169Y-84255752D01*
X136868169Y-84255752D02*
X136915788Y-84065276D01*
X136915788Y-84065276D02*
X137011026Y-83970038D01*
X137011026Y-83970038D02*
X137106264Y-83922419D01*
X111327693Y-117070038D02*
X111232455Y-117022419D01*
X111232455Y-117022419D02*
X111089598Y-117022419D01*
X111089598Y-117022419D02*
X110946741Y-117070038D01*
X110946741Y-117070038D02*
X110851503Y-117165276D01*
X110851503Y-117165276D02*
X110803884Y-117260514D01*
X110803884Y-117260514D02*
X110756265Y-117450990D01*
X110756265Y-117450990D02*
X110756265Y-117593847D01*
X110756265Y-117593847D02*
X110803884Y-117784323D01*
X110803884Y-117784323D02*
X110851503Y-117879561D01*
X110851503Y-117879561D02*
X110946741Y-117974800D01*
X110946741Y-117974800D02*
X111089598Y-118022419D01*
X111089598Y-118022419D02*
X111184836Y-118022419D01*
X111184836Y-118022419D02*
X111327693Y-117974800D01*
X111327693Y-117974800D02*
X111375312Y-117927180D01*
X111375312Y-117927180D02*
X111375312Y-117593847D01*
X111375312Y-117593847D02*
X111184836Y-117593847D01*
X111803884Y-118022419D02*
X111803884Y-117022419D01*
X111803884Y-117022419D02*
X112375312Y-118022419D01*
X112375312Y-118022419D02*
X112375312Y-117022419D01*
X112851503Y-118022419D02*
X112851503Y-117022419D01*
X112851503Y-117022419D02*
X113089598Y-117022419D01*
X113089598Y-117022419D02*
X113232455Y-117070038D01*
X113232455Y-117070038D02*
X113327693Y-117165276D01*
X113327693Y-117165276D02*
X113375312Y-117260514D01*
X113375312Y-117260514D02*
X113422931Y-117450990D01*
X113422931Y-117450990D02*
X113422931Y-117593847D01*
X113422931Y-117593847D02*
X113375312Y-117784323D01*
X113375312Y-117784323D02*
X113327693Y-117879561D01*
X113327693Y-117879561D02*
X113232455Y-117974800D01*
X113232455Y-117974800D02*
X113089598Y-118022419D01*
X113089598Y-118022419D02*
X112851503Y-118022419D01*
X122520038Y-118472306D02*
X122472419Y-118567544D01*
X122472419Y-118567544D02*
X122472419Y-118710401D01*
X122472419Y-118710401D02*
X122520038Y-118853258D01*
X122520038Y-118853258D02*
X122615276Y-118948496D01*
X122615276Y-118948496D02*
X122710514Y-118996115D01*
X122710514Y-118996115D02*
X122900990Y-119043734D01*
X122900990Y-119043734D02*
X123043847Y-119043734D01*
X123043847Y-119043734D02*
X123234323Y-118996115D01*
X123234323Y-118996115D02*
X123329561Y-118948496D01*
X123329561Y-118948496D02*
X123424800Y-118853258D01*
X123424800Y-118853258D02*
X123472419Y-118710401D01*
X123472419Y-118710401D02*
X123472419Y-118615163D01*
X123472419Y-118615163D02*
X123424800Y-118472306D01*
X123424800Y-118472306D02*
X123377180Y-118424687D01*
X123377180Y-118424687D02*
X123043847Y-118424687D01*
X123043847Y-118424687D02*
X123043847Y-118615163D01*
X123472419Y-117996115D02*
X122805752Y-117996115D01*
X122996228Y-117996115D02*
X122900990Y-117948496D01*
X122900990Y-117948496D02*
X122853371Y-117900877D01*
X122853371Y-117900877D02*
X122805752Y-117805639D01*
X122805752Y-117805639D02*
X122805752Y-117710401D01*
X123424800Y-116996115D02*
X123472419Y-117091353D01*
X123472419Y-117091353D02*
X123472419Y-117281829D01*
X123472419Y-117281829D02*
X123424800Y-117377067D01*
X123424800Y-117377067D02*
X123329561Y-117424686D01*
X123329561Y-117424686D02*
X122948609Y-117424686D01*
X122948609Y-117424686D02*
X122853371Y-117377067D01*
X122853371Y-117377067D02*
X122805752Y-117281829D01*
X122805752Y-117281829D02*
X122805752Y-117091353D01*
X122805752Y-117091353D02*
X122853371Y-116996115D01*
X122853371Y-116996115D02*
X122948609Y-116948496D01*
X122948609Y-116948496D02*
X123043847Y-116948496D01*
X123043847Y-116948496D02*
X123139085Y-117424686D01*
X105722419Y-118624687D02*
X105246228Y-118958020D01*
X105722419Y-119196115D02*
X104722419Y-119196115D01*
X104722419Y-119196115D02*
X104722419Y-118815163D01*
X104722419Y-118815163D02*
X104770038Y-118719925D01*
X104770038Y-118719925D02*
X104817657Y-118672306D01*
X104817657Y-118672306D02*
X104912895Y-118624687D01*
X104912895Y-118624687D02*
X105055752Y-118624687D01*
X105055752Y-118624687D02*
X105150990Y-118672306D01*
X105150990Y-118672306D02*
X105198609Y-118719925D01*
X105198609Y-118719925D02*
X105246228Y-118815163D01*
X105246228Y-118815163D02*
X105246228Y-119196115D01*
X105674800Y-117815163D02*
X105722419Y-117910401D01*
X105722419Y-117910401D02*
X105722419Y-118100877D01*
X105722419Y-118100877D02*
X105674800Y-118196115D01*
X105674800Y-118196115D02*
X105579561Y-118243734D01*
X105579561Y-118243734D02*
X105198609Y-118243734D01*
X105198609Y-118243734D02*
X105103371Y-118196115D01*
X105103371Y-118196115D02*
X105055752Y-118100877D01*
X105055752Y-118100877D02*
X105055752Y-117910401D01*
X105055752Y-117910401D02*
X105103371Y-117815163D01*
X105103371Y-117815163D02*
X105198609Y-117767544D01*
X105198609Y-117767544D02*
X105293847Y-117767544D01*
X105293847Y-117767544D02*
X105389085Y-118243734D01*
X105722419Y-116910401D02*
X104722419Y-116910401D01*
X105674800Y-116910401D02*
X105722419Y-117005639D01*
X105722419Y-117005639D02*
X105722419Y-117196115D01*
X105722419Y-117196115D02*
X105674800Y-117291353D01*
X105674800Y-117291353D02*
X105627180Y-117338972D01*
X105627180Y-117338972D02*
X105531942Y-117386591D01*
X105531942Y-117386591D02*
X105246228Y-117386591D01*
X105246228Y-117386591D02*
X105150990Y-117338972D01*
X105150990Y-117338972D02*
X105103371Y-117291353D01*
X105103371Y-117291353D02*
X105055752Y-117196115D01*
X105055752Y-117196115D02*
X105055752Y-117005639D01*
X105055752Y-117005639D02*
X105103371Y-116910401D01*
X81027580Y-117158646D02*
X80027580Y-117396741D01*
X80027580Y-117396741D02*
X80741866Y-117587217D01*
X80741866Y-117587217D02*
X80027580Y-117777693D01*
X80027580Y-117777693D02*
X81027580Y-118015789D01*
X80027580Y-118396741D02*
X80694247Y-118396741D01*
X81027580Y-118396741D02*
X80979961Y-118349122D01*
X80979961Y-118349122D02*
X80932342Y-118396741D01*
X80932342Y-118396741D02*
X80979961Y-118444360D01*
X80979961Y-118444360D02*
X81027580Y-118396741D01*
X81027580Y-118396741D02*
X80932342Y-118396741D01*
X80027580Y-118872931D02*
X80694247Y-118872931D01*
X80503771Y-118872931D02*
X80599009Y-118920550D01*
X80599009Y-118920550D02*
X80646628Y-118968169D01*
X80646628Y-118968169D02*
X80694247Y-119063407D01*
X80694247Y-119063407D02*
X80694247Y-119158645D01*
X80075200Y-119872931D02*
X80027580Y-119777693D01*
X80027580Y-119777693D02*
X80027580Y-119587217D01*
X80027580Y-119587217D02*
X80075200Y-119491979D01*
X80075200Y-119491979D02*
X80170438Y-119444360D01*
X80170438Y-119444360D02*
X80551390Y-119444360D01*
X80551390Y-119444360D02*
X80646628Y-119491979D01*
X80646628Y-119491979D02*
X80694247Y-119587217D01*
X80694247Y-119587217D02*
X80694247Y-119777693D01*
X80694247Y-119777693D02*
X80646628Y-119872931D01*
X80646628Y-119872931D02*
X80551390Y-119920550D01*
X80551390Y-119920550D02*
X80456152Y-119920550D01*
X80456152Y-119920550D02*
X80360914Y-119444360D01*
X80932342Y-120301503D02*
X80979961Y-120349122D01*
X80979961Y-120349122D02*
X81027580Y-120444360D01*
X81027580Y-120444360D02*
X81027580Y-120682455D01*
X81027580Y-120682455D02*
X80979961Y-120777693D01*
X80979961Y-120777693D02*
X80932342Y-120825312D01*
X80932342Y-120825312D02*
X80837104Y-120872931D01*
X80837104Y-120872931D02*
X80741866Y-120872931D01*
X80741866Y-120872931D02*
X80599009Y-120825312D01*
X80599009Y-120825312D02*
X80027580Y-120253884D01*
X80027580Y-120253884D02*
X80027580Y-120872931D01*
X40111027Y-99122419D02*
X40444360Y-100122419D01*
X40444360Y-100122419D02*
X40777693Y-99122419D01*
X41682455Y-100027180D02*
X41634836Y-100074800D01*
X41634836Y-100074800D02*
X41491979Y-100122419D01*
X41491979Y-100122419D02*
X41396741Y-100122419D01*
X41396741Y-100122419D02*
X41253884Y-100074800D01*
X41253884Y-100074800D02*
X41158646Y-99979561D01*
X41158646Y-99979561D02*
X41111027Y-99884323D01*
X41111027Y-99884323D02*
X41063408Y-99693847D01*
X41063408Y-99693847D02*
X41063408Y-99550990D01*
X41063408Y-99550990D02*
X41111027Y-99360514D01*
X41111027Y-99360514D02*
X41158646Y-99265276D01*
X41158646Y-99265276D02*
X41253884Y-99170038D01*
X41253884Y-99170038D02*
X41396741Y-99122419D01*
X41396741Y-99122419D02*
X41491979Y-99122419D01*
X41491979Y-99122419D02*
X41634836Y-99170038D01*
X41634836Y-99170038D02*
X41682455Y-99217657D01*
X42682455Y-100027180D02*
X42634836Y-100074800D01*
X42634836Y-100074800D02*
X42491979Y-100122419D01*
X42491979Y-100122419D02*
X42396741Y-100122419D01*
X42396741Y-100122419D02*
X42253884Y-100074800D01*
X42253884Y-100074800D02*
X42158646Y-99979561D01*
X42158646Y-99979561D02*
X42111027Y-99884323D01*
X42111027Y-99884323D02*
X42063408Y-99693847D01*
X42063408Y-99693847D02*
X42063408Y-99550990D01*
X42063408Y-99550990D02*
X42111027Y-99360514D01*
X42111027Y-99360514D02*
X42158646Y-99265276D01*
X42158646Y-99265276D02*
X42253884Y-99170038D01*
X42253884Y-99170038D02*
X42396741Y-99122419D01*
X42396741Y-99122419D02*
X42491979Y-99122419D01*
X42491979Y-99122419D02*
X42634836Y-99170038D01*
X42634836Y-99170038D02*
X42682455Y-99217657D01*
X40156265Y-104874800D02*
X40299122Y-104922419D01*
X40299122Y-104922419D02*
X40537217Y-104922419D01*
X40537217Y-104922419D02*
X40632455Y-104874800D01*
X40632455Y-104874800D02*
X40680074Y-104827180D01*
X40680074Y-104827180D02*
X40727693Y-104731942D01*
X40727693Y-104731942D02*
X40727693Y-104636704D01*
X40727693Y-104636704D02*
X40680074Y-104541466D01*
X40680074Y-104541466D02*
X40632455Y-104493847D01*
X40632455Y-104493847D02*
X40537217Y-104446228D01*
X40537217Y-104446228D02*
X40346741Y-104398609D01*
X40346741Y-104398609D02*
X40251503Y-104350990D01*
X40251503Y-104350990D02*
X40203884Y-104303371D01*
X40203884Y-104303371D02*
X40156265Y-104208133D01*
X40156265Y-104208133D02*
X40156265Y-104112895D01*
X40156265Y-104112895D02*
X40203884Y-104017657D01*
X40203884Y-104017657D02*
X40251503Y-103970038D01*
X40251503Y-103970038D02*
X40346741Y-103922419D01*
X40346741Y-103922419D02*
X40584836Y-103922419D01*
X40584836Y-103922419D02*
X40727693Y-103970038D01*
X41156265Y-104922419D02*
X41156265Y-103922419D01*
X41156265Y-103922419D02*
X41394360Y-103922419D01*
X41394360Y-103922419D02*
X41537217Y-103970038D01*
X41537217Y-103970038D02*
X41632455Y-104065276D01*
X41632455Y-104065276D02*
X41680074Y-104160514D01*
X41680074Y-104160514D02*
X41727693Y-104350990D01*
X41727693Y-104350990D02*
X41727693Y-104493847D01*
X41727693Y-104493847D02*
X41680074Y-104684323D01*
X41680074Y-104684323D02*
X41632455Y-104779561D01*
X41632455Y-104779561D02*
X41537217Y-104874800D01*
X41537217Y-104874800D02*
X41394360Y-104922419D01*
X41394360Y-104922419D02*
X41156265Y-104922419D01*
X42108646Y-104636704D02*
X42584836Y-104636704D01*
X42013408Y-104922419D02*
X42346741Y-103922419D01*
X42346741Y-103922419D02*
X42680074Y-104922419D01*
X90822419Y-118624687D02*
X90346228Y-118958020D01*
X90822419Y-119196115D02*
X89822419Y-119196115D01*
X89822419Y-119196115D02*
X89822419Y-118815163D01*
X89822419Y-118815163D02*
X89870038Y-118719925D01*
X89870038Y-118719925D02*
X89917657Y-118672306D01*
X89917657Y-118672306D02*
X90012895Y-118624687D01*
X90012895Y-118624687D02*
X90155752Y-118624687D01*
X90155752Y-118624687D02*
X90250990Y-118672306D01*
X90250990Y-118672306D02*
X90298609Y-118719925D01*
X90298609Y-118719925D02*
X90346228Y-118815163D01*
X90346228Y-118815163D02*
X90346228Y-119196115D01*
X90774800Y-117815163D02*
X90822419Y-117910401D01*
X90822419Y-117910401D02*
X90822419Y-118100877D01*
X90822419Y-118100877D02*
X90774800Y-118196115D01*
X90774800Y-118196115D02*
X90679561Y-118243734D01*
X90679561Y-118243734D02*
X90298609Y-118243734D01*
X90298609Y-118243734D02*
X90203371Y-118196115D01*
X90203371Y-118196115D02*
X90155752Y-118100877D01*
X90155752Y-118100877D02*
X90155752Y-117910401D01*
X90155752Y-117910401D02*
X90203371Y-117815163D01*
X90203371Y-117815163D02*
X90298609Y-117767544D01*
X90298609Y-117767544D02*
X90393847Y-117767544D01*
X90393847Y-117767544D02*
X90489085Y-118243734D01*
X90822419Y-116910401D02*
X89822419Y-116910401D01*
X90774800Y-116910401D02*
X90822419Y-117005639D01*
X90822419Y-117005639D02*
X90822419Y-117196115D01*
X90822419Y-117196115D02*
X90774800Y-117291353D01*
X90774800Y-117291353D02*
X90727180Y-117338972D01*
X90727180Y-117338972D02*
X90631942Y-117386591D01*
X90631942Y-117386591D02*
X90346228Y-117386591D01*
X90346228Y-117386591D02*
X90250990Y-117338972D01*
X90250990Y-117338972D02*
X90203371Y-117291353D01*
X90203371Y-117291353D02*
X90155752Y-117196115D01*
X90155752Y-117196115D02*
X90155752Y-117005639D01*
X90155752Y-117005639D02*
X90203371Y-116910401D01*
X40256265Y-102474800D02*
X40399122Y-102522419D01*
X40399122Y-102522419D02*
X40637217Y-102522419D01*
X40637217Y-102522419D02*
X40732455Y-102474800D01*
X40732455Y-102474800D02*
X40780074Y-102427180D01*
X40780074Y-102427180D02*
X40827693Y-102331942D01*
X40827693Y-102331942D02*
X40827693Y-102236704D01*
X40827693Y-102236704D02*
X40780074Y-102141466D01*
X40780074Y-102141466D02*
X40732455Y-102093847D01*
X40732455Y-102093847D02*
X40637217Y-102046228D01*
X40637217Y-102046228D02*
X40446741Y-101998609D01*
X40446741Y-101998609D02*
X40351503Y-101950990D01*
X40351503Y-101950990D02*
X40303884Y-101903371D01*
X40303884Y-101903371D02*
X40256265Y-101808133D01*
X40256265Y-101808133D02*
X40256265Y-101712895D01*
X40256265Y-101712895D02*
X40303884Y-101617657D01*
X40303884Y-101617657D02*
X40351503Y-101570038D01*
X40351503Y-101570038D02*
X40446741Y-101522419D01*
X40446741Y-101522419D02*
X40684836Y-101522419D01*
X40684836Y-101522419D02*
X40827693Y-101570038D01*
X41827693Y-102427180D02*
X41780074Y-102474800D01*
X41780074Y-102474800D02*
X41637217Y-102522419D01*
X41637217Y-102522419D02*
X41541979Y-102522419D01*
X41541979Y-102522419D02*
X41399122Y-102474800D01*
X41399122Y-102474800D02*
X41303884Y-102379561D01*
X41303884Y-102379561D02*
X41256265Y-102284323D01*
X41256265Y-102284323D02*
X41208646Y-102093847D01*
X41208646Y-102093847D02*
X41208646Y-101950990D01*
X41208646Y-101950990D02*
X41256265Y-101760514D01*
X41256265Y-101760514D02*
X41303884Y-101665276D01*
X41303884Y-101665276D02*
X41399122Y-101570038D01*
X41399122Y-101570038D02*
X41541979Y-101522419D01*
X41541979Y-101522419D02*
X41637217Y-101522419D01*
X41637217Y-101522419D02*
X41780074Y-101570038D01*
X41780074Y-101570038D02*
X41827693Y-101617657D01*
X42732455Y-102522419D02*
X42256265Y-102522419D01*
X42256265Y-102522419D02*
X42256265Y-101522419D01*
D11*
X28524819Y-105754166D02*
X28048628Y-106087499D01*
X28524819Y-106325594D02*
X27524819Y-106325594D01*
X27524819Y-106325594D02*
X27524819Y-105944642D01*
X27524819Y-105944642D02*
X27572438Y-105849404D01*
X27572438Y-105849404D02*
X27620057Y-105801785D01*
X27620057Y-105801785D02*
X27715295Y-105754166D01*
X27715295Y-105754166D02*
X27858152Y-105754166D01*
X27858152Y-105754166D02*
X27953390Y-105801785D01*
X27953390Y-105801785D02*
X28001009Y-105849404D01*
X28001009Y-105849404D02*
X28048628Y-105944642D01*
X28048628Y-105944642D02*
X28048628Y-106325594D01*
X28524819Y-104801785D02*
X28524819Y-105373213D01*
X28524819Y-105087499D02*
X27524819Y-105087499D01*
X27524819Y-105087499D02*
X27667676Y-105182737D01*
X27667676Y-105182737D02*
X27762914Y-105277975D01*
X27762914Y-105277975D02*
X27810533Y-105373213D01*
X29273629Y-118169285D02*
X29273629Y-117169285D01*
X29273629Y-117645475D02*
X29845057Y-117645475D01*
X29845057Y-118169285D02*
X29845057Y-117169285D01*
X30273629Y-117264523D02*
X30321248Y-117216904D01*
X30321248Y-117216904D02*
X30416486Y-117169285D01*
X30416486Y-117169285D02*
X30654581Y-117169285D01*
X30654581Y-117169285D02*
X30749819Y-117216904D01*
X30749819Y-117216904D02*
X30797438Y-117264523D01*
X30797438Y-117264523D02*
X30845057Y-117359761D01*
X30845057Y-117359761D02*
X30845057Y-117454999D01*
X30845057Y-117454999D02*
X30797438Y-117597856D01*
X30797438Y-117597856D02*
X30226010Y-118169285D01*
X30226010Y-118169285D02*
X30845057Y-118169285D01*
X139357142Y-99904819D02*
X139023809Y-99428628D01*
X138785714Y-99904819D02*
X138785714Y-98904819D01*
X138785714Y-98904819D02*
X139166666Y-98904819D01*
X139166666Y-98904819D02*
X139261904Y-98952438D01*
X139261904Y-98952438D02*
X139309523Y-99000057D01*
X139309523Y-99000057D02*
X139357142Y-99095295D01*
X139357142Y-99095295D02*
X139357142Y-99238152D01*
X139357142Y-99238152D02*
X139309523Y-99333390D01*
X139309523Y-99333390D02*
X139261904Y-99381009D01*
X139261904Y-99381009D02*
X139166666Y-99428628D01*
X139166666Y-99428628D02*
X138785714Y-99428628D01*
X139928571Y-99904819D02*
X139833333Y-99857200D01*
X139833333Y-99857200D02*
X139785714Y-99809580D01*
X139785714Y-99809580D02*
X139738095Y-99714342D01*
X139738095Y-99714342D02*
X139738095Y-99428628D01*
X139738095Y-99428628D02*
X139785714Y-99333390D01*
X139785714Y-99333390D02*
X139833333Y-99285771D01*
X139833333Y-99285771D02*
X139928571Y-99238152D01*
X139928571Y-99238152D02*
X140071428Y-99238152D01*
X140071428Y-99238152D02*
X140166666Y-99285771D01*
X140166666Y-99285771D02*
X140214285Y-99333390D01*
X140214285Y-99333390D02*
X140261904Y-99428628D01*
X140261904Y-99428628D02*
X140261904Y-99714342D01*
X140261904Y-99714342D02*
X140214285Y-99809580D01*
X140214285Y-99809580D02*
X140166666Y-99857200D01*
X140166666Y-99857200D02*
X140071428Y-99904819D01*
X140071428Y-99904819D02*
X139928571Y-99904819D01*
X140595238Y-99238152D02*
X140785714Y-99904819D01*
X140785714Y-99904819D02*
X140976190Y-99428628D01*
X140976190Y-99428628D02*
X141166666Y-99904819D01*
X141166666Y-99904819D02*
X141357142Y-99238152D01*
X141880952Y-99333390D02*
X141785714Y-99285771D01*
X141785714Y-99285771D02*
X141738095Y-99238152D01*
X141738095Y-99238152D02*
X141690476Y-99142914D01*
X141690476Y-99142914D02*
X141690476Y-99095295D01*
X141690476Y-99095295D02*
X141738095Y-99000057D01*
X141738095Y-99000057D02*
X141785714Y-98952438D01*
X141785714Y-98952438D02*
X141880952Y-98904819D01*
X141880952Y-98904819D02*
X142071428Y-98904819D01*
X142071428Y-98904819D02*
X142166666Y-98952438D01*
X142166666Y-98952438D02*
X142214285Y-99000057D01*
X142214285Y-99000057D02*
X142261904Y-99095295D01*
X142261904Y-99095295D02*
X142261904Y-99142914D01*
X142261904Y-99142914D02*
X142214285Y-99238152D01*
X142214285Y-99238152D02*
X142166666Y-99285771D01*
X142166666Y-99285771D02*
X142071428Y-99333390D01*
X142071428Y-99333390D02*
X141880952Y-99333390D01*
X141880952Y-99333390D02*
X141785714Y-99381009D01*
X141785714Y-99381009D02*
X141738095Y-99428628D01*
X141738095Y-99428628D02*
X141690476Y-99523866D01*
X141690476Y-99523866D02*
X141690476Y-99714342D01*
X141690476Y-99714342D02*
X141738095Y-99809580D01*
X141738095Y-99809580D02*
X141785714Y-99857200D01*
X141785714Y-99857200D02*
X141880952Y-99904819D01*
X141880952Y-99904819D02*
X142071428Y-99904819D01*
X142071428Y-99904819D02*
X142166666Y-99857200D01*
X142166666Y-99857200D02*
X142214285Y-99809580D01*
X142214285Y-99809580D02*
X142261904Y-99714342D01*
X142261904Y-99714342D02*
X142261904Y-99523866D01*
X142261904Y-99523866D02*
X142214285Y-99428628D01*
X142214285Y-99428628D02*
X142166666Y-99381009D01*
X142166666Y-99381009D02*
X142071428Y-99333390D01*
X56857142Y-109904819D02*
X56523809Y-109428628D01*
X56285714Y-109904819D02*
X56285714Y-108904819D01*
X56285714Y-108904819D02*
X56666666Y-108904819D01*
X56666666Y-108904819D02*
X56761904Y-108952438D01*
X56761904Y-108952438D02*
X56809523Y-109000057D01*
X56809523Y-109000057D02*
X56857142Y-109095295D01*
X56857142Y-109095295D02*
X56857142Y-109238152D01*
X56857142Y-109238152D02*
X56809523Y-109333390D01*
X56809523Y-109333390D02*
X56761904Y-109381009D01*
X56761904Y-109381009D02*
X56666666Y-109428628D01*
X56666666Y-109428628D02*
X56285714Y-109428628D01*
X57428571Y-109904819D02*
X57333333Y-109857200D01*
X57333333Y-109857200D02*
X57285714Y-109809580D01*
X57285714Y-109809580D02*
X57238095Y-109714342D01*
X57238095Y-109714342D02*
X57238095Y-109428628D01*
X57238095Y-109428628D02*
X57285714Y-109333390D01*
X57285714Y-109333390D02*
X57333333Y-109285771D01*
X57333333Y-109285771D02*
X57428571Y-109238152D01*
X57428571Y-109238152D02*
X57571428Y-109238152D01*
X57571428Y-109238152D02*
X57666666Y-109285771D01*
X57666666Y-109285771D02*
X57714285Y-109333390D01*
X57714285Y-109333390D02*
X57761904Y-109428628D01*
X57761904Y-109428628D02*
X57761904Y-109714342D01*
X57761904Y-109714342D02*
X57714285Y-109809580D01*
X57714285Y-109809580D02*
X57666666Y-109857200D01*
X57666666Y-109857200D02*
X57571428Y-109904819D01*
X57571428Y-109904819D02*
X57428571Y-109904819D01*
X58095238Y-109238152D02*
X58285714Y-109904819D01*
X58285714Y-109904819D02*
X58476190Y-109428628D01*
X58476190Y-109428628D02*
X58666666Y-109904819D01*
X58666666Y-109904819D02*
X58857142Y-109238152D01*
X59285714Y-109904819D02*
X59476190Y-109904819D01*
X59476190Y-109904819D02*
X59571428Y-109857200D01*
X59571428Y-109857200D02*
X59619047Y-109809580D01*
X59619047Y-109809580D02*
X59714285Y-109666723D01*
X59714285Y-109666723D02*
X59761904Y-109476247D01*
X59761904Y-109476247D02*
X59761904Y-109095295D01*
X59761904Y-109095295D02*
X59714285Y-109000057D01*
X59714285Y-109000057D02*
X59666666Y-108952438D01*
X59666666Y-108952438D02*
X59571428Y-108904819D01*
X59571428Y-108904819D02*
X59380952Y-108904819D01*
X59380952Y-108904819D02*
X59285714Y-108952438D01*
X59285714Y-108952438D02*
X59238095Y-109000057D01*
X59238095Y-109000057D02*
X59190476Y-109095295D01*
X59190476Y-109095295D02*
X59190476Y-109333390D01*
X59190476Y-109333390D02*
X59238095Y-109428628D01*
X59238095Y-109428628D02*
X59285714Y-109476247D01*
X59285714Y-109476247D02*
X59380952Y-109523866D01*
X59380952Y-109523866D02*
X59571428Y-109523866D01*
X59571428Y-109523866D02*
X59666666Y-109476247D01*
X59666666Y-109476247D02*
X59714285Y-109428628D01*
X59714285Y-109428628D02*
X59761904Y-109333390D01*
X108130952Y-109904819D02*
X107654762Y-109904819D01*
X107654762Y-109904819D02*
X107654762Y-108904819D01*
X108464286Y-109381009D02*
X108797619Y-109381009D01*
X108940476Y-109904819D02*
X108464286Y-109904819D01*
X108464286Y-109904819D02*
X108464286Y-108904819D01*
X108464286Y-108904819D02*
X108940476Y-108904819D01*
X109369048Y-109904819D02*
X109369048Y-108904819D01*
X109369048Y-108904819D02*
X109607143Y-108904819D01*
X109607143Y-108904819D02*
X109750000Y-108952438D01*
X109750000Y-108952438D02*
X109845238Y-109047676D01*
X109845238Y-109047676D02*
X109892857Y-109142914D01*
X109892857Y-109142914D02*
X109940476Y-109333390D01*
X109940476Y-109333390D02*
X109940476Y-109476247D01*
X109940476Y-109476247D02*
X109892857Y-109666723D01*
X109892857Y-109666723D02*
X109845238Y-109761961D01*
X109845238Y-109761961D02*
X109750000Y-109857200D01*
X109750000Y-109857200D02*
X109607143Y-109904819D01*
X109607143Y-109904819D02*
X109369048Y-109904819D01*
X110321429Y-109000057D02*
X110369048Y-108952438D01*
X110369048Y-108952438D02*
X110464286Y-108904819D01*
X110464286Y-108904819D02*
X110702381Y-108904819D01*
X110702381Y-108904819D02*
X110797619Y-108952438D01*
X110797619Y-108952438D02*
X110845238Y-109000057D01*
X110845238Y-109000057D02*
X110892857Y-109095295D01*
X110892857Y-109095295D02*
X110892857Y-109190533D01*
X110892857Y-109190533D02*
X110845238Y-109333390D01*
X110845238Y-109333390D02*
X110273810Y-109904819D01*
X110273810Y-109904819D02*
X110892857Y-109904819D01*
X108388095Y-58789819D02*
X108388095Y-59599342D01*
X108388095Y-59599342D02*
X108435714Y-59694580D01*
X108435714Y-59694580D02*
X108483333Y-59742200D01*
X108483333Y-59742200D02*
X108578571Y-59789819D01*
X108578571Y-59789819D02*
X108769047Y-59789819D01*
X108769047Y-59789819D02*
X108864285Y-59742200D01*
X108864285Y-59742200D02*
X108911904Y-59694580D01*
X108911904Y-59694580D02*
X108959523Y-59599342D01*
X108959523Y-59599342D02*
X108959523Y-58789819D01*
X109864285Y-59123152D02*
X109864285Y-59789819D01*
X109626190Y-58742200D02*
X109388095Y-59456485D01*
X109388095Y-59456485D02*
X110007142Y-59456485D01*
X111857142Y-99904819D02*
X111523809Y-99428628D01*
X111285714Y-99904819D02*
X111285714Y-98904819D01*
X111285714Y-98904819D02*
X111666666Y-98904819D01*
X111666666Y-98904819D02*
X111761904Y-98952438D01*
X111761904Y-98952438D02*
X111809523Y-99000057D01*
X111809523Y-99000057D02*
X111857142Y-99095295D01*
X111857142Y-99095295D02*
X111857142Y-99238152D01*
X111857142Y-99238152D02*
X111809523Y-99333390D01*
X111809523Y-99333390D02*
X111761904Y-99381009D01*
X111761904Y-99381009D02*
X111666666Y-99428628D01*
X111666666Y-99428628D02*
X111285714Y-99428628D01*
X112428571Y-99904819D02*
X112333333Y-99857200D01*
X112333333Y-99857200D02*
X112285714Y-99809580D01*
X112285714Y-99809580D02*
X112238095Y-99714342D01*
X112238095Y-99714342D02*
X112238095Y-99428628D01*
X112238095Y-99428628D02*
X112285714Y-99333390D01*
X112285714Y-99333390D02*
X112333333Y-99285771D01*
X112333333Y-99285771D02*
X112428571Y-99238152D01*
X112428571Y-99238152D02*
X112571428Y-99238152D01*
X112571428Y-99238152D02*
X112666666Y-99285771D01*
X112666666Y-99285771D02*
X112714285Y-99333390D01*
X112714285Y-99333390D02*
X112761904Y-99428628D01*
X112761904Y-99428628D02*
X112761904Y-99714342D01*
X112761904Y-99714342D02*
X112714285Y-99809580D01*
X112714285Y-99809580D02*
X112666666Y-99857200D01*
X112666666Y-99857200D02*
X112571428Y-99904819D01*
X112571428Y-99904819D02*
X112428571Y-99904819D01*
X113095238Y-99238152D02*
X113285714Y-99904819D01*
X113285714Y-99904819D02*
X113476190Y-99428628D01*
X113476190Y-99428628D02*
X113666666Y-99904819D01*
X113666666Y-99904819D02*
X113857142Y-99238152D01*
X114142857Y-98904819D02*
X114809523Y-98904819D01*
X114809523Y-98904819D02*
X114380952Y-99904819D01*
X28604819Y-101116666D02*
X28128628Y-101449999D01*
X28604819Y-101688094D02*
X27604819Y-101688094D01*
X27604819Y-101688094D02*
X27604819Y-101307142D01*
X27604819Y-101307142D02*
X27652438Y-101211904D01*
X27652438Y-101211904D02*
X27700057Y-101164285D01*
X27700057Y-101164285D02*
X27795295Y-101116666D01*
X27795295Y-101116666D02*
X27938152Y-101116666D01*
X27938152Y-101116666D02*
X28033390Y-101164285D01*
X28033390Y-101164285D02*
X28081009Y-101211904D01*
X28081009Y-101211904D02*
X28128628Y-101307142D01*
X28128628Y-101307142D02*
X28128628Y-101688094D01*
X27700057Y-100735713D02*
X27652438Y-100688094D01*
X27652438Y-100688094D02*
X27604819Y-100592856D01*
X27604819Y-100592856D02*
X27604819Y-100354761D01*
X27604819Y-100354761D02*
X27652438Y-100259523D01*
X27652438Y-100259523D02*
X27700057Y-100211904D01*
X27700057Y-100211904D02*
X27795295Y-100164285D01*
X27795295Y-100164285D02*
X27890533Y-100164285D01*
X27890533Y-100164285D02*
X28033390Y-100211904D01*
X28033390Y-100211904D02*
X28604819Y-100783332D01*
X28604819Y-100783332D02*
X28604819Y-100164285D01*
X68970833Y-58289580D02*
X68923214Y-58337200D01*
X68923214Y-58337200D02*
X68780357Y-58384819D01*
X68780357Y-58384819D02*
X68685119Y-58384819D01*
X68685119Y-58384819D02*
X68542262Y-58337200D01*
X68542262Y-58337200D02*
X68447024Y-58241961D01*
X68447024Y-58241961D02*
X68399405Y-58146723D01*
X68399405Y-58146723D02*
X68351786Y-57956247D01*
X68351786Y-57956247D02*
X68351786Y-57813390D01*
X68351786Y-57813390D02*
X68399405Y-57622914D01*
X68399405Y-57622914D02*
X68447024Y-57527676D01*
X68447024Y-57527676D02*
X68542262Y-57432438D01*
X68542262Y-57432438D02*
X68685119Y-57384819D01*
X68685119Y-57384819D02*
X68780357Y-57384819D01*
X68780357Y-57384819D02*
X68923214Y-57432438D01*
X68923214Y-57432438D02*
X68970833Y-57480057D01*
X69351786Y-57480057D02*
X69399405Y-57432438D01*
X69399405Y-57432438D02*
X69494643Y-57384819D01*
X69494643Y-57384819D02*
X69732738Y-57384819D01*
X69732738Y-57384819D02*
X69827976Y-57432438D01*
X69827976Y-57432438D02*
X69875595Y-57480057D01*
X69875595Y-57480057D02*
X69923214Y-57575295D01*
X69923214Y-57575295D02*
X69923214Y-57670533D01*
X69923214Y-57670533D02*
X69875595Y-57813390D01*
X69875595Y-57813390D02*
X69304167Y-58384819D01*
X69304167Y-58384819D02*
X69923214Y-58384819D01*
X118954819Y-123166666D02*
X118478628Y-123499999D01*
X118954819Y-123738094D02*
X117954819Y-123738094D01*
X117954819Y-123738094D02*
X117954819Y-123357142D01*
X117954819Y-123357142D02*
X118002438Y-123261904D01*
X118002438Y-123261904D02*
X118050057Y-123214285D01*
X118050057Y-123214285D02*
X118145295Y-123166666D01*
X118145295Y-123166666D02*
X118288152Y-123166666D01*
X118288152Y-123166666D02*
X118383390Y-123214285D01*
X118383390Y-123214285D02*
X118431009Y-123261904D01*
X118431009Y-123261904D02*
X118478628Y-123357142D01*
X118478628Y-123357142D02*
X118478628Y-123738094D01*
X117954819Y-122833332D02*
X117954819Y-122166666D01*
X117954819Y-122166666D02*
X118954819Y-122595237D01*
X48388095Y-58859819D02*
X48388095Y-59669342D01*
X48388095Y-59669342D02*
X48435714Y-59764580D01*
X48435714Y-59764580D02*
X48483333Y-59812200D01*
X48483333Y-59812200D02*
X48578571Y-59859819D01*
X48578571Y-59859819D02*
X48769047Y-59859819D01*
X48769047Y-59859819D02*
X48864285Y-59812200D01*
X48864285Y-59812200D02*
X48911904Y-59764580D01*
X48911904Y-59764580D02*
X48959523Y-59669342D01*
X48959523Y-59669342D02*
X48959523Y-58859819D01*
X49959523Y-59859819D02*
X49388095Y-59859819D01*
X49673809Y-59859819D02*
X49673809Y-58859819D01*
X49673809Y-58859819D02*
X49578571Y-59002676D01*
X49578571Y-59002676D02*
X49483333Y-59097914D01*
X49483333Y-59097914D02*
X49388095Y-59145533D01*
X139357142Y-89904819D02*
X139023809Y-89428628D01*
X138785714Y-89904819D02*
X138785714Y-88904819D01*
X138785714Y-88904819D02*
X139166666Y-88904819D01*
X139166666Y-88904819D02*
X139261904Y-88952438D01*
X139261904Y-88952438D02*
X139309523Y-89000057D01*
X139309523Y-89000057D02*
X139357142Y-89095295D01*
X139357142Y-89095295D02*
X139357142Y-89238152D01*
X139357142Y-89238152D02*
X139309523Y-89333390D01*
X139309523Y-89333390D02*
X139261904Y-89381009D01*
X139261904Y-89381009D02*
X139166666Y-89428628D01*
X139166666Y-89428628D02*
X138785714Y-89428628D01*
X139928571Y-89904819D02*
X139833333Y-89857200D01*
X139833333Y-89857200D02*
X139785714Y-89809580D01*
X139785714Y-89809580D02*
X139738095Y-89714342D01*
X139738095Y-89714342D02*
X139738095Y-89428628D01*
X139738095Y-89428628D02*
X139785714Y-89333390D01*
X139785714Y-89333390D02*
X139833333Y-89285771D01*
X139833333Y-89285771D02*
X139928571Y-89238152D01*
X139928571Y-89238152D02*
X140071428Y-89238152D01*
X140071428Y-89238152D02*
X140166666Y-89285771D01*
X140166666Y-89285771D02*
X140214285Y-89333390D01*
X140214285Y-89333390D02*
X140261904Y-89428628D01*
X140261904Y-89428628D02*
X140261904Y-89714342D01*
X140261904Y-89714342D02*
X140214285Y-89809580D01*
X140214285Y-89809580D02*
X140166666Y-89857200D01*
X140166666Y-89857200D02*
X140071428Y-89904819D01*
X140071428Y-89904819D02*
X139928571Y-89904819D01*
X140595238Y-89238152D02*
X140785714Y-89904819D01*
X140785714Y-89904819D02*
X140976190Y-89428628D01*
X140976190Y-89428628D02*
X141166666Y-89904819D01*
X141166666Y-89904819D02*
X141357142Y-89238152D01*
X142166666Y-89238152D02*
X142166666Y-89904819D01*
X141928571Y-88857200D02*
X141690476Y-89571485D01*
X141690476Y-89571485D02*
X142309523Y-89571485D01*
X154252561Y-118169285D02*
X154252561Y-117169285D01*
X154252561Y-117645475D02*
X154823989Y-117645475D01*
X154823989Y-118169285D02*
X154823989Y-117169285D01*
X155823989Y-118169285D02*
X155252561Y-118169285D01*
X155538275Y-118169285D02*
X155538275Y-117169285D01*
X155538275Y-117169285D02*
X155443037Y-117312142D01*
X155443037Y-117312142D02*
X155347799Y-117407380D01*
X155347799Y-117407380D02*
X155252561Y-117454999D01*
X111857142Y-89904819D02*
X111523809Y-89428628D01*
X111285714Y-89904819D02*
X111285714Y-88904819D01*
X111285714Y-88904819D02*
X111666666Y-88904819D01*
X111666666Y-88904819D02*
X111761904Y-88952438D01*
X111761904Y-88952438D02*
X111809523Y-89000057D01*
X111809523Y-89000057D02*
X111857142Y-89095295D01*
X111857142Y-89095295D02*
X111857142Y-89238152D01*
X111857142Y-89238152D02*
X111809523Y-89333390D01*
X111809523Y-89333390D02*
X111761904Y-89381009D01*
X111761904Y-89381009D02*
X111666666Y-89428628D01*
X111666666Y-89428628D02*
X111285714Y-89428628D01*
X112428571Y-89904819D02*
X112333333Y-89857200D01*
X112333333Y-89857200D02*
X112285714Y-89809580D01*
X112285714Y-89809580D02*
X112238095Y-89714342D01*
X112238095Y-89714342D02*
X112238095Y-89428628D01*
X112238095Y-89428628D02*
X112285714Y-89333390D01*
X112285714Y-89333390D02*
X112333333Y-89285771D01*
X112333333Y-89285771D02*
X112428571Y-89238152D01*
X112428571Y-89238152D02*
X112571428Y-89238152D01*
X112571428Y-89238152D02*
X112666666Y-89285771D01*
X112666666Y-89285771D02*
X112714285Y-89333390D01*
X112714285Y-89333390D02*
X112761904Y-89428628D01*
X112761904Y-89428628D02*
X112761904Y-89714342D01*
X112761904Y-89714342D02*
X112714285Y-89809580D01*
X112714285Y-89809580D02*
X112666666Y-89857200D01*
X112666666Y-89857200D02*
X112571428Y-89904819D01*
X112571428Y-89904819D02*
X112428571Y-89904819D01*
X113095238Y-89238152D02*
X113285714Y-89904819D01*
X113285714Y-89904819D02*
X113476190Y-89428628D01*
X113476190Y-89428628D02*
X113666666Y-89904819D01*
X113666666Y-89904819D02*
X113857142Y-89238152D01*
X114142857Y-88904819D02*
X114761904Y-88904819D01*
X114761904Y-88904819D02*
X114428571Y-89285771D01*
X114428571Y-89285771D02*
X114571428Y-89285771D01*
X114571428Y-89285771D02*
X114666666Y-89333390D01*
X114666666Y-89333390D02*
X114714285Y-89381009D01*
X114714285Y-89381009D02*
X114761904Y-89476247D01*
X114761904Y-89476247D02*
X114761904Y-89714342D01*
X114761904Y-89714342D02*
X114714285Y-89809580D01*
X114714285Y-89809580D02*
X114666666Y-89857200D01*
X114666666Y-89857200D02*
X114571428Y-89904819D01*
X114571428Y-89904819D02*
X114285714Y-89904819D01*
X114285714Y-89904819D02*
X114190476Y-89857200D01*
X114190476Y-89857200D02*
X114142857Y-89809580D01*
X128388095Y-58789819D02*
X128388095Y-59599342D01*
X128388095Y-59599342D02*
X128435714Y-59694580D01*
X128435714Y-59694580D02*
X128483333Y-59742200D01*
X128483333Y-59742200D02*
X128578571Y-59789819D01*
X128578571Y-59789819D02*
X128769047Y-59789819D01*
X128769047Y-59789819D02*
X128864285Y-59742200D01*
X128864285Y-59742200D02*
X128911904Y-59694580D01*
X128911904Y-59694580D02*
X128959523Y-59599342D01*
X128959523Y-59599342D02*
X128959523Y-58789819D01*
X129911904Y-58789819D02*
X129435714Y-58789819D01*
X129435714Y-58789819D02*
X129388095Y-59266009D01*
X129388095Y-59266009D02*
X129435714Y-59218390D01*
X129435714Y-59218390D02*
X129530952Y-59170771D01*
X129530952Y-59170771D02*
X129769047Y-59170771D01*
X129769047Y-59170771D02*
X129864285Y-59218390D01*
X129864285Y-59218390D02*
X129911904Y-59266009D01*
X129911904Y-59266009D02*
X129959523Y-59361247D01*
X129959523Y-59361247D02*
X129959523Y-59599342D01*
X129959523Y-59599342D02*
X129911904Y-59694580D01*
X129911904Y-59694580D02*
X129864285Y-59742200D01*
X129864285Y-59742200D02*
X129769047Y-59789819D01*
X129769047Y-59789819D02*
X129530952Y-59789819D01*
X129530952Y-59789819D02*
X129435714Y-59742200D01*
X129435714Y-59742200D02*
X129388095Y-59694580D01*
X74869047Y-108904819D02*
X75107142Y-109904819D01*
X75107142Y-109904819D02*
X75297618Y-109190533D01*
X75297618Y-109190533D02*
X75488094Y-109904819D01*
X75488094Y-109904819D02*
X75726190Y-108904819D01*
X76107142Y-109904819D02*
X76107142Y-109238152D01*
X76107142Y-108904819D02*
X76059523Y-108952438D01*
X76059523Y-108952438D02*
X76107142Y-109000057D01*
X76107142Y-109000057D02*
X76154761Y-108952438D01*
X76154761Y-108952438D02*
X76107142Y-108904819D01*
X76107142Y-108904819D02*
X76107142Y-109000057D01*
X76583332Y-109904819D02*
X76583332Y-109238152D01*
X76583332Y-109428628D02*
X76630951Y-109333390D01*
X76630951Y-109333390D02*
X76678570Y-109285771D01*
X76678570Y-109285771D02*
X76773808Y-109238152D01*
X76773808Y-109238152D02*
X76869046Y-109238152D01*
X77583332Y-109857200D02*
X77488094Y-109904819D01*
X77488094Y-109904819D02*
X77297618Y-109904819D01*
X77297618Y-109904819D02*
X77202380Y-109857200D01*
X77202380Y-109857200D02*
X77154761Y-109761961D01*
X77154761Y-109761961D02*
X77154761Y-109381009D01*
X77154761Y-109381009D02*
X77202380Y-109285771D01*
X77202380Y-109285771D02*
X77297618Y-109238152D01*
X77297618Y-109238152D02*
X77488094Y-109238152D01*
X77488094Y-109238152D02*
X77583332Y-109285771D01*
X77583332Y-109285771D02*
X77630951Y-109381009D01*
X77630951Y-109381009D02*
X77630951Y-109476247D01*
X77630951Y-109476247D02*
X77154761Y-109571485D01*
X77916666Y-108904819D02*
X78488094Y-108904819D01*
X78202380Y-109904819D02*
X78202380Y-108904819D01*
X78821428Y-109904819D02*
X78821428Y-109238152D01*
X78821428Y-109428628D02*
X78869047Y-109333390D01*
X78869047Y-109333390D02*
X78916666Y-109285771D01*
X78916666Y-109285771D02*
X79011904Y-109238152D01*
X79011904Y-109238152D02*
X79107142Y-109238152D01*
X79440476Y-109904819D02*
X79440476Y-109238152D01*
X79440476Y-108904819D02*
X79392857Y-108952438D01*
X79392857Y-108952438D02*
X79440476Y-109000057D01*
X79440476Y-109000057D02*
X79488095Y-108952438D01*
X79488095Y-108952438D02*
X79440476Y-108904819D01*
X79440476Y-108904819D02*
X79440476Y-109000057D01*
X80345237Y-109238152D02*
X80345237Y-110047676D01*
X80345237Y-110047676D02*
X80297618Y-110142914D01*
X80297618Y-110142914D02*
X80249999Y-110190533D01*
X80249999Y-110190533D02*
X80154761Y-110238152D01*
X80154761Y-110238152D02*
X80011904Y-110238152D01*
X80011904Y-110238152D02*
X79916666Y-110190533D01*
X80345237Y-109857200D02*
X80249999Y-109904819D01*
X80249999Y-109904819D02*
X80059523Y-109904819D01*
X80059523Y-109904819D02*
X79964285Y-109857200D01*
X79964285Y-109857200D02*
X79916666Y-109809580D01*
X79916666Y-109809580D02*
X79869047Y-109714342D01*
X79869047Y-109714342D02*
X79869047Y-109428628D01*
X79869047Y-109428628D02*
X79916666Y-109333390D01*
X79916666Y-109333390D02*
X79964285Y-109285771D01*
X79964285Y-109285771D02*
X80059523Y-109238152D01*
X80059523Y-109238152D02*
X80249999Y-109238152D01*
X80249999Y-109238152D02*
X80345237Y-109285771D01*
X81249999Y-109238152D02*
X81249999Y-110047676D01*
X81249999Y-110047676D02*
X81202380Y-110142914D01*
X81202380Y-110142914D02*
X81154761Y-110190533D01*
X81154761Y-110190533D02*
X81059523Y-110238152D01*
X81059523Y-110238152D02*
X80916666Y-110238152D01*
X80916666Y-110238152D02*
X80821428Y-110190533D01*
X81249999Y-109857200D02*
X81154761Y-109904819D01*
X81154761Y-109904819D02*
X80964285Y-109904819D01*
X80964285Y-109904819D02*
X80869047Y-109857200D01*
X80869047Y-109857200D02*
X80821428Y-109809580D01*
X80821428Y-109809580D02*
X80773809Y-109714342D01*
X80773809Y-109714342D02*
X80773809Y-109428628D01*
X80773809Y-109428628D02*
X80821428Y-109333390D01*
X80821428Y-109333390D02*
X80869047Y-109285771D01*
X80869047Y-109285771D02*
X80964285Y-109238152D01*
X80964285Y-109238152D02*
X81154761Y-109238152D01*
X81154761Y-109238152D02*
X81249999Y-109285771D01*
X82107142Y-109857200D02*
X82011904Y-109904819D01*
X82011904Y-109904819D02*
X81821428Y-109904819D01*
X81821428Y-109904819D02*
X81726190Y-109857200D01*
X81726190Y-109857200D02*
X81678571Y-109761961D01*
X81678571Y-109761961D02*
X81678571Y-109381009D01*
X81678571Y-109381009D02*
X81726190Y-109285771D01*
X81726190Y-109285771D02*
X81821428Y-109238152D01*
X81821428Y-109238152D02*
X82011904Y-109238152D01*
X82011904Y-109238152D02*
X82107142Y-109285771D01*
X82107142Y-109285771D02*
X82154761Y-109381009D01*
X82154761Y-109381009D02*
X82154761Y-109476247D01*
X82154761Y-109476247D02*
X81678571Y-109571485D01*
X82583333Y-109904819D02*
X82583333Y-109238152D01*
X82583333Y-109428628D02*
X82630952Y-109333390D01*
X82630952Y-109333390D02*
X82678571Y-109285771D01*
X82678571Y-109285771D02*
X82773809Y-109238152D01*
X82773809Y-109238152D02*
X82869047Y-109238152D01*
X83154762Y-109857200D02*
X83250000Y-109904819D01*
X83250000Y-109904819D02*
X83440476Y-109904819D01*
X83440476Y-109904819D02*
X83535714Y-109857200D01*
X83535714Y-109857200D02*
X83583333Y-109761961D01*
X83583333Y-109761961D02*
X83583333Y-109714342D01*
X83583333Y-109714342D02*
X83535714Y-109619104D01*
X83535714Y-109619104D02*
X83440476Y-109571485D01*
X83440476Y-109571485D02*
X83297619Y-109571485D01*
X83297619Y-109571485D02*
X83202381Y-109523866D01*
X83202381Y-109523866D02*
X83154762Y-109428628D01*
X83154762Y-109428628D02*
X83154762Y-109381009D01*
X83154762Y-109381009D02*
X83202381Y-109285771D01*
X83202381Y-109285771D02*
X83297619Y-109238152D01*
X83297619Y-109238152D02*
X83440476Y-109238152D01*
X83440476Y-109238152D02*
X83535714Y-109285771D01*
X68388095Y-58789819D02*
X68388095Y-59599342D01*
X68388095Y-59599342D02*
X68435714Y-59694580D01*
X68435714Y-59694580D02*
X68483333Y-59742200D01*
X68483333Y-59742200D02*
X68578571Y-59789819D01*
X68578571Y-59789819D02*
X68769047Y-59789819D01*
X68769047Y-59789819D02*
X68864285Y-59742200D01*
X68864285Y-59742200D02*
X68911904Y-59694580D01*
X68911904Y-59694580D02*
X68959523Y-59599342D01*
X68959523Y-59599342D02*
X68959523Y-58789819D01*
X69388095Y-58885057D02*
X69435714Y-58837438D01*
X69435714Y-58837438D02*
X69530952Y-58789819D01*
X69530952Y-58789819D02*
X69769047Y-58789819D01*
X69769047Y-58789819D02*
X69864285Y-58837438D01*
X69864285Y-58837438D02*
X69911904Y-58885057D01*
X69911904Y-58885057D02*
X69959523Y-58980295D01*
X69959523Y-58980295D02*
X69959523Y-59075533D01*
X69959523Y-59075533D02*
X69911904Y-59218390D01*
X69911904Y-59218390D02*
X69340476Y-59789819D01*
X69340476Y-59789819D02*
X69959523Y-59789819D01*
X93130952Y-109904819D02*
X92654762Y-109904819D01*
X92654762Y-109904819D02*
X92654762Y-108904819D01*
X93464286Y-109381009D02*
X93797619Y-109381009D01*
X93940476Y-109904819D02*
X93464286Y-109904819D01*
X93464286Y-109904819D02*
X93464286Y-108904819D01*
X93464286Y-108904819D02*
X93940476Y-108904819D01*
X94369048Y-109904819D02*
X94369048Y-108904819D01*
X94369048Y-108904819D02*
X94607143Y-108904819D01*
X94607143Y-108904819D02*
X94750000Y-108952438D01*
X94750000Y-108952438D02*
X94845238Y-109047676D01*
X94845238Y-109047676D02*
X94892857Y-109142914D01*
X94892857Y-109142914D02*
X94940476Y-109333390D01*
X94940476Y-109333390D02*
X94940476Y-109476247D01*
X94940476Y-109476247D02*
X94892857Y-109666723D01*
X94892857Y-109666723D02*
X94845238Y-109761961D01*
X94845238Y-109761961D02*
X94750000Y-109857200D01*
X94750000Y-109857200D02*
X94607143Y-109904819D01*
X94607143Y-109904819D02*
X94369048Y-109904819D01*
X95892857Y-109904819D02*
X95321429Y-109904819D01*
X95607143Y-109904819D02*
X95607143Y-108904819D01*
X95607143Y-108904819D02*
X95511905Y-109047676D01*
X95511905Y-109047676D02*
X95416667Y-109142914D01*
X95416667Y-109142914D02*
X95321429Y-109190533D01*
X48970833Y-58289580D02*
X48923214Y-58337200D01*
X48923214Y-58337200D02*
X48780357Y-58384819D01*
X48780357Y-58384819D02*
X48685119Y-58384819D01*
X48685119Y-58384819D02*
X48542262Y-58337200D01*
X48542262Y-58337200D02*
X48447024Y-58241961D01*
X48447024Y-58241961D02*
X48399405Y-58146723D01*
X48399405Y-58146723D02*
X48351786Y-57956247D01*
X48351786Y-57956247D02*
X48351786Y-57813390D01*
X48351786Y-57813390D02*
X48399405Y-57622914D01*
X48399405Y-57622914D02*
X48447024Y-57527676D01*
X48447024Y-57527676D02*
X48542262Y-57432438D01*
X48542262Y-57432438D02*
X48685119Y-57384819D01*
X48685119Y-57384819D02*
X48780357Y-57384819D01*
X48780357Y-57384819D02*
X48923214Y-57432438D01*
X48923214Y-57432438D02*
X48970833Y-57480057D01*
X49923214Y-58384819D02*
X49351786Y-58384819D01*
X49637500Y-58384819D02*
X49637500Y-57384819D01*
X49637500Y-57384819D02*
X49542262Y-57527676D01*
X49542262Y-57527676D02*
X49447024Y-57622914D01*
X49447024Y-57622914D02*
X49351786Y-57670533D01*
X56857142Y-89904819D02*
X56523809Y-89428628D01*
X56285714Y-89904819D02*
X56285714Y-88904819D01*
X56285714Y-88904819D02*
X56666666Y-88904819D01*
X56666666Y-88904819D02*
X56761904Y-88952438D01*
X56761904Y-88952438D02*
X56809523Y-89000057D01*
X56809523Y-89000057D02*
X56857142Y-89095295D01*
X56857142Y-89095295D02*
X56857142Y-89238152D01*
X56857142Y-89238152D02*
X56809523Y-89333390D01*
X56809523Y-89333390D02*
X56761904Y-89381009D01*
X56761904Y-89381009D02*
X56666666Y-89428628D01*
X56666666Y-89428628D02*
X56285714Y-89428628D01*
X57428571Y-89904819D02*
X57333333Y-89857200D01*
X57333333Y-89857200D02*
X57285714Y-89809580D01*
X57285714Y-89809580D02*
X57238095Y-89714342D01*
X57238095Y-89714342D02*
X57238095Y-89428628D01*
X57238095Y-89428628D02*
X57285714Y-89333390D01*
X57285714Y-89333390D02*
X57333333Y-89285771D01*
X57333333Y-89285771D02*
X57428571Y-89238152D01*
X57428571Y-89238152D02*
X57571428Y-89238152D01*
X57571428Y-89238152D02*
X57666666Y-89285771D01*
X57666666Y-89285771D02*
X57714285Y-89333390D01*
X57714285Y-89333390D02*
X57761904Y-89428628D01*
X57761904Y-89428628D02*
X57761904Y-89714342D01*
X57761904Y-89714342D02*
X57714285Y-89809580D01*
X57714285Y-89809580D02*
X57666666Y-89857200D01*
X57666666Y-89857200D02*
X57571428Y-89904819D01*
X57571428Y-89904819D02*
X57428571Y-89904819D01*
X58095238Y-89238152D02*
X58285714Y-89904819D01*
X58285714Y-89904819D02*
X58476190Y-89428628D01*
X58476190Y-89428628D02*
X58666666Y-89904819D01*
X58666666Y-89904819D02*
X58857142Y-89238152D01*
X59761904Y-89904819D02*
X59190476Y-89904819D01*
X59476190Y-89904819D02*
X59476190Y-88904819D01*
X59476190Y-88904819D02*
X59380952Y-89047676D01*
X59380952Y-89047676D02*
X59285714Y-89142914D01*
X59285714Y-89142914D02*
X59190476Y-89190533D01*
X109024819Y-123254166D02*
X108548628Y-123587499D01*
X109024819Y-123825594D02*
X108024819Y-123825594D01*
X108024819Y-123825594D02*
X108024819Y-123444642D01*
X108024819Y-123444642D02*
X108072438Y-123349404D01*
X108072438Y-123349404D02*
X108120057Y-123301785D01*
X108120057Y-123301785D02*
X108215295Y-123254166D01*
X108215295Y-123254166D02*
X108358152Y-123254166D01*
X108358152Y-123254166D02*
X108453390Y-123301785D01*
X108453390Y-123301785D02*
X108501009Y-123349404D01*
X108501009Y-123349404D02*
X108548628Y-123444642D01*
X108548628Y-123444642D02*
X108548628Y-123825594D01*
X108024819Y-122397023D02*
X108024819Y-122587499D01*
X108024819Y-122587499D02*
X108072438Y-122682737D01*
X108072438Y-122682737D02*
X108120057Y-122730356D01*
X108120057Y-122730356D02*
X108262914Y-122825594D01*
X108262914Y-122825594D02*
X108453390Y-122873213D01*
X108453390Y-122873213D02*
X108834342Y-122873213D01*
X108834342Y-122873213D02*
X108929580Y-122825594D01*
X108929580Y-122825594D02*
X108977200Y-122777975D01*
X108977200Y-122777975D02*
X109024819Y-122682737D01*
X109024819Y-122682737D02*
X109024819Y-122492261D01*
X109024819Y-122492261D02*
X108977200Y-122397023D01*
X108977200Y-122397023D02*
X108929580Y-122349404D01*
X108929580Y-122349404D02*
X108834342Y-122301785D01*
X108834342Y-122301785D02*
X108596247Y-122301785D01*
X108596247Y-122301785D02*
X108501009Y-122349404D01*
X108501009Y-122349404D02*
X108453390Y-122397023D01*
X108453390Y-122397023D02*
X108405771Y-122492261D01*
X108405771Y-122492261D02*
X108405771Y-122682737D01*
X108405771Y-122682737D02*
X108453390Y-122777975D01*
X108453390Y-122777975D02*
X108501009Y-122825594D01*
X108501009Y-122825594D02*
X108596247Y-122873213D01*
X148970833Y-58289580D02*
X148923214Y-58337200D01*
X148923214Y-58337200D02*
X148780357Y-58384819D01*
X148780357Y-58384819D02*
X148685119Y-58384819D01*
X148685119Y-58384819D02*
X148542262Y-58337200D01*
X148542262Y-58337200D02*
X148447024Y-58241961D01*
X148447024Y-58241961D02*
X148399405Y-58146723D01*
X148399405Y-58146723D02*
X148351786Y-57956247D01*
X148351786Y-57956247D02*
X148351786Y-57813390D01*
X148351786Y-57813390D02*
X148399405Y-57622914D01*
X148399405Y-57622914D02*
X148447024Y-57527676D01*
X148447024Y-57527676D02*
X148542262Y-57432438D01*
X148542262Y-57432438D02*
X148685119Y-57384819D01*
X148685119Y-57384819D02*
X148780357Y-57384819D01*
X148780357Y-57384819D02*
X148923214Y-57432438D01*
X148923214Y-57432438D02*
X148970833Y-57480057D01*
X149827976Y-57384819D02*
X149637500Y-57384819D01*
X149637500Y-57384819D02*
X149542262Y-57432438D01*
X149542262Y-57432438D02*
X149494643Y-57480057D01*
X149494643Y-57480057D02*
X149399405Y-57622914D01*
X149399405Y-57622914D02*
X149351786Y-57813390D01*
X149351786Y-57813390D02*
X149351786Y-58194342D01*
X149351786Y-58194342D02*
X149399405Y-58289580D01*
X149399405Y-58289580D02*
X149447024Y-58337200D01*
X149447024Y-58337200D02*
X149542262Y-58384819D01*
X149542262Y-58384819D02*
X149732738Y-58384819D01*
X149732738Y-58384819D02*
X149827976Y-58337200D01*
X149827976Y-58337200D02*
X149875595Y-58289580D01*
X149875595Y-58289580D02*
X149923214Y-58194342D01*
X149923214Y-58194342D02*
X149923214Y-57956247D01*
X149923214Y-57956247D02*
X149875595Y-57861009D01*
X149875595Y-57861009D02*
X149827976Y-57813390D01*
X149827976Y-57813390D02*
X149732738Y-57765771D01*
X149732738Y-57765771D02*
X149542262Y-57765771D01*
X149542262Y-57765771D02*
X149447024Y-57813390D01*
X149447024Y-57813390D02*
X149399405Y-57861009D01*
X149399405Y-57861009D02*
X149351786Y-57956247D01*
X108970833Y-58289580D02*
X108923214Y-58337200D01*
X108923214Y-58337200D02*
X108780357Y-58384819D01*
X108780357Y-58384819D02*
X108685119Y-58384819D01*
X108685119Y-58384819D02*
X108542262Y-58337200D01*
X108542262Y-58337200D02*
X108447024Y-58241961D01*
X108447024Y-58241961D02*
X108399405Y-58146723D01*
X108399405Y-58146723D02*
X108351786Y-57956247D01*
X108351786Y-57956247D02*
X108351786Y-57813390D01*
X108351786Y-57813390D02*
X108399405Y-57622914D01*
X108399405Y-57622914D02*
X108447024Y-57527676D01*
X108447024Y-57527676D02*
X108542262Y-57432438D01*
X108542262Y-57432438D02*
X108685119Y-57384819D01*
X108685119Y-57384819D02*
X108780357Y-57384819D01*
X108780357Y-57384819D02*
X108923214Y-57432438D01*
X108923214Y-57432438D02*
X108970833Y-57480057D01*
X109827976Y-57718152D02*
X109827976Y-58384819D01*
X109589881Y-57337200D02*
X109351786Y-58051485D01*
X109351786Y-58051485D02*
X109970833Y-58051485D01*
X128970833Y-58289580D02*
X128923214Y-58337200D01*
X128923214Y-58337200D02*
X128780357Y-58384819D01*
X128780357Y-58384819D02*
X128685119Y-58384819D01*
X128685119Y-58384819D02*
X128542262Y-58337200D01*
X128542262Y-58337200D02*
X128447024Y-58241961D01*
X128447024Y-58241961D02*
X128399405Y-58146723D01*
X128399405Y-58146723D02*
X128351786Y-57956247D01*
X128351786Y-57956247D02*
X128351786Y-57813390D01*
X128351786Y-57813390D02*
X128399405Y-57622914D01*
X128399405Y-57622914D02*
X128447024Y-57527676D01*
X128447024Y-57527676D02*
X128542262Y-57432438D01*
X128542262Y-57432438D02*
X128685119Y-57384819D01*
X128685119Y-57384819D02*
X128780357Y-57384819D01*
X128780357Y-57384819D02*
X128923214Y-57432438D01*
X128923214Y-57432438D02*
X128970833Y-57480057D01*
X129875595Y-57384819D02*
X129399405Y-57384819D01*
X129399405Y-57384819D02*
X129351786Y-57861009D01*
X129351786Y-57861009D02*
X129399405Y-57813390D01*
X129399405Y-57813390D02*
X129494643Y-57765771D01*
X129494643Y-57765771D02*
X129732738Y-57765771D01*
X129732738Y-57765771D02*
X129827976Y-57813390D01*
X129827976Y-57813390D02*
X129875595Y-57861009D01*
X129875595Y-57861009D02*
X129923214Y-57956247D01*
X129923214Y-57956247D02*
X129923214Y-58194342D01*
X129923214Y-58194342D02*
X129875595Y-58289580D01*
X129875595Y-58289580D02*
X129827976Y-58337200D01*
X129827976Y-58337200D02*
X129732738Y-58384819D01*
X129732738Y-58384819D02*
X129494643Y-58384819D01*
X129494643Y-58384819D02*
X129399405Y-58337200D01*
X129399405Y-58337200D02*
X129351786Y-58289580D01*
X103954819Y-123316666D02*
X103478628Y-123649999D01*
X103954819Y-123888094D02*
X102954819Y-123888094D01*
X102954819Y-123888094D02*
X102954819Y-123507142D01*
X102954819Y-123507142D02*
X103002438Y-123411904D01*
X103002438Y-123411904D02*
X103050057Y-123364285D01*
X103050057Y-123364285D02*
X103145295Y-123316666D01*
X103145295Y-123316666D02*
X103288152Y-123316666D01*
X103288152Y-123316666D02*
X103383390Y-123364285D01*
X103383390Y-123364285D02*
X103431009Y-123411904D01*
X103431009Y-123411904D02*
X103478628Y-123507142D01*
X103478628Y-123507142D02*
X103478628Y-123888094D01*
X102954819Y-122411904D02*
X102954819Y-122888094D01*
X102954819Y-122888094D02*
X103431009Y-122935713D01*
X103431009Y-122935713D02*
X103383390Y-122888094D01*
X103383390Y-122888094D02*
X103335771Y-122792856D01*
X103335771Y-122792856D02*
X103335771Y-122554761D01*
X103335771Y-122554761D02*
X103383390Y-122459523D01*
X103383390Y-122459523D02*
X103431009Y-122411904D01*
X103431009Y-122411904D02*
X103526247Y-122364285D01*
X103526247Y-122364285D02*
X103764342Y-122364285D01*
X103764342Y-122364285D02*
X103859580Y-122411904D01*
X103859580Y-122411904D02*
X103907200Y-122459523D01*
X103907200Y-122459523D02*
X103954819Y-122554761D01*
X103954819Y-122554761D02*
X103954819Y-122792856D01*
X103954819Y-122792856D02*
X103907200Y-122888094D01*
X103907200Y-122888094D02*
X103859580Y-122935713D01*
X84357142Y-99904819D02*
X84023809Y-99428628D01*
X83785714Y-99904819D02*
X83785714Y-98904819D01*
X83785714Y-98904819D02*
X84166666Y-98904819D01*
X84166666Y-98904819D02*
X84261904Y-98952438D01*
X84261904Y-98952438D02*
X84309523Y-99000057D01*
X84309523Y-99000057D02*
X84357142Y-99095295D01*
X84357142Y-99095295D02*
X84357142Y-99238152D01*
X84357142Y-99238152D02*
X84309523Y-99333390D01*
X84309523Y-99333390D02*
X84261904Y-99381009D01*
X84261904Y-99381009D02*
X84166666Y-99428628D01*
X84166666Y-99428628D02*
X83785714Y-99428628D01*
X84928571Y-99904819D02*
X84833333Y-99857200D01*
X84833333Y-99857200D02*
X84785714Y-99809580D01*
X84785714Y-99809580D02*
X84738095Y-99714342D01*
X84738095Y-99714342D02*
X84738095Y-99428628D01*
X84738095Y-99428628D02*
X84785714Y-99333390D01*
X84785714Y-99333390D02*
X84833333Y-99285771D01*
X84833333Y-99285771D02*
X84928571Y-99238152D01*
X84928571Y-99238152D02*
X85071428Y-99238152D01*
X85071428Y-99238152D02*
X85166666Y-99285771D01*
X85166666Y-99285771D02*
X85214285Y-99333390D01*
X85214285Y-99333390D02*
X85261904Y-99428628D01*
X85261904Y-99428628D02*
X85261904Y-99714342D01*
X85261904Y-99714342D02*
X85214285Y-99809580D01*
X85214285Y-99809580D02*
X85166666Y-99857200D01*
X85166666Y-99857200D02*
X85071428Y-99904819D01*
X85071428Y-99904819D02*
X84928571Y-99904819D01*
X85595238Y-99238152D02*
X85785714Y-99904819D01*
X85785714Y-99904819D02*
X85976190Y-99428628D01*
X85976190Y-99428628D02*
X86166666Y-99904819D01*
X86166666Y-99904819D02*
X86357142Y-99238152D01*
X87166666Y-98904819D02*
X86976190Y-98904819D01*
X86976190Y-98904819D02*
X86880952Y-98952438D01*
X86880952Y-98952438D02*
X86833333Y-99000057D01*
X86833333Y-99000057D02*
X86738095Y-99142914D01*
X86738095Y-99142914D02*
X86690476Y-99333390D01*
X86690476Y-99333390D02*
X86690476Y-99714342D01*
X86690476Y-99714342D02*
X86738095Y-99809580D01*
X86738095Y-99809580D02*
X86785714Y-99857200D01*
X86785714Y-99857200D02*
X86880952Y-99904819D01*
X86880952Y-99904819D02*
X87071428Y-99904819D01*
X87071428Y-99904819D02*
X87166666Y-99857200D01*
X87166666Y-99857200D02*
X87214285Y-99809580D01*
X87214285Y-99809580D02*
X87261904Y-99714342D01*
X87261904Y-99714342D02*
X87261904Y-99476247D01*
X87261904Y-99476247D02*
X87214285Y-99381009D01*
X87214285Y-99381009D02*
X87166666Y-99333390D01*
X87166666Y-99333390D02*
X87071428Y-99285771D01*
X87071428Y-99285771D02*
X86880952Y-99285771D01*
X86880952Y-99285771D02*
X86785714Y-99333390D01*
X86785714Y-99333390D02*
X86738095Y-99381009D01*
X86738095Y-99381009D02*
X86690476Y-99476247D01*
X94024819Y-123254166D02*
X93548628Y-123587499D01*
X94024819Y-123825594D02*
X93024819Y-123825594D01*
X93024819Y-123825594D02*
X93024819Y-123444642D01*
X93024819Y-123444642D02*
X93072438Y-123349404D01*
X93072438Y-123349404D02*
X93120057Y-123301785D01*
X93120057Y-123301785D02*
X93215295Y-123254166D01*
X93215295Y-123254166D02*
X93358152Y-123254166D01*
X93358152Y-123254166D02*
X93453390Y-123301785D01*
X93453390Y-123301785D02*
X93501009Y-123349404D01*
X93501009Y-123349404D02*
X93548628Y-123444642D01*
X93548628Y-123444642D02*
X93548628Y-123825594D01*
X93358152Y-122397023D02*
X94024819Y-122397023D01*
X92977200Y-122635118D02*
X93691485Y-122873213D01*
X93691485Y-122873213D02*
X93691485Y-122254166D01*
X88954819Y-123266666D02*
X88478628Y-123599999D01*
X88954819Y-123838094D02*
X87954819Y-123838094D01*
X87954819Y-123838094D02*
X87954819Y-123457142D01*
X87954819Y-123457142D02*
X88002438Y-123361904D01*
X88002438Y-123361904D02*
X88050057Y-123314285D01*
X88050057Y-123314285D02*
X88145295Y-123266666D01*
X88145295Y-123266666D02*
X88288152Y-123266666D01*
X88288152Y-123266666D02*
X88383390Y-123314285D01*
X88383390Y-123314285D02*
X88431009Y-123361904D01*
X88431009Y-123361904D02*
X88478628Y-123457142D01*
X88478628Y-123457142D02*
X88478628Y-123838094D01*
X87954819Y-122933332D02*
X87954819Y-122314285D01*
X87954819Y-122314285D02*
X88335771Y-122647618D01*
X88335771Y-122647618D02*
X88335771Y-122504761D01*
X88335771Y-122504761D02*
X88383390Y-122409523D01*
X88383390Y-122409523D02*
X88431009Y-122361904D01*
X88431009Y-122361904D02*
X88526247Y-122314285D01*
X88526247Y-122314285D02*
X88764342Y-122314285D01*
X88764342Y-122314285D02*
X88859580Y-122361904D01*
X88859580Y-122361904D02*
X88907200Y-122409523D01*
X88907200Y-122409523D02*
X88954819Y-122504761D01*
X88954819Y-122504761D02*
X88954819Y-122790475D01*
X88954819Y-122790475D02*
X88907200Y-122885713D01*
X88907200Y-122885713D02*
X88859580Y-122933332D01*
X124024819Y-123254166D02*
X123548628Y-123587499D01*
X124024819Y-123825594D02*
X123024819Y-123825594D01*
X123024819Y-123825594D02*
X123024819Y-123444642D01*
X123024819Y-123444642D02*
X123072438Y-123349404D01*
X123072438Y-123349404D02*
X123120057Y-123301785D01*
X123120057Y-123301785D02*
X123215295Y-123254166D01*
X123215295Y-123254166D02*
X123358152Y-123254166D01*
X123358152Y-123254166D02*
X123453390Y-123301785D01*
X123453390Y-123301785D02*
X123501009Y-123349404D01*
X123501009Y-123349404D02*
X123548628Y-123444642D01*
X123548628Y-123444642D02*
X123548628Y-123825594D01*
X123453390Y-122682737D02*
X123405771Y-122777975D01*
X123405771Y-122777975D02*
X123358152Y-122825594D01*
X123358152Y-122825594D02*
X123262914Y-122873213D01*
X123262914Y-122873213D02*
X123215295Y-122873213D01*
X123215295Y-122873213D02*
X123120057Y-122825594D01*
X123120057Y-122825594D02*
X123072438Y-122777975D01*
X123072438Y-122777975D02*
X123024819Y-122682737D01*
X123024819Y-122682737D02*
X123024819Y-122492261D01*
X123024819Y-122492261D02*
X123072438Y-122397023D01*
X123072438Y-122397023D02*
X123120057Y-122349404D01*
X123120057Y-122349404D02*
X123215295Y-122301785D01*
X123215295Y-122301785D02*
X123262914Y-122301785D01*
X123262914Y-122301785D02*
X123358152Y-122349404D01*
X123358152Y-122349404D02*
X123405771Y-122397023D01*
X123405771Y-122397023D02*
X123453390Y-122492261D01*
X123453390Y-122492261D02*
X123453390Y-122682737D01*
X123453390Y-122682737D02*
X123501009Y-122777975D01*
X123501009Y-122777975D02*
X123548628Y-122825594D01*
X123548628Y-122825594D02*
X123643866Y-122873213D01*
X123643866Y-122873213D02*
X123834342Y-122873213D01*
X123834342Y-122873213D02*
X123929580Y-122825594D01*
X123929580Y-122825594D02*
X123977200Y-122777975D01*
X123977200Y-122777975D02*
X124024819Y-122682737D01*
X124024819Y-122682737D02*
X124024819Y-122492261D01*
X124024819Y-122492261D02*
X123977200Y-122397023D01*
X123977200Y-122397023D02*
X123929580Y-122349404D01*
X123929580Y-122349404D02*
X123834342Y-122301785D01*
X123834342Y-122301785D02*
X123643866Y-122301785D01*
X123643866Y-122301785D02*
X123548628Y-122349404D01*
X123548628Y-122349404D02*
X123501009Y-122397023D01*
X123501009Y-122397023D02*
X123453390Y-122492261D01*
X88970833Y-58289580D02*
X88923214Y-58337200D01*
X88923214Y-58337200D02*
X88780357Y-58384819D01*
X88780357Y-58384819D02*
X88685119Y-58384819D01*
X88685119Y-58384819D02*
X88542262Y-58337200D01*
X88542262Y-58337200D02*
X88447024Y-58241961D01*
X88447024Y-58241961D02*
X88399405Y-58146723D01*
X88399405Y-58146723D02*
X88351786Y-57956247D01*
X88351786Y-57956247D02*
X88351786Y-57813390D01*
X88351786Y-57813390D02*
X88399405Y-57622914D01*
X88399405Y-57622914D02*
X88447024Y-57527676D01*
X88447024Y-57527676D02*
X88542262Y-57432438D01*
X88542262Y-57432438D02*
X88685119Y-57384819D01*
X88685119Y-57384819D02*
X88780357Y-57384819D01*
X88780357Y-57384819D02*
X88923214Y-57432438D01*
X88923214Y-57432438D02*
X88970833Y-57480057D01*
X89304167Y-57384819D02*
X89923214Y-57384819D01*
X89923214Y-57384819D02*
X89589881Y-57765771D01*
X89589881Y-57765771D02*
X89732738Y-57765771D01*
X89732738Y-57765771D02*
X89827976Y-57813390D01*
X89827976Y-57813390D02*
X89875595Y-57861009D01*
X89875595Y-57861009D02*
X89923214Y-57956247D01*
X89923214Y-57956247D02*
X89923214Y-58194342D01*
X89923214Y-58194342D02*
X89875595Y-58289580D01*
X89875595Y-58289580D02*
X89827976Y-58337200D01*
X89827976Y-58337200D02*
X89732738Y-58384819D01*
X89732738Y-58384819D02*
X89447024Y-58384819D01*
X89447024Y-58384819D02*
X89351786Y-58337200D01*
X89351786Y-58337200D02*
X89304167Y-58289580D01*
X88388095Y-58789819D02*
X88388095Y-59599342D01*
X88388095Y-59599342D02*
X88435714Y-59694580D01*
X88435714Y-59694580D02*
X88483333Y-59742200D01*
X88483333Y-59742200D02*
X88578571Y-59789819D01*
X88578571Y-59789819D02*
X88769047Y-59789819D01*
X88769047Y-59789819D02*
X88864285Y-59742200D01*
X88864285Y-59742200D02*
X88911904Y-59694580D01*
X88911904Y-59694580D02*
X88959523Y-59599342D01*
X88959523Y-59599342D02*
X88959523Y-58789819D01*
X89340476Y-58789819D02*
X89959523Y-58789819D01*
X89959523Y-58789819D02*
X89626190Y-59170771D01*
X89626190Y-59170771D02*
X89769047Y-59170771D01*
X89769047Y-59170771D02*
X89864285Y-59218390D01*
X89864285Y-59218390D02*
X89911904Y-59266009D01*
X89911904Y-59266009D02*
X89959523Y-59361247D01*
X89959523Y-59361247D02*
X89959523Y-59599342D01*
X89959523Y-59599342D02*
X89911904Y-59694580D01*
X89911904Y-59694580D02*
X89864285Y-59742200D01*
X89864285Y-59742200D02*
X89769047Y-59789819D01*
X89769047Y-59789819D02*
X89483333Y-59789819D01*
X89483333Y-59789819D02*
X89388095Y-59742200D01*
X89388095Y-59742200D02*
X89340476Y-59694580D01*
X29238095Y-62204819D02*
X29238095Y-61204819D01*
X29238095Y-61681009D02*
X29809523Y-61681009D01*
X29809523Y-62204819D02*
X29809523Y-61204819D01*
X30190476Y-61204819D02*
X30809523Y-61204819D01*
X30809523Y-61204819D02*
X30476190Y-61585771D01*
X30476190Y-61585771D02*
X30619047Y-61585771D01*
X30619047Y-61585771D02*
X30714285Y-61633390D01*
X30714285Y-61633390D02*
X30761904Y-61681009D01*
X30761904Y-61681009D02*
X30809523Y-61776247D01*
X30809523Y-61776247D02*
X30809523Y-62014342D01*
X30809523Y-62014342D02*
X30761904Y-62109580D01*
X30761904Y-62109580D02*
X30714285Y-62157200D01*
X30714285Y-62157200D02*
X30619047Y-62204819D01*
X30619047Y-62204819D02*
X30333333Y-62204819D01*
X30333333Y-62204819D02*
X30238095Y-62157200D01*
X30238095Y-62157200D02*
X30190476Y-62109580D01*
X84357142Y-89904819D02*
X84023809Y-89428628D01*
X83785714Y-89904819D02*
X83785714Y-88904819D01*
X83785714Y-88904819D02*
X84166666Y-88904819D01*
X84166666Y-88904819D02*
X84261904Y-88952438D01*
X84261904Y-88952438D02*
X84309523Y-89000057D01*
X84309523Y-89000057D02*
X84357142Y-89095295D01*
X84357142Y-89095295D02*
X84357142Y-89238152D01*
X84357142Y-89238152D02*
X84309523Y-89333390D01*
X84309523Y-89333390D02*
X84261904Y-89381009D01*
X84261904Y-89381009D02*
X84166666Y-89428628D01*
X84166666Y-89428628D02*
X83785714Y-89428628D01*
X84928571Y-89904819D02*
X84833333Y-89857200D01*
X84833333Y-89857200D02*
X84785714Y-89809580D01*
X84785714Y-89809580D02*
X84738095Y-89714342D01*
X84738095Y-89714342D02*
X84738095Y-89428628D01*
X84738095Y-89428628D02*
X84785714Y-89333390D01*
X84785714Y-89333390D02*
X84833333Y-89285771D01*
X84833333Y-89285771D02*
X84928571Y-89238152D01*
X84928571Y-89238152D02*
X85071428Y-89238152D01*
X85071428Y-89238152D02*
X85166666Y-89285771D01*
X85166666Y-89285771D02*
X85214285Y-89333390D01*
X85214285Y-89333390D02*
X85261904Y-89428628D01*
X85261904Y-89428628D02*
X85261904Y-89714342D01*
X85261904Y-89714342D02*
X85214285Y-89809580D01*
X85214285Y-89809580D02*
X85166666Y-89857200D01*
X85166666Y-89857200D02*
X85071428Y-89904819D01*
X85071428Y-89904819D02*
X84928571Y-89904819D01*
X85595238Y-89238152D02*
X85785714Y-89904819D01*
X85785714Y-89904819D02*
X85976190Y-89428628D01*
X85976190Y-89428628D02*
X86166666Y-89904819D01*
X86166666Y-89904819D02*
X86357142Y-89238152D01*
X86690476Y-89000057D02*
X86738095Y-88952438D01*
X86738095Y-88952438D02*
X86833333Y-88904819D01*
X86833333Y-88904819D02*
X87071428Y-88904819D01*
X87071428Y-88904819D02*
X87166666Y-88952438D01*
X87166666Y-88952438D02*
X87214285Y-89000057D01*
X87214285Y-89000057D02*
X87261904Y-89095295D01*
X87261904Y-89095295D02*
X87261904Y-89190533D01*
X87261904Y-89190533D02*
X87214285Y-89333390D01*
X87214285Y-89333390D02*
X86642857Y-89904819D01*
X86642857Y-89904819D02*
X87261904Y-89904819D01*
X56857142Y-99904819D02*
X56523809Y-99428628D01*
X56285714Y-99904819D02*
X56285714Y-98904819D01*
X56285714Y-98904819D02*
X56666666Y-98904819D01*
X56666666Y-98904819D02*
X56761904Y-98952438D01*
X56761904Y-98952438D02*
X56809523Y-99000057D01*
X56809523Y-99000057D02*
X56857142Y-99095295D01*
X56857142Y-99095295D02*
X56857142Y-99238152D01*
X56857142Y-99238152D02*
X56809523Y-99333390D01*
X56809523Y-99333390D02*
X56761904Y-99381009D01*
X56761904Y-99381009D02*
X56666666Y-99428628D01*
X56666666Y-99428628D02*
X56285714Y-99428628D01*
X57428571Y-99904819D02*
X57333333Y-99857200D01*
X57333333Y-99857200D02*
X57285714Y-99809580D01*
X57285714Y-99809580D02*
X57238095Y-99714342D01*
X57238095Y-99714342D02*
X57238095Y-99428628D01*
X57238095Y-99428628D02*
X57285714Y-99333390D01*
X57285714Y-99333390D02*
X57333333Y-99285771D01*
X57333333Y-99285771D02*
X57428571Y-99238152D01*
X57428571Y-99238152D02*
X57571428Y-99238152D01*
X57571428Y-99238152D02*
X57666666Y-99285771D01*
X57666666Y-99285771D02*
X57714285Y-99333390D01*
X57714285Y-99333390D02*
X57761904Y-99428628D01*
X57761904Y-99428628D02*
X57761904Y-99714342D01*
X57761904Y-99714342D02*
X57714285Y-99809580D01*
X57714285Y-99809580D02*
X57666666Y-99857200D01*
X57666666Y-99857200D02*
X57571428Y-99904819D01*
X57571428Y-99904819D02*
X57428571Y-99904819D01*
X58095238Y-99238152D02*
X58285714Y-99904819D01*
X58285714Y-99904819D02*
X58476190Y-99428628D01*
X58476190Y-99428628D02*
X58666666Y-99904819D01*
X58666666Y-99904819D02*
X58857142Y-99238152D01*
X59714285Y-98904819D02*
X59238095Y-98904819D01*
X59238095Y-98904819D02*
X59190476Y-99381009D01*
X59190476Y-99381009D02*
X59238095Y-99333390D01*
X59238095Y-99333390D02*
X59333333Y-99285771D01*
X59333333Y-99285771D02*
X59571428Y-99285771D01*
X59571428Y-99285771D02*
X59666666Y-99333390D01*
X59666666Y-99333390D02*
X59714285Y-99381009D01*
X59714285Y-99381009D02*
X59761904Y-99476247D01*
X59761904Y-99476247D02*
X59761904Y-99714342D01*
X59761904Y-99714342D02*
X59714285Y-99809580D01*
X59714285Y-99809580D02*
X59666666Y-99857200D01*
X59666666Y-99857200D02*
X59571428Y-99904819D01*
X59571428Y-99904819D02*
X59333333Y-99904819D01*
X59333333Y-99904819D02*
X59238095Y-99857200D01*
X59238095Y-99857200D02*
X59190476Y-99809580D01*
X123130952Y-109904819D02*
X122654762Y-109904819D01*
X122654762Y-109904819D02*
X122654762Y-108904819D01*
X123464286Y-109381009D02*
X123797619Y-109381009D01*
X123940476Y-109904819D02*
X123464286Y-109904819D01*
X123464286Y-109904819D02*
X123464286Y-108904819D01*
X123464286Y-108904819D02*
X123940476Y-108904819D01*
X124369048Y-109904819D02*
X124369048Y-108904819D01*
X124369048Y-108904819D02*
X124607143Y-108904819D01*
X124607143Y-108904819D02*
X124750000Y-108952438D01*
X124750000Y-108952438D02*
X124845238Y-109047676D01*
X124845238Y-109047676D02*
X124892857Y-109142914D01*
X124892857Y-109142914D02*
X124940476Y-109333390D01*
X124940476Y-109333390D02*
X124940476Y-109476247D01*
X124940476Y-109476247D02*
X124892857Y-109666723D01*
X124892857Y-109666723D02*
X124845238Y-109761961D01*
X124845238Y-109761961D02*
X124750000Y-109857200D01*
X124750000Y-109857200D02*
X124607143Y-109904819D01*
X124607143Y-109904819D02*
X124369048Y-109904819D01*
X125273810Y-108904819D02*
X125892857Y-108904819D01*
X125892857Y-108904819D02*
X125559524Y-109285771D01*
X125559524Y-109285771D02*
X125702381Y-109285771D01*
X125702381Y-109285771D02*
X125797619Y-109333390D01*
X125797619Y-109333390D02*
X125845238Y-109381009D01*
X125845238Y-109381009D02*
X125892857Y-109476247D01*
X125892857Y-109476247D02*
X125892857Y-109714342D01*
X125892857Y-109714342D02*
X125845238Y-109809580D01*
X125845238Y-109809580D02*
X125797619Y-109857200D01*
X125797619Y-109857200D02*
X125702381Y-109904819D01*
X125702381Y-109904819D02*
X125416667Y-109904819D01*
X125416667Y-109904819D02*
X125321429Y-109857200D01*
X125321429Y-109857200D02*
X125273810Y-109809580D01*
X33154819Y-104792856D02*
X32154819Y-104792856D01*
X32488152Y-104316666D02*
X33154819Y-104316666D01*
X32583390Y-104316666D02*
X32535771Y-104269047D01*
X32535771Y-104269047D02*
X32488152Y-104173809D01*
X32488152Y-104173809D02*
X32488152Y-104030952D01*
X32488152Y-104030952D02*
X32535771Y-103935714D01*
X32535771Y-103935714D02*
X32631009Y-103888095D01*
X32631009Y-103888095D02*
X33154819Y-103888095D01*
X32488152Y-103411904D02*
X33488152Y-103411904D01*
X32535771Y-103411904D02*
X32488152Y-103316666D01*
X32488152Y-103316666D02*
X32488152Y-103126190D01*
X32488152Y-103126190D02*
X32535771Y-103030952D01*
X32535771Y-103030952D02*
X32583390Y-102983333D01*
X32583390Y-102983333D02*
X32678628Y-102935714D01*
X32678628Y-102935714D02*
X32964342Y-102935714D01*
X32964342Y-102935714D02*
X33059580Y-102983333D01*
X33059580Y-102983333D02*
X33107200Y-103030952D01*
X33107200Y-103030952D02*
X33154819Y-103126190D01*
X33154819Y-103126190D02*
X33154819Y-103316666D01*
X33154819Y-103316666D02*
X33107200Y-103411904D01*
X32488152Y-102078571D02*
X33154819Y-102078571D01*
X32488152Y-102507142D02*
X33011961Y-102507142D01*
X33011961Y-102507142D02*
X33107200Y-102459523D01*
X33107200Y-102459523D02*
X33154819Y-102364285D01*
X33154819Y-102364285D02*
X33154819Y-102221428D01*
X33154819Y-102221428D02*
X33107200Y-102126190D01*
X33107200Y-102126190D02*
X33059580Y-102078571D01*
X32488152Y-101745237D02*
X32488152Y-101364285D01*
X32154819Y-101602380D02*
X33011961Y-101602380D01*
X33011961Y-101602380D02*
X33107200Y-101554761D01*
X33107200Y-101554761D02*
X33154819Y-101459523D01*
X33154819Y-101459523D02*
X33154819Y-101364285D01*
X148388095Y-58789819D02*
X148388095Y-59599342D01*
X148388095Y-59599342D02*
X148435714Y-59694580D01*
X148435714Y-59694580D02*
X148483333Y-59742200D01*
X148483333Y-59742200D02*
X148578571Y-59789819D01*
X148578571Y-59789819D02*
X148769047Y-59789819D01*
X148769047Y-59789819D02*
X148864285Y-59742200D01*
X148864285Y-59742200D02*
X148911904Y-59694580D01*
X148911904Y-59694580D02*
X148959523Y-59599342D01*
X148959523Y-59599342D02*
X148959523Y-58789819D01*
X149864285Y-58789819D02*
X149673809Y-58789819D01*
X149673809Y-58789819D02*
X149578571Y-58837438D01*
X149578571Y-58837438D02*
X149530952Y-58885057D01*
X149530952Y-58885057D02*
X149435714Y-59027914D01*
X149435714Y-59027914D02*
X149388095Y-59218390D01*
X149388095Y-59218390D02*
X149388095Y-59599342D01*
X149388095Y-59599342D02*
X149435714Y-59694580D01*
X149435714Y-59694580D02*
X149483333Y-59742200D01*
X149483333Y-59742200D02*
X149578571Y-59789819D01*
X149578571Y-59789819D02*
X149769047Y-59789819D01*
X149769047Y-59789819D02*
X149864285Y-59742200D01*
X149864285Y-59742200D02*
X149911904Y-59694580D01*
X149911904Y-59694580D02*
X149959523Y-59599342D01*
X149959523Y-59599342D02*
X149959523Y-59361247D01*
X149959523Y-59361247D02*
X149911904Y-59266009D01*
X149911904Y-59266009D02*
X149864285Y-59218390D01*
X149864285Y-59218390D02*
X149769047Y-59170771D01*
X149769047Y-59170771D02*
X149578571Y-59170771D01*
X149578571Y-59170771D02*
X149483333Y-59218390D01*
X149483333Y-59218390D02*
X149435714Y-59266009D01*
X149435714Y-59266009D02*
X149388095Y-59361247D01*
D12*
%TO.C,R1*%
X28977500Y-105842224D02*
X28977500Y-105332776D01*
X30022500Y-105842224D02*
X30022500Y-105332776D01*
%TO.C,Row8*%
X127650000Y-100250000D02*
X127650000Y-101500000D01*
X127940000Y-100540000D02*
X127940000Y-106510000D01*
X127940000Y-106510000D02*
X153060000Y-106510000D01*
X127950000Y-100550000D02*
X127950000Y-101300000D01*
X127950000Y-101300000D02*
X129750000Y-101300000D01*
X127950000Y-102800000D02*
X128700000Y-102800000D01*
X128700000Y-102800000D02*
X128700000Y-105750000D01*
X128700000Y-105750000D02*
X140500000Y-105750000D01*
X128900000Y-100250000D02*
X127650000Y-100250000D01*
X129750000Y-100550000D02*
X127950000Y-100550000D01*
X129750000Y-101300000D02*
X129750000Y-100550000D01*
X131250000Y-100550000D02*
X131250000Y-101300000D01*
X131250000Y-101300000D02*
X149750000Y-101300000D01*
X149750000Y-100550000D02*
X131250000Y-100550000D01*
X149750000Y-101300000D02*
X149750000Y-100550000D01*
X151250000Y-100550000D02*
X151250000Y-101300000D01*
X151250000Y-101300000D02*
X153050000Y-101300000D01*
X152300000Y-102800000D02*
X152300000Y-105750000D01*
X152300000Y-105750000D02*
X140500000Y-105750000D01*
X153050000Y-100550000D02*
X151250000Y-100550000D01*
X153050000Y-101300000D02*
X153050000Y-100550000D01*
X153050000Y-102800000D02*
X152300000Y-102800000D01*
X153060000Y-100540000D02*
X127940000Y-100540000D01*
X153060000Y-106510000D02*
X153060000Y-100540000D01*
%TO.C,Row9*%
X45150000Y-110250000D02*
X45150000Y-111500000D01*
X45440000Y-110540000D02*
X45440000Y-116510000D01*
X45440000Y-116510000D02*
X70560000Y-116510000D01*
X45450000Y-110550000D02*
X45450000Y-111300000D01*
X45450000Y-111300000D02*
X47250000Y-111300000D01*
X45450000Y-112800000D02*
X46200000Y-112800000D01*
X46200000Y-112800000D02*
X46200000Y-115750000D01*
X46200000Y-115750000D02*
X58000000Y-115750000D01*
X46400000Y-110250000D02*
X45150000Y-110250000D01*
X47250000Y-110550000D02*
X45450000Y-110550000D01*
X47250000Y-111300000D02*
X47250000Y-110550000D01*
X48750000Y-110550000D02*
X48750000Y-111300000D01*
X48750000Y-111300000D02*
X67250000Y-111300000D01*
X67250000Y-110550000D02*
X48750000Y-110550000D01*
X67250000Y-111300000D02*
X67250000Y-110550000D01*
X68750000Y-110550000D02*
X68750000Y-111300000D01*
X68750000Y-111300000D02*
X70550000Y-111300000D01*
X69800000Y-112800000D02*
X69800000Y-115750000D01*
X69800000Y-115750000D02*
X58000000Y-115750000D01*
X70550000Y-110550000D02*
X68750000Y-110550000D01*
X70550000Y-111300000D02*
X70550000Y-110550000D01*
X70550000Y-112800000D02*
X69800000Y-112800000D01*
X70560000Y-110540000D02*
X45440000Y-110540000D01*
X70560000Y-116510000D02*
X70560000Y-110540000D01*
%TO.C,LED2*%
X102650000Y-110250000D02*
X102650000Y-111500000D01*
X102940000Y-110540000D02*
X102940000Y-116510000D01*
X102940000Y-116510000D02*
X115560000Y-116510000D01*
X102950000Y-110550000D02*
X102950000Y-111300000D01*
X102950000Y-111300000D02*
X104750000Y-111300000D01*
X102950000Y-112800000D02*
X103700000Y-112800000D01*
X103700000Y-112800000D02*
X103700000Y-115750000D01*
X103700000Y-115750000D02*
X109250000Y-115750000D01*
X103900000Y-110250000D02*
X102650000Y-110250000D01*
X104750000Y-110550000D02*
X102950000Y-110550000D01*
X104750000Y-111300000D02*
X104750000Y-110550000D01*
X106250000Y-110550000D02*
X106250000Y-111300000D01*
X106250000Y-111300000D02*
X112250000Y-111300000D01*
X112250000Y-110550000D02*
X106250000Y-110550000D01*
X112250000Y-111300000D02*
X112250000Y-110550000D01*
X113750000Y-110550000D02*
X113750000Y-111300000D01*
X113750000Y-111300000D02*
X115550000Y-111300000D01*
X114800000Y-112800000D02*
X114800000Y-115750000D01*
X114800000Y-115750000D02*
X109250000Y-115750000D01*
X115550000Y-110550000D02*
X113750000Y-110550000D01*
X115550000Y-111300000D02*
X115550000Y-110550000D01*
X115550000Y-112800000D02*
X114800000Y-112800000D01*
X115560000Y-110540000D02*
X102940000Y-110540000D01*
X115560000Y-116510000D02*
X115560000Y-110540000D01*
%TO.C,U4*%
X105290000Y-60175000D02*
X105290000Y-60440000D01*
X105290000Y-75795000D02*
X105290000Y-75530000D01*
X109150000Y-60175000D02*
X105290000Y-60175000D01*
X109150000Y-60175000D02*
X113010000Y-60175000D01*
X109150000Y-75795000D02*
X105290000Y-75795000D01*
X109150000Y-75795000D02*
X113010000Y-75795000D01*
X113010000Y-60175000D02*
X113010000Y-60440000D01*
X113010000Y-75795000D02*
X113010000Y-75530000D01*
X104437500Y-60440000D02*
X104097500Y-59970000D01*
X104777500Y-59970000D01*
X104437500Y-60440000D01*
G36*
X104437500Y-60440000D02*
G01*
X104097500Y-59970000D01*
X104777500Y-59970000D01*
X104437500Y-60440000D01*
G37*
%TO.C,Row7*%
X100150000Y-100250000D02*
X100150000Y-101500000D01*
X100440000Y-100540000D02*
X100440000Y-106510000D01*
X100440000Y-106510000D02*
X125560000Y-106510000D01*
X100450000Y-100550000D02*
X100450000Y-101300000D01*
X100450000Y-101300000D02*
X102250000Y-101300000D01*
X100450000Y-102800000D02*
X101200000Y-102800000D01*
X101200000Y-102800000D02*
X101200000Y-105750000D01*
X101200000Y-105750000D02*
X113000000Y-105750000D01*
X101400000Y-100250000D02*
X100150000Y-100250000D01*
X102250000Y-100550000D02*
X100450000Y-100550000D01*
X102250000Y-101300000D02*
X102250000Y-100550000D01*
X103750000Y-100550000D02*
X103750000Y-101300000D01*
X103750000Y-101300000D02*
X122250000Y-101300000D01*
X122250000Y-100550000D02*
X103750000Y-100550000D01*
X122250000Y-101300000D02*
X122250000Y-100550000D01*
X123750000Y-100550000D02*
X123750000Y-101300000D01*
X123750000Y-101300000D02*
X125550000Y-101300000D01*
X124800000Y-102800000D02*
X124800000Y-105750000D01*
X124800000Y-105750000D02*
X113000000Y-105750000D01*
X125550000Y-100550000D02*
X123750000Y-100550000D01*
X125550000Y-101300000D02*
X125550000Y-100550000D01*
X125550000Y-102800000D02*
X124800000Y-102800000D01*
X125560000Y-100540000D02*
X100440000Y-100540000D01*
X125560000Y-106510000D02*
X125560000Y-100540000D01*
%TO.C,R2*%
X28977500Y-100657776D02*
X28977500Y-101167224D01*
X30022500Y-100657776D02*
X30022500Y-101167224D01*
%TO.C,C2*%
X69283767Y-55990000D02*
X68991233Y-55990000D01*
X69283767Y-57010000D02*
X68991233Y-57010000D01*
%TO.C,R7*%
X119477500Y-122832776D02*
X119477500Y-123342224D01*
X120522500Y-122832776D02*
X120522500Y-123342224D01*
%TO.C,U1*%
X45290000Y-60245000D02*
X45290000Y-60510000D01*
X45290000Y-75865000D02*
X45290000Y-75600000D01*
X49150000Y-60245000D02*
X45290000Y-60245000D01*
X49150000Y-60245000D02*
X53010000Y-60245000D01*
X49150000Y-75865000D02*
X45290000Y-75865000D01*
X49150000Y-75865000D02*
X53010000Y-75865000D01*
X53010000Y-60245000D02*
X53010000Y-60510000D01*
X53010000Y-75865000D02*
X53010000Y-75600000D01*
X44437500Y-60510000D02*
X44097500Y-60040000D01*
X44777500Y-60040000D01*
X44437500Y-60510000D01*
G36*
X44437500Y-60510000D02*
G01*
X44097500Y-60040000D01*
X44777500Y-60040000D01*
X44437500Y-60510000D01*
G37*
%TO.C,Row4*%
X127650000Y-90250000D02*
X127650000Y-91500000D01*
X127940000Y-90540000D02*
X127940000Y-96510000D01*
X127940000Y-96510000D02*
X153060000Y-96510000D01*
X127950000Y-90550000D02*
X127950000Y-91300000D01*
X127950000Y-91300000D02*
X129750000Y-91300000D01*
X127950000Y-92800000D02*
X128700000Y-92800000D01*
X128700000Y-92800000D02*
X128700000Y-95750000D01*
X128700000Y-95750000D02*
X140500000Y-95750000D01*
X128900000Y-90250000D02*
X127650000Y-90250000D01*
X129750000Y-90550000D02*
X127950000Y-90550000D01*
X129750000Y-91300000D02*
X129750000Y-90550000D01*
X131250000Y-90550000D02*
X131250000Y-91300000D01*
X131250000Y-91300000D02*
X149750000Y-91300000D01*
X149750000Y-90550000D02*
X131250000Y-90550000D01*
X149750000Y-91300000D02*
X149750000Y-90550000D01*
X151250000Y-90550000D02*
X151250000Y-91300000D01*
X151250000Y-91300000D02*
X153050000Y-91300000D01*
X152300000Y-92800000D02*
X152300000Y-95750000D01*
X152300000Y-95750000D02*
X140500000Y-95750000D01*
X153050000Y-90550000D02*
X151250000Y-90550000D01*
X153050000Y-91300000D02*
X153050000Y-90550000D01*
X153050000Y-92800000D02*
X152300000Y-92800000D01*
X153060000Y-90540000D02*
X127940000Y-90540000D01*
X153060000Y-96510000D02*
X153060000Y-90540000D01*
%TO.C,Row3*%
X100150000Y-90250000D02*
X100150000Y-91500000D01*
X100440000Y-90540000D02*
X100440000Y-96510000D01*
X100440000Y-96510000D02*
X125560000Y-96510000D01*
X100450000Y-90550000D02*
X100450000Y-91300000D01*
X100450000Y-91300000D02*
X102250000Y-91300000D01*
X100450000Y-92800000D02*
X101200000Y-92800000D01*
X101200000Y-92800000D02*
X101200000Y-95750000D01*
X101200000Y-95750000D02*
X113000000Y-95750000D01*
X101400000Y-90250000D02*
X100150000Y-90250000D01*
X102250000Y-90550000D02*
X100450000Y-90550000D01*
X102250000Y-91300000D02*
X102250000Y-90550000D01*
X103750000Y-90550000D02*
X103750000Y-91300000D01*
X103750000Y-91300000D02*
X122250000Y-91300000D01*
X122250000Y-90550000D02*
X103750000Y-90550000D01*
X122250000Y-91300000D02*
X122250000Y-90550000D01*
X123750000Y-90550000D02*
X123750000Y-91300000D01*
X123750000Y-91300000D02*
X125550000Y-91300000D01*
X124800000Y-92800000D02*
X124800000Y-95750000D01*
X124800000Y-95750000D02*
X113000000Y-95750000D01*
X125550000Y-90550000D02*
X123750000Y-90550000D01*
X125550000Y-91300000D02*
X125550000Y-90550000D01*
X125550000Y-92800000D02*
X124800000Y-92800000D01*
X125560000Y-90540000D02*
X100440000Y-90540000D01*
X125560000Y-96510000D02*
X125560000Y-90540000D01*
%TO.C,U5*%
X125290000Y-60175000D02*
X125290000Y-60440000D01*
X125290000Y-75795000D02*
X125290000Y-75530000D01*
X129150000Y-60175000D02*
X125290000Y-60175000D01*
X129150000Y-60175000D02*
X133010000Y-60175000D01*
X129150000Y-75795000D02*
X125290000Y-75795000D01*
X129150000Y-75795000D02*
X133010000Y-75795000D01*
X133010000Y-60175000D02*
X133010000Y-60440000D01*
X133010000Y-75795000D02*
X133010000Y-75530000D01*
X124437500Y-60440000D02*
X124097500Y-59970000D01*
X124777500Y-59970000D01*
X124437500Y-60440000D01*
G36*
X124437500Y-60440000D02*
G01*
X124097500Y-59970000D01*
X124777500Y-59970000D01*
X124437500Y-60440000D01*
G37*
%TO.C,WireTriggers*%
X72650000Y-110250000D02*
X72650000Y-111500000D01*
X72940000Y-110540000D02*
X72940000Y-116510000D01*
X72940000Y-116510000D02*
X85560000Y-116510000D01*
X72950000Y-110550000D02*
X72950000Y-111300000D01*
X72950000Y-111300000D02*
X74750000Y-111300000D01*
X72950000Y-112800000D02*
X73700000Y-112800000D01*
X73700000Y-112800000D02*
X73700000Y-115750000D01*
X73700000Y-115750000D02*
X79250000Y-115750000D01*
X73900000Y-110250000D02*
X72650000Y-110250000D01*
X74750000Y-110550000D02*
X72950000Y-110550000D01*
X74750000Y-111300000D02*
X74750000Y-110550000D01*
X76250000Y-110550000D02*
X76250000Y-111300000D01*
X76250000Y-111300000D02*
X82250000Y-111300000D01*
X82250000Y-110550000D02*
X76250000Y-110550000D01*
X82250000Y-111300000D02*
X82250000Y-110550000D01*
X83750000Y-110550000D02*
X83750000Y-111300000D01*
X83750000Y-111300000D02*
X85550000Y-111300000D01*
X84800000Y-112800000D02*
X84800000Y-115750000D01*
X84800000Y-115750000D02*
X79250000Y-115750000D01*
X85550000Y-110550000D02*
X83750000Y-110550000D01*
X85550000Y-111300000D02*
X85550000Y-110550000D01*
X85550000Y-112800000D02*
X84800000Y-112800000D01*
X85560000Y-110540000D02*
X72940000Y-110540000D01*
X85560000Y-116510000D02*
X85560000Y-110540000D01*
%TO.C,U2*%
X65290000Y-60175000D02*
X65290000Y-60440000D01*
X65290000Y-75795000D02*
X65290000Y-75530000D01*
X69150000Y-60175000D02*
X65290000Y-60175000D01*
X69150000Y-60175000D02*
X73010000Y-60175000D01*
X69150000Y-75795000D02*
X65290000Y-75795000D01*
X69150000Y-75795000D02*
X73010000Y-75795000D01*
X73010000Y-60175000D02*
X73010000Y-60440000D01*
X73010000Y-75795000D02*
X73010000Y-75530000D01*
X64437500Y-60440000D02*
X64097500Y-59970000D01*
X64777500Y-59970000D01*
X64437500Y-60440000D01*
G36*
X64437500Y-60440000D02*
G01*
X64097500Y-59970000D01*
X64777500Y-59970000D01*
X64437500Y-60440000D01*
G37*
%TO.C,LED1*%
X87650000Y-110250000D02*
X87650000Y-111500000D01*
X87940000Y-110540000D02*
X87940000Y-116510000D01*
X87940000Y-116510000D02*
X100560000Y-116510000D01*
X87950000Y-110550000D02*
X87950000Y-111300000D01*
X87950000Y-111300000D02*
X89750000Y-111300000D01*
X87950000Y-112800000D02*
X88700000Y-112800000D01*
X88700000Y-112800000D02*
X88700000Y-115750000D01*
X88700000Y-115750000D02*
X94250000Y-115750000D01*
X88900000Y-110250000D02*
X87650000Y-110250000D01*
X89750000Y-110550000D02*
X87950000Y-110550000D01*
X89750000Y-111300000D02*
X89750000Y-110550000D01*
X91250000Y-110550000D02*
X91250000Y-111300000D01*
X91250000Y-111300000D02*
X97250000Y-111300000D01*
X97250000Y-110550000D02*
X91250000Y-110550000D01*
X97250000Y-111300000D02*
X97250000Y-110550000D01*
X98750000Y-110550000D02*
X98750000Y-111300000D01*
X98750000Y-111300000D02*
X100550000Y-111300000D01*
X99800000Y-112800000D02*
X99800000Y-115750000D01*
X99800000Y-115750000D02*
X94250000Y-115750000D01*
X100550000Y-110550000D02*
X98750000Y-110550000D01*
X100550000Y-111300000D02*
X100550000Y-110550000D01*
X100550000Y-112800000D02*
X99800000Y-112800000D01*
X100560000Y-110540000D02*
X87940000Y-110540000D01*
X100560000Y-116510000D02*
X100560000Y-110540000D01*
%TO.C,C1*%
X49283767Y-55990000D02*
X48991233Y-55990000D01*
X49283767Y-57010000D02*
X48991233Y-57010000D01*
%TO.C,Row1*%
X45150000Y-90250000D02*
X45150000Y-91500000D01*
X45440000Y-90540000D02*
X45440000Y-96510000D01*
X45440000Y-96510000D02*
X70560000Y-96510000D01*
X45450000Y-90550000D02*
X45450000Y-91300000D01*
X45450000Y-91300000D02*
X47250000Y-91300000D01*
X45450000Y-92800000D02*
X46200000Y-92800000D01*
X46200000Y-92800000D02*
X46200000Y-95750000D01*
X46200000Y-95750000D02*
X58000000Y-95750000D01*
X46400000Y-90250000D02*
X45150000Y-90250000D01*
X47250000Y-90550000D02*
X45450000Y-90550000D01*
X47250000Y-91300000D02*
X47250000Y-90550000D01*
X48750000Y-90550000D02*
X48750000Y-91300000D01*
X48750000Y-91300000D02*
X67250000Y-91300000D01*
X67250000Y-90550000D02*
X48750000Y-90550000D01*
X67250000Y-91300000D02*
X67250000Y-90550000D01*
X68750000Y-90550000D02*
X68750000Y-91300000D01*
X68750000Y-91300000D02*
X70550000Y-91300000D01*
X69800000Y-92800000D02*
X69800000Y-95750000D01*
X69800000Y-95750000D02*
X58000000Y-95750000D01*
X70550000Y-90550000D02*
X68750000Y-90550000D01*
X70550000Y-91300000D02*
X70550000Y-90550000D01*
X70550000Y-92800000D02*
X69800000Y-92800000D01*
X70560000Y-90540000D02*
X45440000Y-90540000D01*
X70560000Y-96510000D02*
X70560000Y-90540000D01*
%TO.C,R6*%
X109477500Y-123342224D02*
X109477500Y-122832776D01*
X110522500Y-123342224D02*
X110522500Y-122832776D01*
%TO.C,C6*%
X149283767Y-55990000D02*
X148991233Y-55990000D01*
X149283767Y-57010000D02*
X148991233Y-57010000D01*
%TO.C,C4*%
X109283767Y-55990000D02*
X108991233Y-55990000D01*
X109283767Y-57010000D02*
X108991233Y-57010000D01*
%TO.C,C5*%
X129283767Y-55990000D02*
X128991233Y-55990000D01*
X129283767Y-57010000D02*
X128991233Y-57010000D01*
%TO.C,R5*%
X104477500Y-122832776D02*
X104477500Y-123342224D01*
X105522500Y-122832776D02*
X105522500Y-123342224D01*
%TO.C,Row6*%
X72650000Y-100250000D02*
X72650000Y-101500000D01*
X72940000Y-100540000D02*
X72940000Y-106510000D01*
X72940000Y-106510000D02*
X98060000Y-106510000D01*
X72950000Y-100550000D02*
X72950000Y-101300000D01*
X72950000Y-101300000D02*
X74750000Y-101300000D01*
X72950000Y-102800000D02*
X73700000Y-102800000D01*
X73700000Y-102800000D02*
X73700000Y-105750000D01*
X73700000Y-105750000D02*
X85500000Y-105750000D01*
X73900000Y-100250000D02*
X72650000Y-100250000D01*
X74750000Y-100550000D02*
X72950000Y-100550000D01*
X74750000Y-101300000D02*
X74750000Y-100550000D01*
X76250000Y-100550000D02*
X76250000Y-101300000D01*
X76250000Y-101300000D02*
X94750000Y-101300000D01*
X94750000Y-100550000D02*
X76250000Y-100550000D01*
X94750000Y-101300000D02*
X94750000Y-100550000D01*
X96250000Y-100550000D02*
X96250000Y-101300000D01*
X96250000Y-101300000D02*
X98050000Y-101300000D01*
X97300000Y-102800000D02*
X97300000Y-105750000D01*
X97300000Y-105750000D02*
X85500000Y-105750000D01*
X98050000Y-100550000D02*
X96250000Y-100550000D01*
X98050000Y-101300000D02*
X98050000Y-100550000D01*
X98050000Y-102800000D02*
X97300000Y-102800000D01*
X98060000Y-100540000D02*
X72940000Y-100540000D01*
X98060000Y-106510000D02*
X98060000Y-100540000D01*
%TO.C,R4*%
X94477500Y-123342224D02*
X94477500Y-122832776D01*
X95522500Y-123342224D02*
X95522500Y-122832776D01*
%TO.C,R3*%
X89477500Y-122832776D02*
X89477500Y-123342224D01*
X90522500Y-122832776D02*
X90522500Y-123342224D01*
%TO.C,R8*%
X124477500Y-123342224D02*
X124477500Y-122832776D01*
X125522500Y-123342224D02*
X125522500Y-122832776D01*
%TO.C,C3*%
X89283767Y-55990000D02*
X88991233Y-55990000D01*
X89283767Y-57010000D02*
X88991233Y-57010000D01*
%TO.C,U3*%
X85290000Y-60175000D02*
X85290000Y-60440000D01*
X85290000Y-75795000D02*
X85290000Y-75530000D01*
X89150000Y-60175000D02*
X85290000Y-60175000D01*
X89150000Y-60175000D02*
X93010000Y-60175000D01*
X89150000Y-75795000D02*
X85290000Y-75795000D01*
X89150000Y-75795000D02*
X93010000Y-75795000D01*
X93010000Y-60175000D02*
X93010000Y-60440000D01*
X93010000Y-75795000D02*
X93010000Y-75530000D01*
X84437500Y-60440000D02*
X84097500Y-59970000D01*
X84777500Y-59970000D01*
X84437500Y-60440000D01*
G36*
X84437500Y-60440000D02*
G01*
X84097500Y-59970000D01*
X84777500Y-59970000D01*
X84437500Y-60440000D01*
G37*
%TO.C,Row2*%
X72650000Y-90250000D02*
X72650000Y-91500000D01*
X72940000Y-90540000D02*
X72940000Y-96510000D01*
X72940000Y-96510000D02*
X98060000Y-96510000D01*
X72950000Y-90550000D02*
X72950000Y-91300000D01*
X72950000Y-91300000D02*
X74750000Y-91300000D01*
X72950000Y-92800000D02*
X73700000Y-92800000D01*
X73700000Y-92800000D02*
X73700000Y-95750000D01*
X73700000Y-95750000D02*
X85500000Y-95750000D01*
X73900000Y-90250000D02*
X72650000Y-90250000D01*
X74750000Y-90550000D02*
X72950000Y-90550000D01*
X74750000Y-91300000D02*
X74750000Y-90550000D01*
X76250000Y-90550000D02*
X76250000Y-91300000D01*
X76250000Y-91300000D02*
X94750000Y-91300000D01*
X94750000Y-90550000D02*
X76250000Y-90550000D01*
X94750000Y-91300000D02*
X94750000Y-90550000D01*
X96250000Y-90550000D02*
X96250000Y-91300000D01*
X96250000Y-91300000D02*
X98050000Y-91300000D01*
X97300000Y-92800000D02*
X97300000Y-95750000D01*
X97300000Y-95750000D02*
X85500000Y-95750000D01*
X98050000Y-90550000D02*
X96250000Y-90550000D01*
X98050000Y-91300000D02*
X98050000Y-90550000D01*
X98050000Y-92800000D02*
X97300000Y-92800000D01*
X98060000Y-90540000D02*
X72940000Y-90540000D01*
X98060000Y-96510000D02*
X98060000Y-90540000D01*
%TO.C,Row5*%
X45150000Y-100250000D02*
X45150000Y-101500000D01*
X45440000Y-100540000D02*
X45440000Y-106510000D01*
X45440000Y-106510000D02*
X70560000Y-106510000D01*
X45450000Y-100550000D02*
X45450000Y-101300000D01*
X45450000Y-101300000D02*
X47250000Y-101300000D01*
X45450000Y-102800000D02*
X46200000Y-102800000D01*
X46200000Y-102800000D02*
X46200000Y-105750000D01*
X46200000Y-105750000D02*
X58000000Y-105750000D01*
X46400000Y-100250000D02*
X45150000Y-100250000D01*
X47250000Y-100550000D02*
X45450000Y-100550000D01*
X47250000Y-101300000D02*
X47250000Y-100550000D01*
X48750000Y-100550000D02*
X48750000Y-101300000D01*
X48750000Y-101300000D02*
X67250000Y-101300000D01*
X67250000Y-100550000D02*
X48750000Y-100550000D01*
X67250000Y-101300000D02*
X67250000Y-100550000D01*
X68750000Y-100550000D02*
X68750000Y-101300000D01*
X68750000Y-101300000D02*
X70550000Y-101300000D01*
X69800000Y-102800000D02*
X69800000Y-105750000D01*
X69800000Y-105750000D02*
X58000000Y-105750000D01*
X70550000Y-100550000D02*
X68750000Y-100550000D01*
X70550000Y-101300000D02*
X70550000Y-100550000D01*
X70550000Y-102800000D02*
X69800000Y-102800000D01*
X70560000Y-100540000D02*
X45440000Y-100540000D01*
X70560000Y-106510000D02*
X70560000Y-100540000D01*
%TO.C,LED3*%
X117650000Y-110250000D02*
X117650000Y-111500000D01*
X117940000Y-110540000D02*
X117940000Y-116510000D01*
X117940000Y-116510000D02*
X130560000Y-116510000D01*
X117950000Y-110550000D02*
X117950000Y-111300000D01*
X117950000Y-111300000D02*
X119750000Y-111300000D01*
X117950000Y-112800000D02*
X118700000Y-112800000D01*
X118700000Y-112800000D02*
X118700000Y-115750000D01*
X118700000Y-115750000D02*
X124250000Y-115750000D01*
X118900000Y-110250000D02*
X117650000Y-110250000D01*
X119750000Y-110550000D02*
X117950000Y-110550000D01*
X119750000Y-111300000D02*
X119750000Y-110550000D01*
X121250000Y-110550000D02*
X121250000Y-111300000D01*
X121250000Y-111300000D02*
X127250000Y-111300000D01*
X127250000Y-110550000D02*
X121250000Y-110550000D01*
X127250000Y-111300000D02*
X127250000Y-110550000D01*
X128750000Y-110550000D02*
X128750000Y-111300000D01*
X128750000Y-111300000D02*
X130550000Y-111300000D01*
X129800000Y-112800000D02*
X129800000Y-115750000D01*
X129800000Y-115750000D02*
X124250000Y-115750000D01*
X130550000Y-110550000D02*
X128750000Y-110550000D01*
X130550000Y-111300000D02*
X130550000Y-110550000D01*
X130550000Y-112800000D02*
X129800000Y-112800000D01*
X130560000Y-110540000D02*
X117940000Y-110540000D01*
X130560000Y-116510000D02*
X130560000Y-110540000D01*
%TO.C,Input*%
X33990000Y-96940000D02*
X33990000Y-109560000D01*
X33990000Y-109560000D02*
X39960000Y-109560000D01*
X34750000Y-97700000D02*
X34750000Y-103250000D01*
X34750000Y-108800000D02*
X34750000Y-103250000D01*
X37700000Y-96950000D02*
X37700000Y-97700000D01*
X37700000Y-97700000D02*
X34750000Y-97700000D01*
X37700000Y-108800000D02*
X34750000Y-108800000D01*
X37700000Y-109550000D02*
X37700000Y-108800000D01*
X39200000Y-96950000D02*
X39200000Y-98750000D01*
X39200000Y-98750000D02*
X39950000Y-98750000D01*
X39200000Y-100250000D02*
X39200000Y-106250000D01*
X39200000Y-106250000D02*
X39950000Y-106250000D01*
X39200000Y-107750000D02*
X39200000Y-109550000D01*
X39200000Y-109550000D02*
X39950000Y-109550000D01*
X39950000Y-96950000D02*
X39200000Y-96950000D01*
X39950000Y-98750000D02*
X39950000Y-96950000D01*
X39950000Y-100250000D02*
X39200000Y-100250000D01*
X39950000Y-106250000D02*
X39950000Y-100250000D01*
X39950000Y-107750000D02*
X39200000Y-107750000D01*
X39950000Y-109550000D02*
X39950000Y-107750000D01*
X39960000Y-96940000D02*
X33990000Y-96940000D01*
X39960000Y-109560000D02*
X39960000Y-96940000D01*
X40250000Y-96650000D02*
X39000000Y-96650000D01*
X40250000Y-97900000D02*
X40250000Y-96650000D01*
%TO.C,U6*%
X145290000Y-60175000D02*
X145290000Y-60440000D01*
X145290000Y-75795000D02*
X145290000Y-75530000D01*
X149150000Y-60175000D02*
X145290000Y-60175000D01*
X149150000Y-60175000D02*
X153010000Y-60175000D01*
X149150000Y-75795000D02*
X145290000Y-75795000D01*
X149150000Y-75795000D02*
X153010000Y-75795000D01*
X153010000Y-60175000D02*
X153010000Y-60440000D01*
X153010000Y-75795000D02*
X153010000Y-75530000D01*
X144437500Y-60440000D02*
X144097500Y-59970000D01*
X144777500Y-59970000D01*
X144437500Y-60440000D01*
G36*
X144437500Y-60440000D02*
G01*
X144097500Y-59970000D01*
X144777500Y-59970000D01*
X144437500Y-60440000D01*
G37*
%TD*%
%LPC*%
D13*
%TO.C,R1*%
X29500000Y-106500000D03*
X29500000Y-104675000D03*
%TD*%
D14*
%TO.C,H2*%
X30035534Y-121514466D03*
%TD*%
D15*
%TO.C,Row8*%
X130500000Y-103000000D03*
D16*
X133000000Y-103000000D03*
X135500000Y-103000000D03*
X138000000Y-103000000D03*
X140500000Y-103000000D03*
X143000000Y-103000000D03*
X145500000Y-103000000D03*
X148000000Y-103000000D03*
X150500000Y-103000000D03*
%TD*%
D15*
%TO.C,Row9*%
X48000000Y-113000000D03*
D16*
X50500000Y-113000000D03*
X53000000Y-113000000D03*
X55500000Y-113000000D03*
X58000000Y-113000000D03*
X60500000Y-113000000D03*
X63000000Y-113000000D03*
X65500000Y-113000000D03*
X68000000Y-113000000D03*
%TD*%
D15*
%TO.C,LED2*%
X105500000Y-113000000D03*
D16*
X108000000Y-113000000D03*
X110500000Y-113000000D03*
X113000000Y-113000000D03*
%TD*%
D17*
%TO.C,U4*%
X104500000Y-61000000D03*
X104500000Y-62270000D03*
X104500000Y-63540000D03*
X104500000Y-64810000D03*
X104500000Y-66080000D03*
X104500000Y-67350000D03*
X104500000Y-68620000D03*
X104500000Y-69890000D03*
X104500000Y-71160000D03*
X104500000Y-72430000D03*
X104500000Y-73700000D03*
X104500000Y-74970000D03*
X113800000Y-74970000D03*
X113800000Y-73700000D03*
X113800000Y-72430000D03*
X113800000Y-71160000D03*
X113800000Y-69890000D03*
X113800000Y-68620000D03*
X113800000Y-67350000D03*
X113800000Y-66080000D03*
X113800000Y-64810000D03*
X113800000Y-63540000D03*
X113800000Y-62270000D03*
X113800000Y-61000000D03*
%TD*%
D15*
%TO.C,Row7*%
X103000000Y-103000000D03*
D16*
X105500000Y-103000000D03*
X108000000Y-103000000D03*
X110500000Y-103000000D03*
X113000000Y-103000000D03*
X115500000Y-103000000D03*
X118000000Y-103000000D03*
X120500000Y-103000000D03*
X123000000Y-103000000D03*
%TD*%
D18*
%TO.C,R2*%
X29500000Y-100000000D03*
X29500000Y-101825000D03*
%TD*%
D19*
%TO.C,C2*%
X70000000Y-56500000D03*
X68275000Y-56500000D03*
%TD*%
D18*
%TO.C,R7*%
X120000000Y-122175000D03*
X120000000Y-124000000D03*
%TD*%
D17*
%TO.C,U1*%
X44500000Y-61070000D03*
X44500000Y-62340000D03*
X44500000Y-63610000D03*
X44500000Y-64880000D03*
X44500000Y-66150000D03*
X44500000Y-67420000D03*
X44500000Y-68690000D03*
X44500000Y-69960000D03*
X44500000Y-71230000D03*
X44500000Y-72500000D03*
X44500000Y-73770000D03*
X44500000Y-75040000D03*
X53800000Y-75040000D03*
X53800000Y-73770000D03*
X53800000Y-72500000D03*
X53800000Y-71230000D03*
X53800000Y-69960000D03*
X53800000Y-68690000D03*
X53800000Y-67420000D03*
X53800000Y-66150000D03*
X53800000Y-64880000D03*
X53800000Y-63610000D03*
X53800000Y-62340000D03*
X53800000Y-61070000D03*
%TD*%
D15*
%TO.C,Row4*%
X130500000Y-93000000D03*
D16*
X133000000Y-93000000D03*
X135500000Y-93000000D03*
X138000000Y-93000000D03*
X140500000Y-93000000D03*
X143000000Y-93000000D03*
X145500000Y-93000000D03*
X148000000Y-93000000D03*
X150500000Y-93000000D03*
%TD*%
D14*
%TO.C,H1*%
X155014466Y-121514466D03*
%TD*%
D15*
%TO.C,Row3*%
X103000000Y-93000000D03*
D16*
X105500000Y-93000000D03*
X108000000Y-93000000D03*
X110500000Y-93000000D03*
X113000000Y-93000000D03*
X115500000Y-93000000D03*
X118000000Y-93000000D03*
X120500000Y-93000000D03*
X123000000Y-93000000D03*
%TD*%
D17*
%TO.C,U5*%
X124500000Y-61000000D03*
X124500000Y-62270000D03*
X124500000Y-63540000D03*
X124500000Y-64810000D03*
X124500000Y-66080000D03*
X124500000Y-67350000D03*
X124500000Y-68620000D03*
X124500000Y-69890000D03*
X124500000Y-71160000D03*
X124500000Y-72430000D03*
X124500000Y-73700000D03*
X124500000Y-74970000D03*
X133800000Y-74970000D03*
X133800000Y-73700000D03*
X133800000Y-72430000D03*
X133800000Y-71160000D03*
X133800000Y-69890000D03*
X133800000Y-68620000D03*
X133800000Y-67350000D03*
X133800000Y-66080000D03*
X133800000Y-64810000D03*
X133800000Y-63540000D03*
X133800000Y-62270000D03*
X133800000Y-61000000D03*
%TD*%
D15*
%TO.C,WireTriggers*%
X75500000Y-113000000D03*
D16*
X78000000Y-113000000D03*
X80500000Y-113000000D03*
X83000000Y-113000000D03*
%TD*%
D17*
%TO.C,U2*%
X64500000Y-61000000D03*
X64500000Y-62270000D03*
X64500000Y-63540000D03*
X64500000Y-64810000D03*
X64500000Y-66080000D03*
X64500000Y-67350000D03*
X64500000Y-68620000D03*
X64500000Y-69890000D03*
X64500000Y-71160000D03*
X64500000Y-72430000D03*
X64500000Y-73700000D03*
X64500000Y-74970000D03*
X73800000Y-74970000D03*
X73800000Y-73700000D03*
X73800000Y-72430000D03*
X73800000Y-71160000D03*
X73800000Y-69890000D03*
X73800000Y-68620000D03*
X73800000Y-67350000D03*
X73800000Y-66080000D03*
X73800000Y-64810000D03*
X73800000Y-63540000D03*
X73800000Y-62270000D03*
X73800000Y-61000000D03*
%TD*%
D15*
%TO.C,LED1*%
X90500000Y-113000000D03*
D16*
X93000000Y-113000000D03*
X95500000Y-113000000D03*
X98000000Y-113000000D03*
%TD*%
D19*
%TO.C,C1*%
X50000000Y-56500000D03*
X48275000Y-56500000D03*
%TD*%
D15*
%TO.C,Row1*%
X48000000Y-93000000D03*
D16*
X50500000Y-93000000D03*
X53000000Y-93000000D03*
X55500000Y-93000000D03*
X58000000Y-93000000D03*
X60500000Y-93000000D03*
X63000000Y-93000000D03*
X65500000Y-93000000D03*
X68000000Y-93000000D03*
%TD*%
D13*
%TO.C,R6*%
X110000000Y-124000000D03*
X110000000Y-122175000D03*
%TD*%
D19*
%TO.C,C6*%
X150000000Y-56500000D03*
X148275000Y-56500000D03*
%TD*%
%TO.C,C4*%
X110000000Y-56500000D03*
X108275000Y-56500000D03*
%TD*%
%TO.C,C5*%
X130000000Y-56500000D03*
X128275000Y-56500000D03*
%TD*%
D18*
%TO.C,R5*%
X105000000Y-122175000D03*
X105000000Y-124000000D03*
%TD*%
D15*
%TO.C,Row6*%
X75500000Y-103000000D03*
D16*
X78000000Y-103000000D03*
X80500000Y-103000000D03*
X83000000Y-103000000D03*
X85500000Y-103000000D03*
X88000000Y-103000000D03*
X90500000Y-103000000D03*
X93000000Y-103000000D03*
X95500000Y-103000000D03*
%TD*%
D13*
%TO.C,R4*%
X95000000Y-124000000D03*
X95000000Y-122175000D03*
%TD*%
D18*
%TO.C,R3*%
X90000000Y-122175000D03*
X90000000Y-124000000D03*
%TD*%
D13*
%TO.C,R8*%
X125000000Y-124000000D03*
X125000000Y-122175000D03*
%TD*%
D19*
%TO.C,C3*%
X90000000Y-56500000D03*
X88275000Y-56500000D03*
%TD*%
D17*
%TO.C,U3*%
X84500000Y-61000000D03*
X84500000Y-62270000D03*
X84500000Y-63540000D03*
X84500000Y-64810000D03*
X84500000Y-66080000D03*
X84500000Y-67350000D03*
X84500000Y-68620000D03*
X84500000Y-69890000D03*
X84500000Y-71160000D03*
X84500000Y-72430000D03*
X84500000Y-73700000D03*
X84500000Y-74970000D03*
X93800000Y-74970000D03*
X93800000Y-73700000D03*
X93800000Y-72430000D03*
X93800000Y-71160000D03*
X93800000Y-69890000D03*
X93800000Y-68620000D03*
X93800000Y-67350000D03*
X93800000Y-66080000D03*
X93800000Y-64810000D03*
X93800000Y-63540000D03*
X93800000Y-62270000D03*
X93800000Y-61000000D03*
%TD*%
D14*
%TO.C,H3*%
X30000000Y-57950000D03*
%TD*%
D15*
%TO.C,Row2*%
X75500000Y-93000000D03*
D16*
X78000000Y-93000000D03*
X80500000Y-93000000D03*
X83000000Y-93000000D03*
X85500000Y-93000000D03*
X88000000Y-93000000D03*
X90500000Y-93000000D03*
X93000000Y-93000000D03*
X95500000Y-93000000D03*
%TD*%
D15*
%TO.C,Row5*%
X48000000Y-103000000D03*
D16*
X50500000Y-103000000D03*
X53000000Y-103000000D03*
X55500000Y-103000000D03*
X58000000Y-103000000D03*
X60500000Y-103000000D03*
X63000000Y-103000000D03*
X65500000Y-103000000D03*
X68000000Y-103000000D03*
%TD*%
D15*
%TO.C,LED3*%
X120500000Y-113000000D03*
D16*
X123000000Y-113000000D03*
X125500000Y-113000000D03*
X128000000Y-113000000D03*
%TD*%
D20*
%TO.C,Input*%
X37500000Y-99500000D03*
D21*
X37500000Y-102000000D03*
X37500000Y-104500000D03*
X37500000Y-107000000D03*
%TD*%
D17*
%TO.C,U6*%
X144500000Y-61000000D03*
X144500000Y-62270000D03*
X144500000Y-63540000D03*
X144500000Y-64810000D03*
X144500000Y-66080000D03*
X144500000Y-67350000D03*
X144500000Y-68620000D03*
X144500000Y-69890000D03*
X144500000Y-71160000D03*
X144500000Y-72430000D03*
X144500000Y-73700000D03*
X144500000Y-74970000D03*
X153800000Y-74970000D03*
X153800000Y-73700000D03*
X153800000Y-72430000D03*
X153800000Y-71160000D03*
X153800000Y-69890000D03*
X153800000Y-68620000D03*
X153800000Y-67350000D03*
X153800000Y-66080000D03*
X153800000Y-64810000D03*
X153800000Y-63540000D03*
X153800000Y-62270000D03*
X153800000Y-61000000D03*
%TD*%
%LPD*%
M02*
