%TF.GenerationSoftware,KiCad,Pcbnew,8.0.6*%
%TF.CreationDate,2024-12-01T20:19:37+01:00*%
%TF.ProjectId,puzzle1,70757a7a-6c65-4312-9e6b-696361645f70,rev?*%
%TF.SameCoordinates,Original*%
%TF.FileFunction,Soldermask,Bot*%
%TF.FilePolarity,Negative*%
%FSLAX46Y46*%
G04 Gerber Fmt 4.6, Leading zero omitted, Abs format (unit mm)*
G04 Created by KiCad (PCBNEW 8.0.6) date 2024-12-01 20:19:37*
%MOMM*%
%LPD*%
G01*
G04 APERTURE LIST*
G04 Aperture macros list*
%AMRoundRect*
0 Rectangle with rounded corners*
0 $1 Rounding radius*
0 $2 $3 $4 $5 $6 $7 $8 $9 X,Y pos of 4 corners*
0 Add a 4 corners polygon primitive as box body*
4,1,4,$2,$3,$4,$5,$6,$7,$8,$9,$2,$3,0*
0 Add four circle primitives for the rounded corners*
1,1,$1+$1,$2,$3*
1,1,$1+$1,$4,$5*
1,1,$1+$1,$6,$7*
1,1,$1+$1,$8,$9*
0 Add four rect primitives between the rounded corners*
20,1,$1+$1,$2,$3,$4,$5,0*
20,1,$1+$1,$4,$5,$6,$7,0*
20,1,$1+$1,$6,$7,$8,$9,0*
20,1,$1+$1,$8,$9,$2,$3,0*%
G04 Aperture macros list end*
%ADD10C,5.600000*%
%ADD11RoundRect,0.250000X-0.600000X-0.725000X0.600000X-0.725000X0.600000X0.725000X-0.600000X0.725000X0*%
%ADD12O,1.700000X1.950000*%
%ADD13RoundRect,0.250000X-0.725000X0.600000X-0.725000X-0.600000X0.725000X-0.600000X0.725000X0.600000X0*%
%ADD14O,1.950000X1.700000*%
G04 APERTURE END LIST*
D10*
%TO.C,H2*%
X30035534Y-121514466D03*
%TD*%
D11*
%TO.C,Row8*%
X130500000Y-103000000D03*
D12*
X133000000Y-103000000D03*
X135500000Y-103000000D03*
X138000000Y-103000000D03*
X140500000Y-103000000D03*
X143000000Y-103000000D03*
X145500000Y-103000000D03*
X148000000Y-103000000D03*
X150500000Y-103000000D03*
%TD*%
D11*
%TO.C,Row9*%
X48000000Y-113000000D03*
D12*
X50500000Y-113000000D03*
X53000000Y-113000000D03*
X55500000Y-113000000D03*
X58000000Y-113000000D03*
X60500000Y-113000000D03*
X63000000Y-113000000D03*
X65500000Y-113000000D03*
X68000000Y-113000000D03*
%TD*%
D11*
%TO.C,LED2*%
X105500000Y-113000000D03*
D12*
X108000000Y-113000000D03*
X110500000Y-113000000D03*
X113000000Y-113000000D03*
%TD*%
D11*
%TO.C,Row7*%
X103000000Y-103000000D03*
D12*
X105500000Y-103000000D03*
X108000000Y-103000000D03*
X110500000Y-103000000D03*
X113000000Y-103000000D03*
X115500000Y-103000000D03*
X118000000Y-103000000D03*
X120500000Y-103000000D03*
X123000000Y-103000000D03*
%TD*%
D11*
%TO.C,Row4*%
X130500000Y-93000000D03*
D12*
X133000000Y-93000000D03*
X135500000Y-93000000D03*
X138000000Y-93000000D03*
X140500000Y-93000000D03*
X143000000Y-93000000D03*
X145500000Y-93000000D03*
X148000000Y-93000000D03*
X150500000Y-93000000D03*
%TD*%
D10*
%TO.C,H1*%
X155014466Y-121514466D03*
%TD*%
D11*
%TO.C,Row3*%
X103000000Y-93000000D03*
D12*
X105500000Y-93000000D03*
X108000000Y-93000000D03*
X110500000Y-93000000D03*
X113000000Y-93000000D03*
X115500000Y-93000000D03*
X118000000Y-93000000D03*
X120500000Y-93000000D03*
X123000000Y-93000000D03*
%TD*%
D11*
%TO.C,WireTriggers*%
X75500000Y-113000000D03*
D12*
X78000000Y-113000000D03*
X80500000Y-113000000D03*
X83000000Y-113000000D03*
%TD*%
D11*
%TO.C,LED1*%
X90500000Y-113000000D03*
D12*
X93000000Y-113000000D03*
X95500000Y-113000000D03*
X98000000Y-113000000D03*
%TD*%
D11*
%TO.C,Row1*%
X48000000Y-93000000D03*
D12*
X50500000Y-93000000D03*
X53000000Y-93000000D03*
X55500000Y-93000000D03*
X58000000Y-93000000D03*
X60500000Y-93000000D03*
X63000000Y-93000000D03*
X65500000Y-93000000D03*
X68000000Y-93000000D03*
%TD*%
D11*
%TO.C,Row6*%
X75500000Y-103000000D03*
D12*
X78000000Y-103000000D03*
X80500000Y-103000000D03*
X83000000Y-103000000D03*
X85500000Y-103000000D03*
X88000000Y-103000000D03*
X90500000Y-103000000D03*
X93000000Y-103000000D03*
X95500000Y-103000000D03*
%TD*%
D10*
%TO.C,H3*%
X30000000Y-57950000D03*
%TD*%
D11*
%TO.C,Row2*%
X75500000Y-93000000D03*
D12*
X78000000Y-93000000D03*
X80500000Y-93000000D03*
X83000000Y-93000000D03*
X85500000Y-93000000D03*
X88000000Y-93000000D03*
X90500000Y-93000000D03*
X93000000Y-93000000D03*
X95500000Y-93000000D03*
%TD*%
D11*
%TO.C,Row5*%
X48000000Y-103000000D03*
D12*
X50500000Y-103000000D03*
X53000000Y-103000000D03*
X55500000Y-103000000D03*
X58000000Y-103000000D03*
X60500000Y-103000000D03*
X63000000Y-103000000D03*
X65500000Y-103000000D03*
X68000000Y-103000000D03*
%TD*%
D11*
%TO.C,LED3*%
X120500000Y-113000000D03*
D12*
X123000000Y-113000000D03*
X125500000Y-113000000D03*
X128000000Y-113000000D03*
%TD*%
D13*
%TO.C,Input*%
X37500000Y-99500000D03*
D14*
X37500000Y-102000000D03*
X37500000Y-104500000D03*
X37500000Y-107000000D03*
%TD*%
M02*
